<?xml version="1.0" encoding="utf-8" ?>
<svg baseProfile="full" height="512" version="1.1" width="992" xmlns="http://www.w3.org/2000/svg" xmlns:ev="http://www.w3.org/2001/xml-events" xmlns:xlink="http://www.w3.org/1999/xlink"><defs><marker id="arrow" markerHeight="3.5" markerWidth="5" orient="auto" refX="5.0" refY="1.7"><polygon points="0,0 5,1.75 0,3.5" /></marker></defs><g style="fill:white;"><g transform="matrix(1.0, 0.0, 0.0, 1.0, 496.3220743773457, 256.0)"><g transform="matrix(4.15915257266332, 0.0, 0.0, 4.15915257266332, 0.0, 0.0)"><g><g transform="matrix(1.0, 0.0, 0.0, 1.0, -7.105427357601002e-15, -0.0)"><g><g style="stroke: #cccccc;stroke-width: 2.976;" transform="matrix(1.0, 0.0, 0.0, 1.0, -91.35, -37.760000000000005)"><path d="M 0.0 0.0 L 0.0 0.0 L 0.0 -4.0 L 27.374999999999996 -4.0 L 27.374999999999996 35.94000000000001 L 54.74999999999999 35.94000000000001" style="vector-effect: non-scaling-stroke;fill:none;" /></g><g transform="matrix(1.0, 0.0, 0.0, 1.0, -91.35, -1.8200000000000038)"><g><g><g transform="matrix(1.0, 0.0, 0.0, 1.0, 0.0, 12.0)"><g><g><g transform="matrix(1.0, 0.0, 0.0, 1.0, -0.0, -47.94)"><g><g><g><g style="stroke: black;stroke-width: 2.976;" transform="matrix(1.0, 0.0, 0.0, 1.0, -0.5, -0.5)"><path d="M 0.0 0.0 L 1.0 0.0 L 1.0 1.0 L 0.0 1.0 L 0.0 0.0 Z" style="vector-effect: non-scaling-stroke;" /></g></g><g style="stroke: black;stroke-width: 2.976;" transform="matrix(0.0, -1.0, 1.0, 0.0, 0.0, 1.0)"><g /></g></g><g transform="matrix(1.0, 0.0, 0.0, 1.0, 0.0, 48.93999999999999)"><g transform="matrix(1.0, 0.0, 0.0, 1.0, 1.7763568394002505e-15, -37.89999999999999)"><g><g><g><g><g><g transform="matrix(1.0, 0.0, 0.0, 1.0, -0.0, -0.08999999999999897)"><g><g style="fill: #b3cde3;stroke: #000000;stroke-width: 1.488;" transform="matrix(1.0, 0.0, 0.0, 1.0, -20.45, -8.55)"><path d="M 0.0 0.0 L 0.0 17.1 A 0.9 0.9 135.00000000000003 0 0 0.9 18.0 L 40.0 18.0 A 0.9 0.9 45.00000000000002 0 0 40.9 17.1 L 40.9 0.0 A 0.9 0.9 -44.999999999999986 0 0 40.0 -0.9000000000000001 L 0.8999999999999986 -0.9000000000000001 A 0.9 0.9 -135.0 0 0 -1.5543122344752192e-15 -1.1102230246251565e-16 L -1.5543122344752192e-15 0.00999999999999989 Z" style="vector-effect: non-scaling-stroke;" /></g><g transform="matrix(1.0, 0.0, 0.0, 1.0, 0.0, 1.125)"><g><g style="fill: #000000;stroke: #000000;stroke-width: 0.0;" transform="matrix(1.0, 0.0, 0.0, 1.0, 0.0, 0.0)"><text style="text-align:center; text-anchor:middle; dominant-baseline:middle;&#10;                      font-family:sans-serif; font-weight: bold;&#10;                      font-size:6.0px;&#10;                      vector-effect: non-scaling-stroke;" transform="translate(-5e-05, 0)">Encoder</text></g><g /></g></g></g></g></g><g style="stroke: black;stroke-width: 2.976;" transform="matrix(0.0, -1.0, 1.0, 0.0, 0.0, 15.54)"><g /></g></g><g transform="matrix(1.0, 0.0, 0.0, 1.0, 0.0, 31.08)"><g><g transform="matrix(1.0, 0.0, 0.0, 1.0, -0.0, -0.08999999999999897)"><g><g style="fill: #fbb4ae;stroke: #000000;stroke-width: 1.488;" transform="matrix(1.0, 0.0, 0.0, 1.0, -20.45, -8.55)"><path d="M 0.0 0.0 L 0.0 17.1 A 0.9 0.9 135.00000000000003 0 0 0.9 18.0 L 40.0 18.0 A 0.9 0.9 45.00000000000002 0 0 40.9 17.1 L 40.9 0.0 A 0.9 0.9 -44.999999999999986 0 0 40.0 -0.9000000000000001 L 0.8999999999999986 -0.9000000000000001 A 0.9 0.9 -135.0 0 0 -1.5543122344752192e-15 -1.1102230246251565e-16 L -1.5543122344752192e-15 0.00999999999999989 Z" style="vector-effect: non-scaling-stroke;" /></g><g transform="matrix(1.0, 0.0, 0.0, 1.0, 0.0, 1.125)"><g><g style="fill: #000000;stroke: #000000;stroke-width: 0.0;" transform="matrix(1.0, 0.0, 0.0, 1.0, 0.0, 0.0)"><text style="text-align:center; text-anchor:middle; dominant-baseline:middle;&#10;                      font-family:sans-serif; font-weight: bold;&#10;                      font-size:6.0px;&#10;                      vector-effect: non-scaling-stroke;" transform="translate(-5e-05, 0)">Embed</text></g><g /></g></g></g></g></g></g></g><g style="stroke: black;stroke-width: 2.976;" transform="matrix(0.0, -1.0, 1.0, 0.0, 0.0, 46.62)"><g /></g></g><g transform="matrix(1.0, 0.0, 0.0, 1.0, 0.0, 68.97999999999999)"><g><g transform="matrix(1.0, 0.0, 0.0, 1.0, -20.0, 19.939999999999998)"><g><g><g><g /><g transform="matrix(1.0, 0.0, 0.0, 1.0, 30.0, -30.0)"><g><g style="fill: #ffffcc;stroke: #000000;stroke-width: 1.488;" transform="matrix(1.0, 0.0, 0.0, 1.0, -12.3, -5.699999999999999)"><path d="M 0.0 0.0 L 0.0 11.4 A 0.6 0.6 135.00000000000003 0 0 0.6 12.0 L 24.0 12.0 A 0.6 0.6 45.00000000000002 0 0 24.6 11.4 L 24.6 0.0 A 0.6 0.6 -44.999999999999986 0 0 24.0 -0.6000000000000002 L 0.6000000000000014 -0.6000000000000002 A 0.6 0.6 -135.0 0 0 1.2212453270876722e-15 -2.220446049250313e-16 L 1.2212453270876722e-15 0.009999999999999778 Z" style="vector-effect: non-scaling-stroke;" /></g><g transform="matrix(1.0, 0.0, 0.0, 1.0, 0.0, 0.75)"><g><g style="fill: #000000;stroke: #000000;stroke-width: 0.0;" transform="matrix(1.0, 0.0, 0.0, 1.0, 0.0, 0.0)"><text style="text-align:center; text-anchor:middle; dominant-baseline:middle;&#10;                      font-family:sans-serif; font-weight: bold;&#10;                      font-size:4.0px;&#10;                      vector-effect: non-scaling-stroke;" transform="translate(-5e-05, 0)">eos</text></g><g /></g></g></g></g></g><g transform="matrix(1.0, 0.0, 0.0, 1.0, 20.0, -20.0)"><g><g style="fill: #ffffcc;stroke: #000000;stroke-width: 1.488;" transform="matrix(1.0, 0.0, 0.0, 1.0, -12.3, -5.699999999999999)"><path d="M 0.0 0.0 L 0.0 11.4 A 0.6 0.6 135.00000000000003 0 0 0.6 12.0 L 24.0 12.0 A 0.6 0.6 45.00000000000002 0 0 24.6 11.4 L 24.6 0.0 A 0.6 0.6 -44.999999999999986 0 0 24.0 -0.6000000000000002 L 0.6000000000000014 -0.6000000000000002 A 0.6 0.6 -135.0 0 0 1.2212453270876722e-15 -2.220446049250313e-16 L 1.2212453270876722e-15 0.009999999999999778 Z" style="vector-effect: non-scaling-stroke;" /></g><g transform="matrix(1.0, 0.0, 0.0, 1.0, 0.0, 0.75)"><g><g style="fill: #000000;stroke: #000000;stroke-width: 0.0;" transform="matrix(1.0, 0.0, 0.0, 1.0, 0.0, 0.0)"><text style="text-align:center; text-anchor:middle; dominant-baseline:middle;&#10;                      font-family:sans-serif; font-weight: bold;&#10;                      font-size:4.0px;&#10;                      vector-effect: non-scaling-stroke;" transform="translate(-5e-05, 0)">2</text></g><g /></g></g></g></g></g><g transform="matrix(1.0, 0.0, 0.0, 1.0, 10.0, -10.0)"><g><g style="fill: #ffffcc;stroke: #000000;stroke-width: 1.488;" transform="matrix(1.0, 0.0, 0.0, 1.0, -12.3, -5.699999999999999)"><path d="M 0.0 0.0 L 0.0 11.4 A 0.6 0.6 135.00000000000003 0 0 0.6 12.0 L 24.0 12.0 A 0.6 0.6 45.00000000000002 0 0 24.6 11.4 L 24.6 0.0 A 0.6 0.6 -44.999999999999986 0 0 24.0 -0.6000000000000002 L 0.6000000000000014 -0.6000000000000002 A 0.6 0.6 -135.0 0 0 1.2212453270876722e-15 -2.220446049250313e-16 L 1.2212453270876722e-15 0.009999999999999778 Z" style="vector-effect: non-scaling-stroke;" /></g><g transform="matrix(1.0, 0.0, 0.0, 1.0, 0.0, 0.75)"><g><g style="fill: #000000;stroke: #000000;stroke-width: 0.0;" transform="matrix(1.0, 0.0, 0.0, 1.0, 0.0, 0.0)"><text style="text-align:center; text-anchor:middle; dominant-baseline:middle;&#10;                      font-family:sans-serif; font-weight: bold;&#10;                      font-size:4.0px;&#10;                      vector-effect: non-scaling-stroke;" transform="translate(-5e-05, 0)">1</text></g><g /></g></g></g></g></g></g></g></g></g></g></g></g></g><g><g transform="matrix(1.0, 0.0, 0.0, 1.0, -0.0, -47.94)"><g><g><g><g style="stroke: black;stroke-width: 2.976;" transform="matrix(1.0, 0.0, 0.0, 1.0, -0.5, -0.5)"><path d="M 0.0 0.0 L 1.0 0.0 L 1.0 1.0 L 0.0 1.0 L 0.0 0.0 Z" style="vector-effect: non-scaling-stroke;" /></g></g><g style="stroke: black;stroke-width: 2.976;" transform="matrix(0.0, -1.0, 1.0, 0.0, 0.0, 1.0)"><g /></g></g><g transform="matrix(1.0, 0.0, 0.0, 1.0, 0.0, 48.93999999999999)"><g transform="matrix(1.0, 0.0, 0.0, 1.0, 1.7763568394002505e-15, -37.89999999999999)"><g><g><g><g><g><g transform="matrix(1.0, 0.0, 0.0, 1.0, -0.0, -0.08999999999999897)"><g><g style="fill: #b3cde3;stroke: #000000;stroke-width: 1.488;" transform="matrix(1.0, 0.0, 0.0, 1.0, -20.45, -8.55)"><path d="M 0.0 0.0 L 0.0 17.1 A 0.9 0.9 135.00000000000003 0 0 0.9 18.0 L 40.0 18.0 A 0.9 0.9 45.00000000000002 0 0 40.9 17.1 L 40.9 0.0 A 0.9 0.9 -44.999999999999986 0 0 40.0 -0.9000000000000001 L 0.8999999999999986 -0.9000000000000001 A 0.9 0.9 -135.0 0 0 -1.5543122344752192e-15 -1.1102230246251565e-16 L -1.5543122344752192e-15 0.00999999999999989 Z" style="vector-effect: non-scaling-stroke;" /></g><g transform="matrix(1.0, 0.0, 0.0, 1.0, 0.0, 1.125)"><g><g style="fill: #000000;stroke: #000000;stroke-width: 0.0;" transform="matrix(1.0, 0.0, 0.0, 1.0, 0.0, 0.0)"><text style="text-align:center; text-anchor:middle; dominant-baseline:middle;&#10;                      font-family:sans-serif; font-weight: bold;&#10;                      font-size:6.0px;&#10;                      vector-effect: non-scaling-stroke;" transform="translate(-5e-05, 0)">Encoder</text></g><g /></g></g></g></g></g><g style="stroke: black;stroke-width: 2.976;" transform="matrix(0.0, -1.0, 1.0, 0.0, 0.0, 15.54)"><g /></g></g><g transform="matrix(1.0, 0.0, 0.0, 1.0, 0.0, 31.08)"><g><g transform="matrix(1.0, 0.0, 0.0, 1.0, -0.0, -0.08999999999999897)"><g><g style="fill: #fbb4ae;stroke: #000000;stroke-width: 1.488;" transform="matrix(1.0, 0.0, 0.0, 1.0, -20.45, -8.55)"><path d="M 0.0 0.0 L 0.0 17.1 A 0.9 0.9 135.00000000000003 0 0 0.9 18.0 L 40.0 18.0 A 0.9 0.9 45.00000000000002 0 0 40.9 17.1 L 40.9 0.0 A 0.9 0.9 -44.999999999999986 0 0 40.0 -0.9000000000000001 L 0.8999999999999986 -0.9000000000000001 A 0.9 0.9 -135.0 0 0 -1.5543122344752192e-15 -1.1102230246251565e-16 L -1.5543122344752192e-15 0.00999999999999989 Z" style="vector-effect: non-scaling-stroke;" /></g><g transform="matrix(1.0, 0.0, 0.0, 1.0, 0.0, 1.125)"><g><g style="fill: #000000;stroke: #000000;stroke-width: 0.0;" transform="matrix(1.0, 0.0, 0.0, 1.0, 0.0, 0.0)"><text style="text-align:center; text-anchor:middle; dominant-baseline:middle;&#10;                      font-family:sans-serif; font-weight: bold;&#10;                      font-size:6.0px;&#10;                      vector-effect: non-scaling-stroke;" transform="translate(-5e-05, 0)">Embed</text></g><g /></g></g></g></g></g></g></g><g style="stroke: black;stroke-width: 2.976;" transform="matrix(0.0, -1.0, 1.0, 0.0, 0.0, 46.62)"><g /></g></g><g transform="matrix(1.0, 0.0, 0.0, 1.0, 0.0, 68.97999999999999)"><g><g transform="matrix(1.0, 0.0, 0.0, 1.0, -20.0, 19.939999999999998)"><g><g><g><g /><g transform="matrix(1.0, 0.0, 0.0, 1.0, 30.0, -30.0)"><g><g style="fill: #ffffcc;stroke: #000000;stroke-width: 1.488;" transform="matrix(1.0, 0.0, 0.0, 1.0, -12.3, -5.699999999999999)"><path d="M 0.0 0.0 L 0.0 11.4 A 0.6 0.6 135.00000000000003 0 0 0.6 12.0 L 24.0 12.0 A 0.6 0.6 45.00000000000002 0 0 24.6 11.4 L 24.6 0.0 A 0.6 0.6 -44.999999999999986 0 0 24.0 -0.6000000000000002 L 0.6000000000000014 -0.6000000000000002 A 0.6 0.6 -135.0 0 0 1.2212453270876722e-15 -2.220446049250313e-16 L 1.2212453270876722e-15 0.009999999999999778 Z" style="vector-effect: non-scaling-stroke;" /></g><g transform="matrix(1.0, 0.0, 0.0, 1.0, 0.0, 0.75)"><g><g style="fill: #000000;stroke: #000000;stroke-width: 0.0;" transform="matrix(1.0, 0.0, 0.0, 1.0, 0.0, 0.0)"><text style="text-align:center; text-anchor:middle; dominant-baseline:middle;&#10;                      font-family:sans-serif; font-weight: bold;&#10;                      font-size:4.0px;&#10;                      vector-effect: non-scaling-stroke;" transform="translate(-5e-05, 0)">eos</text></g><g /></g></g></g></g></g><g transform="matrix(1.0, 0.0, 0.0, 1.0, 20.0, -20.0)"><g><g style="fill: #ffffcc;stroke: #000000;stroke-width: 1.488;" transform="matrix(1.0, 0.0, 0.0, 1.0, -12.3, -5.699999999999999)"><path d="M 0.0 0.0 L 0.0 11.4 A 0.6 0.6 135.00000000000003 0 0 0.6 12.0 L 24.0 12.0 A 0.6 0.6 45.00000000000002 0 0 24.6 11.4 L 24.6 0.0 A 0.6 0.6 -44.999999999999986 0 0 24.0 -0.6000000000000002 L 0.6000000000000014 -0.6000000000000002 A 0.6 0.6 -135.0 0 0 1.2212453270876722e-15 -2.220446049250313e-16 L 1.2212453270876722e-15 0.009999999999999778 Z" style="vector-effect: non-scaling-stroke;" /></g><g transform="matrix(1.0, 0.0, 0.0, 1.0, 0.0, 0.75)"><g><g style="fill: #000000;stroke: #000000;stroke-width: 0.0;" transform="matrix(1.0, 0.0, 0.0, 1.0, 0.0, 0.0)"><text style="text-align:center; text-anchor:middle; dominant-baseline:middle;&#10;                      font-family:sans-serif; font-weight: bold;&#10;                      font-size:4.0px;&#10;                      vector-effect: non-scaling-stroke;" transform="translate(-5e-05, 0)">2</text></g><g /></g></g></g></g></g><g transform="matrix(1.0, 0.0, 0.0, 1.0, 10.0, -10.0)"><g><g style="fill: #ffffcc;stroke: #000000;stroke-width: 1.488;" transform="matrix(1.0, 0.0, 0.0, 1.0, -12.3, -5.699999999999999)"><path d="M 0.0 0.0 L 0.0 11.4 A 0.6 0.6 135.00000000000003 0 0 0.6 12.0 L 24.0 12.0 A 0.6 0.6 45.00000000000002 0 0 24.6 11.4 L 24.6 0.0 A 0.6 0.6 -44.999999999999986 0 0 24.0 -0.6000000000000002 L 0.6000000000000014 -0.6000000000000002 A 0.6 0.6 -135.0 0 0 1.2212453270876722e-15 -2.220446049250313e-16 L 1.2212453270876722e-15 0.009999999999999778 Z" style="vector-effect: non-scaling-stroke;" /></g><g transform="matrix(1.0, 0.0, 0.0, 1.0, 0.0, 0.75)"><g><g style="fill: #000000;stroke: #000000;stroke-width: 0.0;" transform="matrix(1.0, 0.0, 0.0, 1.0, 0.0, 0.0)"><text style="text-align:center; text-anchor:middle; dominant-baseline:middle;&#10;                      font-family:sans-serif; font-weight: bold;&#10;                      font-size:4.0px;&#10;                      vector-effect: non-scaling-stroke;" transform="translate(-5e-05, 0)">1</text></g><g /></g></g></g></g></g></g></g></g></g></g></g></g></g><g transform="matrix(1.0, 0.0, 0.0, 1.0, 1.7763568394002505e-15, 15.71999999999999)"><g transform="matrix(0.0, -1.0, 1.0, 0.0, 0.0, 0.0)"><g><g style="stroke: #000000;stroke-width: 2.976;" transform="matrix(1.0, 0.0, 0.0, 1.0, 3.0, 0.0)"><path d="M 0.0 0.0 L 6.179999999999991 0.0" style="vector-effect: non-scaling-stroke;fill:none;" /></g><g style="fill: #000000;stroke: black;stroke-width: 0.0;" transform="matrix(0.0, 3.0, -3.0, 0.0, 7.579999999999991, 0.0)"><path d="M 0.0 -0.2 L 1.0 0.2 L 0.0 -1.2 L -1.0 0.19999999999999996 L 0.0 -0.2 Z" style="vector-effect: non-scaling-stroke;" /></g></g></g></g></g></g><g><g transform="matrix(1.0, 0.0, 0.0, 1.0, -0.0, -47.94)"><g><g><g><g style="stroke: black;stroke-width: 2.976;" transform="matrix(1.0, 0.0, 0.0, 1.0, -0.5, -0.5)"><path d="M 0.0 0.0 L 1.0 0.0 L 1.0 1.0 L 0.0 1.0 L 0.0 0.0 Z" style="vector-effect: non-scaling-stroke;" /></g></g><g style="stroke: black;stroke-width: 2.976;" transform="matrix(0.0, -1.0, 1.0, 0.0, 0.0, 1.0)"><g /></g></g><g transform="matrix(1.0, 0.0, 0.0, 1.0, 0.0, 48.93999999999999)"><g transform="matrix(1.0, 0.0, 0.0, 1.0, 1.7763568394002505e-15, -37.89999999999999)"><g><g><g><g><g><g transform="matrix(1.0, 0.0, 0.0, 1.0, -0.0, -0.08999999999999897)"><g><g style="fill: #b3cde3;stroke: #000000;stroke-width: 1.488;" transform="matrix(1.0, 0.0, 0.0, 1.0, -20.45, -8.55)"><path d="M 0.0 0.0 L 0.0 17.1 A 0.9 0.9 135.00000000000003 0 0 0.9 18.0 L 40.0 18.0 A 0.9 0.9 45.00000000000002 0 0 40.9 17.1 L 40.9 0.0 A 0.9 0.9 -44.999999999999986 0 0 40.0 -0.9000000000000001 L 0.8999999999999986 -0.9000000000000001 A 0.9 0.9 -135.0 0 0 -1.5543122344752192e-15 -1.1102230246251565e-16 L -1.5543122344752192e-15 0.00999999999999989 Z" style="vector-effect: non-scaling-stroke;" /></g><g transform="matrix(1.0, 0.0, 0.0, 1.0, 0.0, 1.125)"><g><g style="fill: #000000;stroke: #000000;stroke-width: 0.0;" transform="matrix(1.0, 0.0, 0.0, 1.0, 0.0, 0.0)"><text style="text-align:center; text-anchor:middle; dominant-baseline:middle;&#10;                      font-family:sans-serif; font-weight: bold;&#10;                      font-size:6.0px;&#10;                      vector-effect: non-scaling-stroke;" transform="translate(-5e-05, 0)">Encoder</text></g><g /></g></g></g></g></g><g style="stroke: black;stroke-width: 2.976;" transform="matrix(0.0, -1.0, 1.0, 0.0, 0.0, 15.54)"><g /></g></g><g transform="matrix(1.0, 0.0, 0.0, 1.0, 0.0, 31.08)"><g><g transform="matrix(1.0, 0.0, 0.0, 1.0, -0.0, -0.08999999999999897)"><g><g style="fill: #fbb4ae;stroke: #000000;stroke-width: 1.488;" transform="matrix(1.0, 0.0, 0.0, 1.0, -20.45, -8.55)"><path d="M 0.0 0.0 L 0.0 17.1 A 0.9 0.9 135.00000000000003 0 0 0.9 18.0 L 40.0 18.0 A 0.9 0.9 45.00000000000002 0 0 40.9 17.1 L 40.9 0.0 A 0.9 0.9 -44.999999999999986 0 0 40.0 -0.9000000000000001 L 0.8999999999999986 -0.9000000000000001 A 0.9 0.9 -135.0 0 0 -1.5543122344752192e-15 -1.1102230246251565e-16 L -1.5543122344752192e-15 0.00999999999999989 Z" style="vector-effect: non-scaling-stroke;" /></g><g transform="matrix(1.0, 0.0, 0.0, 1.0, 0.0, 1.125)"><g><g style="fill: #000000;stroke: #000000;stroke-width: 0.0;" transform="matrix(1.0, 0.0, 0.0, 1.0, 0.0, 0.0)"><text style="text-align:center; text-anchor:middle; dominant-baseline:middle;&#10;                      font-family:sans-serif; font-weight: bold;&#10;                      font-size:6.0px;&#10;                      vector-effect: non-scaling-stroke;" transform="translate(-5e-05, 0)">Embed</text></g><g /></g></g></g></g></g></g></g><g style="stroke: black;stroke-width: 2.976;" transform="matrix(0.0, -1.0, 1.0, 0.0, 0.0, 46.62)"><g /></g></g><g transform="matrix(1.0, 0.0, 0.0, 1.0, 0.0, 68.97999999999999)"><g><g transform="matrix(1.0, 0.0, 0.0, 1.0, -20.0, 19.939999999999998)"><g><g><g><g /><g transform="matrix(1.0, 0.0, 0.0, 1.0, 30.0, -30.0)"><g><g style="fill: #ffffcc;stroke: #000000;stroke-width: 1.488;" transform="matrix(1.0, 0.0, 0.0, 1.0, -12.3, -5.699999999999999)"><path d="M 0.0 0.0 L 0.0 11.4 A 0.6 0.6 135.00000000000003 0 0 0.6 12.0 L 24.0 12.0 A 0.6 0.6 45.00000000000002 0 0 24.6 11.4 L 24.6 0.0 A 0.6 0.6 -44.999999999999986 0 0 24.0 -0.6000000000000002 L 0.6000000000000014 -0.6000000000000002 A 0.6 0.6 -135.0 0 0 1.2212453270876722e-15 -2.220446049250313e-16 L 1.2212453270876722e-15 0.009999999999999778 Z" style="vector-effect: non-scaling-stroke;" /></g><g transform="matrix(1.0, 0.0, 0.0, 1.0, 0.0, 0.75)"><g><g style="fill: #000000;stroke: #000000;stroke-width: 0.0;" transform="matrix(1.0, 0.0, 0.0, 1.0, 0.0, 0.0)"><text style="text-align:center; text-anchor:middle; dominant-baseline:middle;&#10;                      font-family:sans-serif; font-weight: bold;&#10;                      font-size:4.0px;&#10;                      vector-effect: non-scaling-stroke;" transform="translate(-5e-05, 0)">eos</text></g><g /></g></g></g></g></g><g transform="matrix(1.0, 0.0, 0.0, 1.0, 20.0, -20.0)"><g><g style="fill: #ffffcc;stroke: #000000;stroke-width: 1.488;" transform="matrix(1.0, 0.0, 0.0, 1.0, -12.3, -5.699999999999999)"><path d="M 0.0 0.0 L 0.0 11.4 A 0.6 0.6 135.00000000000003 0 0 0.6 12.0 L 24.0 12.0 A 0.6 0.6 45.00000000000002 0 0 24.6 11.4 L 24.6 0.0 A 0.6 0.6 -44.999999999999986 0 0 24.0 -0.6000000000000002 L 0.6000000000000014 -0.6000000000000002 A 0.6 0.6 -135.0 0 0 1.2212453270876722e-15 -2.220446049250313e-16 L 1.2212453270876722e-15 0.009999999999999778 Z" style="vector-effect: non-scaling-stroke;" /></g><g transform="matrix(1.0, 0.0, 0.0, 1.0, 0.0, 0.75)"><g><g style="fill: #000000;stroke: #000000;stroke-width: 0.0;" transform="matrix(1.0, 0.0, 0.0, 1.0, 0.0, 0.0)"><text style="text-align:center; text-anchor:middle; dominant-baseline:middle;&#10;                      font-family:sans-serif; font-weight: bold;&#10;                      font-size:4.0px;&#10;                      vector-effect: non-scaling-stroke;" transform="translate(-5e-05, 0)">2</text></g><g /></g></g></g></g></g><g transform="matrix(1.0, 0.0, 0.0, 1.0, 10.0, -10.0)"><g><g style="fill: #ffffcc;stroke: #000000;stroke-width: 1.488;" transform="matrix(1.0, 0.0, 0.0, 1.0, -12.3, -5.699999999999999)"><path d="M 0.0 0.0 L 0.0 11.4 A 0.6 0.6 135.00000000000003 0 0 0.6 12.0 L 24.0 12.0 A 0.6 0.6 45.00000000000002 0 0 24.6 11.4 L 24.6 0.0 A 0.6 0.6 -44.999999999999986 0 0 24.0 -0.6000000000000002 L 0.6000000000000014 -0.6000000000000002 A 0.6 0.6 -135.0 0 0 1.2212453270876722e-15 -2.220446049250313e-16 L 1.2212453270876722e-15 0.009999999999999778 Z" style="vector-effect: non-scaling-stroke;" /></g><g transform="matrix(1.0, 0.0, 0.0, 1.0, 0.0, 0.75)"><g><g style="fill: #000000;stroke: #000000;stroke-width: 0.0;" transform="matrix(1.0, 0.0, 0.0, 1.0, 0.0, 0.0)"><text style="text-align:center; text-anchor:middle; dominant-baseline:middle;&#10;                      font-family:sans-serif; font-weight: bold;&#10;                      font-size:4.0px;&#10;                      vector-effect: non-scaling-stroke;" transform="translate(-5e-05, 0)">1</text></g><g /></g></g></g></g></g></g></g></g></g></g></g></g></g><g transform="matrix(1.0, 0.0, 0.0, 1.0, 1.7763568394002505e-15, -15.360000000000001)"><g transform="matrix(0.0, -1.0, 1.0, 0.0, 0.0, 0.0)"><g><g style="stroke: #000000;stroke-width: 2.976;" transform="matrix(1.0, 0.0, 0.0, 1.0, 3.0, 0.0)"><path d="M 0.0 0.0 L 6.179999999999998 0.0" style="vector-effect: non-scaling-stroke;fill:none;" /></g><g style="fill: #000000;stroke: black;stroke-width: 0.0;" transform="matrix(0.0, 3.0, -3.0, 0.0, 7.579999999999998, 0.0)"><path d="M 0.0 -0.2 L 1.0 0.2 L 0.0 -1.2 L -1.0 0.19999999999999996 L 0.0 -0.2 Z" style="vector-effect: non-scaling-stroke;" /></g></g></g></g></g></g></g><g style="stroke: black;stroke-width: 2.976;" transform="matrix(1.0, 0.0, 0.0, 1.0, 34.3, 0.0)"><g /></g></g><g transform="matrix(1.0, 0.0, 0.0, 1.0, 125.64999999999999, 0.0)"><g><g><g><g><g transform="matrix(1.0, 0.0, 0.0, 1.0, -58.9, -0.0)"><g><g><g><g><g><g><g><g><g transform="matrix(1.0, 0.0, 0.0, 1.0, -0.0, -50.49999999999999)"><g><g><g><g><g><g><g><g><g><g><g style="fill: #ffffcc;stroke: #000000;stroke-width: 1.488;" transform="matrix(1.0, 0.0, 0.0, 1.0, -12.3, -5.699999999999999)"><path d="M 0.0 0.0 L 0.0 11.4 A 0.6 0.6 135.00000000000003 0 0 0.6 12.0 L 24.0 12.0 A 0.6 0.6 45.00000000000002 0 0 24.6 11.4 L 24.6 0.0 A 0.6 0.6 -44.999999999999986 0 0 24.0 -0.6000000000000002 L 0.6000000000000014 -0.6000000000000002 A 0.6 0.6 -135.0 0 0 1.2212453270876722e-15 -2.220446049250313e-16 L 1.2212453270876722e-15 0.009999999999999778 Z" style="vector-effect: non-scaling-stroke;" /></g><g transform="matrix(1.0, 0.0, 0.0, 1.0, 0.0, 0.75)"><g><g style="fill: #000000;stroke: #000000;stroke-width: 0.0;" transform="matrix(1.0, 0.0, 0.0, 1.0, 0.0, 0.0)"><text style="text-align:center; text-anchor:middle; dominant-baseline:middle;&#10;                      font-family:sans-serif; font-weight: bold;&#10;                      font-size:4.0px;&#10;                      vector-effect: non-scaling-stroke;" transform="translate(-5e-05, 0)">1</text></g><g /></g></g></g></g><g style="stroke: black;stroke-width: 2.976;" transform="matrix(0.0, -1.0, 1.0, 0.0, 0.0, 12.42)"><g /></g></g><g transform="matrix(1.0, 0.0, 0.0, 1.0, 0.0, 27.96)"><g><g transform="matrix(1.0, 0.0, 0.0, 1.0, -0.0, -0.08999999999999897)"><g><g style="fill: #fed9a6;stroke: #000000;stroke-width: 1.488;" transform="matrix(1.0, 0.0, 0.0, 1.0, -20.45, -8.55)"><path d="M 0.0 0.0 L 0.0 17.1 A 0.9 0.9 135.00000000000003 0 0 0.9 18.0 L 40.0 18.0 A 0.9 0.9 45.00000000000002 0 0 40.9 17.1 L 40.9 0.0 A 0.9 0.9 -44.999999999999986 0 0 40.0 -0.9000000000000001 L 0.8999999999999986 -0.9000000000000001 A 0.9 0.9 -135.0 0 0 -1.5543122344752192e-15 -1.1102230246251565e-16 L -1.5543122344752192e-15 0.00999999999999989 Z" style="vector-effect: non-scaling-stroke;" /></g><g transform="matrix(1.0, 0.0, 0.0, 1.0, 0.0, 1.125)"><g><g style="fill: #000000;stroke: #000000;stroke-width: 0.0;" transform="matrix(1.0, 0.0, 0.0, 1.0, 0.0, 0.0)"><text style="text-align:center; text-anchor:middle; dominant-baseline:middle;&#10;                      font-family:sans-serif; font-weight: bold;&#10;                      font-size:6.0px;&#10;                      vector-effect: non-scaling-stroke;" transform="translate(-5e-05, 0)">Decoder</text></g><g /></g></g></g></g></g></g></g><g style="stroke: black;stroke-width: 2.976;" transform="matrix(0.0, -1.0, 1.0, 0.0, 0.0, 43.5)"><g /></g></g><g transform="matrix(1.0, 0.0, 0.0, 1.0, 0.0, 50.5)"><g transform="matrix(1.0, 0.0, 0.0, 1.0, -12.0, 0.0)"><g><g style="fill: #000000;stroke: black;stroke-width: 2.976;" transform="matrix(1.0, 0.0, 0.0, 1.0, 1.0, 0.0)"><path d="M 0.0 0.0 A 1.0 1.0 0.0 0 0 -1.0 -1.0 A 1.0 1.0 -90.0 0 0 -2.0 0.0 A 1.0 1.0 180.0 0 0 -1.0 1.0 A 1.0 1.0 90.0 0 0 0.0 0.0 Z" style="vector-effect: non-scaling-stroke;" /></g></g></g></g></g><g style="stroke: black;stroke-width: 2.976;" transform="matrix(0.0, -1.0, 1.0, 0.0, 0.0, 57.5)"><g /></g></g><g transform="matrix(1.0, 0.0, 0.0, 1.0, 0.0, 73.03999999999999)"><g><g transform="matrix(1.0, 0.0, 0.0, 1.0, -0.0, -0.08999999999999897)"><g><g style="fill: #fbb4ae;stroke: #000000;stroke-width: 1.488;" transform="matrix(1.0, 0.0, 0.0, 1.0, -20.45, -8.55)"><path d="M 0.0 0.0 L 0.0 17.1 A 0.9 0.9 135.00000000000003 0 0 0.9 18.0 L 40.0 18.0 A 0.9 0.9 45.00000000000002 0 0 40.9 17.1 L 40.9 0.0 A 0.9 0.9 -44.999999999999986 0 0 40.0 -0.9000000000000001 L 0.8999999999999986 -0.9000000000000001 A 0.9 0.9 -135.0 0 0 -1.5543122344752192e-15 -1.1102230246251565e-16 L -1.5543122344752192e-15 0.00999999999999989 Z" style="vector-effect: non-scaling-stroke;" /></g><g transform="matrix(1.0, 0.0, 0.0, 1.0, 0.0, 1.125)"><g><g style="fill: #000000;stroke: #000000;stroke-width: 0.0;" transform="matrix(1.0, 0.0, 0.0, 1.0, 0.0, 0.0)"><text style="text-align:center; text-anchor:middle; dominant-baseline:middle;&#10;                      font-family:sans-serif; font-weight: bold;&#10;                      font-size:6.0px;&#10;                      vector-effect: non-scaling-stroke;" transform="translate(-5e-05, 0)">Embed</text></g><g /></g></g></g></g></g></g></g><g style="stroke: black;stroke-width: 2.976;" transform="matrix(0.0, -1.0, 1.0, 0.0, 0.0, 88.57999999999998)"><g /></g></g><g transform="matrix(1.0, 0.0, 0.0, 1.0, 0.0, 100.87999999999998)"><g><g><g style="fill: #ffffcc;stroke: #000000;stroke-width: 1.488;" transform="matrix(1.0, 0.0, 0.0, 1.0, -12.3, -5.699999999999999)"><path d="M 0.0 0.0 L 0.0 11.4 A 0.6 0.6 135.00000000000003 0 0 0.6 12.0 L 24.0 12.0 A 0.6 0.6 45.00000000000002 0 0 24.6 11.4 L 24.6 0.0 A 0.6 0.6 -44.999999999999986 0 0 24.0 -0.6000000000000002 L 0.6000000000000014 -0.6000000000000002 A 0.6 0.6 -135.0 0 0 1.2212453270876722e-15 -2.220446049250313e-16 L 1.2212453270876722e-15 0.009999999999999778 Z" style="vector-effect: non-scaling-stroke;" /></g><g transform="matrix(1.0, 0.0, 0.0, 1.0, 0.0, 0.75)"><g><g style="fill: #000000;stroke: #000000;stroke-width: 0.0;" transform="matrix(1.0, 0.0, 0.0, 1.0, 0.0, 0.0)"><text style="text-align:center; text-anchor:middle; dominant-baseline:middle;&#10;                      font-family:sans-serif; font-weight: bold;&#10;                      font-size:4.0px;&#10;                      vector-effect: non-scaling-stroke;" transform="translate(-5e-05, 0)" /></g><g /></g></g></g></g></g></g></g><g transform="matrix(1.0, 0.0, 0.0, 1.0, 0.0, 44.07999999999999)"><g transform="matrix(0.0, -1.0, 1.0, 0.0, 0.0, 0.0)"><g><g style="stroke: #000000;stroke-width: 2.976;" transform="matrix(1.0, 0.0, 0.0, 1.0, 3.0, 0.0)"><path d="M 0.0 0.0 L 6.179999999999993 0.0" style="vector-effect: non-scaling-stroke;fill:none;" /></g><g style="fill: #000000;stroke: black;stroke-width: 0.0;" transform="matrix(0.0, 3.0, -3.0, 0.0, 7.579999999999993, 0.0)"><path d="M 0.0 -0.2 L 1.0 0.2 L 0.0 -1.2 L -1.0 0.19999999999999996 L 0.0 -0.2 Z" style="vector-effect: non-scaling-stroke;" /></g></g></g></g></g><g transform="matrix(1.0, 0.0, 0.0, 1.0, 0.0, 12.999999999999998)"><g transform="matrix(0.0, -1.0, 1.0, 0.0, 0.0, 0.0)"><g><g style="stroke: #000000;stroke-width: 2.976;" transform="matrix(1.0, 0.0, 0.0, 1.0, 3.0, 0.0)"><path d="M 0.0 0.0 A 12.680809999999992 12.680809999999992 90.0 0 0 20.179999999999993 -3.552713678800501e-15" style="vector-effect: non-scaling-stroke;fill:none;" /></g><g style="fill: #000000;stroke: black;stroke-width: 0.0;" transform="matrix(2.3870714883355246, 1.8171102634610874, -1.8171102634610874, 2.3870714883355246, 22.21087452615408, 1.2731047937789464)"><path d="M 0.0 -0.2 L 1.0 0.2 L 0.0 -1.2 L -1.0 0.19999999999999996 L 0.0 -0.2 Z" style="vector-effect: non-scaling-stroke;" /></g></g></g></g></g><g transform="matrix(1.0, 0.0, 0.0, 1.0, -11.530062325332581, -0.882699598916961)"><g transform="matrix(0.4699376746674194, -0.8826995989169694, 0.8826995989169694, 0.4699376746674194, 0.0, 0.0)"><g><g style="stroke: #000000;stroke-width: 2.976;" transform="matrix(1.0, 0.0, 0.0, 1.0, 0.0, 0.0)"><path d="M 0.0 0.0 L 10.931467076875572 0.0" style="vector-effect: non-scaling-stroke;fill:none;" /></g><g style="fill: #000000;stroke: black;stroke-width: 0.0;" transform="matrix(0.0, 3.0, -3.0, 0.0, 9.331467076875573, 0.0)"><path d="M 0.0 -0.2 L 1.0 0.2 L 0.0 -1.2 L -1.0 0.19999999999999996 L 0.0 -0.2 Z" style="vector-effect: non-scaling-stroke;" /></g></g></g></g></g><g transform="matrix(1.0, 0.0, 0.0, 1.0, 0.0, -32.07999999999999)"><g transform="matrix(0.0, -1.0, 1.0, 0.0, 0.0, 0.0)"><g><g style="stroke: #000000;stroke-width: 2.976;" transform="matrix(1.0, 0.0, 0.0, 1.0, 3.0, 0.0)"><path d="M 0.0 0.0 L 6.119999999999997 0.0" style="vector-effect: non-scaling-stroke;fill:none;" /></g><g style="fill: #000000;stroke: black;stroke-width: 0.0;" transform="matrix(0.0, 3.0, -3.0, 0.0, 7.519999999999998, 0.0)"><path d="M 0.0 -0.2 L 1.0 0.2 L 0.0 -1.2 L -1.0 0.19999999999999996 L 0.0 -0.2 Z" style="vector-effect: non-scaling-stroke;" /></g></g></g></g></g><g style="stroke: black;stroke-width: 2.976;" transform="matrix(1.0, 0.0, 0.0, 1.0, 29.45, 0.0)"><g /></g></g><g transform="matrix(1.0, 0.0, 0.0, 1.0, 58.900000000000006, 0.0)"><g><g><g><g><g transform="matrix(1.0, 0.0, 0.0, 1.0, -0.0, -50.49999999999999)"><g><g><g><g><g><g><g><g><g><g><g style="fill: #ffffcc;stroke: #000000;stroke-width: 1.488;" transform="matrix(1.0, 0.0, 0.0, 1.0, -12.3, -5.699999999999999)"><path d="M 0.0 0.0 L 0.0 11.4 A 0.6 0.6 135.00000000000003 0 0 0.6 12.0 L 24.0 12.0 A 0.6 0.6 45.00000000000002 0 0 24.6 11.4 L 24.6 0.0 A 0.6 0.6 -44.999999999999986 0 0 24.0 -0.6000000000000002 L 0.6000000000000014 -0.6000000000000002 A 0.6 0.6 -135.0 0 0 1.2212453270876722e-15 -2.220446049250313e-16 L 1.2212453270876722e-15 0.009999999999999778 Z" style="vector-effect: non-scaling-stroke;" /></g><g transform="matrix(1.0, 0.0, 0.0, 1.0, 0.0, 0.75)"><g><g style="fill: #000000;stroke: #000000;stroke-width: 0.0;" transform="matrix(1.0, 0.0, 0.0, 1.0, 0.0, 0.0)"><text style="text-align:center; text-anchor:middle; dominant-baseline:middle;&#10;                      font-family:sans-serif; font-weight: bold;&#10;                      font-size:4.0px;&#10;                      vector-effect: non-scaling-stroke;" transform="translate(-5e-05, 0)">2</text></g><g /></g></g></g></g><g style="stroke: black;stroke-width: 2.976;" transform="matrix(0.0, -1.0, 1.0, 0.0, 0.0, 12.42)"><g /></g></g><g transform="matrix(1.0, 0.0, 0.0, 1.0, 0.0, 27.96)"><g><g transform="matrix(1.0, 0.0, 0.0, 1.0, -0.0, -0.08999999999999897)"><g><g style="fill: #fed9a6;stroke: #000000;stroke-width: 1.488;" transform="matrix(1.0, 0.0, 0.0, 1.0, -20.45, -8.55)"><path d="M 0.0 0.0 L 0.0 17.1 A 0.9 0.9 135.00000000000003 0 0 0.9 18.0 L 40.0 18.0 A 0.9 0.9 45.00000000000002 0 0 40.9 17.1 L 40.9 0.0 A 0.9 0.9 -44.999999999999986 0 0 40.0 -0.9000000000000001 L 0.8999999999999986 -0.9000000000000001 A 0.9 0.9 -135.0 0 0 -1.5543122344752192e-15 -1.1102230246251565e-16 L -1.5543122344752192e-15 0.00999999999999989 Z" style="vector-effect: non-scaling-stroke;" /></g><g transform="matrix(1.0, 0.0, 0.0, 1.0, 0.0, 1.125)"><g><g style="fill: #000000;stroke: #000000;stroke-width: 0.0;" transform="matrix(1.0, 0.0, 0.0, 1.0, 0.0, 0.0)"><text style="text-align:center; text-anchor:middle; dominant-baseline:middle;&#10;                      font-family:sans-serif; font-weight: bold;&#10;                      font-size:6.0px;&#10;                      vector-effect: non-scaling-stroke;" transform="translate(-5e-05, 0)">Decoder</text></g><g /></g></g></g></g></g></g></g><g style="stroke: black;stroke-width: 2.976;" transform="matrix(0.0, -1.0, 1.0, 0.0, 0.0, 43.5)"><g /></g></g><g transform="matrix(1.0, 0.0, 0.0, 1.0, 0.0, 50.5)"><g transform="matrix(1.0, 0.0, 0.0, 1.0, -12.0, 0.0)"><g><g style="fill: #000000;stroke: black;stroke-width: 2.976;" transform="matrix(1.0, 0.0, 0.0, 1.0, 1.0, 0.0)"><path d="M 0.0 0.0 A 1.0 1.0 0.0 0 0 -1.0 -1.0 A 1.0 1.0 -90.0 0 0 -2.0 0.0 A 1.0 1.0 180.0 0 0 -1.0 1.0 A 1.0 1.0 90.0 0 0 0.0 0.0 Z" style="vector-effect: non-scaling-stroke;" /></g></g></g></g></g><g style="stroke: black;stroke-width: 2.976;" transform="matrix(0.0, -1.0, 1.0, 0.0, 0.0, 57.5)"><g /></g></g><g transform="matrix(1.0, 0.0, 0.0, 1.0, 0.0, 73.03999999999999)"><g><g transform="matrix(1.0, 0.0, 0.0, 1.0, -0.0, -0.08999999999999897)"><g><g style="fill: #fbb4ae;stroke: #000000;stroke-width: 1.488;" transform="matrix(1.0, 0.0, 0.0, 1.0, -20.45, -8.55)"><path d="M 0.0 0.0 L 0.0 17.1 A 0.9 0.9 135.00000000000003 0 0 0.9 18.0 L 40.0 18.0 A 0.9 0.9 45.00000000000002 0 0 40.9 17.1 L 40.9 0.0 A 0.9 0.9 -44.999999999999986 0 0 40.0 -0.9000000000000001 L 0.8999999999999986 -0.9000000000000001 A 0.9 0.9 -135.0 0 0 -1.5543122344752192e-15 -1.1102230246251565e-16 L -1.5543122344752192e-15 0.00999999999999989 Z" style="vector-effect: non-scaling-stroke;" /></g><g transform="matrix(1.0, 0.0, 0.0, 1.0, 0.0, 1.125)"><g><g style="fill: #000000;stroke: #000000;stroke-width: 0.0;" transform="matrix(1.0, 0.0, 0.0, 1.0, 0.0, 0.0)"><text style="text-align:center; text-anchor:middle; dominant-baseline:middle;&#10;                      font-family:sans-serif; font-weight: bold;&#10;                      font-size:6.0px;&#10;                      vector-effect: non-scaling-stroke;" transform="translate(-5e-05, 0)">Embed</text></g><g /></g></g></g></g></g></g></g><g style="stroke: black;stroke-width: 2.976;" transform="matrix(0.0, -1.0, 1.0, 0.0, 0.0, 88.57999999999998)"><g /></g></g><g transform="matrix(1.0, 0.0, 0.0, 1.0, 0.0, 100.87999999999998)"><g><g><g style="fill: #ffffcc;stroke: #000000;stroke-width: 1.488;" transform="matrix(1.0, 0.0, 0.0, 1.0, -12.3, -5.699999999999999)"><path d="M 0.0 0.0 L 0.0 11.4 A 0.6 0.6 135.00000000000003 0 0 0.6 12.0 L 24.0 12.0 A 0.6 0.6 45.00000000000002 0 0 24.6 11.4 L 24.6 0.0 A 0.6 0.6 -44.999999999999986 0 0 24.0 -0.6000000000000002 L 0.6000000000000014 -0.6000000000000002 A 0.6 0.6 -135.0 0 0 1.2212453270876722e-15 -2.220446049250313e-16 L 1.2212453270876722e-15 0.009999999999999778 Z" style="vector-effect: non-scaling-stroke;" /></g><g transform="matrix(1.0, 0.0, 0.0, 1.0, 0.0, 0.75)"><g><g style="fill: #000000;stroke: #000000;stroke-width: 0.0;" transform="matrix(1.0, 0.0, 0.0, 1.0, 0.0, 0.0)"><text style="text-align:center; text-anchor:middle; dominant-baseline:middle;&#10;                      font-family:sans-serif; font-weight: bold;&#10;                      font-size:4.0px;&#10;                      vector-effect: non-scaling-stroke;" transform="translate(-5e-05, 0)">1</text></g><g /></g></g></g></g></g></g></g><g transform="matrix(1.0, 0.0, 0.0, 1.0, 0.0, 44.07999999999999)"><g transform="matrix(0.0, -1.0, 1.0, 0.0, 0.0, 0.0)"><g><g style="stroke: #000000;stroke-width: 2.976;" transform="matrix(1.0, 0.0, 0.0, 1.0, 3.0, 0.0)"><path d="M 0.0 0.0 L 6.179999999999993 0.0" style="vector-effect: non-scaling-stroke;fill:none;" /></g><g style="fill: #000000;stroke: black;stroke-width: 0.0;" transform="matrix(0.0, 3.0, -3.0, 0.0, 7.579999999999993, 0.0)"><path d="M 0.0 -0.2 L 1.0 0.2 L 0.0 -1.2 L -1.0 0.19999999999999996 L 0.0 -0.2 Z" style="vector-effect: non-scaling-stroke;" /></g></g></g></g></g><g transform="matrix(1.0, 0.0, 0.0, 1.0, 0.0, 12.999999999999998)"><g transform="matrix(0.0, -1.0, 1.0, 0.0, 0.0, 0.0)"><g><g style="stroke: #000000;stroke-width: 2.976;" transform="matrix(1.0, 0.0, 0.0, 1.0, 3.0, 0.0)"><path d="M 0.0 0.0 A 12.680809999999992 12.680809999999992 90.0 0 0 20.179999999999993 -3.552713678800501e-15" style="vector-effect: non-scaling-stroke;fill:none;" /></g><g style="fill: #000000;stroke: black;stroke-width: 0.0;" transform="matrix(2.3870714883355246, 1.8171102634610874, -1.8171102634610874, 2.3870714883355246, 22.21087452615408, 1.2731047937789464)"><path d="M 0.0 -0.2 L 1.0 0.2 L 0.0 -1.2 L -1.0 0.19999999999999996 L 0.0 -0.2 Z" style="vector-effect: non-scaling-stroke;" /></g></g></g></g></g><g transform="matrix(1.0, 0.0, 0.0, 1.0, -11.530062325332581, -0.882699598916961)"><g transform="matrix(0.4699376746674194, -0.8826995989169694, 0.8826995989169694, 0.4699376746674194, 0.0, 0.0)"><g><g style="stroke: #000000;stroke-width: 2.976;" transform="matrix(1.0, 0.0, 0.0, 1.0, 0.0, 0.0)"><path d="M 0.0 0.0 L 10.931467076875572 0.0" style="vector-effect: non-scaling-stroke;fill:none;" /></g><g style="fill: #000000;stroke: black;stroke-width: 0.0;" transform="matrix(0.0, 3.0, -3.0, 0.0, 9.331467076875573, 0.0)"><path d="M 0.0 -0.2 L 1.0 0.2 L 0.0 -1.2 L -1.0 0.19999999999999996 L 0.0 -0.2 Z" style="vector-effect: non-scaling-stroke;" /></g></g></g></g></g><g transform="matrix(1.0, 0.0, 0.0, 1.0, 0.0, -32.07999999999999)"><g transform="matrix(0.0, -1.0, 1.0, 0.0, 0.0, 0.0)"><g><g style="stroke: #000000;stroke-width: 2.976;" transform="matrix(1.0, 0.0, 0.0, 1.0, 3.0, 0.0)"><path d="M 0.0 0.0 L 6.119999999999997 0.0" style="vector-effect: non-scaling-stroke;fill:none;" /></g><g style="fill: #000000;stroke: black;stroke-width: 0.0;" transform="matrix(0.0, 3.0, -3.0, 0.0, 7.519999999999998, 0.0)"><path d="M 0.0 -0.2 L 1.0 0.2 L 0.0 -1.2 L -1.0 0.19999999999999996 L 0.0 -0.2 Z" style="vector-effect: non-scaling-stroke;" /></g></g></g></g></g></g></g><g style="stroke: black;stroke-width: 2.976;" transform="matrix(1.0, 0.0, 0.0, 1.0, 88.35000000000001, 0.0)"><g /></g></g><g transform="matrix(1.0, 0.0, 0.0, 1.0, 117.80000000000001, 0.0)"><g><g><g><g><g transform="matrix(1.0, 0.0, 0.0, 1.0, -0.0, -50.49999999999999)"><g><g><g><g><g><g><g><g><g><g><g style="fill: #ffffcc;stroke: #000000;stroke-width: 1.488;" transform="matrix(1.0, 0.0, 0.0, 1.0, -12.3, -5.699999999999999)"><path d="M 0.0 0.0 L 0.0 11.4 A 0.6 0.6 135.00000000000003 0 0 0.6 12.0 L 24.0 12.0 A 0.6 0.6 45.00000000000002 0 0 24.6 11.4 L 24.6 0.0 A 0.6 0.6 -44.999999999999986 0 0 24.0 -0.6000000000000002 L 0.6000000000000014 -0.6000000000000002 A 0.6 0.6 -135.0 0 0 1.2212453270876722e-15 -2.220446049250313e-16 L 1.2212453270876722e-15 0.009999999999999778 Z" style="vector-effect: non-scaling-stroke;" /></g><g transform="matrix(1.0, 0.0, 0.0, 1.0, 0.0, 0.75)"><g><g style="fill: #000000;stroke: #000000;stroke-width: 0.0;" transform="matrix(1.0, 0.0, 0.0, 1.0, 0.0, 0.0)"><text style="text-align:center; text-anchor:middle; dominant-baseline:middle;&#10;                      font-family:sans-serif; font-weight: bold;&#10;                      font-size:4.0px;&#10;                      vector-effect: non-scaling-stroke;" transform="translate(-5e-05, 0)">eos</text></g><g /></g></g></g></g><g style="stroke: black;stroke-width: 2.976;" transform="matrix(0.0, -1.0, 1.0, 0.0, 0.0, 12.42)"><g /></g></g><g transform="matrix(1.0, 0.0, 0.0, 1.0, 0.0, 27.96)"><g><g transform="matrix(1.0, 0.0, 0.0, 1.0, -0.0, -0.08999999999999897)"><g><g style="fill: #fed9a6;stroke: #000000;stroke-width: 1.488;" transform="matrix(1.0, 0.0, 0.0, 1.0, -20.45, -8.55)"><path d="M 0.0 0.0 L 0.0 17.1 A 0.9 0.9 135.00000000000003 0 0 0.9 18.0 L 40.0 18.0 A 0.9 0.9 45.00000000000002 0 0 40.9 17.1 L 40.9 0.0 A 0.9 0.9 -44.999999999999986 0 0 40.0 -0.9000000000000001 L 0.8999999999999986 -0.9000000000000001 A 0.9 0.9 -135.0 0 0 -1.5543122344752192e-15 -1.1102230246251565e-16 L -1.5543122344752192e-15 0.00999999999999989 Z" style="vector-effect: non-scaling-stroke;" /></g><g transform="matrix(1.0, 0.0, 0.0, 1.0, 0.0, 1.125)"><g><g style="fill: #000000;stroke: #000000;stroke-width: 0.0;" transform="matrix(1.0, 0.0, 0.0, 1.0, 0.0, 0.0)"><text style="text-align:center; text-anchor:middle; dominant-baseline:middle;&#10;                      font-family:sans-serif; font-weight: bold;&#10;                      font-size:6.0px;&#10;                      vector-effect: non-scaling-stroke;" transform="translate(-5e-05, 0)">Decoder</text></g><g /></g></g></g></g></g></g></g><g style="stroke: black;stroke-width: 2.976;" transform="matrix(0.0, -1.0, 1.0, 0.0, 0.0, 43.5)"><g /></g></g><g transform="matrix(1.0, 0.0, 0.0, 1.0, 0.0, 50.5)"><g transform="matrix(1.0, 0.0, 0.0, 1.0, -12.0, 0.0)"><g><g style="fill: #000000;stroke: black;stroke-width: 2.976;" transform="matrix(1.0, 0.0, 0.0, 1.0, 1.0, 0.0)"><path d="M 0.0 0.0 A 1.0 1.0 0.0 0 0 -1.0 -1.0 A 1.0 1.0 -90.0 0 0 -2.0 0.0 A 1.0 1.0 180.0 0 0 -1.0 1.0 A 1.0 1.0 90.0 0 0 0.0 0.0 Z" style="vector-effect: non-scaling-stroke;" /></g></g></g></g></g><g style="stroke: black;stroke-width: 2.976;" transform="matrix(0.0, -1.0, 1.0, 0.0, 0.0, 57.5)"><g /></g></g><g transform="matrix(1.0, 0.0, 0.0, 1.0, 0.0, 73.03999999999999)"><g><g transform="matrix(1.0, 0.0, 0.0, 1.0, -0.0, -0.08999999999999897)"><g><g style="fill: #fbb4ae;stroke: #000000;stroke-width: 1.488;" transform="matrix(1.0, 0.0, 0.0, 1.0, -20.45, -8.55)"><path d="M 0.0 0.0 L 0.0 17.1 A 0.9 0.9 135.00000000000003 0 0 0.9 18.0 L 40.0 18.0 A 0.9 0.9 45.00000000000002 0 0 40.9 17.1 L 40.9 0.0 A 0.9 0.9 -44.999999999999986 0 0 40.0 -0.9000000000000001 L 0.8999999999999986 -0.9000000000000001 A 0.9 0.9 -135.0 0 0 -1.5543122344752192e-15 -1.1102230246251565e-16 L -1.5543122344752192e-15 0.00999999999999989 Z" style="vector-effect: non-scaling-stroke;" /></g><g transform="matrix(1.0, 0.0, 0.0, 1.0, 0.0, 1.125)"><g><g style="fill: #000000;stroke: #000000;stroke-width: 0.0;" transform="matrix(1.0, 0.0, 0.0, 1.0, 0.0, 0.0)"><text style="text-align:center; text-anchor:middle; dominant-baseline:middle;&#10;                      font-family:sans-serif; font-weight: bold;&#10;                      font-size:6.0px;&#10;                      vector-effect: non-scaling-stroke;" transform="translate(-5e-05, 0)">Embed</text></g><g /></g></g></g></g></g></g></g><g style="stroke: black;stroke-width: 2.976;" transform="matrix(0.0, -1.0, 1.0, 0.0, 0.0, 88.57999999999998)"><g /></g></g><g transform="matrix(1.0, 0.0, 0.0, 1.0, 0.0, 100.87999999999998)"><g><g><g style="fill: #ffffcc;stroke: #000000;stroke-width: 1.488;" transform="matrix(1.0, 0.0, 0.0, 1.0, -12.3, -5.699999999999999)"><path d="M 0.0 0.0 L 0.0 11.4 A 0.6 0.6 135.00000000000003 0 0 0.6 12.0 L 24.0 12.0 A 0.6 0.6 45.00000000000002 0 0 24.6 11.4 L 24.6 0.0 A 0.6 0.6 -44.999999999999986 0 0 24.0 -0.6000000000000002 L 0.6000000000000014 -0.6000000000000002 A 0.6 0.6 -135.0 0 0 1.2212453270876722e-15 -2.220446049250313e-16 L 1.2212453270876722e-15 0.009999999999999778 Z" style="vector-effect: non-scaling-stroke;" /></g><g transform="matrix(1.0, 0.0, 0.0, 1.0, 0.0, 0.75)"><g><g style="fill: #000000;stroke: #000000;stroke-width: 0.0;" transform="matrix(1.0, 0.0, 0.0, 1.0, 0.0, 0.0)"><text style="text-align:center; text-anchor:middle; dominant-baseline:middle;&#10;                      font-family:sans-serif; font-weight: bold;&#10;                      font-size:4.0px;&#10;                      vector-effect: non-scaling-stroke;" transform="translate(-5e-05, 0)">2</text></g><g /></g></g></g></g></g></g></g><g transform="matrix(1.0, 0.0, 0.0, 1.0, 0.0, 44.07999999999999)"><g transform="matrix(0.0, -1.0, 1.0, 0.0, 0.0, 0.0)"><g><g style="stroke: #000000;stroke-width: 2.976;" transform="matrix(1.0, 0.0, 0.0, 1.0, 3.0, 0.0)"><path d="M 0.0 0.0 L 6.179999999999993 0.0" style="vector-effect: non-scaling-stroke;fill:none;" /></g><g style="fill: #000000;stroke: black;stroke-width: 0.0;" transform="matrix(0.0, 3.0, -3.0, 0.0, 7.579999999999993, 0.0)"><path d="M 0.0 -0.2 L 1.0 0.2 L 0.0 -1.2 L -1.0 0.19999999999999996 L 0.0 -0.2 Z" style="vector-effect: non-scaling-stroke;" /></g></g></g></g></g><g transform="matrix(1.0, 0.0, 0.0, 1.0, 0.0, 12.999999999999998)"><g transform="matrix(0.0, -1.0, 1.0, 0.0, 0.0, 0.0)"><g><g style="stroke: #000000;stroke-width: 2.976;" transform="matrix(1.0, 0.0, 0.0, 1.0, 3.0, 0.0)"><path d="M 0.0 0.0 A 12.680809999999992 12.680809999999992 90.0 0 0 20.179999999999993 -3.552713678800501e-15" style="vector-effect: non-scaling-stroke;fill:none;" /></g><g style="fill: #000000;stroke: black;stroke-width: 0.0;" transform="matrix(2.3870714883355246, 1.8171102634610874, -1.8171102634610874, 2.3870714883355246, 22.21087452615408, 1.2731047937789464)"><path d="M 0.0 -0.2 L 1.0 0.2 L 0.0 -1.2 L -1.0 0.19999999999999996 L 0.0 -0.2 Z" style="vector-effect: non-scaling-stroke;" /></g></g></g></g></g><g transform="matrix(1.0, 0.0, 0.0, 1.0, -11.530062325332581, -0.882699598916961)"><g transform="matrix(0.4699376746674194, -0.8826995989169694, 0.8826995989169694, 0.4699376746674194, 0.0, 0.0)"><g><g style="stroke: #000000;stroke-width: 2.976;" transform="matrix(1.0, 0.0, 0.0, 1.0, 0.0, 0.0)"><path d="M 0.0 0.0 L 10.931467076875572 0.0" style="vector-effect: non-scaling-stroke;fill:none;" /></g><g style="fill: #000000;stroke: black;stroke-width: 0.0;" transform="matrix(0.0, 3.0, -3.0, 0.0, 9.331467076875573, 0.0)"><path d="M 0.0 -0.2 L 1.0 0.2 L 0.0 -1.2 L -1.0 0.19999999999999996 L 0.0 -0.2 Z" style="vector-effect: non-scaling-stroke;" /></g></g></g></g></g><g transform="matrix(1.0, 0.0, 0.0, 1.0, 0.0, -32.07999999999999)"><g transform="matrix(0.0, -1.0, 1.0, 0.0, 0.0, 0.0)"><g><g style="stroke: #000000;stroke-width: 2.976;" transform="matrix(1.0, 0.0, 0.0, 1.0, 3.0, 0.0)"><path d="M 0.0 0.0 L 6.119999999999997 0.0" style="vector-effect: non-scaling-stroke;fill:none;" /></g><g style="fill: #000000;stroke: black;stroke-width: 0.0;" transform="matrix(0.0, 3.0, -3.0, 0.0, 7.519999999999998, 0.0)"><path d="M 0.0 -0.2 L 1.0 0.2 L 0.0 -1.2 L -1.0 0.19999999999999996 L 0.0 -0.2 Z" style="vector-effect: non-scaling-stroke;" /></g></g></g></g></g></g></g></g><g transform="matrix(1.0, 0.0, 0.0, 1.0, -38.45, -22.539999999999992)"><g transform="matrix(1.0, -0.0, 0.0, 1.0, 0.0, 0.0)"><g><g style="stroke: #000000;stroke-width: 2.976;" transform="matrix(1.0, 0.0, 0.0, 1.0, 3.0, 0.0)"><path d="M 0.0 0.0 L 12.00000000000001 0.0" style="vector-effect: non-scaling-stroke;fill:none;" /></g><g style="fill: #000000;stroke: black;stroke-width: 0.0;" transform="matrix(0.0, 3.0, -3.0, 0.0, 13.400000000000011, 0.0)"><path d="M 0.0 -0.2 L 1.0 0.2 L 0.0 -1.2 L -1.0 0.19999999999999996 L 0.0 -0.2 Z" style="vector-effect: non-scaling-stroke;" /></g></g></g></g></g><g transform="matrix(1.0, 0.0, 0.0, 1.0, -69.9, 7.105427357601002e-15)"><g transform="matrix(1.0, -0.0, 0.0, 1.0, 0.0, 0.0)"><g><g style="stroke: #cccccc;stroke-width: 2.976;" transform="matrix(1.0, 0.0, 0.0, 1.0, 0.0, 0.0)"><path d="M 0.0 0.0 L 56.90000000000001 0.0" style="vector-effect: non-scaling-stroke;fill:none;" /></g><g style="stroke: black;stroke-width: 2.976;" transform="matrix(1.0, 0.0, 0.0, 1.0, 56.90000000000001, 0.0)"><g style="fill: #000000;stroke: black;stroke-width: 0.0;" transform="matrix(0.0, 0.2976, -0.2976, 0.0, -0.35711999999999994, 0.0)"><path d="M 0.0 -0.2 L 1.0 0.2 L 0.0 -1.2 L -1.0 0.19999999999999996 L 0.0 -0.2 Z" style="vector-effect: non-scaling-stroke;" /></g></g></g></g></g></g><g transform="matrix(1.0, 0.0, 0.0, 1.0, 20.450000000000003, -22.539999999999992)"><g transform="matrix(1.0, -0.0, 0.0, 1.0, 0.0, 0.0)"><g><g style="stroke: #000000;stroke-width: 2.976;" transform="matrix(1.0, 0.0, 0.0, 1.0, 3.0, 0.0)"><path d="M 0.0 0.0 L 12.000000000000014 0.0" style="vector-effect: non-scaling-stroke;fill:none;" /></g><g style="fill: #000000;stroke: black;stroke-width: 0.0;" transform="matrix(0.0, 3.0, -3.0, 0.0, 13.400000000000015, 0.0)"><path d="M 0.0 -0.2 L 1.0 0.2 L 0.0 -1.2 L -1.0 0.19999999999999996 L 0.0 -0.2 Z" style="vector-effect: non-scaling-stroke;" /></g></g></g></g></g><g transform="matrix(1.0, 0.0, 0.0, 1.0, -10.999999999999993, 7.105427357601002e-15)"><g transform="matrix(1.0, -0.0, 0.0, 1.0, 0.0, 0.0)"><g><g style="stroke: #cccccc;stroke-width: 2.976;" transform="matrix(1.0, 0.0, 0.0, 1.0, 0.0, 0.0)"><path d="M 0.0 0.0 L 56.900000000000006 0.0" style="vector-effect: non-scaling-stroke;fill:none;" /></g><g style="stroke: black;stroke-width: 2.976;" transform="matrix(1.0, 0.0, 0.0, 1.0, 56.900000000000006, 0.0)"><g style="fill: #000000;stroke: black;stroke-width: 0.0;" transform="matrix(0.0, 0.2976, -0.2976, 0.0, -0.35711999999999994, 0.0)"><path d="M 0.0 -0.2 L 1.0 0.2 L 0.0 -1.2 L -1.0 0.19999999999999996 L 0.0 -0.2 Z" style="vector-effect: non-scaling-stroke;" /></g></g></g></g></g></g></g></g></g></g></g><g /></g></g></g></g></svg>