<?xml version="1.0" encoding="utf-8" ?>
<svg baseProfile="full" height="1024" version="1.1" width="2790" xmlns="http://www.w3.org/2000/svg" xmlns:ev="http://www.w3.org/2001/xml-events" xmlns:xlink="http://www.w3.org/1999/xlink"><defs><marker id="arrow" markerHeight="3.5" markerWidth="5" orient="auto" refX="5.0" refY="1.7"><polygon points="0,0 5,1.75 0,3.5" /></marker></defs><g style="fill:white;"><g transform="matrix(1.0, 0.0, 0.0, 1.0, 1395.2509960159362, 512.0)"><g transform="matrix(38.85410738000379, 0.0, 0.0, 38.85410738000379, 0.0, 0.0)"><g><g transform="matrix(1.0, 0.0, 0.0, 1.0, -0.0, -0.0)"><g transform="matrix(1.0, 0.0, 0.0, 1.0, -22.650000000000006, -8.881784197001252e-16)"><g><g><g><g><g><g style="fill: #ffffff;stroke: #d60000;stroke-width: 2.0925000000000002;" transform="matrix(1.0, 0.0, 0.0, 1.0, -11.55, -11.45)"><path d="M 0.0 0.0 L 0.0 22.9 A 1.0999999999999999 1.0999999999999999 135.00000000000003 0 0 1.0999999999999999 24.0 L 22.0 24.0 A 1.0999999999999999 1.0999999999999999 45.00000000000002 0 0 23.1 22.9 L 23.1 0.0 A 1.0999999999999999 1.0999999999999999 -44.999999999999986 0 0 22.0 -1.1000000000000003 L 1.1000000000000014 -1.1000000000000003 A 1.0999999999999999 1.0999999999999999 -135.0 0 0 1.1102230246251565e-15 -4.440892098500626e-16 L 1.1102230246251565e-15 0.009999999999999556 Z" style="vector-effect: non-scaling-stroke;" /></g><g transform="matrix(1.0, 0.0, 0.0, 1.0, 8.881784197001252e-16, -10.425)"><g><g><g><g><g><g><g><g style="fill: #000000;stroke: #000000;stroke-width: 0.0;" transform="matrix(1.0, 0.0, 0.0, 1.0, 0.0, 0.0)"><text style="text-align:center; text-anchor:middle; dominant-baseline:middle;&#10;                      font-family:sans-serif; font-weight: bold;&#10;                      font-size:1px;&#10;                      vector-effect: non-scaling-stroke;" transform="translate(-5e-05, 0)">Module</text></g><g /></g><g style="stroke: black;stroke-width: 8.370000000000001;" transform="matrix(0.0, -1.0, 1.0, 0.0, 0.0, 2.0)"><g /></g></g><g transform="matrix(1.0, 0.0, 0.0, 1.0, 0.0, 3.55)"><g><g style="fill: #f6f622;stroke: #d60000;stroke-width: 2.0925000000000002;" transform="matrix(1.0, 0.0, 0.0, 1.0, -10.05, -0.95)"><path d="M 0.0 0.0 L 0.0 1.9 A 0.10000000000000003 0.10000000000000003 135.00000000000003 0 0 0.10000000000000003 2.0 L 20.0 2.0 A 0.10000000000000003 0.10000000000000003 45.00000000000002 0 0 20.1 1.9 L 20.1 0.0 A 0.10000000000000003 0.10000000000000003 -44.999999999999986 0 0 20.0 -0.10000000000000006 L 0.10000000000000142 -0.10000000000000006 A 0.10000000000000003 0.10000000000000003 -135.0 0 0 1.3600232051658168e-15 -2.7755575615628914e-17 L 1.3600232051658168e-15 0.009999999999999972 Z" style="vector-effect: non-scaling-stroke;" /></g><g><g style="fill: #000000;stroke: #000000;stroke-width: 0.0;" transform="matrix(1.0, 0.0, 0.0, 1.0, 0.0, 0.0)"><text style="text-align:center; text-anchor:middle; dominant-baseline:middle;&#10;                      font-family:sans-serif; font-weight: bold;&#10;                      font-size:1px;&#10;                      vector-effect: non-scaling-stroke;" transform="translate(-5e-05, 0)">Target Information</text></g><g /></g></g></g></g><g style="stroke: black;stroke-width: 8.370000000000001;" transform="matrix(0.0, -1.0, 1.0, 0.0, 0.0, 5.1)"><g /></g></g><g transform="matrix(1.0, 0.0, 0.0, 1.0, 0.0, 12.425)"><g><g style="fill: #f6f622;stroke: #d60000;stroke-width: 2.0925000000000002;" transform="matrix(1.0, 0.0, 0.0, 1.0, -10.825, -6.175)"><path d="M 0.0 0.0 L 0.0 12.35 A 0.6500000000000002 0.6500000000000002 135.00000000000003 0 0 0.6500000000000001 13.0 L 21.0 13.0 A 0.6500000000000002 0.6500000000000002 45.000000000000014 0 0 21.65 12.35 L 21.65 0.0 A 0.6500000000000002 0.6500000000000002 -44.999999999999986 0 0 21.0 -0.6500000000000001 L 0.6499999999999986 -0.6500000000000001 A 0.6500000000000002 0.6500000000000002 -135.0 0 0 -1.5543122344752192e-15 0.0 L -1.5543122344752192e-15 0.01 Z" style="vector-effect: non-scaling-stroke;" /></g><g transform="matrix(1.0, 0.0, 0.0, 1.0, -0.0, -4.65)"><g><g><g><g><g><g><g><g style="fill: #000000;stroke: #000000;stroke-width: 0.0;" transform="matrix(1.0, 0.0, 0.0, 1.0, 0.0, 0.0)"><text style="text-align:center; text-anchor:middle; dominant-baseline:middle;&#10;                      font-family:sans-serif; font-weight: bold;&#10;                      font-size:1px;&#10;                      vector-effect: non-scaling-stroke;" transform="translate(-5e-05, 0)">Global Symbols</text></g><g /></g><g style="stroke: black;stroke-width: 8.370000000000001;" transform="matrix(0.0, -1.0, 1.0, 0.0, 0.0, 2.0)"><g /></g></g><g transform="matrix(1.0, 0.0, 0.0, 1.0, 0.0, 3.55)"><g><g style="fill: #ffffff;stroke: #d60000;stroke-width: 2.0925000000000002;" transform="matrix(1.0, 0.0, 0.0, 1.0, -10.05, -0.95)"><path d="M 0.0 0.0 L 0.0 1.9 A 0.10000000000000003 0.10000000000000003 135.00000000000003 0 0 0.10000000000000003 2.0 L 20.0 2.0 A 0.10000000000000003 0.10000000000000003 45.00000000000002 0 0 20.1 1.9 L 20.1 0.0 A 0.10000000000000003 0.10000000000000003 -44.999999999999986 0 0 20.0 -0.10000000000000006 L 0.10000000000000142 -0.10000000000000006 A 0.10000000000000003 0.10000000000000003 -135.0 0 0 1.3600232051658168e-15 -2.7755575615628914e-17 L 1.3600232051658168e-15 0.009999999999999972 Z" style="vector-effect: non-scaling-stroke;" /></g><g><g style="fill: #000000;stroke: #000000;stroke-width: 0.0;" transform="matrix(1.0, 0.0, 0.0, 1.0, 0.0, 0.0)"><text style="text-align:center; text-anchor:middle; dominant-baseline:middle;&#10;                      font-family:sans-serif; font-weight: bold;&#10;                      font-size:1px;&#10;                      vector-effect: non-scaling-stroke;" transform="translate(-5e-05, 0)">[Global Variable]*</text></g><g /></g></g></g></g><g style="stroke: black;stroke-width: 8.370000000000001;" transform="matrix(0.0, -1.0, 1.0, 0.0, 0.0, 5.1)"><g /></g></g><g transform="matrix(1.0, 0.0, 0.0, 1.0, 0.0, 6.6499999999999995)"><g><g style="fill: #ffffff;stroke: #d60000;stroke-width: 2.0925000000000002;" transform="matrix(1.0, 0.0, 0.0, 1.0, -10.05, -0.95)"><path d="M 0.0 0.0 L 0.0 1.9 A 0.10000000000000003 0.10000000000000003 135.00000000000003 0 0 0.10000000000000003 2.0 L 20.0 2.0 A 0.10000000000000003 0.10000000000000003 45.00000000000002 0 0 20.1 1.9 L 20.1 0.0 A 0.10000000000000003 0.10000000000000003 -44.999999999999986 0 0 20.0 -0.10000000000000006 L 0.10000000000000142 -0.10000000000000006 A 0.10000000000000003 0.10000000000000003 -135.0 0 0 1.3600232051658168e-15 -2.7755575615628914e-17 L 1.3600232051658168e-15 0.009999999999999972 Z" style="vector-effect: non-scaling-stroke;" /></g><g><g style="fill: #000000;stroke: #000000;stroke-width: 0.0;" transform="matrix(1.0, 0.0, 0.0, 1.0, 0.0, 0.0)"><text style="text-align:center; text-anchor:middle; dominant-baseline:middle;&#10;                      font-family:sans-serif; font-weight: bold;&#10;                      font-size:1px;&#10;                      vector-effect: non-scaling-stroke;" transform="translate(-5e-05, 0)">[Function Declaration]*</text></g><g /></g></g></g></g><g style="stroke: black;stroke-width: 8.370000000000001;" transform="matrix(0.0, -1.0, 1.0, 0.0, 0.0, 8.2)"><g /></g></g><g transform="matrix(1.0, 0.0, 0.0, 1.0, 0.0, 9.75)"><g><g style="fill: #ffffff;stroke: #00a600;stroke-width: 2.0925000000000002;" transform="matrix(1.0, 0.0, 0.0, 1.0, -10.05, -0.95)"><path d="M 0.0 0.0 L 0.0 1.9 A 0.10000000000000003 0.10000000000000003 135.00000000000003 0 0 0.10000000000000003 2.0 L 20.0 2.0 A 0.10000000000000003 0.10000000000000003 45.00000000000002 0 0 20.1 1.9 L 20.1 0.0 A 0.10000000000000003 0.10000000000000003 -44.999999999999986 0 0 20.0 -0.10000000000000006 L 0.10000000000000142 -0.10000000000000006 A 0.10000000000000003 0.10000000000000003 -135.0 0 0 1.3600232051658168e-15 -2.7755575615628914e-17 L 1.3600232051658168e-15 0.009999999999999972 Z" style="vector-effect: non-scaling-stroke;" /></g><g><g style="fill: #000000;stroke: #000000;stroke-width: 0.0;" transform="matrix(1.0, 0.0, 0.0, 1.0, 0.0, 0.0)"><text style="text-align:center; text-anchor:middle; dominant-baseline:middle;&#10;                      font-family:sans-serif; font-weight: bold;&#10;                      font-size:1px;&#10;                      vector-effect: non-scaling-stroke;" transform="translate(-5e-05, 0)">[Function Declaration]*</text></g><g /></g></g></g></g></g></g></g></g><g style="stroke: black;stroke-width: 8.370000000000001;" transform="matrix(0.0, -1.0, 1.0, 0.0, 0.0, 19.75)"><g /></g></g><g transform="matrix(1.0, 0.0, 0.0, 1.0, 0.0, 21.3)"><g><g style="fill: #f6f622;stroke: #d60000;stroke-width: 2.0925000000000002;" transform="matrix(1.0, 0.0, 0.0, 1.0, -10.05, -0.95)"><path d="M 0.0 0.0 L 0.0 1.9 A 0.10000000000000003 0.10000000000000003 135.00000000000003 0 0 0.10000000000000003 2.0 L 20.0 2.0 A 0.10000000000000003 0.10000000000000003 45.00000000000002 0 0 20.1 1.9 L 20.1 0.0 A 0.10000000000000003 0.10000000000000003 -44.999999999999986 0 0 20.0 -0.10000000000000006 L 0.10000000000000142 -0.10000000000000006 A 0.10000000000000003 0.10000000000000003 -135.0 0 0 1.3600232051658168e-15 -2.7755575615628914e-17 L 1.3600232051658168e-15 0.009999999999999972 Z" style="vector-effect: non-scaling-stroke;" /></g><g><g style="fill: #000000;stroke: #000000;stroke-width: 0.0;" transform="matrix(1.0, 0.0, 0.0, 1.0, 0.0, 0.0)"><text style="text-align:center; text-anchor:middle; dominant-baseline:middle;&#10;                      font-family:sans-serif; font-weight: bold;&#10;                      font-size:1px;&#10;                      vector-effect: non-scaling-stroke;" transform="translate(-5e-05, 0)">Other stuff</text></g><g /></g></g></g></g></g></g><g style="stroke: black;stroke-width: 8.370000000000001;" transform="matrix(1.0, 0.0, 0.0, 1.0, 12.05, 0.0)"><g /></g></g><g transform="matrix(1.0, 0.0, 0.0, 1.0, 23.375, 0.0)"><g><g style="fill: #ffffff;stroke: #00a600;stroke-width: 2.0925000000000002;" transform="matrix(1.0, 0.0, 0.0, 1.0, -10.825, -6.175)"><path d="M 0.0 0.0 L 0.0 12.35 A 0.6500000000000002 0.6500000000000002 135.00000000000003 0 0 0.6500000000000001 13.0 L 21.0 13.0 A 0.6500000000000002 0.6500000000000002 45.000000000000014 0 0 21.65 12.35 L 21.65 0.0 A 0.6500000000000002 0.6500000000000002 -44.999999999999986 0 0 21.0 -0.6500000000000001 L 0.6499999999999986 -0.6500000000000001 A 0.6500000000000002 0.6500000000000002 -135.0 0 0 -1.5543122344752192e-15 0.0 L -1.5543122344752192e-15 0.01 Z" style="vector-effect: non-scaling-stroke;" /></g><g transform="matrix(1.0, 0.0, 0.0, 1.0, -0.0, -4.65)"><g><g><g><g><g><g><g><g style="fill: #000000;stroke: #000000;stroke-width: 0.0;" transform="matrix(1.0, 0.0, 0.0, 1.0, 0.0, 0.0)"><text style="text-align:center; text-anchor:middle; dominant-baseline:middle;&#10;                      font-family:sans-serif; font-weight: bold;&#10;                      font-size:1px;&#10;                      vector-effect: non-scaling-stroke;" transform="translate(-5e-05, 0)">Function</text></g><g /></g><g style="stroke: black;stroke-width: 8.370000000000001;" transform="matrix(0.0, -1.0, 1.0, 0.0, 0.0, 2.0)"><g /></g></g><g transform="matrix(1.0, 0.0, 0.0, 1.0, 0.0, 3.55)"><g><g style="fill: #f6f622;stroke: #00a600;stroke-width: 2.0925000000000002;" transform="matrix(1.0, 0.0, 0.0, 1.0, -10.05, -0.95)"><path d="M 0.0 0.0 L 0.0 1.9 A 0.10000000000000003 0.10000000000000003 135.00000000000003 0 0 0.10000000000000003 2.0 L 20.0 2.0 A 0.10000000000000003 0.10000000000000003 45.00000000000002 0 0 20.1 1.9 L 20.1 0.0 A 0.10000000000000003 0.10000000000000003 -44.999999999999986 0 0 20.0 -0.10000000000000006 L 0.10000000000000142 -0.10000000000000006 A 0.10000000000000003 0.10000000000000003 -135.0 0 0 1.3600232051658168e-15 -2.7755575615628914e-17 L 1.3600232051658168e-15 0.009999999999999972 Z" style="vector-effect: non-scaling-stroke;" /></g><g><g style="fill: #000000;stroke: #000000;stroke-width: 0.0;" transform="matrix(1.0, 0.0, 0.0, 1.0, 0.0, 0.0)"><text style="text-align:center; text-anchor:middle; dominant-baseline:middle;&#10;                      font-family:sans-serif; font-weight: bold;&#10;                      font-size:1px;&#10;                      vector-effect: non-scaling-stroke;" transform="translate(-5e-05, 0)">[Argument]*</text></g><g /></g></g></g></g><g style="stroke: black;stroke-width: 8.370000000000001;" transform="matrix(0.0, -1.0, 1.0, 0.0, 0.0, 5.1)"><g /></g></g><g transform="matrix(1.0, 0.0, 0.0, 1.0, 0.0, 6.6499999999999995)"><g><g style="fill: #f6f622;stroke: #00a600;stroke-width: 2.0925000000000002;" transform="matrix(1.0, 0.0, 0.0, 1.0, -10.05, -0.95)"><path d="M 0.0 0.0 L 0.0 1.9 A 0.10000000000000003 0.10000000000000003 135.00000000000003 0 0 0.10000000000000003 2.0 L 20.0 2.0 A 0.10000000000000003 0.10000000000000003 45.00000000000002 0 0 20.1 1.9 L 20.1 0.0 A 0.10000000000000003 0.10000000000000003 -44.999999999999986 0 0 20.0 -0.10000000000000006 L 0.10000000000000142 -0.10000000000000006 A 0.10000000000000003 0.10000000000000003 -135.0 0 0 1.3600232051658168e-15 -2.7755575615628914e-17 L 1.3600232051658168e-15 0.009999999999999972 Z" style="vector-effect: non-scaling-stroke;" /></g><g><g style="fill: #000000;stroke: #000000;stroke-width: 0.0;" transform="matrix(1.0, 0.0, 0.0, 1.0, 0.0, 0.0)"><text style="text-align:center; text-anchor:middle; dominant-baseline:middle;&#10;                      font-family:sans-serif; font-weight: bold;&#10;                      font-size:1px;&#10;                      vector-effect: non-scaling-stroke;" transform="translate(-5e-05, 0)">[Entry Basic Block]*</text></g><g /></g></g></g></g><g style="stroke: black;stroke-width: 8.370000000000001;" transform="matrix(0.0, -1.0, 1.0, 0.0, 0.0, 8.2)"><g /></g></g><g transform="matrix(1.0, 0.0, 0.0, 1.0, 0.0, 9.75)"><g><g style="fill: #f6f622;stroke: #0000d6;stroke-width: 2.0925000000000002;" transform="matrix(1.0, 0.0, 0.0, 1.0, -10.05, -0.95)"><path d="M 0.0 0.0 L 0.0 1.9 A 0.10000000000000003 0.10000000000000003 135.00000000000003 0 0 0.10000000000000003 2.0 L 20.0 2.0 A 0.10000000000000003 0.10000000000000003 45.00000000000002 0 0 20.1 1.9 L 20.1 0.0 A 0.10000000000000003 0.10000000000000003 -44.999999999999986 0 0 20.0 -0.10000000000000006 L 0.10000000000000142 -0.10000000000000006 A 0.10000000000000003 0.10000000000000003 -135.0 0 0 1.3600232051658168e-15 -2.7755575615628914e-17 L 1.3600232051658168e-15 0.009999999999999972 Z" style="vector-effect: non-scaling-stroke;" /></g><g><g style="fill: #000000;stroke: #000000;stroke-width: 0.0;" transform="matrix(1.0, 0.0, 0.0, 1.0, 0.0, 0.0)"><text style="text-align:center; text-anchor:middle; dominant-baseline:middle;&#10;                      font-family:sans-serif; font-weight: bold;&#10;                      font-size:1px;&#10;                      vector-effect: non-scaling-stroke;" transform="translate(-5e-05, 0)">[Basic Block]*</text></g><g /></g></g></g></g></g></g></g></g><g style="stroke: black;stroke-width: 8.370000000000001;" transform="matrix(1.0, 0.0, 0.0, 1.0, 34.7, 0.0)"><g /></g></g><g transform="matrix(1.0, 0.0, 0.0, 1.0, 46.025000000000006, 0.0)"><g><g style="fill: #ffffff;stroke: #0000d6;stroke-width: 2.0925000000000002;" transform="matrix(1.0, 0.0, 0.0, 1.0, -10.825, -6.175)"><path d="M 0.0 0.0 L 0.0 12.35 A 0.6500000000000002 0.6500000000000002 135.00000000000003 0 0 0.6500000000000001 13.0 L 21.0 13.0 A 0.6500000000000002 0.6500000000000002 45.000000000000014 0 0 21.65 12.35 L 21.65 0.0 A 0.6500000000000002 0.6500000000000002 -44.999999999999986 0 0 21.0 -0.6500000000000001 L 0.6499999999999986 -0.6500000000000001 A 0.6500000000000002 0.6500000000000002 -135.0 0 0 -1.5543122344752192e-15 0.0 L -1.5543122344752192e-15 0.01 Z" style="vector-effect: non-scaling-stroke;" /></g><g transform="matrix(1.0, 0.0, 0.0, 1.0, -0.0, -4.65)"><g><g><g><g><g><g><g><g style="fill: #000000;stroke: #000000;stroke-width: 0.0;" transform="matrix(1.0, 0.0, 0.0, 1.0, 0.0, 0.0)"><text style="text-align:center; text-anchor:middle; dominant-baseline:middle;&#10;                      font-family:sans-serif; font-weight: bold;&#10;                      font-size:1px;&#10;                      vector-effect: non-scaling-stroke;" transform="translate(-5e-05, 0)">Basic Block</text></g><g /></g><g style="stroke: black;stroke-width: 8.370000000000001;" transform="matrix(0.0, -1.0, 1.0, 0.0, 0.0, 2.0)"><g /></g></g><g transform="matrix(1.0, 0.0, 0.0, 1.0, 0.0, 3.55)"><g><g style="fill: #ffffff;stroke: #00a600;stroke-width: 2.0925000000000002;" transform="matrix(1.0, 0.0, 0.0, 1.0, -10.05, -0.95)"><path d="M 0.0 0.0 L 0.0 1.9 A 0.10000000000000003 0.10000000000000003 135.00000000000003 0 0 0.10000000000000003 2.0 L 20.0 2.0 A 0.10000000000000003 0.10000000000000003 45.00000000000002 0 0 20.1 1.9 L 20.1 0.0 A 0.10000000000000003 0.10000000000000003 -44.999999999999986 0 0 20.0 -0.10000000000000006 L 0.10000000000000142 -0.10000000000000006 A 0.10000000000000003 0.10000000000000003 -135.0 0 0 1.3600232051658168e-15 -2.7755575615628914e-17 L 1.3600232051658168e-15 0.009999999999999972 Z" style="vector-effect: non-scaling-stroke;" /></g><g><g style="fill: #000000;stroke: #000000;stroke-width: 0.0;" transform="matrix(1.0, 0.0, 0.0, 1.0, 0.0, 0.0)"><text style="text-align:center; text-anchor:middle; dominant-baseline:middle;&#10;                      font-family:sans-serif; font-weight: bold;&#10;                      font-size:1px;&#10;                      vector-effect: non-scaling-stroke;" transform="translate(-5e-05, 0)">Label</text></g><g /></g></g></g></g><g style="stroke: black;stroke-width: 8.370000000000001;" transform="matrix(0.0, -1.0, 1.0, 0.0, 0.0, 5.1)"><g /></g></g><g transform="matrix(1.0, 0.0, 0.0, 1.0, 0.0, 6.6499999999999995)"><g><g style="fill: #ffffff;stroke: #00a600;stroke-width: 2.0925000000000002;" transform="matrix(1.0, 0.0, 0.0, 1.0, -10.05, -0.95)"><path d="M 0.0 0.0 L 0.0 1.9 A 0.10000000000000003 0.10000000000000003 135.00000000000003 0 0 0.10000000000000003 2.0 L 20.0 2.0 A 0.10000000000000003 0.10000000000000003 45.00000000000002 0 0 20.1 1.9 L 20.1 0.0 A 0.10000000000000003 0.10000000000000003 -44.999999999999986 0 0 20.0 -0.10000000000000006 L 0.10000000000000142 -0.10000000000000006 A 0.10000000000000003 0.10000000000000003 -135.0 0 0 1.3600232051658168e-15 -2.7755575615628914e-17 L 1.3600232051658168e-15 0.009999999999999972 Z" style="vector-effect: non-scaling-stroke;" /></g><g><g style="fill: #000000;stroke: #000000;stroke-width: 0.0;" transform="matrix(1.0, 0.0, 0.0, 1.0, 0.0, 0.0)"><text style="text-align:center; text-anchor:middle; dominant-baseline:middle;&#10;                      font-family:sans-serif; font-weight: bold;&#10;                      font-size:1px;&#10;                      vector-effect: non-scaling-stroke;" transform="translate(-5e-05, 0)">[Phi Instruction]*</text></g><g /></g></g></g></g><g style="stroke: black;stroke-width: 8.370000000000001;" transform="matrix(0.0, -1.0, 1.0, 0.0, 0.0, 8.2)"><g /></g></g><g transform="matrix(1.0, 0.0, 0.0, 1.0, 0.0, 9.75)"><g><g style="fill: #ffffff;stroke: #00a600;stroke-width: 2.0925000000000002;" transform="matrix(1.0, 0.0, 0.0, 1.0, -10.05, -0.95)"><path d="M 0.0 0.0 L 0.0 1.9 A 0.10000000000000003 0.10000000000000003 135.00000000000003 0 0 0.10000000000000003 2.0 L 20.0 2.0 A 0.10000000000000003 0.10000000000000003 45.00000000000002 0 0 20.1 1.9 L 20.1 0.0 A 0.10000000000000003 0.10000000000000003 -44.999999999999986 0 0 20.0 -0.10000000000000006 L 0.10000000000000142 -0.10000000000000006 A 0.10000000000000003 0.10000000000000003 -135.0 0 0 1.3600232051658168e-15 -2.7755575615628914e-17 L 1.3600232051658168e-15 0.009999999999999972 Z" style="vector-effect: non-scaling-stroke;" /></g><g><g style="fill: #000000;stroke: #000000;stroke-width: 0.0;" transform="matrix(1.0, 0.0, 0.0, 1.0, 0.0, 0.0)"><text style="text-align:center; text-anchor:middle; dominant-baseline:middle;&#10;                      font-family:sans-serif; font-weight: bold;&#10;                      font-size:1px;&#10;                      vector-effect: non-scaling-stroke;" transform="translate(-5e-05, 0)">[Instruction]*</text></g><g /></g></g></g></g></g></g></g></g></g></g><g /></g></g></g></g></svg>