<?xml version="1.0" encoding="utf-8" ?>
<svg baseProfile="full" height="512" version="1.1" width="539" xmlns="http://www.w3.org/2000/svg" xmlns:ev="http://www.w3.org/2001/xml-events" xmlns:xlink="http://www.w3.org/1999/xlink"><defs><marker id="arrow" markerHeight="3.5" markerWidth="5" orient="auto" refX="5.0" refY="1.7"><polygon points="0,0 5,1.75 0,3.5" /></marker></defs><g style="fill:white;"><g transform="matrix(1.0, 0.0, 0.0, 1.0, 269.8432601880878, 256.0)"><g transform="matrix(3.821465890431408, 0.0, 0.0, 3.821465890431408, 0.0, 0.0)"><g><g transform="matrix(1.0, 0.0, 0.0, 1.0, -0.0, -48.49999999999999)"><g><g><g><g transform="matrix(1.0, 0.0, 0.0, 1.0, -40.5, 81.1)"><g><g style="stroke: black;stroke-width: 1.617;" transform="matrix(1.0, 0.0, 0.0, 1.0, 0.0, 0.0)"><path d="M 0.0 0.0 L 0.0 0.0 L 0.0 -10.09999999999998" style="vector-effect: non-scaling-stroke;fill:none;" /></g><g style="fill: #000000;stroke: black;stroke-width: 0.0;" transform="matrix(1.0, 0.0, 0.0, 1.0, 0.0, -8.89999999999998)"><path d="M 0.0 -0.2 L 1.0 0.2 L 0.0 -1.2 L -1.0 0.19999999999999996 L 0.0 -0.2 Z" style="vector-effect: non-scaling-stroke;" /></g></g></g><g><g transform="matrix(1.0, 0.0, 0.0, 1.0, -37.5, 60.500000000000014)"><g><g style="stroke: black;stroke-width: 1.617;" transform="matrix(1.0, 0.0, 0.0, 1.0, 0.0, 0.0)"><path d="M 0.0 0.0 L 0.0 0.0 L 0.0 -10.100000000000009" style="vector-effect: non-scaling-stroke;fill:none;" /></g><g style="fill: #000000;stroke: black;stroke-width: 0.0;" transform="matrix(1.0, 0.0, 0.0, 1.0, 0.0, -8.90000000000001)"><path d="M 0.0 -0.2 L 1.0 0.2 L 0.0 -1.2 L -1.0 0.19999999999999996 L 0.0 -0.2 Z" style="vector-effect: non-scaling-stroke;" /></g></g></g><g><g transform="matrix(1.0, 0.0, 0.0, 1.0, 0.0, 81.1)"><g><g style="stroke: black;stroke-width: 1.617;" transform="matrix(1.0, 0.0, 0.0, 1.0, 0.0, 0.0)"><path d="M 0.0 0.0 L 0.0 0.0 L 0.0 -10.09999999999998" style="vector-effect: non-scaling-stroke;fill:none;" /></g><g style="fill: #000000;stroke: black;stroke-width: 0.0;" transform="matrix(1.0, 0.0, 0.0, 1.0, 0.0, -8.89999999999998)"><path d="M 0.0 -0.2 L 1.0 0.2 L 0.0 -1.2 L -1.0 0.19999999999999996 L 0.0 -0.2 Z" style="vector-effect: non-scaling-stroke;" /></g></g></g><g><g transform="matrix(1.0, 0.0, 0.0, 1.0, -2.0, 60.500000000000014)"><g><g style="stroke: black;stroke-width: 1.617;" transform="matrix(1.0, 0.0, 0.0, 1.0, 0.0, 0.0)"><path d="M 0.0 0.0 L 0.0 0.0 L 0.0 -10.100000000000009" style="vector-effect: non-scaling-stroke;fill:none;" /></g><g style="fill: #000000;stroke: black;stroke-width: 0.0;" transform="matrix(1.0, 0.0, 0.0, 1.0, 0.0, -8.90000000000001)"><path d="M 0.0 -0.2 L 1.0 0.2 L 0.0 -1.2 L -1.0 0.19999999999999996 L 0.0 -0.2 Z" style="vector-effect: non-scaling-stroke;" /></g></g></g><g><g transform="matrix(1.0, 0.0, 0.0, 1.0, 40.5, 81.1)"><g><g style="stroke: black;stroke-width: 1.617;" transform="matrix(1.0, 0.0, 0.0, 1.0, 0.0, 0.0)"><path d="M 0.0 0.0 L 0.0 0.0 L 0.0 -10.09999999999998" style="vector-effect: non-scaling-stroke;fill:none;" /></g><g style="fill: #000000;stroke: black;stroke-width: 0.0;" transform="matrix(1.0, 0.0, 0.0, 1.0, 0.0, -8.89999999999998)"><path d="M 0.0 -0.2 L 1.0 0.2 L 0.0 -1.2 L -1.0 0.19999999999999996 L 0.0 -0.2 Z" style="vector-effect: non-scaling-stroke;" /></g></g></g><g><g transform="matrix(1.0, 0.0, 0.0, 1.0, 33.5, 60.500000000000014)"><g><g style="stroke: black;stroke-width: 1.617;" transform="matrix(1.0, 0.0, 0.0, 1.0, 0.0, 0.0)"><path d="M 0.0 0.0 L 0.0 0.0 L 0.0 -10.100000000000009" style="vector-effect: non-scaling-stroke;fill:none;" /></g><g style="fill: #000000;stroke: black;stroke-width: 0.0;" transform="matrix(1.0, 0.0, 0.0, 1.0, 0.0, -8.90000000000001)"><path d="M 0.0 -0.2 L 1.0 0.2 L 0.0 -1.2 L -1.0 0.19999999999999996 L 0.0 -0.2 Z" style="vector-effect: non-scaling-stroke;" /></g></g></g><g><g><g transform="matrix(1.0, 0.0, 0.0, 1.0, -40.5, 81.1)"><g><g style="stroke: black;stroke-width: 1.617;" transform="matrix(1.0, 0.0, 0.0, 1.0, 0.0, 0.0)"><path d="M 0.0 0.0 L 0.0 0.0 L 0.0 -12.099999999999994" style="vector-effect: non-scaling-stroke;fill:none;" /></g><g style="fill: #000000;stroke: black;stroke-width: 0.0;" transform="matrix(1.0, 0.0, 0.0, 1.0, 0.0, -10.899999999999995)"><path d="M 0.0 -0.2 L 1.0 0.2 L 0.0 -1.2 L -1.0 0.19999999999999996 L 0.0 -0.2 Z" style="vector-effect: non-scaling-stroke;" /></g></g></g><g><g transform="matrix(1.0, 0.0, 0.0, 1.0, -35.5, 58.50000000000001)"><g><g style="stroke: black;stroke-width: 1.617;" transform="matrix(1.0, 0.0, 0.0, 1.0, 0.0, 0.0)"><path d="M 0.0 0.0 L 0.0 0.0 L 0.0 -10.100000000000001" style="vector-effect: non-scaling-stroke;fill:none;" /></g><g style="fill: #000000;stroke: black;stroke-width: 0.0;" transform="matrix(1.0, 0.0, 0.0, 1.0, 0.0, -8.900000000000002)"><path d="M 0.0 -0.2 L 1.0 0.2 L 0.0 -1.2 L -1.0 0.19999999999999996 L 0.0 -0.2 Z" style="vector-effect: non-scaling-stroke;" /></g></g></g><g><g transform="matrix(1.0, 0.0, 0.0, 1.0, 0.0, 81.1)"><g><g style="stroke: black;stroke-width: 1.617;" transform="matrix(1.0, 0.0, 0.0, 1.0, 0.0, 0.0)"><path d="M 0.0 0.0 L 0.0 0.0 L 0.0 -12.099999999999994" style="vector-effect: non-scaling-stroke;fill:none;" /></g><g style="fill: #000000;stroke: black;stroke-width: 0.0;" transform="matrix(1.0, 0.0, 0.0, 1.0, 0.0, -10.899999999999995)"><path d="M 0.0 -0.2 L 1.0 0.2 L 0.0 -1.2 L -1.0 0.19999999999999996 L 0.0 -0.2 Z" style="vector-effect: non-scaling-stroke;" /></g></g></g><g><g transform="matrix(1.0, 0.0, 0.0, 1.0, 0.0, 58.50000000000001)"><g><g style="stroke: black;stroke-width: 1.617;" transform="matrix(1.0, 0.0, 0.0, 1.0, 0.0, 0.0)"><path d="M 0.0 0.0 L 0.0 0.0 L 0.0 -10.100000000000001" style="vector-effect: non-scaling-stroke;fill:none;" /></g><g style="fill: #000000;stroke: black;stroke-width: 0.0;" transform="matrix(1.0, 0.0, 0.0, 1.0, 0.0, -8.900000000000002)"><path d="M 0.0 -0.2 L 1.0 0.2 L 0.0 -1.2 L -1.0 0.19999999999999996 L 0.0 -0.2 Z" style="vector-effect: non-scaling-stroke;" /></g></g></g><g><g transform="matrix(1.0, 0.0, 0.0, 1.0, 40.5, 81.1)"><g><g style="stroke: black;stroke-width: 1.617;" transform="matrix(1.0, 0.0, 0.0, 1.0, 0.0, 0.0)"><path d="M 0.0 0.0 L 0.0 0.0 L 0.0 -12.099999999999994" style="vector-effect: non-scaling-stroke;fill:none;" /></g><g style="fill: #000000;stroke: black;stroke-width: 0.0;" transform="matrix(1.0, 0.0, 0.0, 1.0, 0.0, -10.899999999999995)"><path d="M 0.0 -0.2 L 1.0 0.2 L 0.0 -1.2 L -1.0 0.19999999999999996 L 0.0 -0.2 Z" style="vector-effect: non-scaling-stroke;" /></g></g></g><g><g transform="matrix(1.0, 0.0, 0.0, 1.0, 35.5, 58.50000000000001)"><g><g style="stroke: black;stroke-width: 1.617;" transform="matrix(1.0, 0.0, 0.0, 1.0, 0.0, 0.0)"><path d="M 0.0 0.0 L 0.0 0.0 L 0.0 -10.100000000000001" style="vector-effect: non-scaling-stroke;fill:none;" /></g><g style="fill: #000000;stroke: black;stroke-width: 0.0;" transform="matrix(1.0, 0.0, 0.0, 1.0, 0.0, -8.900000000000002)"><path d="M 0.0 -0.2 L 1.0 0.2 L 0.0 -1.2 L -1.0 0.19999999999999996 L 0.0 -0.2 Z" style="vector-effect: non-scaling-stroke;" /></g></g></g><g><g><g transform="matrix(1.0, 0.0, 0.0, 1.0, -40.5, 81.1)"><g><g style="stroke: black;stroke-width: 1.617;" transform="matrix(1.0, 0.0, 0.0, 1.0, 0.0, 0.0)"><path d="M 0.0 0.0 L 0.0 0.0 L 0.0 -14.099999999999994" style="vector-effect: non-scaling-stroke;fill:none;" /></g><g style="fill: #000000;stroke: black;stroke-width: 0.0;" transform="matrix(1.0, 0.0, 0.0, 1.0, 0.0, -12.899999999999995)"><path d="M 0.0 -0.2 L 1.0 0.2 L 0.0 -1.2 L -1.0 0.19999999999999996 L 0.0 -0.2 Z" style="vector-effect: non-scaling-stroke;" /></g></g></g><g><g transform="matrix(1.0, 0.0, 0.0, 1.0, -33.5, 56.50000000000001)"><g><g style="stroke: black;stroke-width: 1.617;" transform="matrix(1.0, 0.0, 0.0, 1.0, 0.0, 0.0)"><path d="M 0.0 0.0 L 0.0 0.0 L 0.0 -10.100000000000001" style="vector-effect: non-scaling-stroke;fill:none;" /></g><g style="fill: #000000;stroke: black;stroke-width: 0.0;" transform="matrix(1.0, 0.0, 0.0, 1.0, 0.0, -8.900000000000002)"><path d="M 0.0 -0.2 L 1.0 0.2 L 0.0 -1.2 L -1.0 0.19999999999999996 L 0.0 -0.2 Z" style="vector-effect: non-scaling-stroke;" /></g></g></g><g><g transform="matrix(1.0, 0.0, 0.0, 1.0, 0.0, 81.1)"><g><g style="stroke: black;stroke-width: 1.617;" transform="matrix(1.0, 0.0, 0.0, 1.0, 0.0, 0.0)"><path d="M 0.0 0.0 L 0.0 0.0 L 0.0 -14.099999999999994" style="vector-effect: non-scaling-stroke;fill:none;" /></g><g style="fill: #000000;stroke: black;stroke-width: 0.0;" transform="matrix(1.0, 0.0, 0.0, 1.0, 0.0, -12.899999999999995)"><path d="M 0.0 -0.2 L 1.0 0.2 L 0.0 -1.2 L -1.0 0.19999999999999996 L 0.0 -0.2 Z" style="vector-effect: non-scaling-stroke;" /></g></g></g><g><g transform="matrix(1.0, 0.0, 0.0, 1.0, 2.0, 56.50000000000001)"><g><g style="stroke: black;stroke-width: 1.617;" transform="matrix(1.0, 0.0, 0.0, 1.0, 0.0, 0.0)"><path d="M 0.0 0.0 L 0.0 0.0 L 0.0 -10.100000000000001" style="vector-effect: non-scaling-stroke;fill:none;" /></g><g style="fill: #000000;stroke: black;stroke-width: 0.0;" transform="matrix(1.0, 0.0, 0.0, 1.0, 0.0, -8.900000000000002)"><path d="M 0.0 -0.2 L 1.0 0.2 L 0.0 -1.2 L -1.0 0.19999999999999996 L 0.0 -0.2 Z" style="vector-effect: non-scaling-stroke;" /></g></g></g><g><g transform="matrix(1.0, 0.0, 0.0, 1.0, 40.5, 81.1)"><g><g style="stroke: black;stroke-width: 1.617;" transform="matrix(1.0, 0.0, 0.0, 1.0, 0.0, 0.0)"><path d="M 0.0 0.0 L 0.0 0.0 L 0.0 -14.099999999999994" style="vector-effect: non-scaling-stroke;fill:none;" /></g><g style="fill: #000000;stroke: black;stroke-width: 0.0;" transform="matrix(1.0, 0.0, 0.0, 1.0, 0.0, -12.899999999999995)"><path d="M 0.0 -0.2 L 1.0 0.2 L 0.0 -1.2 L -1.0 0.19999999999999996 L 0.0 -0.2 Z" style="vector-effect: non-scaling-stroke;" /></g></g></g><g><g transform="matrix(1.0, 0.0, 0.0, 1.0, 37.5, 56.50000000000001)"><g><g style="stroke: black;stroke-width: 1.617;" transform="matrix(1.0, 0.0, 0.0, 1.0, 0.0, 0.0)"><path d="M 0.0 0.0 L 0.0 0.0 L 0.0 -10.100000000000001" style="vector-effect: non-scaling-stroke;fill:none;" /></g><g style="fill: #000000;stroke: black;stroke-width: 0.0;" transform="matrix(1.0, 0.0, 0.0, 1.0, 0.0, -8.900000000000002)"><path d="M 0.0 -0.2 L 1.0 0.2 L 0.0 -1.2 L -1.0 0.19999999999999996 L 0.0 -0.2 Z" style="vector-effect: non-scaling-stroke;" /></g></g></g><g><g><g transform="matrix(1.0, 0.0, 0.0, 1.0, -40.5, 101.69999999999999)"><g><g style="stroke: black;stroke-width: 1.617;" transform="matrix(1.0, 0.0, 0.0, 1.0, 0.0, 0.0)"><path d="M 0.0 0.0 L 0.0 0.0 L 0.0 -10.099999999999994" style="vector-effect: non-scaling-stroke;fill:none;" /></g><g style="fill: #000000;stroke: black;stroke-width: 0.0;" transform="matrix(1.0, 0.0, 0.0, 1.0, 0.0, -8.899999999999995)"><path d="M 0.0 -0.2 L 1.0 0.2 L 0.0 -1.2 L -1.0 0.19999999999999996 L 0.0 -0.2 Z" style="vector-effect: non-scaling-stroke;" /></g></g></g><g><g transform="matrix(1.0, 0.0, 0.0, 1.0, 0.0, 101.69999999999999)"><g><g style="stroke: black;stroke-width: 1.617;" transform="matrix(1.0, 0.0, 0.0, 1.0, 0.0, 0.0)"><path d="M 0.0 0.0 L 0.0 0.0 L 0.0 -10.099999999999994" style="vector-effect: non-scaling-stroke;fill:none;" /></g><g style="fill: #000000;stroke: black;stroke-width: 0.0;" transform="matrix(1.0, 0.0, 0.0, 1.0, 0.0, -8.899999999999995)"><path d="M 0.0 -0.2 L 1.0 0.2 L 0.0 -1.2 L -1.0 0.19999999999999996 L 0.0 -0.2 Z" style="vector-effect: non-scaling-stroke;" /></g></g></g><g><g transform="matrix(1.0, 0.0, 0.0, 1.0, 40.5, 101.69999999999999)"><g><g style="stroke: black;stroke-width: 1.617;" transform="matrix(1.0, 0.0, 0.0, 1.0, 0.0, 0.0)"><path d="M 0.0 0.0 L 0.0 0.0 L 0.0 -10.099999999999994" style="vector-effect: non-scaling-stroke;fill:none;" /></g><g style="fill: #000000;stroke: black;stroke-width: 0.0;" transform="matrix(1.0, 0.0, 0.0, 1.0, 0.0, -8.899999999999995)"><path d="M 0.0 -0.2 L 1.0 0.2 L 0.0 -1.2 L -1.0 0.19999999999999996 L 0.0 -0.2 Z" style="vector-effect: non-scaling-stroke;" /></g></g></g><g><g><g><g><g><g><g><g><g transform="matrix(1.0, 0.0, 0.0, 1.0, -0.0, -0.04999999999999982)"><g><g><g style="fill: #e8eeeb;stroke: #000000;stroke-width: 1.617;" transform="matrix(1.0, 0.0, 0.0, 1.0, -15.25, -4.75)"><path d="M 0.0 0.0 L 0.0 9.5 A 0.5000000000000001 0.5000000000000001 135.00000000000003 0 0 0.5 10.0 L 30.0 10.0 A 0.5000000000000001 0.5000000000000001 45.000000000000014 0 0 30.5 9.5 L 30.5 0.0 A 0.5000000000000001 0.5000000000000001 -44.999999999999986 0 0 30.0 -0.5000000000000002 L 0.5 -0.5000000000000002 A 0.5000000000000001 0.5000000000000001 -135.0 0 0 -2.220446049250313e-16 -2.220446049250313e-16 L -2.220446049250313e-16 0.009999999999999778 Z" style="vector-effect: non-scaling-stroke;" /></g><g transform="matrix(1.0, 0.0, 0.0, 1.0, 0.0, 0.625)"><g><g style="fill: #000000;stroke: #000000;stroke-width: 0.0;" transform="matrix(1.0, 0.0, 0.0, 1.0, 0.0, 0.0)"><text style="text-align:center; text-anchor:middle; dominant-baseline:middle;&#10;                      font-family:sans-serif; font-weight: bold;&#10;                      font-size:6.666666666666667px;&#10;                      vector-effect: non-scaling-stroke;" transform="translate(-5e-05, 0)">Linear</text></g><g /></g></g></g></g></g><g style="stroke: black;stroke-width: 1.617;" transform="matrix(0.0, -1.0, 1.0, 0.0, 0.0, 10.3)"><g /></g></g><g transform="matrix(1.0, 0.0, 0.0, 1.0, 0.0, 20.6)"><g transform="matrix(1.0, 0.0, 0.0, 1.0, -0.0, -0.04999999999999982)"><g><g><g style="fill: #fef9c1;stroke: #000000;stroke-width: 1.617;" transform="matrix(1.0, 0.0, 0.0, 1.0, -20.25, -4.75)"><path d="M 0.0 0.0 L 0.0 9.5 A 0.5000000000000001 0.5000000000000001 135.00000000000003 0 0 0.5 10.0 L 40.0 10.0 A 0.5000000000000001 0.5000000000000001 45.000000000000014 0 0 40.5 9.5 L 40.5 0.0 A 0.5000000000000001 0.5000000000000001 -44.999999999999986 0 0 40.0 -0.5000000000000002 L 0.5 -0.5000000000000002 A 0.5000000000000001 0.5000000000000001 -135.0 0 0 -2.220446049250313e-16 -2.220446049250313e-16 L -2.220446049250313e-16 0.009999999999999778 Z" style="vector-effect: non-scaling-stroke;" /></g><g transform="matrix(1.0, 0.0, 0.0, 1.0, 0.0, 0.625)"><g><g style="fill: #000000;stroke: #000000;stroke-width: 0.0;" transform="matrix(1.0, 0.0, 0.0, 1.0, 0.0, 0.0)"><text style="text-align:center; text-anchor:middle; dominant-baseline:middle;&#10;                      font-family:sans-serif; font-weight: bold;&#10;                      font-size:6.666666666666667px;&#10;                      vector-effect: non-scaling-stroke;" transform="translate(-5e-05, 0)">Concat</text></g><g /></g></g></g></g></g></g></g><g style="stroke: black;stroke-width: 1.617;" transform="matrix(0.0, -1.0, 1.0, 0.0, 0.0, 30.9)"><g /></g></g><g transform="matrix(1.0, 0.0, 0.0, 1.0, 0.0, 53.5)"><g transform="matrix(1.0, 0.0, 0.0, 1.0, 2.0, -2.000000000000001)"><g transform="matrix(1.0, 0.0, 0.0, 1.0, -2.0, 2.0)"><g transform="matrix(1.0, 0.0, 0.0, 1.0, 2.0, -2.0000000000000018)"><g><g><g><g /><g transform="matrix(1.0, 0.0, 0.0, 1.0, 0.0, 0.0)"><g transform="matrix(1.0, 0.0, 0.0, 1.0, -0.0, -10.299999999999999)"><g><g><g transform="matrix(1.0, 0.0, 0.0, 1.0, -0.0, -0.04999999999999982)"><g><g><g style="fill: #c4bedf;stroke: #000000;stroke-width: 1.617;fill-opacity: 0.4666666666666667;" transform="matrix(1.0, 0.0, 0.0, 1.0, -65.25, -4.75)"><path d="M 0.0 0.0 L 0.0 9.5 A 0.5000000000000001 0.5000000000000001 135.00000000000003 0 0 0.5 10.0 L 130.0 10.0 A 0.5000000000000001 0.5000000000000001 45.000000000000014 0 0 130.5 9.5 L 130.5 0.0 A 0.5000000000000001 0.5000000000000001 -44.999999999999986 0 0 130.0 -0.5000000000000002 L 0.5 -0.5000000000000002 A 0.5000000000000001 0.5000000000000001 -135.0 0 0 -2.220446049250313e-16 -2.220446049250313e-16 L -2.220446049250313e-16 0.009999999999999778 Z" style="vector-effect: non-scaling-stroke;" /></g><g transform="matrix(1.0, 0.0, 0.0, 1.0, 0.0, 0.625)"><g><g style="fill: #000000;stroke: #000000;stroke-width: 0.0;fill-opacity: 0.4666666666666667;" transform="matrix(1.0, 0.0, 0.0, 1.0, 0.0, 0.0)"><text style="text-align:center; text-anchor:middle; dominant-baseline:middle;&#10;                      font-family:sans-serif; font-weight: bold;&#10;                      font-size:6.666666666666667px;&#10;                      vector-effect: non-scaling-stroke;" transform="translate(-5e-05, 0)">Scaled Dot Product Attention</text></g><g /></g></g></g></g></g><g style="stroke: black;stroke-width: 1.617;fill-opacity: 0.4666666666666667;" transform="matrix(0.0, -1.0, 1.0, 0.0, 0.0, 10.3)"><g /></g></g><g transform="matrix(1.0, 0.0, 0.0, 1.0, 0.0, 20.6)"><g transform="matrix(1.0, 0.0, 0.0, 1.0, -35.5, -0.04999999999999982)"><g><g><g><g><g><g><g style="fill: #e8eeeb;stroke: #000000;stroke-width: 1.617;fill-opacity: 0.4666666666666667;" transform="matrix(1.0, 0.0, 0.0, 1.0, -15.25, -4.75)"><path d="M 0.0 0.0 L 0.0 9.5 A 0.5000000000000001 0.5000000000000001 135.00000000000003 0 0 0.5 10.0 L 30.0 10.0 A 0.5000000000000001 0.5000000000000001 45.000000000000014 0 0 30.5 9.5 L 30.5 0.0 A 0.5000000000000001 0.5000000000000001 -44.999999999999986 0 0 30.0 -0.5000000000000002 L 0.5 -0.5000000000000002 A 0.5000000000000001 0.5000000000000001 -135.0 0 0 -2.220446049250313e-16 -2.220446049250313e-16 L -2.220446049250313e-16 0.009999999999999778 Z" style="vector-effect: non-scaling-stroke;" /></g><g transform="matrix(1.0, 0.0, 0.0, 1.0, 0.0, 0.625)"><g><g style="fill: #000000;stroke: #000000;stroke-width: 0.0;fill-opacity: 0.4666666666666667;" transform="matrix(1.0, 0.0, 0.0, 1.0, 0.0, 0.0)"><text style="text-align:center; text-anchor:middle; dominant-baseline:middle;&#10;                      font-family:sans-serif; font-weight: bold;&#10;                      font-size:6.666666666666667px;&#10;                      vector-effect: non-scaling-stroke;" transform="translate(-5e-05, 0)">Linear</text></g><g /></g></g></g></g><g style="stroke: black;stroke-width: 1.617;fill-opacity: 0.4666666666666667;" transform="matrix(1.0, 0.0, 0.0, 1.0, 17.75, 0.0)"><g /></g></g><g transform="matrix(1.0, 0.0, 0.0, 1.0, 35.5, 0.0)"><g><g><g style="fill: #e8eeeb;stroke: #000000;stroke-width: 1.617;fill-opacity: 0.4666666666666667;" transform="matrix(1.0, 0.0, 0.0, 1.0, -15.25, -4.75)"><path d="M 0.0 0.0 L 0.0 9.5 A 0.5000000000000001 0.5000000000000001 135.00000000000003 0 0 0.5 10.0 L 30.0 10.0 A 0.5000000000000001 0.5000000000000001 45.000000000000014 0 0 30.5 9.5 L 30.5 0.0 A 0.5000000000000001 0.5000000000000001 -44.999999999999986 0 0 30.0 -0.5000000000000002 L 0.5 -0.5000000000000002 A 0.5000000000000001 0.5000000000000001 -135.0 0 0 -2.220446049250313e-16 -2.220446049250313e-16 L -2.220446049250313e-16 0.009999999999999778 Z" style="vector-effect: non-scaling-stroke;" /></g><g transform="matrix(1.0, 0.0, 0.0, 1.0, 0.0, 0.625)"><g><g style="fill: #000000;stroke: #000000;stroke-width: 0.0;fill-opacity: 0.4666666666666667;" transform="matrix(1.0, 0.0, 0.0, 1.0, 0.0, 0.0)"><text style="text-align:center; text-anchor:middle; dominant-baseline:middle;&#10;                      font-family:sans-serif; font-weight: bold;&#10;                      font-size:6.666666666666667px;&#10;                      vector-effect: non-scaling-stroke;" transform="translate(-5e-05, 0)">Linear</text></g><g /></g></g></g></g></g></g><g style="stroke: black;stroke-width: 1.617;fill-opacity: 0.4666666666666667;" transform="matrix(1.0, 0.0, 0.0, 1.0, 53.25, 0.0)"><g /></g></g><g transform="matrix(1.0, 0.0, 0.0, 1.0, 71.0, 0.0)"><g><g><g style="fill: #e8eeeb;stroke: #000000;stroke-width: 1.617;fill-opacity: 0.4666666666666667;" transform="matrix(1.0, 0.0, 0.0, 1.0, -15.25, -4.75)"><path d="M 0.0 0.0 L 0.0 9.5 A 0.5000000000000001 0.5000000000000001 135.00000000000003 0 0 0.5 10.0 L 30.0 10.0 A 0.5000000000000001 0.5000000000000001 45.000000000000014 0 0 30.5 9.5 L 30.5 0.0 A 0.5000000000000001 0.5000000000000001 -44.999999999999986 0 0 30.0 -0.5000000000000002 L 0.5 -0.5000000000000002 A 0.5000000000000001 0.5000000000000001 -135.0 0 0 -2.220446049250313e-16 -2.220446049250313e-16 L -2.220446049250313e-16 0.009999999999999778 Z" style="vector-effect: non-scaling-stroke;" /></g><g transform="matrix(1.0, 0.0, 0.0, 1.0, 0.0, 0.625)"><g><g style="fill: #000000;stroke: #000000;stroke-width: 0.0;fill-opacity: 0.4666666666666667;" transform="matrix(1.0, 0.0, 0.0, 1.0, 0.0, 0.0)"><text style="text-align:center; text-anchor:middle; dominant-baseline:middle;&#10;                      font-family:sans-serif; font-weight: bold;&#10;                      font-size:6.666666666666667px;&#10;                      vector-effect: non-scaling-stroke;" transform="translate(-5e-05, 0)">Linear</text></g><g /></g></g></g></g></g></g></g></g></g></g></g></g><g transform="matrix(1.0, 0.0, 0.0, 1.0, -2.0, 2.0)"><g transform="matrix(1.0, 0.0, 0.0, 1.0, -0.0, -10.299999999999999)"><g><g><g transform="matrix(1.0, 0.0, 0.0, 1.0, -0.0, -0.04999999999999982)"><g><g><g style="fill: #c4bedf;stroke: #000000;stroke-width: 1.617;fill-opacity: 0.7333333333333334;" transform="matrix(1.0, 0.0, 0.0, 1.0, -65.25, -4.75)"><path d="M 0.0 0.0 L 0.0 9.5 A 0.5000000000000001 0.5000000000000001 135.00000000000003 0 0 0.5 10.0 L 130.0 10.0 A 0.5000000000000001 0.5000000000000001 45.000000000000014 0 0 130.5 9.5 L 130.5 0.0 A 0.5000000000000001 0.5000000000000001 -44.999999999999986 0 0 130.0 -0.5000000000000002 L 0.5 -0.5000000000000002 A 0.5000000000000001 0.5000000000000001 -135.0 0 0 -2.220446049250313e-16 -2.220446049250313e-16 L -2.220446049250313e-16 0.009999999999999778 Z" style="vector-effect: non-scaling-stroke;" /></g><g transform="matrix(1.0, 0.0, 0.0, 1.0, 0.0, 0.625)"><g><g style="fill: #000000;stroke: #000000;stroke-width: 0.0;fill-opacity: 0.7333333333333334;" transform="matrix(1.0, 0.0, 0.0, 1.0, 0.0, 0.0)"><text style="text-align:center; text-anchor:middle; dominant-baseline:middle;&#10;                      font-family:sans-serif; font-weight: bold;&#10;                      font-size:6.666666666666667px;&#10;                      vector-effect: non-scaling-stroke;" transform="translate(-5e-05, 0)">Scaled Dot Product Attention</text></g><g /></g></g></g></g></g><g style="stroke: black;stroke-width: 1.617;fill-opacity: 0.7333333333333334;" transform="matrix(0.0, -1.0, 1.0, 0.0, 0.0, 10.3)"><g /></g></g><g transform="matrix(1.0, 0.0, 0.0, 1.0, 0.0, 20.6)"><g transform="matrix(1.0, 0.0, 0.0, 1.0, -35.5, -0.04999999999999982)"><g><g><g><g><g><g><g style="fill: #e8eeeb;stroke: #000000;stroke-width: 1.617;fill-opacity: 0.7333333333333334;" transform="matrix(1.0, 0.0, 0.0, 1.0, -15.25, -4.75)"><path d="M 0.0 0.0 L 0.0 9.5 A 0.5000000000000001 0.5000000000000001 135.00000000000003 0 0 0.5 10.0 L 30.0 10.0 A 0.5000000000000001 0.5000000000000001 45.000000000000014 0 0 30.5 9.5 L 30.5 0.0 A 0.5000000000000001 0.5000000000000001 -44.999999999999986 0 0 30.0 -0.5000000000000002 L 0.5 -0.5000000000000002 A 0.5000000000000001 0.5000000000000001 -135.0 0 0 -2.220446049250313e-16 -2.220446049250313e-16 L -2.220446049250313e-16 0.009999999999999778 Z" style="vector-effect: non-scaling-stroke;" /></g><g transform="matrix(1.0, 0.0, 0.0, 1.0, 0.0, 0.625)"><g><g style="fill: #000000;stroke: #000000;stroke-width: 0.0;fill-opacity: 0.7333333333333334;" transform="matrix(1.0, 0.0, 0.0, 1.0, 0.0, 0.0)"><text style="text-align:center; text-anchor:middle; dominant-baseline:middle;&#10;                      font-family:sans-serif; font-weight: bold;&#10;                      font-size:6.666666666666667px;&#10;                      vector-effect: non-scaling-stroke;" transform="translate(-5e-05, 0)">Linear</text></g><g /></g></g></g></g><g style="stroke: black;stroke-width: 1.617;fill-opacity: 0.7333333333333334;" transform="matrix(1.0, 0.0, 0.0, 1.0, 17.75, 0.0)"><g /></g></g><g transform="matrix(1.0, 0.0, 0.0, 1.0, 35.5, 0.0)"><g><g><g style="fill: #e8eeeb;stroke: #000000;stroke-width: 1.617;fill-opacity: 0.7333333333333334;" transform="matrix(1.0, 0.0, 0.0, 1.0, -15.25, -4.75)"><path d="M 0.0 0.0 L 0.0 9.5 A 0.5000000000000001 0.5000000000000001 135.00000000000003 0 0 0.5 10.0 L 30.0 10.0 A 0.5000000000000001 0.5000000000000001 45.000000000000014 0 0 30.5 9.5 L 30.5 0.0 A 0.5000000000000001 0.5000000000000001 -44.999999999999986 0 0 30.0 -0.5000000000000002 L 0.5 -0.5000000000000002 A 0.5000000000000001 0.5000000000000001 -135.0 0 0 -2.220446049250313e-16 -2.220446049250313e-16 L -2.220446049250313e-16 0.009999999999999778 Z" style="vector-effect: non-scaling-stroke;" /></g><g transform="matrix(1.0, 0.0, 0.0, 1.0, 0.0, 0.625)"><g><g style="fill: #000000;stroke: #000000;stroke-width: 0.0;fill-opacity: 0.7333333333333334;" transform="matrix(1.0, 0.0, 0.0, 1.0, 0.0, 0.0)"><text style="text-align:center; text-anchor:middle; dominant-baseline:middle;&#10;                      font-family:sans-serif; font-weight: bold;&#10;                      font-size:6.666666666666667px;&#10;                      vector-effect: non-scaling-stroke;" transform="translate(-5e-05, 0)">Linear</text></g><g /></g></g></g></g></g></g><g style="stroke: black;stroke-width: 1.617;fill-opacity: 0.7333333333333334;" transform="matrix(1.0, 0.0, 0.0, 1.0, 53.25, 0.0)"><g /></g></g><g transform="matrix(1.0, 0.0, 0.0, 1.0, 71.0, 0.0)"><g><g><g style="fill: #e8eeeb;stroke: #000000;stroke-width: 1.617;fill-opacity: 0.7333333333333334;" transform="matrix(1.0, 0.0, 0.0, 1.0, -15.25, -4.75)"><path d="M 0.0 0.0 L 0.0 9.5 A 0.5000000000000001 0.5000000000000001 135.00000000000003 0 0 0.5 10.0 L 30.0 10.0 A 0.5000000000000001 0.5000000000000001 45.000000000000014 0 0 30.5 9.5 L 30.5 0.0 A 0.5000000000000001 0.5000000000000001 -44.999999999999986 0 0 30.0 -0.5000000000000002 L 0.5 -0.5000000000000002 A 0.5000000000000001 0.5000000000000001 -135.0 0 0 -2.220446049250313e-16 -2.220446049250313e-16 L -2.220446049250313e-16 0.009999999999999778 Z" style="vector-effect: non-scaling-stroke;" /></g><g transform="matrix(1.0, 0.0, 0.0, 1.0, 0.0, 0.625)"><g><g style="fill: #000000;stroke: #000000;stroke-width: 0.0;fill-opacity: 0.7333333333333334;" transform="matrix(1.0, 0.0, 0.0, 1.0, 0.0, 0.0)"><text style="text-align:center; text-anchor:middle; dominant-baseline:middle;&#10;                      font-family:sans-serif; font-weight: bold;&#10;                      font-size:6.666666666666667px;&#10;                      vector-effect: non-scaling-stroke;" transform="translate(-5e-05, 0)">Linear</text></g><g /></g></g></g></g></g></g></g></g></g></g></g></g><g transform="matrix(1.0, 0.0, 0.0, 1.0, -4.0, 4.0)"><g transform="matrix(1.0, 0.0, 0.0, 1.0, -0.0, -10.299999999999999)"><g><g><g transform="matrix(1.0, 0.0, 0.0, 1.0, -0.0, -0.04999999999999982)"><g><g><g style="fill: #c4bedf;stroke: #000000;stroke-width: 1.617;fill-opacity: 1.0000000000000002;" transform="matrix(1.0, 0.0, 0.0, 1.0, -65.25, -4.75)"><path d="M 0.0 0.0 L 0.0 9.5 A 0.5000000000000001 0.5000000000000001 135.00000000000003 0 0 0.5 10.0 L 130.0 10.0 A 0.5000000000000001 0.5000000000000001 45.000000000000014 0 0 130.5 9.5 L 130.5 0.0 A 0.5000000000000001 0.5000000000000001 -44.999999999999986 0 0 130.0 -0.5000000000000002 L 0.5 -0.5000000000000002 A 0.5000000000000001 0.5000000000000001 -135.0 0 0 -2.220446049250313e-16 -2.220446049250313e-16 L -2.220446049250313e-16 0.009999999999999778 Z" style="vector-effect: non-scaling-stroke;" /></g><g transform="matrix(1.0, 0.0, 0.0, 1.0, 0.0, 0.625)"><g><g style="fill: #000000;stroke: #000000;stroke-width: 0.0;fill-opacity: 1.0000000000000002;" transform="matrix(1.0, 0.0, 0.0, 1.0, 0.0, 0.0)"><text style="text-align:center; text-anchor:middle; dominant-baseline:middle;&#10;                      font-family:sans-serif; font-weight: bold;&#10;                      font-size:6.666666666666667px;&#10;                      vector-effect: non-scaling-stroke;" transform="translate(-5e-05, 0)">Scaled Dot Product Attention</text></g><g /></g></g></g></g></g><g style="stroke: black;stroke-width: 1.617;fill-opacity: 1.0000000000000002;" transform="matrix(0.0, -1.0, 1.0, 0.0, 0.0, 10.3)"><g /></g></g><g transform="matrix(1.0, 0.0, 0.0, 1.0, 0.0, 20.6)"><g transform="matrix(1.0, 0.0, 0.0, 1.0, -35.5, -0.04999999999999982)"><g><g><g><g><g><g><g style="fill: #e8eeeb;stroke: #000000;stroke-width: 1.617;fill-opacity: 1.0000000000000002;" transform="matrix(1.0, 0.0, 0.0, 1.0, -15.25, -4.75)"><path d="M 0.0 0.0 L 0.0 9.5 A 0.5000000000000001 0.5000000000000001 135.00000000000003 0 0 0.5 10.0 L 30.0 10.0 A 0.5000000000000001 0.5000000000000001 45.000000000000014 0 0 30.5 9.5 L 30.5 0.0 A 0.5000000000000001 0.5000000000000001 -44.999999999999986 0 0 30.0 -0.5000000000000002 L 0.5 -0.5000000000000002 A 0.5000000000000001 0.5000000000000001 -135.0 0 0 -2.220446049250313e-16 -2.220446049250313e-16 L -2.220446049250313e-16 0.009999999999999778 Z" style="vector-effect: non-scaling-stroke;" /></g><g transform="matrix(1.0, 0.0, 0.0, 1.0, 0.0, 0.625)"><g><g style="fill: #000000;stroke: #000000;stroke-width: 0.0;fill-opacity: 1.0000000000000002;" transform="matrix(1.0, 0.0, 0.0, 1.0, 0.0, 0.0)"><text style="text-align:center; text-anchor:middle; dominant-baseline:middle;&#10;                      font-family:sans-serif; font-weight: bold;&#10;                      font-size:6.666666666666667px;&#10;                      vector-effect: non-scaling-stroke;" transform="translate(-5e-05, 0)">Linear</text></g><g /></g></g></g></g><g style="stroke: black;stroke-width: 1.617;fill-opacity: 1.0000000000000002;" transform="matrix(1.0, 0.0, 0.0, 1.0, 17.75, 0.0)"><g /></g></g><g transform="matrix(1.0, 0.0, 0.0, 1.0, 35.5, 0.0)"><g><g><g style="fill: #e8eeeb;stroke: #000000;stroke-width: 1.617;fill-opacity: 1.0000000000000002;" transform="matrix(1.0, 0.0, 0.0, 1.0, -15.25, -4.75)"><path d="M 0.0 0.0 L 0.0 9.5 A 0.5000000000000001 0.5000000000000001 135.00000000000003 0 0 0.5 10.0 L 30.0 10.0 A 0.5000000000000001 0.5000000000000001 45.000000000000014 0 0 30.5 9.5 L 30.5 0.0 A 0.5000000000000001 0.5000000000000001 -44.999999999999986 0 0 30.0 -0.5000000000000002 L 0.5 -0.5000000000000002 A 0.5000000000000001 0.5000000000000001 -135.0 0 0 -2.220446049250313e-16 -2.220446049250313e-16 L -2.220446049250313e-16 0.009999999999999778 Z" style="vector-effect: non-scaling-stroke;" /></g><g transform="matrix(1.0, 0.0, 0.0, 1.0, 0.0, 0.625)"><g><g style="fill: #000000;stroke: #000000;stroke-width: 0.0;fill-opacity: 1.0000000000000002;" transform="matrix(1.0, 0.0, 0.0, 1.0, 0.0, 0.0)"><text style="text-align:center; text-anchor:middle; dominant-baseline:middle;&#10;                      font-family:sans-serif; font-weight: bold;&#10;                      font-size:6.666666666666667px;&#10;                      vector-effect: non-scaling-stroke;" transform="translate(-5e-05, 0)">Linear</text></g><g /></g></g></g></g></g></g><g style="stroke: black;stroke-width: 1.617;fill-opacity: 1.0000000000000002;" transform="matrix(1.0, 0.0, 0.0, 1.0, 53.25, 0.0)"><g /></g></g><g transform="matrix(1.0, 0.0, 0.0, 1.0, 71.0, 0.0)"><g><g><g style="fill: #e8eeeb;stroke: #000000;stroke-width: 1.617;fill-opacity: 1.0000000000000002;" transform="matrix(1.0, 0.0, 0.0, 1.0, -15.25, -4.75)"><path d="M 0.0 0.0 L 0.0 9.5 A 0.5000000000000001 0.5000000000000001 135.00000000000003 0 0 0.5 10.0 L 30.0 10.0 A 0.5000000000000001 0.5000000000000001 45.000000000000014 0 0 30.5 9.5 L 30.5 0.0 A 0.5000000000000001 0.5000000000000001 -44.999999999999986 0 0 30.0 -0.5000000000000002 L 0.5 -0.5000000000000002 A 0.5000000000000001 0.5000000000000001 -135.0 0 0 -2.220446049250313e-16 -2.220446049250313e-16 L -2.220446049250313e-16 0.009999999999999778 Z" style="vector-effect: non-scaling-stroke;" /></g><g transform="matrix(1.0, 0.0, 0.0, 1.0, 0.0, 0.625)"><g><g style="fill: #000000;stroke: #000000;stroke-width: 0.0;fill-opacity: 1.0000000000000002;" transform="matrix(1.0, 0.0, 0.0, 1.0, 0.0, 0.0)"><text style="text-align:center; text-anchor:middle; dominant-baseline:middle;&#10;                      font-family:sans-serif; font-weight: bold;&#10;                      font-size:6.666666666666667px;&#10;                      vector-effect: non-scaling-stroke;" transform="translate(-5e-05, 0)">Linear</text></g><g /></g></g></g></g></g></g></g></g></g></g></g></g></g></g></g></g></g><g style="stroke: black;stroke-width: 1.617;" transform="matrix(0.0, -1.0, 1.0, 0.0, 0.0, 76.1)"><g /></g></g><g transform="matrix(1.0, 0.0, 0.0, 1.0, 0.0, 86.39999999999999)"><g transform="matrix(1.0, 0.0, 0.0, 1.0, -40.5, -0.04999999999999982)"><g><g><g><g><g><g><g style="fill: #fef9c1;stroke: #000000;stroke-width: 1.617;" transform="matrix(1.0, 0.0, 0.0, 1.0, -15.25, -4.75)"><path d="M 0.0 0.0 L 0.0 9.5 A 0.5000000000000001 0.5000000000000001 135.00000000000003 0 0 0.5 10.0 L 30.0 10.0 A 0.5000000000000001 0.5000000000000001 45.000000000000014 0 0 30.5 9.5 L 30.5 0.0 A 0.5000000000000001 0.5000000000000001 -44.999999999999986 0 0 30.0 -0.5000000000000002 L 0.5 -0.5000000000000002 A 0.5000000000000001 0.5000000000000001 -135.0 0 0 -2.220446049250313e-16 -2.220446049250313e-16 L -2.220446049250313e-16 0.009999999999999778 Z" style="vector-effect: non-scaling-stroke;" /></g><g transform="matrix(1.0, 0.0, 0.0, 1.0, 0.0, 0.625)"><g><g style="fill: #000000;stroke: #000000;stroke-width: 0.0;" transform="matrix(1.0, 0.0, 0.0, 1.0, 0.0, 0.0)"><text style="text-align:center; text-anchor:middle; dominant-baseline:middle;&#10;                      font-family:sans-serif; font-weight: bold;&#10;                      font-size:6.666666666666667px;&#10;                      vector-effect: non-scaling-stroke;" transform="translate(-5e-05, 0)">Split</text></g><g /></g></g></g></g><g style="stroke: black;stroke-width: 1.617;" transform="matrix(1.0, 0.0, 0.0, 1.0, 20.25, 0.0)"><g /></g></g><g transform="matrix(1.0, 0.0, 0.0, 1.0, 40.5, 0.0)"><g><g><g style="fill: #fef9c1;stroke: #000000;stroke-width: 1.617;" transform="matrix(1.0, 0.0, 0.0, 1.0, -15.25, -4.75)"><path d="M 0.0 0.0 L 0.0 9.5 A 0.5000000000000001 0.5000000000000001 135.00000000000003 0 0 0.5 10.0 L 30.0 10.0 A 0.5000000000000001 0.5000000000000001 45.000000000000014 0 0 30.5 9.5 L 30.5 0.0 A 0.5000000000000001 0.5000000000000001 -44.999999999999986 0 0 30.0 -0.5000000000000002 L 0.5 -0.5000000000000002 A 0.5000000000000001 0.5000000000000001 -135.0 0 0 -2.220446049250313e-16 -2.220446049250313e-16 L -2.220446049250313e-16 0.009999999999999778 Z" style="vector-effect: non-scaling-stroke;" /></g><g transform="matrix(1.0, 0.0, 0.0, 1.0, 0.0, 0.625)"><g><g style="fill: #000000;stroke: #000000;stroke-width: 0.0;" transform="matrix(1.0, 0.0, 0.0, 1.0, 0.0, 0.0)"><text style="text-align:center; text-anchor:middle; dominant-baseline:middle;&#10;                      font-family:sans-serif; font-weight: bold;&#10;                      font-size:6.666666666666667px;&#10;                      vector-effect: non-scaling-stroke;" transform="translate(-5e-05, 0)">Split</text></g><g /></g></g></g></g></g></g><g style="stroke: black;stroke-width: 1.617;" transform="matrix(1.0, 0.0, 0.0, 1.0, 60.75, 0.0)"><g /></g></g><g transform="matrix(1.0, 0.0, 0.0, 1.0, 81.0, 0.0)"><g><g><g style="fill: #fef9c1;stroke: #000000;stroke-width: 1.617;" transform="matrix(1.0, 0.0, 0.0, 1.0, -15.25, -4.75)"><path d="M 0.0 0.0 L 0.0 9.5 A 0.5000000000000001 0.5000000000000001 135.00000000000003 0 0 0.5 10.0 L 30.0 10.0 A 0.5000000000000001 0.5000000000000001 45.000000000000014 0 0 30.5 9.5 L 30.5 0.0 A 0.5000000000000001 0.5000000000000001 -44.999999999999986 0 0 30.0 -0.5000000000000002 L 0.5 -0.5000000000000002 A 0.5000000000000001 0.5000000000000001 -135.0 0 0 -2.220446049250313e-16 -2.220446049250313e-16 L -2.220446049250313e-16 0.009999999999999778 Z" style="vector-effect: non-scaling-stroke;" /></g><g transform="matrix(1.0, 0.0, 0.0, 1.0, 0.0, 0.625)"><g><g style="fill: #000000;stroke: #000000;stroke-width: 0.0;" transform="matrix(1.0, 0.0, 0.0, 1.0, 0.0, 0.0)"><text style="text-align:center; text-anchor:middle; dominant-baseline:middle;&#10;                      font-family:sans-serif; font-weight: bold;&#10;                      font-size:6.666666666666667px;&#10;                      vector-effect: non-scaling-stroke;" transform="translate(-5e-05, 0)">Split</text></g><g /></g></g></g></g></g></g></g></g></g><g style="stroke: black;stroke-width: 1.617;" transform="matrix(0.0, -1.0, 1.0, 0.0, 0.0, 96.69999999999999)"><g /></g></g><g transform="matrix(1.0, 0.0, 0.0, 1.0, 0.0, 106.99999999999999)"><g transform="matrix(1.0, 0.0, 0.0, 1.0, -40.5, -0.04999999999999982)"><g><g><g><g><g><g><g style="fill: #ffffff;stroke: #000000;stroke-width: 0.0;" transform="matrix(1.0, 0.0, 0.0, 1.0, -15.25, -4.75)"><path d="M 0.0 0.0 L 0.0 9.5 A 0.5000000000000001 0.5000000000000001 135.00000000000003 0 0 0.5 10.0 L 30.0 10.0 A 0.5000000000000001 0.5000000000000001 45.000000000000014 0 0 30.5 9.5 L 30.5 0.0 A 0.5000000000000001 0.5000000000000001 -44.999999999999986 0 0 30.0 -0.5000000000000002 L 0.5 -0.5000000000000002 A 0.5000000000000001 0.5000000000000001 -135.0 0 0 -2.220446049250313e-16 -2.220446049250313e-16 L -2.220446049250313e-16 0.009999999999999778 Z" style="vector-effect: non-scaling-stroke;" /></g><g transform="matrix(1.0, 0.0, 0.0, 1.0, 0.0, 0.625)"><g><g style="fill: #000000;stroke: #000000;stroke-width: 0.0;" transform="matrix(1.0, 0.0, 0.0, 1.0, 0.0, 0.0)"><text style="text-align:center; text-anchor:middle; dominant-baseline:middle;&#10;                      font-family:sans-serif; font-weight: bold;&#10;                      font-size:6.666666666666667px;&#10;                      vector-effect: non-scaling-stroke;" transform="translate(-5e-05, 0)">V</text></g><g /></g></g></g></g><g style="stroke: black;stroke-width: 1.617;" transform="matrix(1.0, 0.0, 0.0, 1.0, 20.25, 0.0)"><g /></g></g><g transform="matrix(1.0, 0.0, 0.0, 1.0, 40.5, 0.0)"><g><g><g style="fill: #ffffff;stroke: #000000;stroke-width: 0.0;" transform="matrix(1.0, 0.0, 0.0, 1.0, -15.25, -4.75)"><path d="M 0.0 0.0 L 0.0 9.5 A 0.5000000000000001 0.5000000000000001 135.00000000000003 0 0 0.5 10.0 L 30.0 10.0 A 0.5000000000000001 0.5000000000000001 45.000000000000014 0 0 30.5 9.5 L 30.5 0.0 A 0.5000000000000001 0.5000000000000001 -44.999999999999986 0 0 30.0 -0.5000000000000002 L 0.5 -0.5000000000000002 A 0.5000000000000001 0.5000000000000001 -135.0 0 0 -2.220446049250313e-16 -2.220446049250313e-16 L -2.220446049250313e-16 0.009999999999999778 Z" style="vector-effect: non-scaling-stroke;" /></g><g transform="matrix(1.0, 0.0, 0.0, 1.0, 0.0, 0.625)"><g><g style="fill: #000000;stroke: #000000;stroke-width: 0.0;" transform="matrix(1.0, 0.0, 0.0, 1.0, 0.0, 0.0)"><text style="text-align:center; text-anchor:middle; dominant-baseline:middle;&#10;                      font-family:sans-serif; font-weight: bold;&#10;                      font-size:6.666666666666667px;&#10;                      vector-effect: non-scaling-stroke;" transform="translate(-5e-05, 0)">K</text></g><g /></g></g></g></g></g></g><g style="stroke: black;stroke-width: 1.617;" transform="matrix(1.0, 0.0, 0.0, 1.0, 60.75, 0.0)"><g /></g></g><g transform="matrix(1.0, 0.0, 0.0, 1.0, 81.0, 0.0)"><g><g><g style="fill: #ffffff;stroke: #000000;stroke-width: 0.0;" transform="matrix(1.0, 0.0, 0.0, 1.0, -15.25, -4.75)"><path d="M 0.0 0.0 L 0.0 9.5 A 0.5000000000000001 0.5000000000000001 135.00000000000003 0 0 0.5 10.0 L 30.0 10.0 A 0.5000000000000001 0.5000000000000001 45.000000000000014 0 0 30.5 9.5 L 30.5 0.0 A 0.5000000000000001 0.5000000000000001 -44.999999999999986 0 0 30.0 -0.5000000000000002 L 0.5 -0.5000000000000002 A 0.5000000000000001 0.5000000000000001 -135.0 0 0 -2.220446049250313e-16 -2.220446049250313e-16 L -2.220446049250313e-16 0.009999999999999778 Z" style="vector-effect: non-scaling-stroke;" /></g><g transform="matrix(1.0, 0.0, 0.0, 1.0, 0.0, 0.625)"><g><g style="fill: #000000;stroke: #000000;stroke-width: 0.0;" transform="matrix(1.0, 0.0, 0.0, 1.0, 0.0, 0.0)"><text style="text-align:center; text-anchor:middle; dominant-baseline:middle;&#10;                      font-family:sans-serif; font-weight: bold;&#10;                      font-size:6.666666666666667px;&#10;                      vector-effect: non-scaling-stroke;" transform="translate(-5e-05, 0)">Q</text></g><g /></g></g></g></g></g></g></g></g></g></g></g></g><g transform="matrix(1.0, 0.0, 0.0, 1.0, 2.0, 35.900000000000006)"><g><g style="stroke: black;stroke-width: 1.617;" transform="matrix(1.0, 0.0, 0.0, 1.0, 0.0, 0.0)"><path d="M 0.0 0.0 L 0.0 0.0 L 0.0 -10.100000000000005" style="vector-effect: non-scaling-stroke;fill:none;" /></g><g style="fill: #000000;stroke: black;stroke-width: 0.0;" transform="matrix(1.0, 0.0, 0.0, 1.0, 0.0, -8.900000000000006)"><path d="M 0.0 -0.2 L 1.0 0.2 L 0.0 -1.2 L -1.0 0.19999999999999996 L 0.0 -0.2 Z" style="vector-effect: non-scaling-stroke;" /></g></g></g></g></g></g></g></g></g></g><g transform="matrix(1.0, 0.0, 0.0, 1.0, 0.0, 37.900000000000006)"><g><g style="stroke: black;stroke-width: 1.617;" transform="matrix(1.0, 0.0, 0.0, 1.0, 0.0, 0.0)"><path d="M 0.0 0.0 L 0.0 0.0 L 0.0 -12.100000000000005" style="vector-effect: non-scaling-stroke;fill:none;" /></g><g style="fill: #000000;stroke: black;stroke-width: 0.0;" transform="matrix(1.0, 0.0, 0.0, 1.0, 0.0, -10.900000000000006)"><path d="M 0.0 -0.2 L 1.0 0.2 L 0.0 -1.2 L -1.0 0.19999999999999996 L 0.0 -0.2 Z" style="vector-effect: non-scaling-stroke;" /></g></g></g></g></g></g></g></g></g></g><g transform="matrix(1.0, 0.0, 0.0, 1.0, -2.0, 39.900000000000006)"><g><g style="stroke: black;stroke-width: 1.617;" transform="matrix(1.0, 0.0, 0.0, 1.0, 0.0, 0.0)"><path d="M 0.0 0.0 L 0.0 0.0 L 0.0 -14.100000000000005" style="vector-effect: non-scaling-stroke;fill:none;" /></g><g style="fill: #000000;stroke: black;stroke-width: 0.0;" transform="matrix(1.0, 0.0, 0.0, 1.0, 0.0, -12.900000000000006)"><path d="M 0.0 -0.2 L 1.0 0.2 L 0.0 -1.2 L -1.0 0.19999999999999996 L 0.0 -0.2 Z" style="vector-effect: non-scaling-stroke;" /></g></g></g></g></g></g></g></g></g></g><g transform="matrix(1.0, 0.0, 0.0, 1.0, 0.0, 15.3)"><g><g style="stroke: black;stroke-width: 1.617;" transform="matrix(1.0, 0.0, 0.0, 1.0, 0.0, 0.0)"><path d="M 0.0 0.0 L 0.0 0.0 L 0.0 -10.100000000000001" style="vector-effect: non-scaling-stroke;fill:none;" /></g><g style="fill: #000000;stroke: black;stroke-width: 0.0;" transform="matrix(1.0, 0.0, 0.0, 1.0, 0.0, -8.900000000000002)"><path d="M 0.0 -0.2 L 1.0 0.2 L 0.0 -1.2 L -1.0 0.19999999999999996 L 0.0 -0.2 Z" style="vector-effect: non-scaling-stroke;" /></g></g></g></g><g transform="matrix(1.0, 0.0, 0.0, 1.0, 0.0, -5.3)"><g><g style="stroke: black;stroke-width: 1.617;" transform="matrix(1.0, 0.0, 0.0, 1.0, 0.0, 0.0)"><path d="M 0.0 0.0 L 0.0 0.0 L 0.0 -10.0" style="vector-effect: non-scaling-stroke;fill:none;" /></g><g style="fill: #000000;stroke: black;stroke-width: 0.0;" transform="matrix(1.0, 0.0, 0.0, 1.0, 0.0, -8.8)"><path d="M 0.0 -0.2 L 1.0 0.2 L 0.0 -1.2 L -1.0 0.19999999999999996 L 0.0 -0.2 Z" style="vector-effect: non-scaling-stroke;" /></g></g></g></g></g><g /></g></g></g></g></svg>