<?xml version="1.0" encoding="utf-8" ?>
<svg baseProfile="full" height="512" version="1.1" width="887" xmlns="http://www.w3.org/2000/svg" xmlns:ev="http://www.w3.org/2001/xml-events" xmlns:xlink="http://www.w3.org/1999/xlink"><defs><marker id="arrow" markerHeight="3.5" markerWidth="5" orient="auto" refX="5.0" refY="1.7"><polygon points="0,0 5,1.75 0,3.5" /></marker></defs><g style="fill:white;"><g transform="matrix(1.0, 0.0, 0.0, 1.0, 443.7735849056605, 256.0)"><g transform="matrix(3.8334830787660983, 0.0, 0.0, 3.8334830787660983, 0.0, 0.0)"><g><g transform="matrix(1.0, 0.0, 0.0, 1.0, -0.0, -0.0)"><g transform="matrix(1.0, 0.0, 0.0, 1.0, -0.0, -58.29999999999999)"><g><g><g><g><g><g><g><g><g><g><g><g><g><g><g><g><g><g><g><g><g><g><g transform="matrix(1.0, 0.0, 0.0, 1.0, -100.00000000000001, -0.04999999999999982)"><g><g><g><g><g><g><g><g><g><g><g><g><g><g><g><g><g><g><g><g style="stroke: #000000;stroke-width: 0.0;" transform="matrix(1.0, 0.0, 0.0, 1.0, -10.25, -4.75)"><path d="M 0.0 0.0 L 0.0 9.5 A 0.5000000000000001 0.5000000000000001 135.00000000000003 0 0 0.5 10.0 L 20.0 10.0 A 0.5000000000000001 0.5000000000000001 45.000000000000014 0 0 20.5 9.5 L 20.5 0.0 A 0.5000000000000001 0.5000000000000001 -44.999999999999986 0 0 20.0 -0.5000000000000002 L 0.5 -0.5000000000000002 A 0.5000000000000001 0.5000000000000001 -135.0 0 0 -2.220446049250313e-16 -2.220446049250313e-16 L -2.220446049250313e-16 0.009999999999999778 Z" style="vector-effect: non-scaling-stroke;" /></g><g transform="matrix(1.0, 0.0, 0.0, 1.0, 0.0, 0.625)"><g><g style="fill: #000000;stroke: #000000;stroke-width: 0.0;" transform="matrix(1.0, 0.0, 0.0, 1.0, 0.0, 0.0)"><text style="text-align:center; text-anchor:middle; dominant-baseline:middle;&#10;                      font-family:sans-serif; font-weight: bold;&#10;                      font-size:3.3333333333333335px;&#10;                      vector-effect: non-scaling-stroke;" transform="translate(-5e-05, 0)">Pastel1</text></g><g /></g></g></g><g transform="matrix(1.0, 0.0, 0.0, 1.0, 10.25, 0.0)"><g transform="matrix(1.0, -0.0, 0.0, 1.0, 0.0, 0.0)"><g /></g></g></g><g style="fill: #fbb4ae;stroke: black;stroke-width: 0.0;" transform="matrix(1.0, 0.0, 0.0, 1.0, 10.25, -5.0)"><path d="M 0.0 0.0 L 22.22222222222222 0.0 L 22.22222222222222 10.0 L 0.0 10.0 L 0.0 0.0 Z" style="vector-effect: non-scaling-stroke;" /></g></g><g transform="matrix(1.0, 0.0, 0.0, 1.0, 32.47222222222222, 0.0)"><g transform="matrix(1.0, -0.0, 0.0, 1.0, 0.0, 0.0)"><g /></g></g></g><g style="fill: #b3cde3;stroke: black;stroke-width: 0.0;" transform="matrix(1.0, 0.0, 0.0, 1.0, 32.472222222222214, -5.0)"><path d="M 0.0 0.0 L 22.22222222222222 0.0 L 22.22222222222222 10.0 L 0.0 10.0 L 0.0 0.0 Z" style="vector-effect: non-scaling-stroke;" /></g></g><g transform="matrix(1.0, 0.0, 0.0, 1.0, 54.694444444444436, 0.0)"><g transform="matrix(1.0, -0.0, 0.0, 1.0, 0.0, 0.0)"><g /></g></g></g><g style="fill: #ccebc5;stroke: black;stroke-width: 0.0;" transform="matrix(1.0, 0.0, 0.0, 1.0, 54.69444444444443, -5.0)"><path d="M 0.0 0.0 L 22.22222222222222 0.0 L 22.22222222222222 10.0 L 0.0 10.0 L 0.0 0.0 Z" style="vector-effect: non-scaling-stroke;" /></g></g><g transform="matrix(1.0, 0.0, 0.0, 1.0, 76.91666666666666, 0.0)"><g transform="matrix(1.0, -0.0, 0.0, 1.0, 0.0, 0.0)"><g /></g></g></g><g style="fill: #decbe4;stroke: black;stroke-width: 0.0;" transform="matrix(1.0, 0.0, 0.0, 1.0, 76.91666666666666, -5.0)"><path d="M 0.0 0.0 L 22.22222222222222 0.0 L 22.22222222222222 10.0 L 0.0 10.0 L 0.0 0.0 Z" style="vector-effect: non-scaling-stroke;" /></g></g><g transform="matrix(1.0, 0.0, 0.0, 1.0, 99.13888888888889, 0.0)"><g transform="matrix(1.0, -0.0, 0.0, 1.0, 0.0, 0.0)"><g /></g></g></g><g style="fill: #fed9a6;stroke: black;stroke-width: 0.0;" transform="matrix(1.0, 0.0, 0.0, 1.0, 99.13888888888889, -5.0)"><path d="M 0.0 0.0 L 22.22222222222222 0.0 L 22.22222222222222 10.0 L 0.0 10.0 L 0.0 0.0 Z" style="vector-effect: non-scaling-stroke;" /></g></g><g transform="matrix(1.0, 0.0, 0.0, 1.0, 121.36111111111111, 0.0)"><g transform="matrix(1.0, -0.0, 0.0, 1.0, 0.0, 0.0)"><g /></g></g></g><g style="fill: #ffffcc;stroke: black;stroke-width: 0.0;" transform="matrix(1.0, 0.0, 0.0, 1.0, 121.36111111111111, -5.0)"><path d="M 0.0 0.0 L 22.22222222222222 0.0 L 22.22222222222222 10.0 L 0.0 10.0 L 0.0 0.0 Z" style="vector-effect: non-scaling-stroke;" /></g></g><g transform="matrix(1.0, 0.0, 0.0, 1.0, 143.58333333333334, 0.0)"><g transform="matrix(1.0, -0.0, 0.0, 1.0, 0.0, 0.0)"><g /></g></g></g><g style="fill: #e5d8bd;stroke: black;stroke-width: 0.0;" transform="matrix(1.0, 0.0, 0.0, 1.0, 143.58333333333334, -5.0)"><path d="M 0.0 0.0 L 22.22222222222222 0.0 L 22.22222222222222 10.0 L 0.0 10.0 L 0.0 0.0 Z" style="vector-effect: non-scaling-stroke;" /></g></g><g transform="matrix(1.0, 0.0, 0.0, 1.0, 165.80555555555557, 0.0)"><g transform="matrix(1.0, -0.0, 0.0, 1.0, 0.0, 0.0)"><g /></g></g></g><g style="fill: #fddaec;stroke: black;stroke-width: 0.0;" transform="matrix(1.0, 0.0, 0.0, 1.0, 165.80555555555557, -5.0)"><path d="M 0.0 0.0 L 22.22222222222222 0.0 L 22.22222222222222 10.0 L 0.0 10.0 L 0.0 0.0 Z" style="vector-effect: non-scaling-stroke;" /></g></g><g transform="matrix(1.0, 0.0, 0.0, 1.0, 188.0277777777778, 0.0)"><g transform="matrix(1.0, -0.0, 0.0, 1.0, 0.0, 0.0)"><g /></g></g></g><g style="fill: #f2f2f2;stroke: black;stroke-width: 0.0;" transform="matrix(1.0, 0.0, 0.0, 1.0, 188.0277777777778, -5.0)"><path d="M 0.0 0.0 L 22.22222222222222 0.0 L 22.22222222222222 10.0 L 0.0 10.0 L 0.0 0.0 Z" style="vector-effect: non-scaling-stroke;" /></g></g></g><g transform="matrix(1.0, 0.0, 0.0, 1.0, 0.0, 5.3)"><g transform="matrix(0.0, -1.0, 1.0, 0.0, 0.0, 0.0)"><g /></g></g></g><g transform="matrix(1.0, 0.0, 0.0, 1.0, 0.0, 10.6)"><g transform="matrix(1.0, 0.0, 0.0, 1.0, -100.0, -0.04999999999999982)"><g><g><g><g><g><g><g><g><g><g><g><g><g><g><g><g><g><g style="stroke: #000000;stroke-width: 0.0;" transform="matrix(1.0, 0.0, 0.0, 1.0, -10.25, -4.75)"><path d="M 0.0 0.0 L 0.0 9.5 A 0.5000000000000001 0.5000000000000001 135.00000000000003 0 0 0.5 10.0 L 20.0 10.0 A 0.5000000000000001 0.5000000000000001 45.000000000000014 0 0 20.5 9.5 L 20.5 0.0 A 0.5000000000000001 0.5000000000000001 -44.999999999999986 0 0 20.0 -0.5000000000000002 L 0.5 -0.5000000000000002 A 0.5000000000000001 0.5000000000000001 -135.0 0 0 -2.220446049250313e-16 -2.220446049250313e-16 L -2.220446049250313e-16 0.009999999999999778 Z" style="vector-effect: non-scaling-stroke;" /></g><g transform="matrix(1.0, 0.0, 0.0, 1.0, 0.0, 0.625)"><g><g style="fill: #000000;stroke: #000000;stroke-width: 0.0;" transform="matrix(1.0, 0.0, 0.0, 1.0, 0.0, 0.0)"><text style="text-align:center; text-anchor:middle; dominant-baseline:middle;&#10;                      font-family:sans-serif; font-weight: bold;&#10;                      font-size:3.3333333333333335px;&#10;                      vector-effect: non-scaling-stroke;" transform="translate(-5e-05, 0)">Pastel2</text></g><g /></g></g></g><g transform="matrix(1.0, 0.0, 0.0, 1.0, 10.25, 0.0)"><g transform="matrix(1.0, -0.0, 0.0, 1.0, 0.0, 0.0)"><g /></g></g></g><g style="fill: #b3e2cd;stroke: black;stroke-width: 0.0;" transform="matrix(1.0, 0.0, 0.0, 1.0, 10.25, -5.0)"><path d="M 0.0 0.0 L 25.0 0.0 L 25.0 10.0 L 0.0 10.0 L 0.0 0.0 Z" style="vector-effect: non-scaling-stroke;" /></g></g><g transform="matrix(1.0, 0.0, 0.0, 1.0, 35.25, 0.0)"><g transform="matrix(1.0, -0.0, 0.0, 1.0, 0.0, 0.0)"><g /></g></g></g><g style="fill: #fdcdac;stroke: black;stroke-width: 0.0;" transform="matrix(1.0, 0.0, 0.0, 1.0, 35.25, -5.0)"><path d="M 0.0 0.0 L 25.0 0.0 L 25.0 10.0 L 0.0 10.0 L 0.0 0.0 Z" style="vector-effect: non-scaling-stroke;" /></g></g><g transform="matrix(1.0, 0.0, 0.0, 1.0, 60.25, 0.0)"><g transform="matrix(1.0, -0.0, 0.0, 1.0, 0.0, 0.0)"><g /></g></g></g><g style="fill: #cbd5e8;stroke: black;stroke-width: 0.0;" transform="matrix(1.0, 0.0, 0.0, 1.0, 60.25, -5.0)"><path d="M 0.0 0.0 L 25.0 0.0 L 25.0 10.0 L 0.0 10.0 L 0.0 0.0 Z" style="vector-effect: non-scaling-stroke;" /></g></g><g transform="matrix(1.0, 0.0, 0.0, 1.0, 85.25, 0.0)"><g transform="matrix(1.0, -0.0, 0.0, 1.0, 0.0, 0.0)"><g /></g></g></g><g style="fill: #f4cae4;stroke: black;stroke-width: 0.0;" transform="matrix(1.0, 0.0, 0.0, 1.0, 85.25, -5.0)"><path d="M 0.0 0.0 L 25.0 0.0 L 25.0 10.0 L 0.0 10.0 L 0.0 0.0 Z" style="vector-effect: non-scaling-stroke;" /></g></g><g transform="matrix(1.0, 0.0, 0.0, 1.0, 110.25, 0.0)"><g transform="matrix(1.0, -0.0, 0.0, 1.0, 0.0, 0.0)"><g /></g></g></g><g style="fill: #e6f5c9;stroke: black;stroke-width: 0.0;" transform="matrix(1.0, 0.0, 0.0, 1.0, 110.25, -5.0)"><path d="M 0.0 0.0 L 25.0 0.0 L 25.0 10.0 L 0.0 10.0 L 0.0 0.0 Z" style="vector-effect: non-scaling-stroke;" /></g></g><g transform="matrix(1.0, 0.0, 0.0, 1.0, 135.25, 0.0)"><g transform="matrix(1.0, -0.0, 0.0, 1.0, 0.0, 0.0)"><g /></g></g></g><g style="fill: #fff2ae;stroke: black;stroke-width: 0.0;" transform="matrix(1.0, 0.0, 0.0, 1.0, 135.25, -5.0)"><path d="M 0.0 0.0 L 25.0 0.0 L 25.0 10.0 L 0.0 10.0 L 0.0 0.0 Z" style="vector-effect: non-scaling-stroke;" /></g></g><g transform="matrix(1.0, 0.0, 0.0, 1.0, 160.25, 0.0)"><g transform="matrix(1.0, -0.0, 0.0, 1.0, 0.0, 0.0)"><g /></g></g></g><g style="fill: #f1e2cc;stroke: black;stroke-width: 0.0;" transform="matrix(1.0, 0.0, 0.0, 1.0, 160.25, -5.0)"><path d="M 0.0 0.0 L 25.0 0.0 L 25.0 10.0 L 0.0 10.0 L 0.0 0.0 Z" style="vector-effect: non-scaling-stroke;" /></g></g><g transform="matrix(1.0, 0.0, 0.0, 1.0, 185.25, 0.0)"><g transform="matrix(1.0, -0.0, 0.0, 1.0, 0.0, 0.0)"><g /></g></g></g><g style="fill: #cccccc;stroke: black;stroke-width: 0.0;" transform="matrix(1.0, 0.0, 0.0, 1.0, 185.25, -5.0)"><path d="M 0.0 0.0 L 25.0 0.0 L 25.0 10.0 L 0.0 10.0 L 0.0 0.0 Z" style="vector-effect: non-scaling-stroke;" /></g></g></g></g></g><g transform="matrix(1.0, 0.0, 0.0, 1.0, 0.0, 15.9)"><g transform="matrix(0.0, -1.0, 1.0, 0.0, 0.0, 0.0)"><g /></g></g></g><g transform="matrix(1.0, 0.0, 0.0, 1.0, 0.0, 21.2)"><g transform="matrix(1.0, 0.0, 0.0, 1.0, -100.0, -0.04999999999999982)"><g><g><g><g><g><g><g><g><g><g><g><g><g><g><g><g><g><g style="stroke: #000000;stroke-width: 0.0;" transform="matrix(1.0, 0.0, 0.0, 1.0, -10.25, -4.75)"><path d="M 0.0 0.0 L 0.0 9.5 A 0.5000000000000001 0.5000000000000001 135.00000000000003 0 0 0.5 10.0 L 20.0 10.0 A 0.5000000000000001 0.5000000000000001 45.000000000000014 0 0 20.5 9.5 L 20.5 0.0 A 0.5000000000000001 0.5000000000000001 -44.999999999999986 0 0 20.0 -0.5000000000000002 L 0.5 -0.5000000000000002 A 0.5000000000000001 0.5000000000000001 -135.0 0 0 -2.220446049250313e-16 -2.220446049250313e-16 L -2.220446049250313e-16 0.009999999999999778 Z" style="vector-effect: non-scaling-stroke;" /></g><g transform="matrix(1.0, 0.0, 0.0, 1.0, 0.0, 0.625)"><g><g style="fill: #000000;stroke: #000000;stroke-width: 0.0;" transform="matrix(1.0, 0.0, 0.0, 1.0, 0.0, 0.0)"><text style="text-align:center; text-anchor:middle; dominant-baseline:middle;&#10;                      font-family:sans-serif; font-weight: bold;&#10;                      font-size:3.3333333333333335px;&#10;                      vector-effect: non-scaling-stroke;" transform="translate(-5e-05, 0)">Accent</text></g><g /></g></g></g><g transform="matrix(1.0, 0.0, 0.0, 1.0, 10.25, 0.0)"><g transform="matrix(1.0, -0.0, 0.0, 1.0, 0.0, 0.0)"><g /></g></g></g><g style="fill: #7fc97f;stroke: black;stroke-width: 0.0;" transform="matrix(1.0, 0.0, 0.0, 1.0, 10.25, -5.0)"><path d="M 0.0 0.0 L 25.0 0.0 L 25.0 10.0 L 0.0 10.0 L 0.0 0.0 Z" style="vector-effect: non-scaling-stroke;" /></g></g><g transform="matrix(1.0, 0.0, 0.0, 1.0, 35.25, 0.0)"><g transform="matrix(1.0, -0.0, 0.0, 1.0, 0.0, 0.0)"><g /></g></g></g><g style="fill: #beaed4;stroke: black;stroke-width: 0.0;" transform="matrix(1.0, 0.0, 0.0, 1.0, 35.25, -5.0)"><path d="M 0.0 0.0 L 25.0 0.0 L 25.0 10.0 L 0.0 10.0 L 0.0 0.0 Z" style="vector-effect: non-scaling-stroke;" /></g></g><g transform="matrix(1.0, 0.0, 0.0, 1.0, 60.25, 0.0)"><g transform="matrix(1.0, -0.0, 0.0, 1.0, 0.0, 0.0)"><g /></g></g></g><g style="fill: #fdc086;stroke: black;stroke-width: 0.0;" transform="matrix(1.0, 0.0, 0.0, 1.0, 60.25, -5.0)"><path d="M 0.0 0.0 L 25.0 0.0 L 25.0 10.0 L 0.0 10.0 L 0.0 0.0 Z" style="vector-effect: non-scaling-stroke;" /></g></g><g transform="matrix(1.0, 0.0, 0.0, 1.0, 85.25, 0.0)"><g transform="matrix(1.0, -0.0, 0.0, 1.0, 0.0, 0.0)"><g /></g></g></g><g style="fill: #ffff99;stroke: black;stroke-width: 0.0;" transform="matrix(1.0, 0.0, 0.0, 1.0, 85.25, -5.0)"><path d="M 0.0 0.0 L 25.0 0.0 L 25.0 10.0 L 0.0 10.0 L 0.0 0.0 Z" style="vector-effect: non-scaling-stroke;" /></g></g><g transform="matrix(1.0, 0.0, 0.0, 1.0, 110.25, 0.0)"><g transform="matrix(1.0, -0.0, 0.0, 1.0, 0.0, 0.0)"><g /></g></g></g><g style="fill: #386cb0;stroke: black;stroke-width: 0.0;" transform="matrix(1.0, 0.0, 0.0, 1.0, 110.25, -5.0)"><path d="M 0.0 0.0 L 25.0 0.0 L 25.0 10.0 L 0.0 10.0 L 0.0 0.0 Z" style="vector-effect: non-scaling-stroke;" /></g></g><g transform="matrix(1.0, 0.0, 0.0, 1.0, 135.25, 0.0)"><g transform="matrix(1.0, -0.0, 0.0, 1.0, 0.0, 0.0)"><g /></g></g></g><g style="fill: #f0027f;stroke: black;stroke-width: 0.0;" transform="matrix(1.0, 0.0, 0.0, 1.0, 135.25, -5.0)"><path d="M 0.0 0.0 L 25.0 0.0 L 25.0 10.0 L 0.0 10.0 L 0.0 0.0 Z" style="vector-effect: non-scaling-stroke;" /></g></g><g transform="matrix(1.0, 0.0, 0.0, 1.0, 160.25, 0.0)"><g transform="matrix(1.0, -0.0, 0.0, 1.0, 0.0, 0.0)"><g /></g></g></g><g style="fill: #bf5b17;stroke: black;stroke-width: 0.0;" transform="matrix(1.0, 0.0, 0.0, 1.0, 160.25, -5.0)"><path d="M 0.0 0.0 L 25.0 0.0 L 25.0 10.0 L 0.0 10.0 L 0.0 0.0 Z" style="vector-effect: non-scaling-stroke;" /></g></g><g transform="matrix(1.0, 0.0, 0.0, 1.0, 185.25, 0.0)"><g transform="matrix(1.0, -0.0, 0.0, 1.0, 0.0, 0.0)"><g /></g></g></g><g style="fill: #666666;stroke: black;stroke-width: 0.0;" transform="matrix(1.0, 0.0, 0.0, 1.0, 185.25, -5.0)"><path d="M 0.0 0.0 L 25.0 0.0 L 25.0 10.0 L 0.0 10.0 L 0.0 0.0 Z" style="vector-effect: non-scaling-stroke;" /></g></g></g></g></g><g transform="matrix(1.0, 0.0, 0.0, 1.0, 0.0, 26.5)"><g transform="matrix(0.0, -1.0, 1.0, 0.0, 0.0, 0.0)"><g /></g></g></g><g transform="matrix(1.0, 0.0, 0.0, 1.0, 0.0, 31.8)"><g transform="matrix(1.0, 0.0, 0.0, 1.0, -100.0, -0.04999999999999982)"><g><g><g><g><g><g><g><g><g><g><g><g><g><g><g><g><g><g style="stroke: #000000;stroke-width: 0.0;" transform="matrix(1.0, 0.0, 0.0, 1.0, -10.25, -4.75)"><path d="M 0.0 0.0 L 0.0 9.5 A 0.5000000000000001 0.5000000000000001 135.00000000000003 0 0 0.5 10.0 L 20.0 10.0 A 0.5000000000000001 0.5000000000000001 45.000000000000014 0 0 20.5 9.5 L 20.5 0.0 A 0.5000000000000001 0.5000000000000001 -44.999999999999986 0 0 20.0 -0.5000000000000002 L 0.5 -0.5000000000000002 A 0.5000000000000001 0.5000000000000001 -135.0 0 0 -2.220446049250313e-16 -2.220446049250313e-16 L -2.220446049250313e-16 0.009999999999999778 Z" style="vector-effect: non-scaling-stroke;" /></g><g transform="matrix(1.0, 0.0, 0.0, 1.0, 0.0, 0.625)"><g><g style="fill: #000000;stroke: #000000;stroke-width: 0.0;" transform="matrix(1.0, 0.0, 0.0, 1.0, 0.0, 0.0)"><text style="text-align:center; text-anchor:middle; dominant-baseline:middle;&#10;                      font-family:sans-serif; font-weight: bold;&#10;                      font-size:3.3333333333333335px;&#10;                      vector-effect: non-scaling-stroke;" transform="translate(-5e-05, 0)">Dark2</text></g><g /></g></g></g><g transform="matrix(1.0, 0.0, 0.0, 1.0, 10.25, 0.0)"><g transform="matrix(1.0, -0.0, 0.0, 1.0, 0.0, 0.0)"><g /></g></g></g><g style="fill: #1b9e77;stroke: black;stroke-width: 0.0;" transform="matrix(1.0, 0.0, 0.0, 1.0, 10.25, -5.0)"><path d="M 0.0 0.0 L 25.0 0.0 L 25.0 10.0 L 0.0 10.0 L 0.0 0.0 Z" style="vector-effect: non-scaling-stroke;" /></g></g><g transform="matrix(1.0, 0.0, 0.0, 1.0, 35.25, 0.0)"><g transform="matrix(1.0, -0.0, 0.0, 1.0, 0.0, 0.0)"><g /></g></g></g><g style="fill: #d95f02;stroke: black;stroke-width: 0.0;" transform="matrix(1.0, 0.0, 0.0, 1.0, 35.25, -5.0)"><path d="M 0.0 0.0 L 25.0 0.0 L 25.0 10.0 L 0.0 10.0 L 0.0 0.0 Z" style="vector-effect: non-scaling-stroke;" /></g></g><g transform="matrix(1.0, 0.0, 0.0, 1.0, 60.25, 0.0)"><g transform="matrix(1.0, -0.0, 0.0, 1.0, 0.0, 0.0)"><g /></g></g></g><g style="fill: #7570b3;stroke: black;stroke-width: 0.0;" transform="matrix(1.0, 0.0, 0.0, 1.0, 60.25, -5.0)"><path d="M 0.0 0.0 L 25.0 0.0 L 25.0 10.0 L 0.0 10.0 L 0.0 0.0 Z" style="vector-effect: non-scaling-stroke;" /></g></g><g transform="matrix(1.0, 0.0, 0.0, 1.0, 85.25, 0.0)"><g transform="matrix(1.0, -0.0, 0.0, 1.0, 0.0, 0.0)"><g /></g></g></g><g style="fill: #e7298a;stroke: black;stroke-width: 0.0;" transform="matrix(1.0, 0.0, 0.0, 1.0, 85.25, -5.0)"><path d="M 0.0 0.0 L 25.0 0.0 L 25.0 10.0 L 0.0 10.0 L 0.0 0.0 Z" style="vector-effect: non-scaling-stroke;" /></g></g><g transform="matrix(1.0, 0.0, 0.0, 1.0, 110.25, 0.0)"><g transform="matrix(1.0, -0.0, 0.0, 1.0, 0.0, 0.0)"><g /></g></g></g><g style="fill: #66a61e;stroke: black;stroke-width: 0.0;" transform="matrix(1.0, 0.0, 0.0, 1.0, 110.25, -5.0)"><path d="M 0.0 0.0 L 25.0 0.0 L 25.0 10.0 L 0.0 10.0 L 0.0 0.0 Z" style="vector-effect: non-scaling-stroke;" /></g></g><g transform="matrix(1.0, 0.0, 0.0, 1.0, 135.25, 0.0)"><g transform="matrix(1.0, -0.0, 0.0, 1.0, 0.0, 0.0)"><g /></g></g></g><g style="fill: #e6ab02;stroke: black;stroke-width: 0.0;" transform="matrix(1.0, 0.0, 0.0, 1.0, 135.25, -5.0)"><path d="M 0.0 0.0 L 25.0 0.0 L 25.0 10.0 L 0.0 10.0 L 0.0 0.0 Z" style="vector-effect: non-scaling-stroke;" /></g></g><g transform="matrix(1.0, 0.0, 0.0, 1.0, 160.25, 0.0)"><g transform="matrix(1.0, -0.0, 0.0, 1.0, 0.0, 0.0)"><g /></g></g></g><g style="fill: #a6761d;stroke: black;stroke-width: 0.0;" transform="matrix(1.0, 0.0, 0.0, 1.0, 160.25, -5.0)"><path d="M 0.0 0.0 L 25.0 0.0 L 25.0 10.0 L 0.0 10.0 L 0.0 0.0 Z" style="vector-effect: non-scaling-stroke;" /></g></g><g transform="matrix(1.0, 0.0, 0.0, 1.0, 185.25, 0.0)"><g transform="matrix(1.0, -0.0, 0.0, 1.0, 0.0, 0.0)"><g /></g></g></g><g style="fill: #666666;stroke: black;stroke-width: 0.0;" transform="matrix(1.0, 0.0, 0.0, 1.0, 185.25, -5.0)"><path d="M 0.0 0.0 L 25.0 0.0 L 25.0 10.0 L 0.0 10.0 L 0.0 0.0 Z" style="vector-effect: non-scaling-stroke;" /></g></g></g></g></g><g transform="matrix(1.0, 0.0, 0.0, 1.0, 0.0, 37.1)"><g transform="matrix(0.0, -1.0, 1.0, 0.0, 0.0, 0.0)"><g /></g></g></g><g transform="matrix(1.0, 0.0, 0.0, 1.0, 0.0, 42.4)"><g transform="matrix(1.0, 0.0, 0.0, 1.0, -100.0, -0.04999999999999982)"><g><g><g><g><g><g><g><g><g><g><g><g><g><g><g><g><g><g><g><g><g><g><g><g><g><g style="stroke: #000000;stroke-width: 0.0;" transform="matrix(1.0, 0.0, 0.0, 1.0, -10.25, -4.75)"><path d="M 0.0 0.0 L 0.0 9.5 A 0.5000000000000001 0.5000000000000001 135.00000000000003 0 0 0.5 10.0 L 20.0 10.0 A 0.5000000000000001 0.5000000000000001 45.000000000000014 0 0 20.5 9.5 L 20.5 0.0 A 0.5000000000000001 0.5000000000000001 -44.999999999999986 0 0 20.0 -0.5000000000000002 L 0.5 -0.5000000000000002 A 0.5000000000000001 0.5000000000000001 -135.0 0 0 -2.220446049250313e-16 -2.220446049250313e-16 L -2.220446049250313e-16 0.009999999999999778 Z" style="vector-effect: non-scaling-stroke;" /></g><g transform="matrix(1.0, 0.0, 0.0, 1.0, 0.0, 0.625)"><g><g style="fill: #000000;stroke: #000000;stroke-width: 0.0;" transform="matrix(1.0, 0.0, 0.0, 1.0, 0.0, 0.0)"><text style="text-align:center; text-anchor:middle; dominant-baseline:middle;&#10;                      font-family:sans-serif; font-weight: bold;&#10;                      font-size:3.3333333333333335px;&#10;                      vector-effect: non-scaling-stroke;" transform="translate(-5e-05, 0)">Paired</text></g><g /></g></g></g><g transform="matrix(1.0, 0.0, 0.0, 1.0, 10.25, 0.0)"><g transform="matrix(1.0, -0.0, 0.0, 1.0, 0.0, 0.0)"><g /></g></g></g><g style="fill: #a6cee3;stroke: black;stroke-width: 0.0;" transform="matrix(1.0, 0.0, 0.0, 1.0, 10.250000000000002, -5.0)"><path d="M 0.0 0.0 L 16.666666666666668 0.0 L 16.666666666666668 10.0 L 0.0 10.0 L 0.0 0.0 Z" style="vector-effect: non-scaling-stroke;" /></g></g><g transform="matrix(1.0, 0.0, 0.0, 1.0, 26.91666666666667, 0.0)"><g transform="matrix(1.0, -0.0, 0.0, 1.0, 0.0, 0.0)"><g /></g></g></g><g style="fill: #1f78b4;stroke: black;stroke-width: 0.0;" transform="matrix(1.0, 0.0, 0.0, 1.0, 26.91666666666667, -5.0)"><path d="M 0.0 0.0 L 16.666666666666668 0.0 L 16.666666666666668 10.0 L 0.0 10.0 L 0.0 0.0 Z" style="vector-effect: non-scaling-stroke;" /></g></g><g transform="matrix(1.0, 0.0, 0.0, 1.0, 43.58333333333334, 0.0)"><g transform="matrix(1.0, -0.0, 0.0, 1.0, 0.0, 0.0)"><g /></g></g></g><g style="fill: #b2df8a;stroke: black;stroke-width: 0.0;" transform="matrix(1.0, 0.0, 0.0, 1.0, 43.58333333333334, -5.0)"><path d="M 0.0 0.0 L 16.666666666666668 0.0 L 16.666666666666668 10.0 L 0.0 10.0 L 0.0 0.0 Z" style="vector-effect: non-scaling-stroke;" /></g></g><g transform="matrix(1.0, 0.0, 0.0, 1.0, 60.250000000000014, 0.0)"><g transform="matrix(1.0, -0.0, 0.0, 1.0, 0.0, 0.0)"><g /></g></g></g><g style="fill: #33a02c;stroke: black;stroke-width: 0.0;" transform="matrix(1.0, 0.0, 0.0, 1.0, 60.25000000000001, -5.0)"><path d="M 0.0 0.0 L 16.666666666666668 0.0 L 16.666666666666668 10.0 L 0.0 10.0 L 0.0 0.0 Z" style="vector-effect: non-scaling-stroke;" /></g></g><g transform="matrix(1.0, 0.0, 0.0, 1.0, 76.91666666666667, 0.0)"><g transform="matrix(1.0, -0.0, 0.0, 1.0, 0.0, 0.0)"><g /></g></g></g><g style="fill: #fb9a99;stroke: black;stroke-width: 0.0;" transform="matrix(1.0, 0.0, 0.0, 1.0, 76.91666666666667, -5.0)"><path d="M 0.0 0.0 L 16.666666666666668 0.0 L 16.666666666666668 10.0 L 0.0 10.0 L 0.0 0.0 Z" style="vector-effect: non-scaling-stroke;" /></g></g><g transform="matrix(1.0, 0.0, 0.0, 1.0, 93.58333333333334, 0.0)"><g transform="matrix(1.0, -0.0, 0.0, 1.0, 0.0, 0.0)"><g /></g></g></g><g style="fill: #e31a1c;stroke: black;stroke-width: 0.0;" transform="matrix(1.0, 0.0, 0.0, 1.0, 93.58333333333334, -5.0)"><path d="M 0.0 0.0 L 16.666666666666668 0.0 L 16.666666666666668 10.0 L 0.0 10.0 L 0.0 0.0 Z" style="vector-effect: non-scaling-stroke;" /></g></g><g transform="matrix(1.0, 0.0, 0.0, 1.0, 110.25000000000001, 0.0)"><g transform="matrix(1.0, -0.0, 0.0, 1.0, 0.0, 0.0)"><g /></g></g></g><g style="fill: #fdbf6f;stroke: black;stroke-width: 0.0;" transform="matrix(1.0, 0.0, 0.0, 1.0, 110.25000000000001, -5.0)"><path d="M 0.0 0.0 L 16.666666666666668 0.0 L 16.666666666666668 10.0 L 0.0 10.0 L 0.0 0.0 Z" style="vector-effect: non-scaling-stroke;" /></g></g><g transform="matrix(1.0, 0.0, 0.0, 1.0, 126.91666666666669, 0.0)"><g transform="matrix(1.0, -0.0, 0.0, 1.0, 0.0, 0.0)"><g /></g></g></g><g style="fill: #ff7f00;stroke: black;stroke-width: 0.0;" transform="matrix(1.0, 0.0, 0.0, 1.0, 126.9166666666667, -5.0)"><path d="M 0.0 0.0 L 16.666666666666668 0.0 L 16.666666666666668 10.0 L 0.0 10.0 L 0.0 0.0 Z" style="vector-effect: non-scaling-stroke;" /></g></g><g transform="matrix(1.0, 0.0, 0.0, 1.0, 143.58333333333337, 0.0)"><g transform="matrix(1.0, -0.0, 0.0, 1.0, 0.0, 0.0)"><g /></g></g></g><g style="fill: #cab2d6;stroke: black;stroke-width: 0.0;" transform="matrix(1.0, 0.0, 0.0, 1.0, 143.58333333333337, -5.0)"><path d="M 0.0 0.0 L 16.666666666666668 0.0 L 16.666666666666668 10.0 L 0.0 10.0 L 0.0 0.0 Z" style="vector-effect: non-scaling-stroke;" /></g></g><g transform="matrix(1.0, 0.0, 0.0, 1.0, 160.25000000000003, 0.0)"><g transform="matrix(1.0, -0.0, 0.0, 1.0, 0.0, 0.0)"><g /></g></g></g><g style="fill: #6a3d9a;stroke: black;stroke-width: 0.0;" transform="matrix(1.0, 0.0, 0.0, 1.0, 160.25000000000003, -5.0)"><path d="M 0.0 0.0 L 16.666666666666668 0.0 L 16.666666666666668 10.0 L 0.0 10.0 L 0.0 0.0 Z" style="vector-effect: non-scaling-stroke;" /></g></g><g transform="matrix(1.0, 0.0, 0.0, 1.0, 176.91666666666669, 0.0)"><g transform="matrix(1.0, -0.0, 0.0, 1.0, 0.0, 0.0)"><g /></g></g></g><g style="fill: #ffff99;stroke: black;stroke-width: 0.0;" transform="matrix(1.0, 0.0, 0.0, 1.0, 176.91666666666669, -5.0)"><path d="M 0.0 0.0 L 16.666666666666668 0.0 L 16.666666666666668 10.0 L 0.0 10.0 L 0.0 0.0 Z" style="vector-effect: non-scaling-stroke;" /></g></g><g transform="matrix(1.0, 0.0, 0.0, 1.0, 193.58333333333334, 0.0)"><g transform="matrix(1.0, -0.0, 0.0, 1.0, 0.0, 0.0)"><g /></g></g></g><g style="fill: #b15928;stroke: black;stroke-width: 0.0;" transform="matrix(1.0, 0.0, 0.0, 1.0, 193.58333333333334, -5.0)"><path d="M 0.0 0.0 L 16.666666666666668 0.0 L 16.666666666666668 10.0 L 0.0 10.0 L 0.0 0.0 Z" style="vector-effect: non-scaling-stroke;" /></g></g></g></g></g><g transform="matrix(1.0, 0.0, 0.0, 1.0, 0.0, 47.7)"><g transform="matrix(0.0, -1.0, 1.0, 0.0, 0.0, 0.0)"><g /></g></g></g><g transform="matrix(1.0, 0.0, 0.0, 1.0, 0.0, 53.0)"><g transform="matrix(1.0, 0.0, 0.0, 1.0, -100.00000000000001, -0.04999999999999982)"><g><g><g><g><g><g><g><g><g><g><g><g><g><g><g><g><g><g><g><g style="stroke: #000000;stroke-width: 0.0;" transform="matrix(1.0, 0.0, 0.0, 1.0, -10.25, -4.75)"><path d="M 0.0 0.0 L 0.0 9.5 A 0.5000000000000001 0.5000000000000001 135.00000000000003 0 0 0.5 10.0 L 20.0 10.0 A 0.5000000000000001 0.5000000000000001 45.000000000000014 0 0 20.5 9.5 L 20.5 0.0 A 0.5000000000000001 0.5000000000000001 -44.999999999999986 0 0 20.0 -0.5000000000000002 L 0.5 -0.5000000000000002 A 0.5000000000000001 0.5000000000000001 -135.0 0 0 -2.220446049250313e-16 -2.220446049250313e-16 L -2.220446049250313e-16 0.009999999999999778 Z" style="vector-effect: non-scaling-stroke;" /></g><g transform="matrix(1.0, 0.0, 0.0, 1.0, 0.0, 0.625)"><g><g style="fill: #000000;stroke: #000000;stroke-width: 0.0;" transform="matrix(1.0, 0.0, 0.0, 1.0, 0.0, 0.0)"><text style="text-align:center; text-anchor:middle; dominant-baseline:middle;&#10;                      font-family:sans-serif; font-weight: bold;&#10;                      font-size:3.3333333333333335px;&#10;                      vector-effect: non-scaling-stroke;" transform="translate(-5e-05, 0)">Set1</text></g><g /></g></g></g><g transform="matrix(1.0, 0.0, 0.0, 1.0, 10.25, 0.0)"><g transform="matrix(1.0, -0.0, 0.0, 1.0, 0.0, 0.0)"><g /></g></g></g><g style="fill: #e41a1c;stroke: black;stroke-width: 0.0;" transform="matrix(1.0, 0.0, 0.0, 1.0, 10.25, -5.0)"><path d="M 0.0 0.0 L 22.22222222222222 0.0 L 22.22222222222222 10.0 L 0.0 10.0 L 0.0 0.0 Z" style="vector-effect: non-scaling-stroke;" /></g></g><g transform="matrix(1.0, 0.0, 0.0, 1.0, 32.47222222222222, 0.0)"><g transform="matrix(1.0, -0.0, 0.0, 1.0, 0.0, 0.0)"><g /></g></g></g><g style="fill: #377eb8;stroke: black;stroke-width: 0.0;" transform="matrix(1.0, 0.0, 0.0, 1.0, 32.472222222222214, -5.0)"><path d="M 0.0 0.0 L 22.22222222222222 0.0 L 22.22222222222222 10.0 L 0.0 10.0 L 0.0 0.0 Z" style="vector-effect: non-scaling-stroke;" /></g></g><g transform="matrix(1.0, 0.0, 0.0, 1.0, 54.694444444444436, 0.0)"><g transform="matrix(1.0, -0.0, 0.0, 1.0, 0.0, 0.0)"><g /></g></g></g><g style="fill: #4daf4a;stroke: black;stroke-width: 0.0;" transform="matrix(1.0, 0.0, 0.0, 1.0, 54.69444444444443, -5.0)"><path d="M 0.0 0.0 L 22.22222222222222 0.0 L 22.22222222222222 10.0 L 0.0 10.0 L 0.0 0.0 Z" style="vector-effect: non-scaling-stroke;" /></g></g><g transform="matrix(1.0, 0.0, 0.0, 1.0, 76.91666666666666, 0.0)"><g transform="matrix(1.0, -0.0, 0.0, 1.0, 0.0, 0.0)"><g /></g></g></g><g style="fill: #984ea3;stroke: black;stroke-width: 0.0;" transform="matrix(1.0, 0.0, 0.0, 1.0, 76.91666666666666, -5.0)"><path d="M 0.0 0.0 L 22.22222222222222 0.0 L 22.22222222222222 10.0 L 0.0 10.0 L 0.0 0.0 Z" style="vector-effect: non-scaling-stroke;" /></g></g><g transform="matrix(1.0, 0.0, 0.0, 1.0, 99.13888888888889, 0.0)"><g transform="matrix(1.0, -0.0, 0.0, 1.0, 0.0, 0.0)"><g /></g></g></g><g style="fill: #ff7f00;stroke: black;stroke-width: 0.0;" transform="matrix(1.0, 0.0, 0.0, 1.0, 99.13888888888889, -5.0)"><path d="M 0.0 0.0 L 22.22222222222222 0.0 L 22.22222222222222 10.0 L 0.0 10.0 L 0.0 0.0 Z" style="vector-effect: non-scaling-stroke;" /></g></g><g transform="matrix(1.0, 0.0, 0.0, 1.0, 121.36111111111111, 0.0)"><g transform="matrix(1.0, -0.0, 0.0, 1.0, 0.0, 0.0)"><g /></g></g></g><g style="fill: #ffff33;stroke: black;stroke-width: 0.0;" transform="matrix(1.0, 0.0, 0.0, 1.0, 121.36111111111111, -5.0)"><path d="M 0.0 0.0 L 22.22222222222222 0.0 L 22.22222222222222 10.0 L 0.0 10.0 L 0.0 0.0 Z" style="vector-effect: non-scaling-stroke;" /></g></g><g transform="matrix(1.0, 0.0, 0.0, 1.0, 143.58333333333334, 0.0)"><g transform="matrix(1.0, -0.0, 0.0, 1.0, 0.0, 0.0)"><g /></g></g></g><g style="fill: #a65628;stroke: black;stroke-width: 0.0;" transform="matrix(1.0, 0.0, 0.0, 1.0, 143.58333333333334, -5.0)"><path d="M 0.0 0.0 L 22.22222222222222 0.0 L 22.22222222222222 10.0 L 0.0 10.0 L 0.0 0.0 Z" style="vector-effect: non-scaling-stroke;" /></g></g><g transform="matrix(1.0, 0.0, 0.0, 1.0, 165.80555555555557, 0.0)"><g transform="matrix(1.0, -0.0, 0.0, 1.0, 0.0, 0.0)"><g /></g></g></g><g style="fill: #f781bf;stroke: black;stroke-width: 0.0;" transform="matrix(1.0, 0.0, 0.0, 1.0, 165.80555555555557, -5.0)"><path d="M 0.0 0.0 L 22.22222222222222 0.0 L 22.22222222222222 10.0 L 0.0 10.0 L 0.0 0.0 Z" style="vector-effect: non-scaling-stroke;" /></g></g><g transform="matrix(1.0, 0.0, 0.0, 1.0, 188.0277777777778, 0.0)"><g transform="matrix(1.0, -0.0, 0.0, 1.0, 0.0, 0.0)"><g /></g></g></g><g style="fill: #999999;stroke: black;stroke-width: 0.0;" transform="matrix(1.0, 0.0, 0.0, 1.0, 188.0277777777778, -5.0)"><path d="M 0.0 0.0 L 22.22222222222222 0.0 L 22.22222222222222 10.0 L 0.0 10.0 L 0.0 0.0 Z" style="vector-effect: non-scaling-stroke;" /></g></g></g></g></g><g transform="matrix(1.0, 0.0, 0.0, 1.0, 0.0, 58.300000000000004)"><g transform="matrix(0.0, -1.0, 1.0, 0.0, 0.0, 0.0)"><g /></g></g></g><g transform="matrix(1.0, 0.0, 0.0, 1.0, 0.0, 63.6)"><g transform="matrix(1.0, 0.0, 0.0, 1.0, -100.0, -0.04999999999999982)"><g><g><g><g><g><g><g><g><g><g><g><g><g><g><g><g><g><g style="stroke: #000000;stroke-width: 0.0;" transform="matrix(1.0, 0.0, 0.0, 1.0, -10.25, -4.75)"><path d="M 0.0 0.0 L 0.0 9.5 A 0.5000000000000001 0.5000000000000001 135.00000000000003 0 0 0.5 10.0 L 20.0 10.0 A 0.5000000000000001 0.5000000000000001 45.000000000000014 0 0 20.5 9.5 L 20.5 0.0 A 0.5000000000000001 0.5000000000000001 -44.999999999999986 0 0 20.0 -0.5000000000000002 L 0.5 -0.5000000000000002 A 0.5000000000000001 0.5000000000000001 -135.0 0 0 -2.220446049250313e-16 -2.220446049250313e-16 L -2.220446049250313e-16 0.009999999999999778 Z" style="vector-effect: non-scaling-stroke;" /></g><g transform="matrix(1.0, 0.0, 0.0, 1.0, 0.0, 0.625)"><g><g style="fill: #000000;stroke: #000000;stroke-width: 0.0;" transform="matrix(1.0, 0.0, 0.0, 1.0, 0.0, 0.0)"><text style="text-align:center; text-anchor:middle; dominant-baseline:middle;&#10;                      font-family:sans-serif; font-weight: bold;&#10;                      font-size:3.3333333333333335px;&#10;                      vector-effect: non-scaling-stroke;" transform="translate(-5e-05, 0)">Set2</text></g><g /></g></g></g><g transform="matrix(1.0, 0.0, 0.0, 1.0, 10.25, 0.0)"><g transform="matrix(1.0, -0.0, 0.0, 1.0, 0.0, 0.0)"><g /></g></g></g><g style="fill: #66c2a5;stroke: black;stroke-width: 0.0;" transform="matrix(1.0, 0.0, 0.0, 1.0, 10.25, -5.0)"><path d="M 0.0 0.0 L 25.0 0.0 L 25.0 10.0 L 0.0 10.0 L 0.0 0.0 Z" style="vector-effect: non-scaling-stroke;" /></g></g><g transform="matrix(1.0, 0.0, 0.0, 1.0, 35.25, 0.0)"><g transform="matrix(1.0, -0.0, 0.0, 1.0, 0.0, 0.0)"><g /></g></g></g><g style="fill: #fc8d62;stroke: black;stroke-width: 0.0;" transform="matrix(1.0, 0.0, 0.0, 1.0, 35.25, -5.0)"><path d="M 0.0 0.0 L 25.0 0.0 L 25.0 10.0 L 0.0 10.0 L 0.0 0.0 Z" style="vector-effect: non-scaling-stroke;" /></g></g><g transform="matrix(1.0, 0.0, 0.0, 1.0, 60.25, 0.0)"><g transform="matrix(1.0, -0.0, 0.0, 1.0, 0.0, 0.0)"><g /></g></g></g><g style="fill: #8da0cb;stroke: black;stroke-width: 0.0;" transform="matrix(1.0, 0.0, 0.0, 1.0, 60.25, -5.0)"><path d="M 0.0 0.0 L 25.0 0.0 L 25.0 10.0 L 0.0 10.0 L 0.0 0.0 Z" style="vector-effect: non-scaling-stroke;" /></g></g><g transform="matrix(1.0, 0.0, 0.0, 1.0, 85.25, 0.0)"><g transform="matrix(1.0, -0.0, 0.0, 1.0, 0.0, 0.0)"><g /></g></g></g><g style="fill: #e78ac3;stroke: black;stroke-width: 0.0;" transform="matrix(1.0, 0.0, 0.0, 1.0, 85.25, -5.0)"><path d="M 0.0 0.0 L 25.0 0.0 L 25.0 10.0 L 0.0 10.0 L 0.0 0.0 Z" style="vector-effect: non-scaling-stroke;" /></g></g><g transform="matrix(1.0, 0.0, 0.0, 1.0, 110.25, 0.0)"><g transform="matrix(1.0, -0.0, 0.0, 1.0, 0.0, 0.0)"><g /></g></g></g><g style="fill: #a6d854;stroke: black;stroke-width: 0.0;" transform="matrix(1.0, 0.0, 0.0, 1.0, 110.25, -5.0)"><path d="M 0.0 0.0 L 25.0 0.0 L 25.0 10.0 L 0.0 10.0 L 0.0 0.0 Z" style="vector-effect: non-scaling-stroke;" /></g></g><g transform="matrix(1.0, 0.0, 0.0, 1.0, 135.25, 0.0)"><g transform="matrix(1.0, -0.0, 0.0, 1.0, 0.0, 0.0)"><g /></g></g></g><g style="fill: #ffd92f;stroke: black;stroke-width: 0.0;" transform="matrix(1.0, 0.0, 0.0, 1.0, 135.25, -5.0)"><path d="M 0.0 0.0 L 25.0 0.0 L 25.0 10.0 L 0.0 10.0 L 0.0 0.0 Z" style="vector-effect: non-scaling-stroke;" /></g></g><g transform="matrix(1.0, 0.0, 0.0, 1.0, 160.25, 0.0)"><g transform="matrix(1.0, -0.0, 0.0, 1.0, 0.0, 0.0)"><g /></g></g></g><g style="fill: #e5c494;stroke: black;stroke-width: 0.0;" transform="matrix(1.0, 0.0, 0.0, 1.0, 160.25, -5.0)"><path d="M 0.0 0.0 L 25.0 0.0 L 25.0 10.0 L 0.0 10.0 L 0.0 0.0 Z" style="vector-effect: non-scaling-stroke;" /></g></g><g transform="matrix(1.0, 0.0, 0.0, 1.0, 185.25, 0.0)"><g transform="matrix(1.0, -0.0, 0.0, 1.0, 0.0, 0.0)"><g /></g></g></g><g style="fill: #b3b3b3;stroke: black;stroke-width: 0.0;" transform="matrix(1.0, 0.0, 0.0, 1.0, 185.25, -5.0)"><path d="M 0.0 0.0 L 25.0 0.0 L 25.0 10.0 L 0.0 10.0 L 0.0 0.0 Z" style="vector-effect: non-scaling-stroke;" /></g></g></g></g></g><g transform="matrix(1.0, 0.0, 0.0, 1.0, 0.0, 68.9)"><g transform="matrix(0.0, -1.0, 1.0, 0.0, 0.0, 0.0)"><g /></g></g></g><g transform="matrix(1.0, 0.0, 0.0, 1.0, 0.0, 74.2)"><g transform="matrix(1.0, 0.0, 0.0, 1.0, -100.0, -0.04999999999999982)"><g><g><g><g><g><g><g><g><g><g><g><g><g><g><g><g><g><g><g><g><g><g><g><g><g><g style="stroke: #000000;stroke-width: 0.0;" transform="matrix(1.0, 0.0, 0.0, 1.0, -10.25, -4.75)"><path d="M 0.0 0.0 L 0.0 9.5 A 0.5000000000000001 0.5000000000000001 135.00000000000003 0 0 0.5 10.0 L 20.0 10.0 A 0.5000000000000001 0.5000000000000001 45.000000000000014 0 0 20.5 9.5 L 20.5 0.0 A 0.5000000000000001 0.5000000000000001 -44.999999999999986 0 0 20.0 -0.5000000000000002 L 0.5 -0.5000000000000002 A 0.5000000000000001 0.5000000000000001 -135.0 0 0 -2.220446049250313e-16 -2.220446049250313e-16 L -2.220446049250313e-16 0.009999999999999778 Z" style="vector-effect: non-scaling-stroke;" /></g><g transform="matrix(1.0, 0.0, 0.0, 1.0, 0.0, 0.625)"><g><g style="fill: #000000;stroke: #000000;stroke-width: 0.0;" transform="matrix(1.0, 0.0, 0.0, 1.0, 0.0, 0.0)"><text style="text-align:center; text-anchor:middle; dominant-baseline:middle;&#10;                      font-family:sans-serif; font-weight: bold;&#10;                      font-size:3.3333333333333335px;&#10;                      vector-effect: non-scaling-stroke;" transform="translate(-5e-05, 0)">Set3</text></g><g /></g></g></g><g transform="matrix(1.0, 0.0, 0.0, 1.0, 10.25, 0.0)"><g transform="matrix(1.0, -0.0, 0.0, 1.0, 0.0, 0.0)"><g /></g></g></g><g style="fill: #8dd3c7;stroke: black;stroke-width: 0.0;" transform="matrix(1.0, 0.0, 0.0, 1.0, 10.250000000000002, -5.0)"><path d="M 0.0 0.0 L 16.666666666666668 0.0 L 16.666666666666668 10.0 L 0.0 10.0 L 0.0 0.0 Z" style="vector-effect: non-scaling-stroke;" /></g></g><g transform="matrix(1.0, 0.0, 0.0, 1.0, 26.91666666666667, 0.0)"><g transform="matrix(1.0, -0.0, 0.0, 1.0, 0.0, 0.0)"><g /></g></g></g><g style="fill: #ffffb3;stroke: black;stroke-width: 0.0;" transform="matrix(1.0, 0.0, 0.0, 1.0, 26.91666666666667, -5.0)"><path d="M 0.0 0.0 L 16.666666666666668 0.0 L 16.666666666666668 10.0 L 0.0 10.0 L 0.0 0.0 Z" style="vector-effect: non-scaling-stroke;" /></g></g><g transform="matrix(1.0, 0.0, 0.0, 1.0, 43.58333333333334, 0.0)"><g transform="matrix(1.0, -0.0, 0.0, 1.0, 0.0, 0.0)"><g /></g></g></g><g style="fill: #bebada;stroke: black;stroke-width: 0.0;" transform="matrix(1.0, 0.0, 0.0, 1.0, 43.58333333333334, -5.0)"><path d="M 0.0 0.0 L 16.666666666666668 0.0 L 16.666666666666668 10.0 L 0.0 10.0 L 0.0 0.0 Z" style="vector-effect: non-scaling-stroke;" /></g></g><g transform="matrix(1.0, 0.0, 0.0, 1.0, 60.250000000000014, 0.0)"><g transform="matrix(1.0, -0.0, 0.0, 1.0, 0.0, 0.0)"><g /></g></g></g><g style="fill: #fb8072;stroke: black;stroke-width: 0.0;" transform="matrix(1.0, 0.0, 0.0, 1.0, 60.25000000000001, -5.0)"><path d="M 0.0 0.0 L 16.666666666666668 0.0 L 16.666666666666668 10.0 L 0.0 10.0 L 0.0 0.0 Z" style="vector-effect: non-scaling-stroke;" /></g></g><g transform="matrix(1.0, 0.0, 0.0, 1.0, 76.91666666666667, 0.0)"><g transform="matrix(1.0, -0.0, 0.0, 1.0, 0.0, 0.0)"><g /></g></g></g><g style="fill: #80b1d3;stroke: black;stroke-width: 0.0;" transform="matrix(1.0, 0.0, 0.0, 1.0, 76.91666666666667, -5.0)"><path d="M 0.0 0.0 L 16.666666666666668 0.0 L 16.666666666666668 10.0 L 0.0 10.0 L 0.0 0.0 Z" style="vector-effect: non-scaling-stroke;" /></g></g><g transform="matrix(1.0, 0.0, 0.0, 1.0, 93.58333333333334, 0.0)"><g transform="matrix(1.0, -0.0, 0.0, 1.0, 0.0, 0.0)"><g /></g></g></g><g style="fill: #fdb462;stroke: black;stroke-width: 0.0;" transform="matrix(1.0, 0.0, 0.0, 1.0, 93.58333333333334, -5.0)"><path d="M 0.0 0.0 L 16.666666666666668 0.0 L 16.666666666666668 10.0 L 0.0 10.0 L 0.0 0.0 Z" style="vector-effect: non-scaling-stroke;" /></g></g><g transform="matrix(1.0, 0.0, 0.0, 1.0, 110.25000000000001, 0.0)"><g transform="matrix(1.0, -0.0, 0.0, 1.0, 0.0, 0.0)"><g /></g></g></g><g style="fill: #b3de69;stroke: black;stroke-width: 0.0;" transform="matrix(1.0, 0.0, 0.0, 1.0, 110.25000000000001, -5.0)"><path d="M 0.0 0.0 L 16.666666666666668 0.0 L 16.666666666666668 10.0 L 0.0 10.0 L 0.0 0.0 Z" style="vector-effect: non-scaling-stroke;" /></g></g><g transform="matrix(1.0, 0.0, 0.0, 1.0, 126.91666666666669, 0.0)"><g transform="matrix(1.0, -0.0, 0.0, 1.0, 0.0, 0.0)"><g /></g></g></g><g style="fill: #fccde5;stroke: black;stroke-width: 0.0;" transform="matrix(1.0, 0.0, 0.0, 1.0, 126.9166666666667, -5.0)"><path d="M 0.0 0.0 L 16.666666666666668 0.0 L 16.666666666666668 10.0 L 0.0 10.0 L 0.0 0.0 Z" style="vector-effect: non-scaling-stroke;" /></g></g><g transform="matrix(1.0, 0.0, 0.0, 1.0, 143.58333333333337, 0.0)"><g transform="matrix(1.0, -0.0, 0.0, 1.0, 0.0, 0.0)"><g /></g></g></g><g style="fill: #d9d9d9;stroke: black;stroke-width: 0.0;" transform="matrix(1.0, 0.0, 0.0, 1.0, 143.58333333333337, -5.0)"><path d="M 0.0 0.0 L 16.666666666666668 0.0 L 16.666666666666668 10.0 L 0.0 10.0 L 0.0 0.0 Z" style="vector-effect: non-scaling-stroke;" /></g></g><g transform="matrix(1.0, 0.0, 0.0, 1.0, 160.25000000000003, 0.0)"><g transform="matrix(1.0, -0.0, 0.0, 1.0, 0.0, 0.0)"><g /></g></g></g><g style="fill: #bc80bd;stroke: black;stroke-width: 0.0;" transform="matrix(1.0, 0.0, 0.0, 1.0, 160.25000000000003, -5.0)"><path d="M 0.0 0.0 L 16.666666666666668 0.0 L 16.666666666666668 10.0 L 0.0 10.0 L 0.0 0.0 Z" style="vector-effect: non-scaling-stroke;" /></g></g><g transform="matrix(1.0, 0.0, 0.0, 1.0, 176.91666666666669, 0.0)"><g transform="matrix(1.0, -0.0, 0.0, 1.0, 0.0, 0.0)"><g /></g></g></g><g style="fill: #ccebc5;stroke: black;stroke-width: 0.0;" transform="matrix(1.0, 0.0, 0.0, 1.0, 176.91666666666669, -5.0)"><path d="M 0.0 0.0 L 16.666666666666668 0.0 L 16.666666666666668 10.0 L 0.0 10.0 L 0.0 0.0 Z" style="vector-effect: non-scaling-stroke;" /></g></g><g transform="matrix(1.0, 0.0, 0.0, 1.0, 193.58333333333334, 0.0)"><g transform="matrix(1.0, -0.0, 0.0, 1.0, 0.0, 0.0)"><g /></g></g></g><g style="fill: #ffed6f;stroke: black;stroke-width: 0.0;" transform="matrix(1.0, 0.0, 0.0, 1.0, 193.58333333333334, -5.0)"><path d="M 0.0 0.0 L 16.666666666666668 0.0 L 16.666666666666668 10.0 L 0.0 10.0 L 0.0 0.0 Z" style="vector-effect: non-scaling-stroke;" /></g></g></g></g></g><g transform="matrix(1.0, 0.0, 0.0, 1.0, 0.0, 79.5)"><g transform="matrix(0.0, -1.0, 1.0, 0.0, 0.0, 0.0)"><g /></g></g></g><g transform="matrix(1.0, 0.0, 0.0, 1.0, 0.0, 84.8)"><g transform="matrix(1.0, 0.0, 0.0, 1.0, -100.0, -0.04999999999999982)"><g><g><g><g><g><g><g><g><g><g><g><g><g><g><g><g><g><g><g><g><g><g style="stroke: #000000;stroke-width: 0.0;" transform="matrix(1.0, 0.0, 0.0, 1.0, -10.25, -4.75)"><path d="M 0.0 0.0 L 0.0 9.5 A 0.5000000000000001 0.5000000000000001 135.00000000000003 0 0 0.5 10.0 L 20.0 10.0 A 0.5000000000000001 0.5000000000000001 45.000000000000014 0 0 20.5 9.5 L 20.5 0.0 A 0.5000000000000001 0.5000000000000001 -44.999999999999986 0 0 20.0 -0.5000000000000002 L 0.5 -0.5000000000000002 A 0.5000000000000001 0.5000000000000001 -135.0 0 0 -2.220446049250313e-16 -2.220446049250313e-16 L -2.220446049250313e-16 0.009999999999999778 Z" style="vector-effect: non-scaling-stroke;" /></g><g transform="matrix(1.0, 0.0, 0.0, 1.0, 0.0, 0.625)"><g><g style="fill: #000000;stroke: #000000;stroke-width: 0.0;" transform="matrix(1.0, 0.0, 0.0, 1.0, 0.0, 0.0)"><text style="text-align:center; text-anchor:middle; dominant-baseline:middle;&#10;                      font-family:sans-serif; font-weight: bold;&#10;                      font-size:3.3333333333333335px;&#10;                      vector-effect: non-scaling-stroke;" transform="translate(-5e-05, 0)">tab10</text></g><g /></g></g></g><g transform="matrix(1.0, 0.0, 0.0, 1.0, 10.25, 0.0)"><g transform="matrix(1.0, -0.0, 0.0, 1.0, 0.0, 0.0)"><g /></g></g></g><g style="fill: #1f77b4;stroke: black;stroke-width: 0.0;" transform="matrix(1.0, 0.0, 0.0, 1.0, 10.25, -5.0)"><path d="M 0.0 0.0 L 20.0 0.0 L 20.0 10.0 L 0.0 10.0 L 0.0 0.0 Z" style="vector-effect: non-scaling-stroke;" /></g></g><g transform="matrix(1.0, 0.0, 0.0, 1.0, 30.25, 0.0)"><g transform="matrix(1.0, -0.0, 0.0, 1.0, 0.0, 0.0)"><g /></g></g></g><g style="fill: #ff7f0e;stroke: black;stroke-width: 0.0;" transform="matrix(1.0, 0.0, 0.0, 1.0, 30.25, -5.0)"><path d="M 0.0 0.0 L 20.0 0.0 L 20.0 10.0 L 0.0 10.0 L 0.0 0.0 Z" style="vector-effect: non-scaling-stroke;" /></g></g><g transform="matrix(1.0, 0.0, 0.0, 1.0, 50.25, 0.0)"><g transform="matrix(1.0, -0.0, 0.0, 1.0, 0.0, 0.0)"><g /></g></g></g><g style="fill: #2ca02c;stroke: black;stroke-width: 0.0;" transform="matrix(1.0, 0.0, 0.0, 1.0, 50.25, -5.0)"><path d="M 0.0 0.0 L 20.0 0.0 L 20.0 10.0 L 0.0 10.0 L 0.0 0.0 Z" style="vector-effect: non-scaling-stroke;" /></g></g><g transform="matrix(1.0, 0.0, 0.0, 1.0, 70.25, 0.0)"><g transform="matrix(1.0, -0.0, 0.0, 1.0, 0.0, 0.0)"><g /></g></g></g><g style="fill: #d62728;stroke: black;stroke-width: 0.0;" transform="matrix(1.0, 0.0, 0.0, 1.0, 70.25, -5.0)"><path d="M 0.0 0.0 L 20.0 0.0 L 20.0 10.0 L 0.0 10.0 L 0.0 0.0 Z" style="vector-effect: non-scaling-stroke;" /></g></g><g transform="matrix(1.0, 0.0, 0.0, 1.0, 90.25, 0.0)"><g transform="matrix(1.0, -0.0, 0.0, 1.0, 0.0, 0.0)"><g /></g></g></g><g style="fill: #9467bd;stroke: black;stroke-width: 0.0;" transform="matrix(1.0, 0.0, 0.0, 1.0, 90.25, -5.0)"><path d="M 0.0 0.0 L 20.0 0.0 L 20.0 10.0 L 0.0 10.0 L 0.0 0.0 Z" style="vector-effect: non-scaling-stroke;" /></g></g><g transform="matrix(1.0, 0.0, 0.0, 1.0, 110.25, 0.0)"><g transform="matrix(1.0, -0.0, 0.0, 1.0, 0.0, 0.0)"><g /></g></g></g><g style="fill: #8c564b;stroke: black;stroke-width: 0.0;" transform="matrix(1.0, 0.0, 0.0, 1.0, 110.25, -5.0)"><path d="M 0.0 0.0 L 20.0 0.0 L 20.0 10.0 L 0.0 10.0 L 0.0 0.0 Z" style="vector-effect: non-scaling-stroke;" /></g></g><g transform="matrix(1.0, 0.0, 0.0, 1.0, 130.25, 0.0)"><g transform="matrix(1.0, -0.0, 0.0, 1.0, 0.0, 0.0)"><g /></g></g></g><g style="fill: #e377c2;stroke: black;stroke-width: 0.0;" transform="matrix(1.0, 0.0, 0.0, 1.0, 130.25, -5.0)"><path d="M 0.0 0.0 L 20.0 0.0 L 20.0 10.0 L 0.0 10.0 L 0.0 0.0 Z" style="vector-effect: non-scaling-stroke;" /></g></g><g transform="matrix(1.0, 0.0, 0.0, 1.0, 150.25, 0.0)"><g transform="matrix(1.0, -0.0, 0.0, 1.0, 0.0, 0.0)"><g /></g></g></g><g style="fill: #7f7f7f;stroke: black;stroke-width: 0.0;" transform="matrix(1.0, 0.0, 0.0, 1.0, 150.25, -5.0)"><path d="M 0.0 0.0 L 20.0 0.0 L 20.0 10.0 L 0.0 10.0 L 0.0 0.0 Z" style="vector-effect: non-scaling-stroke;" /></g></g><g transform="matrix(1.0, 0.0, 0.0, 1.0, 170.25, 0.0)"><g transform="matrix(1.0, -0.0, 0.0, 1.0, 0.0, 0.0)"><g /></g></g></g><g style="fill: #bcbd22;stroke: black;stroke-width: 0.0;" transform="matrix(1.0, 0.0, 0.0, 1.0, 170.25, -5.0)"><path d="M 0.0 0.0 L 20.0 0.0 L 20.0 10.0 L 0.0 10.0 L 0.0 0.0 Z" style="vector-effect: non-scaling-stroke;" /></g></g><g transform="matrix(1.0, 0.0, 0.0, 1.0, 190.25, 0.0)"><g transform="matrix(1.0, -0.0, 0.0, 1.0, 0.0, 0.0)"><g /></g></g></g><g style="fill: #17becf;stroke: black;stroke-width: 0.0;" transform="matrix(1.0, 0.0, 0.0, 1.0, 190.25, -5.0)"><path d="M 0.0 0.0 L 20.0 0.0 L 20.0 10.0 L 0.0 10.0 L 0.0 0.0 Z" style="vector-effect: non-scaling-stroke;" /></g></g></g></g></g><g transform="matrix(1.0, 0.0, 0.0, 1.0, 0.0, 90.1)"><g transform="matrix(0.0, -1.0, 1.0, 0.0, 0.0, 0.0)"><g /></g></g></g><g transform="matrix(1.0, 0.0, 0.0, 1.0, 0.0, 95.39999999999999)"><g transform="matrix(1.0, 0.0, 0.0, 1.0, -100.0, -0.04999999999999982)"><g><g><g><g><g><g><g><g><g><g><g><g><g><g><g><g><g><g><g><g><g><g><g><g><g><g><g><g><g><g><g><g><g><g><g><g><g><g><g><g><g><g style="stroke: #000000;stroke-width: 0.0;" transform="matrix(1.0, 0.0, 0.0, 1.0, -10.25, -4.75)"><path d="M 0.0 0.0 L 0.0 9.5 A 0.5000000000000001 0.5000000000000001 135.00000000000003 0 0 0.5 10.0 L 20.0 10.0 A 0.5000000000000001 0.5000000000000001 45.000000000000014 0 0 20.5 9.5 L 20.5 0.0 A 0.5000000000000001 0.5000000000000001 -44.999999999999986 0 0 20.0 -0.5000000000000002 L 0.5 -0.5000000000000002 A 0.5000000000000001 0.5000000000000001 -135.0 0 0 -2.220446049250313e-16 -2.220446049250313e-16 L -2.220446049250313e-16 0.009999999999999778 Z" style="vector-effect: non-scaling-stroke;" /></g><g transform="matrix(1.0, 0.0, 0.0, 1.0, 0.0, 0.625)"><g><g style="fill: #000000;stroke: #000000;stroke-width: 0.0;" transform="matrix(1.0, 0.0, 0.0, 1.0, 0.0, 0.0)"><text style="text-align:center; text-anchor:middle; dominant-baseline:middle;&#10;                      font-family:sans-serif; font-weight: bold;&#10;                      font-size:3.3333333333333335px;&#10;                      vector-effect: non-scaling-stroke;" transform="translate(-5e-05, 0)">tab20</text></g><g /></g></g></g><g transform="matrix(1.0, 0.0, 0.0, 1.0, 10.25, 0.0)"><g transform="matrix(1.0, -0.0, 0.0, 1.0, 0.0, 0.0)"><g /></g></g></g><g style="fill: #1f77b4;stroke: black;stroke-width: 0.0;" transform="matrix(1.0, 0.0, 0.0, 1.0, 10.25, -5.0)"><path d="M 0.0 0.0 L 10.0 0.0 L 10.0 10.0 L 0.0 10.0 L 0.0 0.0 Z" style="vector-effect: non-scaling-stroke;" /></g></g><g transform="matrix(1.0, 0.0, 0.0, 1.0, 20.25, 0.0)"><g transform="matrix(1.0, -0.0, 0.0, 1.0, 0.0, 0.0)"><g /></g></g></g><g style="fill: #aec7e8;stroke: black;stroke-width: 0.0;" transform="matrix(1.0, 0.0, 0.0, 1.0, 20.25, -5.0)"><path d="M 0.0 0.0 L 10.0 0.0 L 10.0 10.0 L 0.0 10.0 L 0.0 0.0 Z" style="vector-effect: non-scaling-stroke;" /></g></g><g transform="matrix(1.0, 0.0, 0.0, 1.0, 30.25, 0.0)"><g transform="matrix(1.0, -0.0, 0.0, 1.0, 0.0, 0.0)"><g /></g></g></g><g style="fill: #ff7f0e;stroke: black;stroke-width: 0.0;" transform="matrix(1.0, 0.0, 0.0, 1.0, 30.25, -5.0)"><path d="M 0.0 0.0 L 10.0 0.0 L 10.0 10.0 L 0.0 10.0 L 0.0 0.0 Z" style="vector-effect: non-scaling-stroke;" /></g></g><g transform="matrix(1.0, 0.0, 0.0, 1.0, 40.25, 0.0)"><g transform="matrix(1.0, -0.0, 0.0, 1.0, 0.0, 0.0)"><g /></g></g></g><g style="fill: #ffbb78;stroke: black;stroke-width: 0.0;" transform="matrix(1.0, 0.0, 0.0, 1.0, 40.25, -5.0)"><path d="M 0.0 0.0 L 10.0 0.0 L 10.0 10.0 L 0.0 10.0 L 0.0 0.0 Z" style="vector-effect: non-scaling-stroke;" /></g></g><g transform="matrix(1.0, 0.0, 0.0, 1.0, 50.25, 0.0)"><g transform="matrix(1.0, -0.0, 0.0, 1.0, 0.0, 0.0)"><g /></g></g></g><g style="fill: #2ca02c;stroke: black;stroke-width: 0.0;" transform="matrix(1.0, 0.0, 0.0, 1.0, 50.25, -5.0)"><path d="M 0.0 0.0 L 10.0 0.0 L 10.0 10.0 L 0.0 10.0 L 0.0 0.0 Z" style="vector-effect: non-scaling-stroke;" /></g></g><g transform="matrix(1.0, 0.0, 0.0, 1.0, 60.25, 0.0)"><g transform="matrix(1.0, -0.0, 0.0, 1.0, 0.0, 0.0)"><g /></g></g></g><g style="fill: #98df8a;stroke: black;stroke-width: 0.0;" transform="matrix(1.0, 0.0, 0.0, 1.0, 60.25, -5.0)"><path d="M 0.0 0.0 L 10.0 0.0 L 10.0 10.0 L 0.0 10.0 L 0.0 0.0 Z" style="vector-effect: non-scaling-stroke;" /></g></g><g transform="matrix(1.0, 0.0, 0.0, 1.0, 70.25, 0.0)"><g transform="matrix(1.0, -0.0, 0.0, 1.0, 0.0, 0.0)"><g /></g></g></g><g style="fill: #d62728;stroke: black;stroke-width: 0.0;" transform="matrix(1.0, 0.0, 0.0, 1.0, 70.25, -5.0)"><path d="M 0.0 0.0 L 10.0 0.0 L 10.0 10.0 L 0.0 10.0 L 0.0 0.0 Z" style="vector-effect: non-scaling-stroke;" /></g></g><g transform="matrix(1.0, 0.0, 0.0, 1.0, 80.25, 0.0)"><g transform="matrix(1.0, -0.0, 0.0, 1.0, 0.0, 0.0)"><g /></g></g></g><g style="fill: #ff9896;stroke: black;stroke-width: 0.0;" transform="matrix(1.0, 0.0, 0.0, 1.0, 80.25, -5.0)"><path d="M 0.0 0.0 L 10.0 0.0 L 10.0 10.0 L 0.0 10.0 L 0.0 0.0 Z" style="vector-effect: non-scaling-stroke;" /></g></g><g transform="matrix(1.0, 0.0, 0.0, 1.0, 90.25, 0.0)"><g transform="matrix(1.0, -0.0, 0.0, 1.0, 0.0, 0.0)"><g /></g></g></g><g style="fill: #9467bd;stroke: black;stroke-width: 0.0;" transform="matrix(1.0, 0.0, 0.0, 1.0, 90.25, -5.0)"><path d="M 0.0 0.0 L 10.0 0.0 L 10.0 10.0 L 0.0 10.0 L 0.0 0.0 Z" style="vector-effect: non-scaling-stroke;" /></g></g><g transform="matrix(1.0, 0.0, 0.0, 1.0, 100.25, 0.0)"><g transform="matrix(1.0, -0.0, 0.0, 1.0, 0.0, 0.0)"><g /></g></g></g><g style="fill: #c5b0d5;stroke: black;stroke-width: 0.0;" transform="matrix(1.0, 0.0, 0.0, 1.0, 100.25, -5.0)"><path d="M 0.0 0.0 L 10.0 0.0 L 10.0 10.0 L 0.0 10.0 L 0.0 0.0 Z" style="vector-effect: non-scaling-stroke;" /></g></g><g transform="matrix(1.0, 0.0, 0.0, 1.0, 110.25, 0.0)"><g transform="matrix(1.0, -0.0, 0.0, 1.0, 0.0, 0.0)"><g /></g></g></g><g style="fill: #8c564b;stroke: black;stroke-width: 0.0;" transform="matrix(1.0, 0.0, 0.0, 1.0, 110.25, -5.0)"><path d="M 0.0 0.0 L 10.0 0.0 L 10.0 10.0 L 0.0 10.0 L 0.0 0.0 Z" style="vector-effect: non-scaling-stroke;" /></g></g><g transform="matrix(1.0, 0.0, 0.0, 1.0, 120.25, 0.0)"><g transform="matrix(1.0, -0.0, 0.0, 1.0, 0.0, 0.0)"><g /></g></g></g><g style="fill: #c49c94;stroke: black;stroke-width: 0.0;" transform="matrix(1.0, 0.0, 0.0, 1.0, 120.25, -5.0)"><path d="M 0.0 0.0 L 10.0 0.0 L 10.0 10.0 L 0.0 10.0 L 0.0 0.0 Z" style="vector-effect: non-scaling-stroke;" /></g></g><g transform="matrix(1.0, 0.0, 0.0, 1.0, 130.25, 0.0)"><g transform="matrix(1.0, -0.0, 0.0, 1.0, 0.0, 0.0)"><g /></g></g></g><g style="fill: #e377c2;stroke: black;stroke-width: 0.0;" transform="matrix(1.0, 0.0, 0.0, 1.0, 130.25, -5.0)"><path d="M 0.0 0.0 L 10.0 0.0 L 10.0 10.0 L 0.0 10.0 L 0.0 0.0 Z" style="vector-effect: non-scaling-stroke;" /></g></g><g transform="matrix(1.0, 0.0, 0.0, 1.0, 140.25, 0.0)"><g transform="matrix(1.0, -0.0, 0.0, 1.0, 0.0, 0.0)"><g /></g></g></g><g style="fill: #f7b6d2;stroke: black;stroke-width: 0.0;" transform="matrix(1.0, 0.0, 0.0, 1.0, 140.25, -5.0)"><path d="M 0.0 0.0 L 10.0 0.0 L 10.0 10.0 L 0.0 10.0 L 0.0 0.0 Z" style="vector-effect: non-scaling-stroke;" /></g></g><g transform="matrix(1.0, 0.0, 0.0, 1.0, 150.25, 0.0)"><g transform="matrix(1.0, -0.0, 0.0, 1.0, 0.0, 0.0)"><g /></g></g></g><g style="fill: #7f7f7f;stroke: black;stroke-width: 0.0;" transform="matrix(1.0, 0.0, 0.0, 1.0, 150.25, -5.0)"><path d="M 0.0 0.0 L 10.0 0.0 L 10.0 10.0 L 0.0 10.0 L 0.0 0.0 Z" style="vector-effect: non-scaling-stroke;" /></g></g><g transform="matrix(1.0, 0.0, 0.0, 1.0, 160.25, 0.0)"><g transform="matrix(1.0, -0.0, 0.0, 1.0, 0.0, 0.0)"><g /></g></g></g><g style="fill: #c7c7c7;stroke: black;stroke-width: 0.0;" transform="matrix(1.0, 0.0, 0.0, 1.0, 160.25, -5.0)"><path d="M 0.0 0.0 L 10.0 0.0 L 10.0 10.0 L 0.0 10.0 L 0.0 0.0 Z" style="vector-effect: non-scaling-stroke;" /></g></g><g transform="matrix(1.0, 0.0, 0.0, 1.0, 170.25, 0.0)"><g transform="matrix(1.0, -0.0, 0.0, 1.0, 0.0, 0.0)"><g /></g></g></g><g style="fill: #bcbd22;stroke: black;stroke-width: 0.0;" transform="matrix(1.0, 0.0, 0.0, 1.0, 170.25, -5.0)"><path d="M 0.0 0.0 L 10.0 0.0 L 10.0 10.0 L 0.0 10.0 L 0.0 0.0 Z" style="vector-effect: non-scaling-stroke;" /></g></g><g transform="matrix(1.0, 0.0, 0.0, 1.0, 180.25, 0.0)"><g transform="matrix(1.0, -0.0, 0.0, 1.0, 0.0, 0.0)"><g /></g></g></g><g style="fill: #dbdb8d;stroke: black;stroke-width: 0.0;" transform="matrix(1.0, 0.0, 0.0, 1.0, 180.25, -5.0)"><path d="M 0.0 0.0 L 10.0 0.0 L 10.0 10.0 L 0.0 10.0 L 0.0 0.0 Z" style="vector-effect: non-scaling-stroke;" /></g></g><g transform="matrix(1.0, 0.0, 0.0, 1.0, 190.25, 0.0)"><g transform="matrix(1.0, -0.0, 0.0, 1.0, 0.0, 0.0)"><g /></g></g></g><g style="fill: #17becf;stroke: black;stroke-width: 0.0;" transform="matrix(1.0, 0.0, 0.0, 1.0, 190.25, -5.0)"><path d="M 0.0 0.0 L 10.0 0.0 L 10.0 10.0 L 0.0 10.0 L 0.0 0.0 Z" style="vector-effect: non-scaling-stroke;" /></g></g><g transform="matrix(1.0, 0.0, 0.0, 1.0, 200.25, 0.0)"><g transform="matrix(1.0, -0.0, 0.0, 1.0, 0.0, 0.0)"><g /></g></g></g><g style="fill: #9edae5;stroke: black;stroke-width: 0.0;" transform="matrix(1.0, 0.0, 0.0, 1.0, 200.25, -5.0)"><path d="M 0.0 0.0 L 10.0 0.0 L 10.0 10.0 L 0.0 10.0 L 0.0 0.0 Z" style="vector-effect: non-scaling-stroke;" /></g></g></g></g></g><g transform="matrix(1.0, 0.0, 0.0, 1.0, 0.0, 100.69999999999999)"><g transform="matrix(0.0, -1.0, 1.0, 0.0, 0.0, 0.0)"><g /></g></g></g><g transform="matrix(1.0, 0.0, 0.0, 1.0, 0.0, 105.99999999999999)"><g transform="matrix(1.0, 0.0, 0.0, 1.0, -100.0, -0.04999999999999982)"><g><g><g><g><g><g><g><g><g><g><g><g><g><g><g><g><g><g><g><g><g><g><g><g><g><g><g><g><g><g><g><g><g><g><g><g><g><g><g><g><g><g style="stroke: #000000;stroke-width: 0.0;" transform="matrix(1.0, 0.0, 0.0, 1.0, -10.25, -4.75)"><path d="M 0.0 0.0 L 0.0 9.5 A 0.5000000000000001 0.5000000000000001 135.00000000000003 0 0 0.5 10.0 L 20.0 10.0 A 0.5000000000000001 0.5000000000000001 45.000000000000014 0 0 20.5 9.5 L 20.5 0.0 A 0.5000000000000001 0.5000000000000001 -44.999999999999986 0 0 20.0 -0.5000000000000002 L 0.5 -0.5000000000000002 A 0.5000000000000001 0.5000000000000001 -135.0 0 0 -2.220446049250313e-16 -2.220446049250313e-16 L -2.220446049250313e-16 0.009999999999999778 Z" style="vector-effect: non-scaling-stroke;" /></g><g transform="matrix(1.0, 0.0, 0.0, 1.0, 0.0, 0.625)"><g><g style="fill: #000000;stroke: #000000;stroke-width: 0.0;" transform="matrix(1.0, 0.0, 0.0, 1.0, 0.0, 0.0)"><text style="text-align:center; text-anchor:middle; dominant-baseline:middle;&#10;                      font-family:sans-serif; font-weight: bold;&#10;                      font-size:3.3333333333333335px;&#10;                      vector-effect: non-scaling-stroke;" transform="translate(-5e-05, 0)">tab20b</text></g><g /></g></g></g><g transform="matrix(1.0, 0.0, 0.0, 1.0, 10.25, 0.0)"><g transform="matrix(1.0, -0.0, 0.0, 1.0, 0.0, 0.0)"><g /></g></g></g><g style="fill: #393b79;stroke: black;stroke-width: 0.0;" transform="matrix(1.0, 0.0, 0.0, 1.0, 10.25, -5.0)"><path d="M 0.0 0.0 L 10.0 0.0 L 10.0 10.0 L 0.0 10.0 L 0.0 0.0 Z" style="vector-effect: non-scaling-stroke;" /></g></g><g transform="matrix(1.0, 0.0, 0.0, 1.0, 20.25, 0.0)"><g transform="matrix(1.0, -0.0, 0.0, 1.0, 0.0, 0.0)"><g /></g></g></g><g style="fill: #5254a3;stroke: black;stroke-width: 0.0;" transform="matrix(1.0, 0.0, 0.0, 1.0, 20.25, -5.0)"><path d="M 0.0 0.0 L 10.0 0.0 L 10.0 10.0 L 0.0 10.0 L 0.0 0.0 Z" style="vector-effect: non-scaling-stroke;" /></g></g><g transform="matrix(1.0, 0.0, 0.0, 1.0, 30.25, 0.0)"><g transform="matrix(1.0, -0.0, 0.0, 1.0, 0.0, 0.0)"><g /></g></g></g><g style="fill: #6b6ecf;stroke: black;stroke-width: 0.0;" transform="matrix(1.0, 0.0, 0.0, 1.0, 30.25, -5.0)"><path d="M 0.0 0.0 L 10.0 0.0 L 10.0 10.0 L 0.0 10.0 L 0.0 0.0 Z" style="vector-effect: non-scaling-stroke;" /></g></g><g transform="matrix(1.0, 0.0, 0.0, 1.0, 40.25, 0.0)"><g transform="matrix(1.0, -0.0, 0.0, 1.0, 0.0, 0.0)"><g /></g></g></g><g style="fill: #9c9ede;stroke: black;stroke-width: 0.0;" transform="matrix(1.0, 0.0, 0.0, 1.0, 40.25, -5.0)"><path d="M 0.0 0.0 L 10.0 0.0 L 10.0 10.0 L 0.0 10.0 L 0.0 0.0 Z" style="vector-effect: non-scaling-stroke;" /></g></g><g transform="matrix(1.0, 0.0, 0.0, 1.0, 50.25, 0.0)"><g transform="matrix(1.0, -0.0, 0.0, 1.0, 0.0, 0.0)"><g /></g></g></g><g style="fill: #637939;stroke: black;stroke-width: 0.0;" transform="matrix(1.0, 0.0, 0.0, 1.0, 50.25, -5.0)"><path d="M 0.0 0.0 L 10.0 0.0 L 10.0 10.0 L 0.0 10.0 L 0.0 0.0 Z" style="vector-effect: non-scaling-stroke;" /></g></g><g transform="matrix(1.0, 0.0, 0.0, 1.0, 60.25, 0.0)"><g transform="matrix(1.0, -0.0, 0.0, 1.0, 0.0, 0.0)"><g /></g></g></g><g style="fill: #8ca252;stroke: black;stroke-width: 0.0;" transform="matrix(1.0, 0.0, 0.0, 1.0, 60.25, -5.0)"><path d="M 0.0 0.0 L 10.0 0.0 L 10.0 10.0 L 0.0 10.0 L 0.0 0.0 Z" style="vector-effect: non-scaling-stroke;" /></g></g><g transform="matrix(1.0, 0.0, 0.0, 1.0, 70.25, 0.0)"><g transform="matrix(1.0, -0.0, 0.0, 1.0, 0.0, 0.0)"><g /></g></g></g><g style="fill: #b5cf6b;stroke: black;stroke-width: 0.0;" transform="matrix(1.0, 0.0, 0.0, 1.0, 70.25, -5.0)"><path d="M 0.0 0.0 L 10.0 0.0 L 10.0 10.0 L 0.0 10.0 L 0.0 0.0 Z" style="vector-effect: non-scaling-stroke;" /></g></g><g transform="matrix(1.0, 0.0, 0.0, 1.0, 80.25, 0.0)"><g transform="matrix(1.0, -0.0, 0.0, 1.0, 0.0, 0.0)"><g /></g></g></g><g style="fill: #cedb9c;stroke: black;stroke-width: 0.0;" transform="matrix(1.0, 0.0, 0.0, 1.0, 80.25, -5.0)"><path d="M 0.0 0.0 L 10.0 0.0 L 10.0 10.0 L 0.0 10.0 L 0.0 0.0 Z" style="vector-effect: non-scaling-stroke;" /></g></g><g transform="matrix(1.0, 0.0, 0.0, 1.0, 90.25, 0.0)"><g transform="matrix(1.0, -0.0, 0.0, 1.0, 0.0, 0.0)"><g /></g></g></g><g style="fill: #8c6d31;stroke: black;stroke-width: 0.0;" transform="matrix(1.0, 0.0, 0.0, 1.0, 90.25, -5.0)"><path d="M 0.0 0.0 L 10.0 0.0 L 10.0 10.0 L 0.0 10.0 L 0.0 0.0 Z" style="vector-effect: non-scaling-stroke;" /></g></g><g transform="matrix(1.0, 0.0, 0.0, 1.0, 100.25, 0.0)"><g transform="matrix(1.0, -0.0, 0.0, 1.0, 0.0, 0.0)"><g /></g></g></g><g style="fill: #bd9e39;stroke: black;stroke-width: 0.0;" transform="matrix(1.0, 0.0, 0.0, 1.0, 100.25, -5.0)"><path d="M 0.0 0.0 L 10.0 0.0 L 10.0 10.0 L 0.0 10.0 L 0.0 0.0 Z" style="vector-effect: non-scaling-stroke;" /></g></g><g transform="matrix(1.0, 0.0, 0.0, 1.0, 110.25, 0.0)"><g transform="matrix(1.0, -0.0, 0.0, 1.0, 0.0, 0.0)"><g /></g></g></g><g style="fill: #e7ba52;stroke: black;stroke-width: 0.0;" transform="matrix(1.0, 0.0, 0.0, 1.0, 110.25, -5.0)"><path d="M 0.0 0.0 L 10.0 0.0 L 10.0 10.0 L 0.0 10.0 L 0.0 0.0 Z" style="vector-effect: non-scaling-stroke;" /></g></g><g transform="matrix(1.0, 0.0, 0.0, 1.0, 120.25, 0.0)"><g transform="matrix(1.0, -0.0, 0.0, 1.0, 0.0, 0.0)"><g /></g></g></g><g style="fill: #e7cb94;stroke: black;stroke-width: 0.0;" transform="matrix(1.0, 0.0, 0.0, 1.0, 120.25, -5.0)"><path d="M 0.0 0.0 L 10.0 0.0 L 10.0 10.0 L 0.0 10.0 L 0.0 0.0 Z" style="vector-effect: non-scaling-stroke;" /></g></g><g transform="matrix(1.0, 0.0, 0.0, 1.0, 130.25, 0.0)"><g transform="matrix(1.0, -0.0, 0.0, 1.0, 0.0, 0.0)"><g /></g></g></g><g style="fill: #843c39;stroke: black;stroke-width: 0.0;" transform="matrix(1.0, 0.0, 0.0, 1.0, 130.25, -5.0)"><path d="M 0.0 0.0 L 10.0 0.0 L 10.0 10.0 L 0.0 10.0 L 0.0 0.0 Z" style="vector-effect: non-scaling-stroke;" /></g></g><g transform="matrix(1.0, 0.0, 0.0, 1.0, 140.25, 0.0)"><g transform="matrix(1.0, -0.0, 0.0, 1.0, 0.0, 0.0)"><g /></g></g></g><g style="fill: #ad494a;stroke: black;stroke-width: 0.0;" transform="matrix(1.0, 0.0, 0.0, 1.0, 140.25, -5.0)"><path d="M 0.0 0.0 L 10.0 0.0 L 10.0 10.0 L 0.0 10.0 L 0.0 0.0 Z" style="vector-effect: non-scaling-stroke;" /></g></g><g transform="matrix(1.0, 0.0, 0.0, 1.0, 150.25, 0.0)"><g transform="matrix(1.0, -0.0, 0.0, 1.0, 0.0, 0.0)"><g /></g></g></g><g style="fill: #d6616b;stroke: black;stroke-width: 0.0;" transform="matrix(1.0, 0.0, 0.0, 1.0, 150.25, -5.0)"><path d="M 0.0 0.0 L 10.0 0.0 L 10.0 10.0 L 0.0 10.0 L 0.0 0.0 Z" style="vector-effect: non-scaling-stroke;" /></g></g><g transform="matrix(1.0, 0.0, 0.0, 1.0, 160.25, 0.0)"><g transform="matrix(1.0, -0.0, 0.0, 1.0, 0.0, 0.0)"><g /></g></g></g><g style="fill: #e7969c;stroke: black;stroke-width: 0.0;" transform="matrix(1.0, 0.0, 0.0, 1.0, 160.25, -5.0)"><path d="M 0.0 0.0 L 10.0 0.0 L 10.0 10.0 L 0.0 10.0 L 0.0 0.0 Z" style="vector-effect: non-scaling-stroke;" /></g></g><g transform="matrix(1.0, 0.0, 0.0, 1.0, 170.25, 0.0)"><g transform="matrix(1.0, -0.0, 0.0, 1.0, 0.0, 0.0)"><g /></g></g></g><g style="fill: #7b4173;stroke: black;stroke-width: 0.0;" transform="matrix(1.0, 0.0, 0.0, 1.0, 170.25, -5.0)"><path d="M 0.0 0.0 L 10.0 0.0 L 10.0 10.0 L 0.0 10.0 L 0.0 0.0 Z" style="vector-effect: non-scaling-stroke;" /></g></g><g transform="matrix(1.0, 0.0, 0.0, 1.0, 180.25, 0.0)"><g transform="matrix(1.0, -0.0, 0.0, 1.0, 0.0, 0.0)"><g /></g></g></g><g style="fill: #a55194;stroke: black;stroke-width: 0.0;" transform="matrix(1.0, 0.0, 0.0, 1.0, 180.25, -5.0)"><path d="M 0.0 0.0 L 10.0 0.0 L 10.0 10.0 L 0.0 10.0 L 0.0 0.0 Z" style="vector-effect: non-scaling-stroke;" /></g></g><g transform="matrix(1.0, 0.0, 0.0, 1.0, 190.25, 0.0)"><g transform="matrix(1.0, -0.0, 0.0, 1.0, 0.0, 0.0)"><g /></g></g></g><g style="fill: #ce6dbd;stroke: black;stroke-width: 0.0;" transform="matrix(1.0, 0.0, 0.0, 1.0, 190.25, -5.0)"><path d="M 0.0 0.0 L 10.0 0.0 L 10.0 10.0 L 0.0 10.0 L 0.0 0.0 Z" style="vector-effect: non-scaling-stroke;" /></g></g><g transform="matrix(1.0, 0.0, 0.0, 1.0, 200.25, 0.0)"><g transform="matrix(1.0, -0.0, 0.0, 1.0, 0.0, 0.0)"><g /></g></g></g><g style="fill: #de9ed6;stroke: black;stroke-width: 0.0;" transform="matrix(1.0, 0.0, 0.0, 1.0, 200.25, -5.0)"><path d="M 0.0 0.0 L 10.0 0.0 L 10.0 10.0 L 0.0 10.0 L 0.0 0.0 Z" style="vector-effect: non-scaling-stroke;" /></g></g></g></g></g><g transform="matrix(1.0, 0.0, 0.0, 1.0, 0.0, 111.29999999999998)"><g transform="matrix(0.0, -1.0, 1.0, 0.0, 0.0, 0.0)"><g /></g></g></g><g transform="matrix(1.0, 0.0, 0.0, 1.0, 0.0, 116.59999999999998)"><g transform="matrix(1.0, 0.0, 0.0, 1.0, -100.0, -0.04999999999999982)"><g><g><g><g><g><g><g><g><g><g><g><g><g><g><g><g><g><g><g><g><g><g><g><g><g><g><g><g><g><g><g><g><g><g><g><g><g><g><g><g><g><g style="stroke: #000000;stroke-width: 0.0;" transform="matrix(1.0, 0.0, 0.0, 1.0, -10.25, -4.75)"><path d="M 0.0 0.0 L 0.0 9.5 A 0.5000000000000001 0.5000000000000001 135.00000000000003 0 0 0.5 10.0 L 20.0 10.0 A 0.5000000000000001 0.5000000000000001 45.000000000000014 0 0 20.5 9.5 L 20.5 0.0 A 0.5000000000000001 0.5000000000000001 -44.999999999999986 0 0 20.0 -0.5000000000000002 L 0.5 -0.5000000000000002 A 0.5000000000000001 0.5000000000000001 -135.0 0 0 -2.220446049250313e-16 -2.220446049250313e-16 L -2.220446049250313e-16 0.009999999999999778 Z" style="vector-effect: non-scaling-stroke;" /></g><g transform="matrix(1.0, 0.0, 0.0, 1.0, 0.0, 0.625)"><g><g style="fill: #000000;stroke: #000000;stroke-width: 0.0;" transform="matrix(1.0, 0.0, 0.0, 1.0, 0.0, 0.0)"><text style="text-align:center; text-anchor:middle; dominant-baseline:middle;&#10;                      font-family:sans-serif; font-weight: bold;&#10;                      font-size:3.3333333333333335px;&#10;                      vector-effect: non-scaling-stroke;" transform="translate(-5e-05, 0)">tab20c</text></g><g /></g></g></g><g transform="matrix(1.0, 0.0, 0.0, 1.0, 10.25, 0.0)"><g transform="matrix(1.0, -0.0, 0.0, 1.0, 0.0, 0.0)"><g /></g></g></g><g style="fill: #3182bd;stroke: black;stroke-width: 0.0;" transform="matrix(1.0, 0.0, 0.0, 1.0, 10.25, -5.0)"><path d="M 0.0 0.0 L 10.0 0.0 L 10.0 10.0 L 0.0 10.0 L 0.0 0.0 Z" style="vector-effect: non-scaling-stroke;" /></g></g><g transform="matrix(1.0, 0.0, 0.0, 1.0, 20.25, 0.0)"><g transform="matrix(1.0, -0.0, 0.0, 1.0, 0.0, 0.0)"><g /></g></g></g><g style="fill: #6baed6;stroke: black;stroke-width: 0.0;" transform="matrix(1.0, 0.0, 0.0, 1.0, 20.25, -5.0)"><path d="M 0.0 0.0 L 10.0 0.0 L 10.0 10.0 L 0.0 10.0 L 0.0 0.0 Z" style="vector-effect: non-scaling-stroke;" /></g></g><g transform="matrix(1.0, 0.0, 0.0, 1.0, 30.25, 0.0)"><g transform="matrix(1.0, -0.0, 0.0, 1.0, 0.0, 0.0)"><g /></g></g></g><g style="fill: #9ecae1;stroke: black;stroke-width: 0.0;" transform="matrix(1.0, 0.0, 0.0, 1.0, 30.25, -5.0)"><path d="M 0.0 0.0 L 10.0 0.0 L 10.0 10.0 L 0.0 10.0 L 0.0 0.0 Z" style="vector-effect: non-scaling-stroke;" /></g></g><g transform="matrix(1.0, 0.0, 0.0, 1.0, 40.25, 0.0)"><g transform="matrix(1.0, -0.0, 0.0, 1.0, 0.0, 0.0)"><g /></g></g></g><g style="fill: #c6dbef;stroke: black;stroke-width: 0.0;" transform="matrix(1.0, 0.0, 0.0, 1.0, 40.25, -5.0)"><path d="M 0.0 0.0 L 10.0 0.0 L 10.0 10.0 L 0.0 10.0 L 0.0 0.0 Z" style="vector-effect: non-scaling-stroke;" /></g></g><g transform="matrix(1.0, 0.0, 0.0, 1.0, 50.25, 0.0)"><g transform="matrix(1.0, -0.0, 0.0, 1.0, 0.0, 0.0)"><g /></g></g></g><g style="fill: #e6550d;stroke: black;stroke-width: 0.0;" transform="matrix(1.0, 0.0, 0.0, 1.0, 50.25, -5.0)"><path d="M 0.0 0.0 L 10.0 0.0 L 10.0 10.0 L 0.0 10.0 L 0.0 0.0 Z" style="vector-effect: non-scaling-stroke;" /></g></g><g transform="matrix(1.0, 0.0, 0.0, 1.0, 60.25, 0.0)"><g transform="matrix(1.0, -0.0, 0.0, 1.0, 0.0, 0.0)"><g /></g></g></g><g style="fill: #fd8d3c;stroke: black;stroke-width: 0.0;" transform="matrix(1.0, 0.0, 0.0, 1.0, 60.25, -5.0)"><path d="M 0.0 0.0 L 10.0 0.0 L 10.0 10.0 L 0.0 10.0 L 0.0 0.0 Z" style="vector-effect: non-scaling-stroke;" /></g></g><g transform="matrix(1.0, 0.0, 0.0, 1.0, 70.25, 0.0)"><g transform="matrix(1.0, -0.0, 0.0, 1.0, 0.0, 0.0)"><g /></g></g></g><g style="fill: #fdae6b;stroke: black;stroke-width: 0.0;" transform="matrix(1.0, 0.0, 0.0, 1.0, 70.25, -5.0)"><path d="M 0.0 0.0 L 10.0 0.0 L 10.0 10.0 L 0.0 10.0 L 0.0 0.0 Z" style="vector-effect: non-scaling-stroke;" /></g></g><g transform="matrix(1.0, 0.0, 0.0, 1.0, 80.25, 0.0)"><g transform="matrix(1.0, -0.0, 0.0, 1.0, 0.0, 0.0)"><g /></g></g></g><g style="fill: #fdd0a2;stroke: black;stroke-width: 0.0;" transform="matrix(1.0, 0.0, 0.0, 1.0, 80.25, -5.0)"><path d="M 0.0 0.0 L 10.0 0.0 L 10.0 10.0 L 0.0 10.0 L 0.0 0.0 Z" style="vector-effect: non-scaling-stroke;" /></g></g><g transform="matrix(1.0, 0.0, 0.0, 1.0, 90.25, 0.0)"><g transform="matrix(1.0, -0.0, 0.0, 1.0, 0.0, 0.0)"><g /></g></g></g><g style="fill: #31a354;stroke: black;stroke-width: 0.0;" transform="matrix(1.0, 0.0, 0.0, 1.0, 90.25, -5.0)"><path d="M 0.0 0.0 L 10.0 0.0 L 10.0 10.0 L 0.0 10.0 L 0.0 0.0 Z" style="vector-effect: non-scaling-stroke;" /></g></g><g transform="matrix(1.0, 0.0, 0.0, 1.0, 100.25, 0.0)"><g transform="matrix(1.0, -0.0, 0.0, 1.0, 0.0, 0.0)"><g /></g></g></g><g style="fill: #74c476;stroke: black;stroke-width: 0.0;" transform="matrix(1.0, 0.0, 0.0, 1.0, 100.25, -5.0)"><path d="M 0.0 0.0 L 10.0 0.0 L 10.0 10.0 L 0.0 10.0 L 0.0 0.0 Z" style="vector-effect: non-scaling-stroke;" /></g></g><g transform="matrix(1.0, 0.0, 0.0, 1.0, 110.25, 0.0)"><g transform="matrix(1.0, -0.0, 0.0, 1.0, 0.0, 0.0)"><g /></g></g></g><g style="fill: #a1d99b;stroke: black;stroke-width: 0.0;" transform="matrix(1.0, 0.0, 0.0, 1.0, 110.25, -5.0)"><path d="M 0.0 0.0 L 10.0 0.0 L 10.0 10.0 L 0.0 10.0 L 0.0 0.0 Z" style="vector-effect: non-scaling-stroke;" /></g></g><g transform="matrix(1.0, 0.0, 0.0, 1.0, 120.25, 0.0)"><g transform="matrix(1.0, -0.0, 0.0, 1.0, 0.0, 0.0)"><g /></g></g></g><g style="fill: #c7e9c0;stroke: black;stroke-width: 0.0;" transform="matrix(1.0, 0.0, 0.0, 1.0, 120.25, -5.0)"><path d="M 0.0 0.0 L 10.0 0.0 L 10.0 10.0 L 0.0 10.0 L 0.0 0.0 Z" style="vector-effect: non-scaling-stroke;" /></g></g><g transform="matrix(1.0, 0.0, 0.0, 1.0, 130.25, 0.0)"><g transform="matrix(1.0, -0.0, 0.0, 1.0, 0.0, 0.0)"><g /></g></g></g><g style="fill: #756bb1;stroke: black;stroke-width: 0.0;" transform="matrix(1.0, 0.0, 0.0, 1.0, 130.25, -5.0)"><path d="M 0.0 0.0 L 10.0 0.0 L 10.0 10.0 L 0.0 10.0 L 0.0 0.0 Z" style="vector-effect: non-scaling-stroke;" /></g></g><g transform="matrix(1.0, 0.0, 0.0, 1.0, 140.25, 0.0)"><g transform="matrix(1.0, -0.0, 0.0, 1.0, 0.0, 0.0)"><g /></g></g></g><g style="fill: #9e9ac8;stroke: black;stroke-width: 0.0;" transform="matrix(1.0, 0.0, 0.0, 1.0, 140.25, -5.0)"><path d="M 0.0 0.0 L 10.0 0.0 L 10.0 10.0 L 0.0 10.0 L 0.0 0.0 Z" style="vector-effect: non-scaling-stroke;" /></g></g><g transform="matrix(1.0, 0.0, 0.0, 1.0, 150.25, 0.0)"><g transform="matrix(1.0, -0.0, 0.0, 1.0, 0.0, 0.0)"><g /></g></g></g><g style="fill: #bcbddc;stroke: black;stroke-width: 0.0;" transform="matrix(1.0, 0.0, 0.0, 1.0, 150.25, -5.0)"><path d="M 0.0 0.0 L 10.0 0.0 L 10.0 10.0 L 0.0 10.0 L 0.0 0.0 Z" style="vector-effect: non-scaling-stroke;" /></g></g><g transform="matrix(1.0, 0.0, 0.0, 1.0, 160.25, 0.0)"><g transform="matrix(1.0, -0.0, 0.0, 1.0, 0.0, 0.0)"><g /></g></g></g><g style="fill: #dadaeb;stroke: black;stroke-width: 0.0;" transform="matrix(1.0, 0.0, 0.0, 1.0, 160.25, -5.0)"><path d="M 0.0 0.0 L 10.0 0.0 L 10.0 10.0 L 0.0 10.0 L 0.0 0.0 Z" style="vector-effect: non-scaling-stroke;" /></g></g><g transform="matrix(1.0, 0.0, 0.0, 1.0, 170.25, 0.0)"><g transform="matrix(1.0, -0.0, 0.0, 1.0, 0.0, 0.0)"><g /></g></g></g><g style="fill: #636363;stroke: black;stroke-width: 0.0;" transform="matrix(1.0, 0.0, 0.0, 1.0, 170.25, -5.0)"><path d="M 0.0 0.0 L 10.0 0.0 L 10.0 10.0 L 0.0 10.0 L 0.0 0.0 Z" style="vector-effect: non-scaling-stroke;" /></g></g><g transform="matrix(1.0, 0.0, 0.0, 1.0, 180.25, 0.0)"><g transform="matrix(1.0, -0.0, 0.0, 1.0, 0.0, 0.0)"><g /></g></g></g><g style="fill: #969696;stroke: black;stroke-width: 0.0;" transform="matrix(1.0, 0.0, 0.0, 1.0, 180.25, -5.0)"><path d="M 0.0 0.0 L 10.0 0.0 L 10.0 10.0 L 0.0 10.0 L 0.0 0.0 Z" style="vector-effect: non-scaling-stroke;" /></g></g><g transform="matrix(1.0, 0.0, 0.0, 1.0, 190.25, 0.0)"><g transform="matrix(1.0, -0.0, 0.0, 1.0, 0.0, 0.0)"><g /></g></g></g><g style="fill: #bdbdbd;stroke: black;stroke-width: 0.0;" transform="matrix(1.0, 0.0, 0.0, 1.0, 190.25, -5.0)"><path d="M 0.0 0.0 L 10.0 0.0 L 10.0 10.0 L 0.0 10.0 L 0.0 0.0 Z" style="vector-effect: non-scaling-stroke;" /></g></g><g transform="matrix(1.0, 0.0, 0.0, 1.0, 200.25, 0.0)"><g transform="matrix(1.0, -0.0, 0.0, 1.0, 0.0, 0.0)"><g /></g></g></g><g style="fill: #d9d9d9;stroke: black;stroke-width: 0.0;" transform="matrix(1.0, 0.0, 0.0, 1.0, 200.25, -5.0)"><path d="M 0.0 0.0 L 10.0 0.0 L 10.0 10.0 L 0.0 10.0 L 0.0 0.0 Z" style="vector-effect: non-scaling-stroke;" /></g></g></g></g></g></g></g><g /></g></g></g></g></svg>