<?xml version="1.0" encoding="utf-8" ?>
<svg baseProfile="full" height="512" version="1.1" width="1639" xmlns="http://www.w3.org/2000/svg" xmlns:ev="http://www.w3.org/2001/xml-events" xmlns:xlink="http://www.w3.org/1999/xlink"><defs><marker id="arrow" markerHeight="3.5" markerWidth="5" orient="auto" refX="5.0" refY="1.7"><polygon points="0,0 5,1.75 0,3.5" /></marker></defs><g style="fill:white;"><g transform="matrix(1.0, 0.0, 0.0, 1.0, 819.604953886693, 256.0)"><g transform="matrix(48.1837003576134, 0.0, 0.0, 48.1837003576134, 0.0, 0.0)"><g><g transform="matrix(1.0, 0.0, 0.0, 1.0, -12.650004166666667, -0.0)"><g><g><g><g><g><g><g><g><g><g><g><g><g><g><g><g transform="matrix(1.0, 0.0, 0.0, 1.0, -0.0, -4.0600000000000005)"><g><g><g><g><g><g><g style="fill: #dbacee;stroke: #000000;stroke-width: 2.4585000000000004;" transform="matrix(1.0, 0.0, 0.0, 1.0, 1.0, 0.0)"><path d="M 0.0 0.0 A 1.0 1.0 0.0 0 0 -1.0 -1.0 A 1.0 1.0 -90.0 0 0 -2.0 0.0 A 1.0 1.0 180.0 0 0 -1.0 1.0 A 1.0 1.0 90.0 0 0 0.0 0.0 Z" style="vector-effect: non-scaling-stroke;" /></g><g transform="matrix(1.0, 0.0, 0.0, 1.0, 0.0, 0.0625)"><g><g style="fill: #dbacee;stroke: #000000;stroke-width: 0.0;" transform="matrix(2.0, 0.0, 0.0, 2.0, 0.0, 0.0)"><g transform="scale(0.05) translate(-7.4585 -7.041500000000001)"><g>
<defs>
<g>
<g id="embed-2037172488130207486-glyph-0-0">
</g>
<g id="embed-2037172488130207486-glyph-0-1">
<path d="M 2.859375 -6.8125 C 2.859375 -6.8125 2.859375 -6.921875 2.734375 -6.921875 C 2.5 -6.921875 1.78125 -6.84375 1.515625 -6.8125 C 1.4375 -6.8125 1.328125 -6.796875 1.328125 -6.625 C 1.328125 -6.5 1.421875 -6.5 1.5625 -6.5 C 2.046875 -6.5 2.0625 -6.4375 2.0625 -6.328125 L 2.03125 -6.125 L 0.59375 -0.390625 C 0.546875 -0.25 0.546875 -0.234375 0.546875 -0.171875 C 0.546875 0.0625 0.75 0.109375 0.84375 0.109375 C 1 0.109375 1.15625 -0.015625 1.203125 -0.15625 L 1.390625 -0.90625 L 1.609375 -1.796875 C 1.671875 -2.03125 1.734375 -2.25 1.78125 -2.46875 C 1.796875 -2.53125 1.890625 -2.859375 1.890625 -2.921875 C 1.921875 -3.015625 2.234375 -3.5625 2.578125 -3.84375 C 2.796875 -4 3.09375 -4.1875 3.53125 -4.1875 C 3.953125 -4.1875 4.0625 -3.84375 4.0625 -3.484375 C 4.0625 -2.953125 3.6875 -1.859375 3.453125 -1.25 C 3.375 -1.03125 3.3125 -0.90625 3.3125 -0.703125 C 3.3125 -0.234375 3.671875 0.109375 4.140625 0.109375 C 5.078125 0.109375 5.4375 -1.34375 5.4375 -1.421875 C 5.4375 -1.53125 5.359375 -1.53125 5.328125 -1.53125 C 5.21875 -1.53125 5.21875 -1.5 5.171875 -1.34375 C 5.03125 -0.8125 4.703125 -0.109375 4.15625 -0.109375 C 3.984375 -0.109375 3.921875 -0.203125 3.921875 -0.4375 C 3.921875 -0.6875 4 -0.921875 4.09375 -1.140625 C 4.25 -1.578125 4.703125 -2.765625 4.703125 -3.34375 C 4.703125 -3.984375 4.3125 -4.40625 3.5625 -4.40625 C 2.9375 -4.40625 2.453125 -4.09375 2.078125 -3.640625 Z M 2.859375 -6.8125 " />
</g>
<g id="embed-2037172488130207486-glyph-1-0">
</g>
<g id="embed-2037172488130207486-glyph-1-1">
<path d="M 1.71875 -2.75 L 2.421875 -2.75 C 2.5625 -2.75 2.640625 -2.75 2.640625 -2.90625 C 2.640625 -3 2.5625 -3 2.4375 -3 L 1.78125 -3 L 2.03125 -4.03125 C 2.046875 -4.0625 2.0625 -4.109375 2.0625 -4.125 C 2.0625 -4.265625 1.953125 -4.359375 1.8125 -4.359375 C 1.640625 -4.359375 1.546875 -4.234375 1.484375 -4.0625 C 1.4375 -3.875 1.53125 -4.21875 1.21875 -3 L 0.515625 -3 C 0.390625 -3 0.296875 -3 0.296875 -2.84375 C 0.296875 -2.75 0.375 -2.75 0.5 -2.75 L 1.15625 -2.75 L 0.75 -1.109375 C 0.703125 -0.9375 0.640625 -0.6875 0.640625 -0.59375 C 0.640625 -0.1875 1 0.0625 1.390625 0.0625 C 2.171875 0.0625 2.609375 -0.90625 2.609375 -1 C 2.609375 -1.09375 2.515625 -1.09375 2.5 -1.09375 C 2.40625 -1.09375 2.40625 -1.078125 2.34375 -0.953125 C 2.15625 -0.515625 1.796875 -0.125 1.421875 -0.125 C 1.265625 -0.125 1.171875 -0.21875 1.171875 -0.46875 C 1.171875 -0.53125 1.203125 -0.6875 1.21875 -0.75 Z M 1.71875 -2.75 " />
</g>
</g>
</defs>
<g fill="rgb(0%, 0%, 0%)" fill-opacity="1">
<use href="#embed-2037172488130207486-glyph-0-1" x="2.835" y="9.754" />
</g>
<g fill="rgb(0%, 0%, 0%)" fill-opacity="1">
<use href="#embed-2037172488130207486-glyph-1-1" x="8.575" y="11.248" />
</g>
</g></g></g><g /></g></g></g></g><g style="stroke: black;stroke-width: 4.917000000000001;" transform="matrix(0.0, -1.0, 1.0, 0.0, 0.0, 2.0)"><g /></g></g><g transform="matrix(1.0, 0.0, 0.0, 1.0, 0.0, 4.0600000000000005)"><g transform="matrix(1.0, 0.0, 0.0, 1.0, 2.220446049250313e-16, -0.009999999999999898)"><g><g><g style="fill: #e1f7d0;stroke: #000000;stroke-width: 2.4585000000000004;" transform="matrix(1.0, 0.0, 0.0, 1.0, -2.55, -0.95)"><path d="M 0.0 0.0 L 0.0 1.9 A 0.10000000000000003 0.10000000000000003 135.00000000000003 0 0 0.10000000000000003 2.0 L 5.0 2.0 A 0.10000000000000003 0.10000000000000003 45.00000000000002 0 0 5.1 1.9 L 5.1 0.0 A 0.10000000000000003 0.10000000000000003 -44.999999999999986 0 0 5.0 -0.10000000000000006 L 0.09999999999999964 -0.10000000000000006 A 0.10000000000000003 0.10000000000000003 -135.0 0 0 -4.163336342344337e-16 -2.7755575615628914e-17 L -4.163336342344337e-16 0.009999999999999972 Z" style="vector-effect: non-scaling-stroke;" /></g><g transform="matrix(1.0, 0.0, 0.0, 1.0, 0.0, 0.125)"><g><g style="fill: #e1f7d0;stroke: #000000;stroke-width: 0.0;" transform="matrix(2.0, 0.0, 0.0, 2.0, 0.0, 0.0)"><g transform="scale(0.05) translate(-6.571 -6.2385)"><g>
<defs>
<g>
<g id="embed-3312265488536192703-glyph-0-0">
</g>
<g id="embed-3312265488536192703-glyph-0-1">
<path d="M 3.96875 -6.9375 C 3.921875 -7.0625 3.890625 -7.140625 3.734375 -7.140625 C 3.578125 -7.140625 3.546875 -7.078125 3.5 -6.9375 L 1.4375 -0.984375 C 1.25 -0.46875 0.859375 -0.3125 0.3125 -0.3125 L 0.3125 0 C 0.546875 -0.015625 0.984375 -0.03125 1.328125 -0.03125 C 1.640625 -0.03125 2.15625 -0.015625 2.484375 0 L 2.484375 -0.3125 C 1.984375 -0.3125 1.734375 -0.5625 1.734375 -0.8125 C 1.734375 -0.84375 1.75 -0.953125 1.75 -0.96875 L 2.21875 -2.265625 L 4.671875 -2.265625 L 5.203125 -0.75 C 5.21875 -0.703125 5.234375 -0.640625 5.234375 -0.609375 C 5.234375 -0.3125 4.671875 -0.3125 4.40625 -0.3125 L 4.40625 0 C 4.765625 -0.03125 5.46875 -0.03125 5.84375 -0.03125 C 6.265625 -0.03125 6.734375 -0.015625 7.140625 0 L 7.140625 -0.3125 L 6.96875 -0.3125 C 6.375 -0.3125 6.234375 -0.375 6.125 -0.703125 Z M 3.4375 -5.828125 L 4.5625 -2.578125 L 2.328125 -2.578125 Z M 3.4375 -5.828125 " />
</g>
</g>
</defs>
<g fill="rgb(0%, 0%, 0%)" fill-opacity="1">
<use href="#embed-3312265488536192703-glyph-0-1" x="2.835" y="9.642" />
</g>
</g></g></g><g /></g></g></g></g></g></g></g><g style="stroke: black;stroke-width: 4.917000000000001;" transform="matrix(0.0, -1.0, 1.0, 0.0, 0.0, 6.120000000000001)"><g /></g></g><g transform="matrix(1.0, 0.0, 0.0, 1.0, 0.0, 8.120000000000001)"><g><g><g style="fill: #a2cdec;stroke: #000000;stroke-width: 2.4585000000000004;" transform="matrix(1.0, 0.0, 0.0, 1.0, 1.0, 0.0)"><path d="M 0.0 0.0 A 1.0 1.0 0.0 0 0 -1.0 -1.0 A 1.0 1.0 -90.0 0 0 -2.0 0.0 A 1.0 1.0 180.0 0 0 -1.0 1.0 A 1.0 1.0 90.0 0 0 0.0 0.0 Z" style="vector-effect: non-scaling-stroke;" /></g><g transform="matrix(1.0, 0.0, 0.0, 1.0, 0.0, 0.0625)"><g><g style="fill: #a2cdec;stroke: #000000;stroke-width: 0.0;" transform="matrix(2.0, 0.0, 0.0, 2.0, 0.0, 0.0)"><g transform="scale(0.05) translate(-7.435499999999999 -5.7265)"><g>
<defs>
<g>
<g id="embed--1070885009610427746-glyph-0-0">
</g>
<g id="embed--1070885009610427746-glyph-0-1">
<path d="M 3.328125 -3.015625 C 3.390625 -3.265625 3.625 -4.1875 4.3125 -4.1875 C 4.359375 -4.1875 4.609375 -4.1875 4.8125 -4.0625 C 4.53125 -4 4.34375 -3.765625 4.34375 -3.515625 C 4.34375 -3.359375 4.453125 -3.171875 4.71875 -3.171875 C 4.9375 -3.171875 5.25 -3.34375 5.25 -3.75 C 5.25 -4.265625 4.671875 -4.40625 4.328125 -4.40625 C 3.75 -4.40625 3.40625 -3.875 3.28125 -3.65625 C 3.03125 -4.3125 2.5 -4.40625 2.203125 -4.40625 C 1.171875 -4.40625 0.59375 -3.125 0.59375 -2.875 C 0.59375 -2.765625 0.703125 -2.765625 0.71875 -2.765625 C 0.796875 -2.765625 0.828125 -2.796875 0.84375 -2.875 C 1.1875 -3.9375 1.84375 -4.1875 2.1875 -4.1875 C 2.375 -4.1875 2.71875 -4.09375 2.71875 -3.515625 C 2.71875 -3.203125 2.546875 -2.546875 2.1875 -1.140625 C 2.03125 -0.53125 1.671875 -0.109375 1.234375 -0.109375 C 1.171875 -0.109375 0.953125 -0.109375 0.734375 -0.234375 C 0.984375 -0.296875 1.203125 -0.5 1.203125 -0.78125 C 1.203125 -1.046875 0.984375 -1.125 0.84375 -1.125 C 0.53125 -1.125 0.296875 -0.875 0.296875 -0.546875 C 0.296875 -0.09375 0.78125 0.109375 1.21875 0.109375 C 1.890625 0.109375 2.25 -0.59375 2.265625 -0.640625 C 2.390625 -0.28125 2.75 0.109375 3.34375 0.109375 C 4.375 0.109375 4.9375 -1.171875 4.9375 -1.421875 C 4.9375 -1.53125 4.859375 -1.53125 4.828125 -1.53125 C 4.734375 -1.53125 4.71875 -1.484375 4.6875 -1.421875 C 4.359375 -0.34375 3.6875 -0.109375 3.375 -0.109375 C 2.984375 -0.109375 2.828125 -0.421875 2.828125 -0.765625 C 2.828125 -0.984375 2.875 -1.203125 2.984375 -1.640625 Z M 3.328125 -3.015625 " />
</g>
<g id="embed--1070885009610427746-glyph-1-0">
</g>
<g id="embed--1070885009610427746-glyph-1-1">
<path d="M 1.71875 -2.75 L 2.421875 -2.75 C 2.5625 -2.75 2.640625 -2.75 2.640625 -2.90625 C 2.640625 -3 2.5625 -3 2.4375 -3 L 1.78125 -3 L 2.03125 -4.03125 C 2.046875 -4.0625 2.0625 -4.109375 2.0625 -4.125 C 2.0625 -4.265625 1.953125 -4.359375 1.8125 -4.359375 C 1.640625 -4.359375 1.546875 -4.234375 1.484375 -4.0625 C 1.4375 -3.875 1.53125 -4.21875 1.21875 -3 L 0.515625 -3 C 0.390625 -3 0.296875 -3 0.296875 -2.84375 C 0.296875 -2.75 0.375 -2.75 0.5 -2.75 L 1.15625 -2.75 L 0.75 -1.109375 C 0.703125 -0.9375 0.640625 -0.6875 0.640625 -0.59375 C 0.640625 -0.1875 1 0.0625 1.390625 0.0625 C 2.171875 0.0625 2.609375 -0.90625 2.609375 -1 C 2.609375 -1.09375 2.515625 -1.09375 2.5 -1.09375 C 2.40625 -1.09375 2.40625 -1.078125 2.34375 -0.953125 C 2.15625 -0.515625 1.796875 -0.125 1.421875 -0.125 C 1.265625 -0.125 1.171875 -0.21875 1.171875 -0.46875 C 1.171875 -0.53125 1.203125 -0.6875 1.21875 -0.75 Z M 1.71875 -2.75 " />
</g>
</g>
</defs>
<g fill="rgb(0%, 0%, 0%)" fill-opacity="1">
<use href="#embed--1070885009610427746-glyph-0-1" x="2.835" y="7.124" />
</g>
<g fill="rgb(0%, 0%, 0%)" fill-opacity="1">
<use href="#embed--1070885009610427746-glyph-1-1" x="8.529" y="8.618" />
</g>
</g></g></g><g /></g></g></g></g></g></g></g><g><g style="stroke: #cccccc;stroke-width: 4.917000000000001;" transform="matrix(1.0, 0.0, 0.0, 1.0, 2.55, 0.0)"><path d="M 0.0 0.0 L 1.0 0.0 L 1.0 -2.06 L -6.1 -2.06 L -6.1 0.0 L -5.1 0.0" style="vector-effect: non-scaling-stroke;fill:none;" /></g><g style="fill: #000000;stroke: black;stroke-width: 0.0;" transform="matrix(0.0, 0.5, -0.5, 0.0, -3.15, 0.0)"><path d="M 0.0 -0.2 L 1.0 0.2 L 0.0 -1.2 L -1.0 0.19999999999999996 L 0.0 -0.2 Z" style="vector-effect: non-scaling-stroke;" /></g></g></g><g><g><g transform="matrix(1.0, 0.0, 0.0, 1.0, -0.0, -4.0600000000000005)"><g><g><g><g><g><g><g style="fill: #dbacee;stroke: #000000;stroke-width: 2.4585000000000004;" transform="matrix(1.0, 0.0, 0.0, 1.0, 1.0, 0.0)"><path d="M 0.0 0.0 A 1.0 1.0 0.0 0 0 -1.0 -1.0 A 1.0 1.0 -90.0 0 0 -2.0 0.0 A 1.0 1.0 180.0 0 0 -1.0 1.0 A 1.0 1.0 90.0 0 0 0.0 0.0 Z" style="vector-effect: non-scaling-stroke;" /></g><g transform="matrix(1.0, 0.0, 0.0, 1.0, 0.0, 0.0625)"><g><g style="fill: #dbacee;stroke: #000000;stroke-width: 0.0;" transform="matrix(2.0, 0.0, 0.0, 2.0, 0.0, 0.0)"><g transform="scale(0.05) translate(-7.4585 -7.041500000000001)"><g>
<defs>
<g>
<g id="embed-2037172488130207486-glyph-0-0">
</g>
<g id="embed-2037172488130207486-glyph-0-1">
<path d="M 2.859375 -6.8125 C 2.859375 -6.8125 2.859375 -6.921875 2.734375 -6.921875 C 2.5 -6.921875 1.78125 -6.84375 1.515625 -6.8125 C 1.4375 -6.8125 1.328125 -6.796875 1.328125 -6.625 C 1.328125 -6.5 1.421875 -6.5 1.5625 -6.5 C 2.046875 -6.5 2.0625 -6.4375 2.0625 -6.328125 L 2.03125 -6.125 L 0.59375 -0.390625 C 0.546875 -0.25 0.546875 -0.234375 0.546875 -0.171875 C 0.546875 0.0625 0.75 0.109375 0.84375 0.109375 C 1 0.109375 1.15625 -0.015625 1.203125 -0.15625 L 1.390625 -0.90625 L 1.609375 -1.796875 C 1.671875 -2.03125 1.734375 -2.25 1.78125 -2.46875 C 1.796875 -2.53125 1.890625 -2.859375 1.890625 -2.921875 C 1.921875 -3.015625 2.234375 -3.5625 2.578125 -3.84375 C 2.796875 -4 3.09375 -4.1875 3.53125 -4.1875 C 3.953125 -4.1875 4.0625 -3.84375 4.0625 -3.484375 C 4.0625 -2.953125 3.6875 -1.859375 3.453125 -1.25 C 3.375 -1.03125 3.3125 -0.90625 3.3125 -0.703125 C 3.3125 -0.234375 3.671875 0.109375 4.140625 0.109375 C 5.078125 0.109375 5.4375 -1.34375 5.4375 -1.421875 C 5.4375 -1.53125 5.359375 -1.53125 5.328125 -1.53125 C 5.21875 -1.53125 5.21875 -1.5 5.171875 -1.34375 C 5.03125 -0.8125 4.703125 -0.109375 4.15625 -0.109375 C 3.984375 -0.109375 3.921875 -0.203125 3.921875 -0.4375 C 3.921875 -0.6875 4 -0.921875 4.09375 -1.140625 C 4.25 -1.578125 4.703125 -2.765625 4.703125 -3.34375 C 4.703125 -3.984375 4.3125 -4.40625 3.5625 -4.40625 C 2.9375 -4.40625 2.453125 -4.09375 2.078125 -3.640625 Z M 2.859375 -6.8125 " />
</g>
<g id="embed-2037172488130207486-glyph-1-0">
</g>
<g id="embed-2037172488130207486-glyph-1-1">
<path d="M 1.71875 -2.75 L 2.421875 -2.75 C 2.5625 -2.75 2.640625 -2.75 2.640625 -2.90625 C 2.640625 -3 2.5625 -3 2.4375 -3 L 1.78125 -3 L 2.03125 -4.03125 C 2.046875 -4.0625 2.0625 -4.109375 2.0625 -4.125 C 2.0625 -4.265625 1.953125 -4.359375 1.8125 -4.359375 C 1.640625 -4.359375 1.546875 -4.234375 1.484375 -4.0625 C 1.4375 -3.875 1.53125 -4.21875 1.21875 -3 L 0.515625 -3 C 0.390625 -3 0.296875 -3 0.296875 -2.84375 C 0.296875 -2.75 0.375 -2.75 0.5 -2.75 L 1.15625 -2.75 L 0.75 -1.109375 C 0.703125 -0.9375 0.640625 -0.6875 0.640625 -0.59375 C 0.640625 -0.1875 1 0.0625 1.390625 0.0625 C 2.171875 0.0625 2.609375 -0.90625 2.609375 -1 C 2.609375 -1.09375 2.515625 -1.09375 2.5 -1.09375 C 2.40625 -1.09375 2.40625 -1.078125 2.34375 -0.953125 C 2.15625 -0.515625 1.796875 -0.125 1.421875 -0.125 C 1.265625 -0.125 1.171875 -0.21875 1.171875 -0.46875 C 1.171875 -0.53125 1.203125 -0.6875 1.21875 -0.75 Z M 1.71875 -2.75 " />
</g>
</g>
</defs>
<g fill="rgb(0%, 0%, 0%)" fill-opacity="1">
<use href="#embed-2037172488130207486-glyph-0-1" x="2.835" y="9.754" />
</g>
<g fill="rgb(0%, 0%, 0%)" fill-opacity="1">
<use href="#embed-2037172488130207486-glyph-1-1" x="8.575" y="11.248" />
</g>
</g></g></g><g /></g></g></g></g><g style="stroke: black;stroke-width: 4.917000000000001;" transform="matrix(0.0, -1.0, 1.0, 0.0, 0.0, 2.0)"><g /></g></g><g transform="matrix(1.0, 0.0, 0.0, 1.0, 0.0, 4.0600000000000005)"><g transform="matrix(1.0, 0.0, 0.0, 1.0, 2.220446049250313e-16, -0.009999999999999898)"><g><g><g style="fill: #e1f7d0;stroke: #000000;stroke-width: 2.4585000000000004;" transform="matrix(1.0, 0.0, 0.0, 1.0, -2.55, -0.95)"><path d="M 0.0 0.0 L 0.0 1.9 A 0.10000000000000003 0.10000000000000003 135.00000000000003 0 0 0.10000000000000003 2.0 L 5.0 2.0 A 0.10000000000000003 0.10000000000000003 45.00000000000002 0 0 5.1 1.9 L 5.1 0.0 A 0.10000000000000003 0.10000000000000003 -44.999999999999986 0 0 5.0 -0.10000000000000006 L 0.09999999999999964 -0.10000000000000006 A 0.10000000000000003 0.10000000000000003 -135.0 0 0 -4.163336342344337e-16 -2.7755575615628914e-17 L -4.163336342344337e-16 0.009999999999999972 Z" style="vector-effect: non-scaling-stroke;" /></g><g transform="matrix(1.0, 0.0, 0.0, 1.0, 0.0, 0.125)"><g><g style="fill: #e1f7d0;stroke: #000000;stroke-width: 0.0;" transform="matrix(2.0, 0.0, 0.0, 2.0, 0.0, 0.0)"><g transform="scale(0.05) translate(-6.571 -6.2385)"><g>
<defs>
<g>
<g id="embed-3312265488536192703-glyph-0-0">
</g>
<g id="embed-3312265488536192703-glyph-0-1">
<path d="M 3.96875 -6.9375 C 3.921875 -7.0625 3.890625 -7.140625 3.734375 -7.140625 C 3.578125 -7.140625 3.546875 -7.078125 3.5 -6.9375 L 1.4375 -0.984375 C 1.25 -0.46875 0.859375 -0.3125 0.3125 -0.3125 L 0.3125 0 C 0.546875 -0.015625 0.984375 -0.03125 1.328125 -0.03125 C 1.640625 -0.03125 2.15625 -0.015625 2.484375 0 L 2.484375 -0.3125 C 1.984375 -0.3125 1.734375 -0.5625 1.734375 -0.8125 C 1.734375 -0.84375 1.75 -0.953125 1.75 -0.96875 L 2.21875 -2.265625 L 4.671875 -2.265625 L 5.203125 -0.75 C 5.21875 -0.703125 5.234375 -0.640625 5.234375 -0.609375 C 5.234375 -0.3125 4.671875 -0.3125 4.40625 -0.3125 L 4.40625 0 C 4.765625 -0.03125 5.46875 -0.03125 5.84375 -0.03125 C 6.265625 -0.03125 6.734375 -0.015625 7.140625 0 L 7.140625 -0.3125 L 6.96875 -0.3125 C 6.375 -0.3125 6.234375 -0.375 6.125 -0.703125 Z M 3.4375 -5.828125 L 4.5625 -2.578125 L 2.328125 -2.578125 Z M 3.4375 -5.828125 " />
</g>
</g>
</defs>
<g fill="rgb(0%, 0%, 0%)" fill-opacity="1">
<use href="#embed-3312265488536192703-glyph-0-1" x="2.835" y="9.642" />
</g>
</g></g></g><g /></g></g></g></g></g></g></g><g style="stroke: black;stroke-width: 4.917000000000001;" transform="matrix(0.0, -1.0, 1.0, 0.0, 0.0, 6.120000000000001)"><g /></g></g><g transform="matrix(1.0, 0.0, 0.0, 1.0, 0.0, 8.120000000000001)"><g><g><g style="fill: #a2cdec;stroke: #000000;stroke-width: 2.4585000000000004;" transform="matrix(1.0, 0.0, 0.0, 1.0, 1.0, 0.0)"><path d="M 0.0 0.0 A 1.0 1.0 0.0 0 0 -1.0 -1.0 A 1.0 1.0 -90.0 0 0 -2.0 0.0 A 1.0 1.0 180.0 0 0 -1.0 1.0 A 1.0 1.0 90.0 0 0 0.0 0.0 Z" style="vector-effect: non-scaling-stroke;" /></g><g transform="matrix(1.0, 0.0, 0.0, 1.0, 0.0, 0.0625)"><g><g style="fill: #a2cdec;stroke: #000000;stroke-width: 0.0;" transform="matrix(2.0, 0.0, 0.0, 2.0, 0.0, 0.0)"><g transform="scale(0.05) translate(-7.435499999999999 -5.7265)"><g>
<defs>
<g>
<g id="embed--1070885009610427746-glyph-0-0">
</g>
<g id="embed--1070885009610427746-glyph-0-1">
<path d="M 3.328125 -3.015625 C 3.390625 -3.265625 3.625 -4.1875 4.3125 -4.1875 C 4.359375 -4.1875 4.609375 -4.1875 4.8125 -4.0625 C 4.53125 -4 4.34375 -3.765625 4.34375 -3.515625 C 4.34375 -3.359375 4.453125 -3.171875 4.71875 -3.171875 C 4.9375 -3.171875 5.25 -3.34375 5.25 -3.75 C 5.25 -4.265625 4.671875 -4.40625 4.328125 -4.40625 C 3.75 -4.40625 3.40625 -3.875 3.28125 -3.65625 C 3.03125 -4.3125 2.5 -4.40625 2.203125 -4.40625 C 1.171875 -4.40625 0.59375 -3.125 0.59375 -2.875 C 0.59375 -2.765625 0.703125 -2.765625 0.71875 -2.765625 C 0.796875 -2.765625 0.828125 -2.796875 0.84375 -2.875 C 1.1875 -3.9375 1.84375 -4.1875 2.1875 -4.1875 C 2.375 -4.1875 2.71875 -4.09375 2.71875 -3.515625 C 2.71875 -3.203125 2.546875 -2.546875 2.1875 -1.140625 C 2.03125 -0.53125 1.671875 -0.109375 1.234375 -0.109375 C 1.171875 -0.109375 0.953125 -0.109375 0.734375 -0.234375 C 0.984375 -0.296875 1.203125 -0.5 1.203125 -0.78125 C 1.203125 -1.046875 0.984375 -1.125 0.84375 -1.125 C 0.53125 -1.125 0.296875 -0.875 0.296875 -0.546875 C 0.296875 -0.09375 0.78125 0.109375 1.21875 0.109375 C 1.890625 0.109375 2.25 -0.59375 2.265625 -0.640625 C 2.390625 -0.28125 2.75 0.109375 3.34375 0.109375 C 4.375 0.109375 4.9375 -1.171875 4.9375 -1.421875 C 4.9375 -1.53125 4.859375 -1.53125 4.828125 -1.53125 C 4.734375 -1.53125 4.71875 -1.484375 4.6875 -1.421875 C 4.359375 -0.34375 3.6875 -0.109375 3.375 -0.109375 C 2.984375 -0.109375 2.828125 -0.421875 2.828125 -0.765625 C 2.828125 -0.984375 2.875 -1.203125 2.984375 -1.640625 Z M 3.328125 -3.015625 " />
</g>
<g id="embed--1070885009610427746-glyph-1-0">
</g>
<g id="embed--1070885009610427746-glyph-1-1">
<path d="M 1.71875 -2.75 L 2.421875 -2.75 C 2.5625 -2.75 2.640625 -2.75 2.640625 -2.90625 C 2.640625 -3 2.5625 -3 2.4375 -3 L 1.78125 -3 L 2.03125 -4.03125 C 2.046875 -4.0625 2.0625 -4.109375 2.0625 -4.125 C 2.0625 -4.265625 1.953125 -4.359375 1.8125 -4.359375 C 1.640625 -4.359375 1.546875 -4.234375 1.484375 -4.0625 C 1.4375 -3.875 1.53125 -4.21875 1.21875 -3 L 0.515625 -3 C 0.390625 -3 0.296875 -3 0.296875 -2.84375 C 0.296875 -2.75 0.375 -2.75 0.5 -2.75 L 1.15625 -2.75 L 0.75 -1.109375 C 0.703125 -0.9375 0.640625 -0.6875 0.640625 -0.59375 C 0.640625 -0.1875 1 0.0625 1.390625 0.0625 C 2.171875 0.0625 2.609375 -0.90625 2.609375 -1 C 2.609375 -1.09375 2.515625 -1.09375 2.5 -1.09375 C 2.40625 -1.09375 2.40625 -1.078125 2.34375 -0.953125 C 2.15625 -0.515625 1.796875 -0.125 1.421875 -0.125 C 1.265625 -0.125 1.171875 -0.21875 1.171875 -0.46875 C 1.171875 -0.53125 1.203125 -0.6875 1.21875 -0.75 Z M 1.71875 -2.75 " />
</g>
</g>
</defs>
<g fill="rgb(0%, 0%, 0%)" fill-opacity="1">
<use href="#embed--1070885009610427746-glyph-0-1" x="2.835" y="7.124" />
</g>
<g fill="rgb(0%, 0%, 0%)" fill-opacity="1">
<use href="#embed--1070885009610427746-glyph-1-1" x="8.529" y="8.618" />
</g>
</g></g></g><g /></g></g></g></g></g></g></g><g><g style="stroke: #cccccc;stroke-width: 4.917000000000001;" transform="matrix(1.0, 0.0, 0.0, 1.0, 2.55, 0.0)"><path d="M 0.0 0.0 L 1.0 0.0 L 1.0 -2.06 L -6.1 -2.06 L -6.1 0.0 L -5.1 0.0" style="vector-effect: non-scaling-stroke;fill:none;" /></g><g style="fill: #000000;stroke: black;stroke-width: 0.0;" transform="matrix(0.0, 0.5, -0.5, 0.0, -3.15, 0.0)"><path d="M 0.0 -0.2 L 1.0 0.2 L 0.0 -1.2 L -1.0 0.19999999999999996 L 0.0 -0.2 Z" style="vector-effect: non-scaling-stroke;" /></g></g></g><g transform="matrix(1.0, 0.0, 0.0, 1.0, 5.4556413986494174e-17, 3.0600000000000005)"><g transform="matrix(0.0, -1.0, 1.0, 0.0, 0.0, 0.0)"><g><g style="stroke: black;stroke-width: 4.917000000000001;" transform="matrix(1.0, 0.0, 0.0, 1.0, 0.0, 0.0)"><path d="M 0.0 0.0 L 2.0200000000000005 0.0" style="vector-effect: non-scaling-stroke;fill:none;" /></g><g style="stroke: black;stroke-width: 4.917000000000001;" transform="matrix(1.0, 0.0, 0.0, 1.0, 2.0200000000000005, 0.0)"><g style="fill: #000000;stroke: black;stroke-width: 0.0;" transform="matrix(0.0, 0.49169999999999997, -0.49169999999999997, 0.0, -0.5900399999999999, 0.0)"><path d="M 0.0 -0.2 L 1.0 0.2 L 0.0 -1.2 L -1.0 0.19999999999999996 L 0.0 -0.2 Z" style="vector-effect: non-scaling-stroke;" /></g></g></g></g></g></g></g><g><g><g transform="matrix(1.0, 0.0, 0.0, 1.0, -0.0, -4.0600000000000005)"><g><g><g><g><g><g><g style="fill: #dbacee;stroke: #000000;stroke-width: 2.4585000000000004;" transform="matrix(1.0, 0.0, 0.0, 1.0, 1.0, 0.0)"><path d="M 0.0 0.0 A 1.0 1.0 0.0 0 0 -1.0 -1.0 A 1.0 1.0 -90.0 0 0 -2.0 0.0 A 1.0 1.0 180.0 0 0 -1.0 1.0 A 1.0 1.0 90.0 0 0 0.0 0.0 Z" style="vector-effect: non-scaling-stroke;" /></g><g transform="matrix(1.0, 0.0, 0.0, 1.0, 0.0, 0.0625)"><g><g style="fill: #dbacee;stroke: #000000;stroke-width: 0.0;" transform="matrix(2.0, 0.0, 0.0, 2.0, 0.0, 0.0)"><g transform="scale(0.05) translate(-7.4585 -7.041500000000001)"><g>
<defs>
<g>
<g id="embed-2037172488130207486-glyph-0-0">
</g>
<g id="embed-2037172488130207486-glyph-0-1">
<path d="M 2.859375 -6.8125 C 2.859375 -6.8125 2.859375 -6.921875 2.734375 -6.921875 C 2.5 -6.921875 1.78125 -6.84375 1.515625 -6.8125 C 1.4375 -6.8125 1.328125 -6.796875 1.328125 -6.625 C 1.328125 -6.5 1.421875 -6.5 1.5625 -6.5 C 2.046875 -6.5 2.0625 -6.4375 2.0625 -6.328125 L 2.03125 -6.125 L 0.59375 -0.390625 C 0.546875 -0.25 0.546875 -0.234375 0.546875 -0.171875 C 0.546875 0.0625 0.75 0.109375 0.84375 0.109375 C 1 0.109375 1.15625 -0.015625 1.203125 -0.15625 L 1.390625 -0.90625 L 1.609375 -1.796875 C 1.671875 -2.03125 1.734375 -2.25 1.78125 -2.46875 C 1.796875 -2.53125 1.890625 -2.859375 1.890625 -2.921875 C 1.921875 -3.015625 2.234375 -3.5625 2.578125 -3.84375 C 2.796875 -4 3.09375 -4.1875 3.53125 -4.1875 C 3.953125 -4.1875 4.0625 -3.84375 4.0625 -3.484375 C 4.0625 -2.953125 3.6875 -1.859375 3.453125 -1.25 C 3.375 -1.03125 3.3125 -0.90625 3.3125 -0.703125 C 3.3125 -0.234375 3.671875 0.109375 4.140625 0.109375 C 5.078125 0.109375 5.4375 -1.34375 5.4375 -1.421875 C 5.4375 -1.53125 5.359375 -1.53125 5.328125 -1.53125 C 5.21875 -1.53125 5.21875 -1.5 5.171875 -1.34375 C 5.03125 -0.8125 4.703125 -0.109375 4.15625 -0.109375 C 3.984375 -0.109375 3.921875 -0.203125 3.921875 -0.4375 C 3.921875 -0.6875 4 -0.921875 4.09375 -1.140625 C 4.25 -1.578125 4.703125 -2.765625 4.703125 -3.34375 C 4.703125 -3.984375 4.3125 -4.40625 3.5625 -4.40625 C 2.9375 -4.40625 2.453125 -4.09375 2.078125 -3.640625 Z M 2.859375 -6.8125 " />
</g>
<g id="embed-2037172488130207486-glyph-1-0">
</g>
<g id="embed-2037172488130207486-glyph-1-1">
<path d="M 1.71875 -2.75 L 2.421875 -2.75 C 2.5625 -2.75 2.640625 -2.75 2.640625 -2.90625 C 2.640625 -3 2.5625 -3 2.4375 -3 L 1.78125 -3 L 2.03125 -4.03125 C 2.046875 -4.0625 2.0625 -4.109375 2.0625 -4.125 C 2.0625 -4.265625 1.953125 -4.359375 1.8125 -4.359375 C 1.640625 -4.359375 1.546875 -4.234375 1.484375 -4.0625 C 1.4375 -3.875 1.53125 -4.21875 1.21875 -3 L 0.515625 -3 C 0.390625 -3 0.296875 -3 0.296875 -2.84375 C 0.296875 -2.75 0.375 -2.75 0.5 -2.75 L 1.15625 -2.75 L 0.75 -1.109375 C 0.703125 -0.9375 0.640625 -0.6875 0.640625 -0.59375 C 0.640625 -0.1875 1 0.0625 1.390625 0.0625 C 2.171875 0.0625 2.609375 -0.90625 2.609375 -1 C 2.609375 -1.09375 2.515625 -1.09375 2.5 -1.09375 C 2.40625 -1.09375 2.40625 -1.078125 2.34375 -0.953125 C 2.15625 -0.515625 1.796875 -0.125 1.421875 -0.125 C 1.265625 -0.125 1.171875 -0.21875 1.171875 -0.46875 C 1.171875 -0.53125 1.203125 -0.6875 1.21875 -0.75 Z M 1.71875 -2.75 " />
</g>
</g>
</defs>
<g fill="rgb(0%, 0%, 0%)" fill-opacity="1">
<use href="#embed-2037172488130207486-glyph-0-1" x="2.835" y="9.754" />
</g>
<g fill="rgb(0%, 0%, 0%)" fill-opacity="1">
<use href="#embed-2037172488130207486-glyph-1-1" x="8.575" y="11.248" />
</g>
</g></g></g><g /></g></g></g></g><g style="stroke: black;stroke-width: 4.917000000000001;" transform="matrix(0.0, -1.0, 1.0, 0.0, 0.0, 2.0)"><g /></g></g><g transform="matrix(1.0, 0.0, 0.0, 1.0, 0.0, 4.0600000000000005)"><g transform="matrix(1.0, 0.0, 0.0, 1.0, 2.220446049250313e-16, -0.009999999999999898)"><g><g><g style="fill: #e1f7d0;stroke: #000000;stroke-width: 2.4585000000000004;" transform="matrix(1.0, 0.0, 0.0, 1.0, -2.55, -0.95)"><path d="M 0.0 0.0 L 0.0 1.9 A 0.10000000000000003 0.10000000000000003 135.00000000000003 0 0 0.10000000000000003 2.0 L 5.0 2.0 A 0.10000000000000003 0.10000000000000003 45.00000000000002 0 0 5.1 1.9 L 5.1 0.0 A 0.10000000000000003 0.10000000000000003 -44.999999999999986 0 0 5.0 -0.10000000000000006 L 0.09999999999999964 -0.10000000000000006 A 0.10000000000000003 0.10000000000000003 -135.0 0 0 -4.163336342344337e-16 -2.7755575615628914e-17 L -4.163336342344337e-16 0.009999999999999972 Z" style="vector-effect: non-scaling-stroke;" /></g><g transform="matrix(1.0, 0.0, 0.0, 1.0, 0.0, 0.125)"><g><g style="fill: #e1f7d0;stroke: #000000;stroke-width: 0.0;" transform="matrix(2.0, 0.0, 0.0, 2.0, 0.0, 0.0)"><g transform="scale(0.05) translate(-6.571 -6.2385)"><g>
<defs>
<g>
<g id="embed-3312265488536192703-glyph-0-0">
</g>
<g id="embed-3312265488536192703-glyph-0-1">
<path d="M 3.96875 -6.9375 C 3.921875 -7.0625 3.890625 -7.140625 3.734375 -7.140625 C 3.578125 -7.140625 3.546875 -7.078125 3.5 -6.9375 L 1.4375 -0.984375 C 1.25 -0.46875 0.859375 -0.3125 0.3125 -0.3125 L 0.3125 0 C 0.546875 -0.015625 0.984375 -0.03125 1.328125 -0.03125 C 1.640625 -0.03125 2.15625 -0.015625 2.484375 0 L 2.484375 -0.3125 C 1.984375 -0.3125 1.734375 -0.5625 1.734375 -0.8125 C 1.734375 -0.84375 1.75 -0.953125 1.75 -0.96875 L 2.21875 -2.265625 L 4.671875 -2.265625 L 5.203125 -0.75 C 5.21875 -0.703125 5.234375 -0.640625 5.234375 -0.609375 C 5.234375 -0.3125 4.671875 -0.3125 4.40625 -0.3125 L 4.40625 0 C 4.765625 -0.03125 5.46875 -0.03125 5.84375 -0.03125 C 6.265625 -0.03125 6.734375 -0.015625 7.140625 0 L 7.140625 -0.3125 L 6.96875 -0.3125 C 6.375 -0.3125 6.234375 -0.375 6.125 -0.703125 Z M 3.4375 -5.828125 L 4.5625 -2.578125 L 2.328125 -2.578125 Z M 3.4375 -5.828125 " />
</g>
</g>
</defs>
<g fill="rgb(0%, 0%, 0%)" fill-opacity="1">
<use href="#embed-3312265488536192703-glyph-0-1" x="2.835" y="9.642" />
</g>
</g></g></g><g /></g></g></g></g></g></g></g><g style="stroke: black;stroke-width: 4.917000000000001;" transform="matrix(0.0, -1.0, 1.0, 0.0, 0.0, 6.120000000000001)"><g /></g></g><g transform="matrix(1.0, 0.0, 0.0, 1.0, 0.0, 8.120000000000001)"><g><g><g style="fill: #a2cdec;stroke: #000000;stroke-width: 2.4585000000000004;" transform="matrix(1.0, 0.0, 0.0, 1.0, 1.0, 0.0)"><path d="M 0.0 0.0 A 1.0 1.0 0.0 0 0 -1.0 -1.0 A 1.0 1.0 -90.0 0 0 -2.0 0.0 A 1.0 1.0 180.0 0 0 -1.0 1.0 A 1.0 1.0 90.0 0 0 0.0 0.0 Z" style="vector-effect: non-scaling-stroke;" /></g><g transform="matrix(1.0, 0.0, 0.0, 1.0, 0.0, 0.0625)"><g><g style="fill: #a2cdec;stroke: #000000;stroke-width: 0.0;" transform="matrix(2.0, 0.0, 0.0, 2.0, 0.0, 0.0)"><g transform="scale(0.05) translate(-7.435499999999999 -5.7265)"><g>
<defs>
<g>
<g id="embed--1070885009610427746-glyph-0-0">
</g>
<g id="embed--1070885009610427746-glyph-0-1">
<path d="M 3.328125 -3.015625 C 3.390625 -3.265625 3.625 -4.1875 4.3125 -4.1875 C 4.359375 -4.1875 4.609375 -4.1875 4.8125 -4.0625 C 4.53125 -4 4.34375 -3.765625 4.34375 -3.515625 C 4.34375 -3.359375 4.453125 -3.171875 4.71875 -3.171875 C 4.9375 -3.171875 5.25 -3.34375 5.25 -3.75 C 5.25 -4.265625 4.671875 -4.40625 4.328125 -4.40625 C 3.75 -4.40625 3.40625 -3.875 3.28125 -3.65625 C 3.03125 -4.3125 2.5 -4.40625 2.203125 -4.40625 C 1.171875 -4.40625 0.59375 -3.125 0.59375 -2.875 C 0.59375 -2.765625 0.703125 -2.765625 0.71875 -2.765625 C 0.796875 -2.765625 0.828125 -2.796875 0.84375 -2.875 C 1.1875 -3.9375 1.84375 -4.1875 2.1875 -4.1875 C 2.375 -4.1875 2.71875 -4.09375 2.71875 -3.515625 C 2.71875 -3.203125 2.546875 -2.546875 2.1875 -1.140625 C 2.03125 -0.53125 1.671875 -0.109375 1.234375 -0.109375 C 1.171875 -0.109375 0.953125 -0.109375 0.734375 -0.234375 C 0.984375 -0.296875 1.203125 -0.5 1.203125 -0.78125 C 1.203125 -1.046875 0.984375 -1.125 0.84375 -1.125 C 0.53125 -1.125 0.296875 -0.875 0.296875 -0.546875 C 0.296875 -0.09375 0.78125 0.109375 1.21875 0.109375 C 1.890625 0.109375 2.25 -0.59375 2.265625 -0.640625 C 2.390625 -0.28125 2.75 0.109375 3.34375 0.109375 C 4.375 0.109375 4.9375 -1.171875 4.9375 -1.421875 C 4.9375 -1.53125 4.859375 -1.53125 4.828125 -1.53125 C 4.734375 -1.53125 4.71875 -1.484375 4.6875 -1.421875 C 4.359375 -0.34375 3.6875 -0.109375 3.375 -0.109375 C 2.984375 -0.109375 2.828125 -0.421875 2.828125 -0.765625 C 2.828125 -0.984375 2.875 -1.203125 2.984375 -1.640625 Z M 3.328125 -3.015625 " />
</g>
<g id="embed--1070885009610427746-glyph-1-0">
</g>
<g id="embed--1070885009610427746-glyph-1-1">
<path d="M 1.71875 -2.75 L 2.421875 -2.75 C 2.5625 -2.75 2.640625 -2.75 2.640625 -2.90625 C 2.640625 -3 2.5625 -3 2.4375 -3 L 1.78125 -3 L 2.03125 -4.03125 C 2.046875 -4.0625 2.0625 -4.109375 2.0625 -4.125 C 2.0625 -4.265625 1.953125 -4.359375 1.8125 -4.359375 C 1.640625 -4.359375 1.546875 -4.234375 1.484375 -4.0625 C 1.4375 -3.875 1.53125 -4.21875 1.21875 -3 L 0.515625 -3 C 0.390625 -3 0.296875 -3 0.296875 -2.84375 C 0.296875 -2.75 0.375 -2.75 0.5 -2.75 L 1.15625 -2.75 L 0.75 -1.109375 C 0.703125 -0.9375 0.640625 -0.6875 0.640625 -0.59375 C 0.640625 -0.1875 1 0.0625 1.390625 0.0625 C 2.171875 0.0625 2.609375 -0.90625 2.609375 -1 C 2.609375 -1.09375 2.515625 -1.09375 2.5 -1.09375 C 2.40625 -1.09375 2.40625 -1.078125 2.34375 -0.953125 C 2.15625 -0.515625 1.796875 -0.125 1.421875 -0.125 C 1.265625 -0.125 1.171875 -0.21875 1.171875 -0.46875 C 1.171875 -0.53125 1.203125 -0.6875 1.21875 -0.75 Z M 1.71875 -2.75 " />
</g>
</g>
</defs>
<g fill="rgb(0%, 0%, 0%)" fill-opacity="1">
<use href="#embed--1070885009610427746-glyph-0-1" x="2.835" y="7.124" />
</g>
<g fill="rgb(0%, 0%, 0%)" fill-opacity="1">
<use href="#embed--1070885009610427746-glyph-1-1" x="8.529" y="8.618" />
</g>
</g></g></g><g /></g></g></g></g></g></g></g><g><g style="stroke: #cccccc;stroke-width: 4.917000000000001;" transform="matrix(1.0, 0.0, 0.0, 1.0, 2.55, 0.0)"><path d="M 0.0 0.0 L 1.0 0.0 L 1.0 -2.06 L -6.1 -2.06 L -6.1 0.0 L -5.1 0.0" style="vector-effect: non-scaling-stroke;fill:none;" /></g><g style="fill: #000000;stroke: black;stroke-width: 0.0;" transform="matrix(0.0, 0.5, -0.5, 0.0, -3.15, 0.0)"><path d="M 0.0 -0.2 L 1.0 0.2 L 0.0 -1.2 L -1.0 0.19999999999999996 L 0.0 -0.2 Z" style="vector-effect: non-scaling-stroke;" /></g></g></g><g transform="matrix(1.0, 0.0, 0.0, 1.0, 1.6447748512965284e-16, -1.0599999999999998)"><g transform="matrix(-1.6081226496766364e-16, -1.0, 1.0, -1.6081226496766364e-16, 0.0, 0.0)"><g><g style="stroke: black;stroke-width: 4.917000000000001;" transform="matrix(1.0, 0.0, 0.0, 1.0, 0.0, 0.0)"><path d="M 0.0 0.0 L 2.000000000000001 0.0" style="vector-effect: non-scaling-stroke;fill:none;" /></g><g style="stroke: black;stroke-width: 4.917000000000001;" transform="matrix(1.0, 0.0, 0.0, 1.0, 2.000000000000001, 0.0)"><g style="fill: #000000;stroke: black;stroke-width: 0.0;" transform="matrix(0.0, 0.49169999999999997, -0.49169999999999997, 0.0, -0.5900399999999999, 0.0)"><path d="M 0.0 -0.2 L 1.0 0.2 L 0.0 -1.2 L -1.0 0.19999999999999996 L 0.0 -0.2 Z" style="vector-effect: non-scaling-stroke;" /></g></g></g></g></g></g></g><g style="stroke: black;stroke-width: 4.917000000000001;" transform="matrix(1.0, 0.0, 0.0, 1.0, 4.55, 0.0)"><g /></g></g><g style="fill: #000000;stroke: black;stroke-width: 0.9834;" transform="matrix(0.08333333333333333, 0.0, 0.0, 0.08333333333333333, 5.55, 0.0)"><text style="text-align:center; text-anchor:middle; dominant-baseline:middle;&#10;                      font-family:sans-serif; font-weight: bold;&#10;                      font-size:8px;&#10;                      vector-effect: non-scaling-stroke;" transform="translate(-5e-05, 0)">=</text></g></g><g style="stroke: black;stroke-width: 4.917000000000001;" transform="matrix(1.0, 0.0, 0.0, 1.0, 6.550008333333333, 0.0)"><g /></g></g><g transform="matrix(1.0, 0.0, 0.0, 1.0, 10.100008333333333, 0.0)"><g transform="matrix(1.0, 0.0, 0.0, 1.0, -0.0, -4.0600000000000005)"><g><g><g><g><g><g><g><g><g style="fill: #dbacee;stroke: #000000;stroke-width: 2.4585000000000004;" transform="matrix(1.0, 0.0, 0.0, 1.0, 1.0, 0.0)"><path d="M 0.0 0.0 A 1.0 1.0 0.0 0 0 -1.0 -1.0 A 1.0 1.0 -90.0 0 0 -2.0 0.0 A 1.0 1.0 180.0 0 0 -1.0 1.0 A 1.0 1.0 90.0 0 0 0.0 0.0 Z" style="vector-effect: non-scaling-stroke;" /></g><g transform="matrix(1.0, 0.0, 0.0, 1.0, 0.0, 0.0625)"><g><g style="fill: #dbacee;stroke: #000000;stroke-width: 0.0;" transform="matrix(2.0, 0.0, 0.0, 2.0, 0.0, 0.0)"><g transform="scale(0.05) translate(-7.939500000000001 -7.041500000000001)"><g>
<defs>
<g>
<g id="embed-5675535248898354076-glyph-0-0">
</g>
<g id="embed-5675535248898354076-glyph-0-1">
<path d="M 2.859375 -6.8125 C 2.859375 -6.8125 2.859375 -6.921875 2.734375 -6.921875 C 2.5 -6.921875 1.78125 -6.84375 1.515625 -6.8125 C 1.4375 -6.8125 1.328125 -6.796875 1.328125 -6.625 C 1.328125 -6.5 1.421875 -6.5 1.5625 -6.5 C 2.046875 -6.5 2.0625 -6.4375 2.0625 -6.328125 L 2.03125 -6.125 L 0.59375 -0.390625 C 0.546875 -0.25 0.546875 -0.234375 0.546875 -0.171875 C 0.546875 0.0625 0.75 0.109375 0.84375 0.109375 C 1 0.109375 1.15625 -0.015625 1.203125 -0.15625 L 1.390625 -0.90625 L 1.609375 -1.796875 C 1.671875 -2.03125 1.734375 -2.25 1.78125 -2.46875 C 1.796875 -2.53125 1.890625 -2.859375 1.890625 -2.921875 C 1.921875 -3.015625 2.234375 -3.5625 2.578125 -3.84375 C 2.796875 -4 3.09375 -4.1875 3.53125 -4.1875 C 3.953125 -4.1875 4.0625 -3.84375 4.0625 -3.484375 C 4.0625 -2.953125 3.6875 -1.859375 3.453125 -1.25 C 3.375 -1.03125 3.3125 -0.90625 3.3125 -0.703125 C 3.3125 -0.234375 3.671875 0.109375 4.140625 0.109375 C 5.078125 0.109375 5.4375 -1.34375 5.4375 -1.421875 C 5.4375 -1.53125 5.359375 -1.53125 5.328125 -1.53125 C 5.21875 -1.53125 5.21875 -1.5 5.171875 -1.34375 C 5.03125 -0.8125 4.703125 -0.109375 4.15625 -0.109375 C 3.984375 -0.109375 3.921875 -0.203125 3.921875 -0.4375 C 3.921875 -0.6875 4 -0.921875 4.09375 -1.140625 C 4.25 -1.578125 4.703125 -2.765625 4.703125 -3.34375 C 4.703125 -3.984375 4.3125 -4.40625 3.5625 -4.40625 C 2.9375 -4.40625 2.453125 -4.09375 2.078125 -3.640625 Z M 2.859375 -6.8125 " />
</g>
<g id="embed-5675535248898354076-glyph-1-0">
</g>
<g id="embed-5675535248898354076-glyph-1-1">
<path d="M 3.59375 -2.21875 C 3.59375 -2.984375 3.5 -3.546875 3.1875 -4.03125 C 2.96875 -4.34375 2.53125 -4.625 1.984375 -4.625 C 0.359375 -4.625 0.359375 -2.71875 0.359375 -2.21875 C 0.359375 -1.71875 0.359375 0.140625 1.984375 0.140625 C 3.59375 0.140625 3.59375 -1.71875 3.59375 -2.21875 Z M 1.984375 -0.0625 C 1.65625 -0.0625 1.234375 -0.25 1.09375 -0.8125 C 1 -1.21875 1 -1.796875 1 -2.3125 C 1 -2.828125 1 -3.359375 1.09375 -3.734375 C 1.25 -4.28125 1.6875 -4.4375 1.984375 -4.4375 C 2.359375 -4.4375 2.71875 -4.203125 2.84375 -3.796875 C 2.953125 -3.421875 2.96875 -2.921875 2.96875 -2.3125 C 2.96875 -1.796875 2.96875 -1.28125 2.875 -0.84375 C 2.734375 -0.203125 2.265625 -0.0625 1.984375 -0.0625 Z M 1.984375 -0.0625 " />
</g>
</g>
</defs>
<g fill="rgb(0%, 0%, 0%)" fill-opacity="1">
<use href="#embed-5675535248898354076-glyph-0-1" x="2.835" y="9.754" />
</g>
<g fill="rgb(0%, 0%, 0%)" fill-opacity="1">
<use href="#embed-5675535248898354076-glyph-1-1" x="8.575" y="11.248" />
</g>
</g></g></g><g /></g></g></g></g><g style="stroke: black;stroke-width: 4.917000000000001;" transform="matrix(0.0, -1.0, 1.0, 0.0, 0.0, 2.0)"><g /></g></g><g transform="matrix(1.0, 0.0, 0.0, 1.0, 0.0, 4.0600000000000005)"><g><g transform="matrix(1.0, 0.0, 0.0, 1.0, 2.220446049250313e-16, -0.009999999999999898)"><g><g><g style="fill: #e1f7d0;stroke: #000000;stroke-width: 2.4585000000000004;" transform="matrix(1.0, 0.0, 0.0, 1.0, -2.55, -0.95)"><path d="M 0.0 0.0 L 0.0 1.9 A 0.10000000000000003 0.10000000000000003 135.00000000000003 0 0 0.10000000000000003 2.0 L 5.0 2.0 A 0.10000000000000003 0.10000000000000003 45.00000000000002 0 0 5.1 1.9 L 5.1 0.0 A 0.10000000000000003 0.10000000000000003 -44.999999999999986 0 0 5.0 -0.10000000000000006 L 0.09999999999999964 -0.10000000000000006 A 0.10000000000000003 0.10000000000000003 -135.0 0 0 -4.163336342344337e-16 -2.7755575615628914e-17 L -4.163336342344337e-16 0.009999999999999972 Z" style="vector-effect: non-scaling-stroke;" /></g><g transform="matrix(1.0, 0.0, 0.0, 1.0, 0.0, 0.125)"><g><g style="fill: #e1f7d0;stroke: #000000;stroke-width: 0.0;" transform="matrix(2.0, 0.0, 0.0, 2.0, 0.0, 0.0)"><g transform="scale(0.05) translate(-6.571 -6.2385)"><g>
<defs>
<g>
<g id="embed-3312265488536192703-glyph-0-0">
</g>
<g id="embed-3312265488536192703-glyph-0-1">
<path d="M 3.96875 -6.9375 C 3.921875 -7.0625 3.890625 -7.140625 3.734375 -7.140625 C 3.578125 -7.140625 3.546875 -7.078125 3.5 -6.9375 L 1.4375 -0.984375 C 1.25 -0.46875 0.859375 -0.3125 0.3125 -0.3125 L 0.3125 0 C 0.546875 -0.015625 0.984375 -0.03125 1.328125 -0.03125 C 1.640625 -0.03125 2.15625 -0.015625 2.484375 0 L 2.484375 -0.3125 C 1.984375 -0.3125 1.734375 -0.5625 1.734375 -0.8125 C 1.734375 -0.84375 1.75 -0.953125 1.75 -0.96875 L 2.21875 -2.265625 L 4.671875 -2.265625 L 5.203125 -0.75 C 5.21875 -0.703125 5.234375 -0.640625 5.234375 -0.609375 C 5.234375 -0.3125 4.671875 -0.3125 4.40625 -0.3125 L 4.40625 0 C 4.765625 -0.03125 5.46875 -0.03125 5.84375 -0.03125 C 6.265625 -0.03125 6.734375 -0.015625 7.140625 0 L 7.140625 -0.3125 L 6.96875 -0.3125 C 6.375 -0.3125 6.234375 -0.375 6.125 -0.703125 Z M 3.4375 -5.828125 L 4.5625 -2.578125 L 2.328125 -2.578125 Z M 3.4375 -5.828125 " />
</g>
</g>
</defs>
<g fill="rgb(0%, 0%, 0%)" fill-opacity="1">
<use href="#embed-3312265488536192703-glyph-0-1" x="2.835" y="9.642" />
</g>
</g></g></g><g /></g></g></g></g></g></g></g></g><g style="stroke: black;stroke-width: 4.917000000000001;" transform="matrix(0.0, -1.0, 1.0, 0.0, 0.0, 6.120000000000001)"><g /></g></g><g transform="matrix(1.0, 0.0, 0.0, 1.0, 0.0, 8.120000000000001)"><g><g><g style="fill: #a2cdec;stroke: #000000;stroke-width: 2.4585000000000004;" transform="matrix(1.0, 0.0, 0.0, 1.0, 1.0, 0.0)"><path d="M 0.0 0.0 A 1.0 1.0 0.0 0 0 -1.0 -1.0 A 1.0 1.0 -90.0 0 0 -2.0 0.0 A 1.0 1.0 180.0 0 0 -1.0 1.0 A 1.0 1.0 90.0 0 0 0.0 0.0 Z" style="vector-effect: non-scaling-stroke;" /></g><g transform="matrix(1.0, 0.0, 0.0, 1.0, 0.0, 0.0625)"><g><g style="fill: #a2cdec;stroke: #000000;stroke-width: 0.0;" transform="matrix(2.0, 0.0, 0.0, 2.0, 0.0, 0.0)"><g transform="scale(0.05) translate(-7.9165 -5.7265)"><g>
<defs>
<g>
<g id="embed-287877068045737899-glyph-0-0">
</g>
<g id="embed-287877068045737899-glyph-0-1">
<path d="M 3.328125 -3.015625 C 3.390625 -3.265625 3.625 -4.1875 4.3125 -4.1875 C 4.359375 -4.1875 4.609375 -4.1875 4.8125 -4.0625 C 4.53125 -4 4.34375 -3.765625 4.34375 -3.515625 C 4.34375 -3.359375 4.453125 -3.171875 4.71875 -3.171875 C 4.9375 -3.171875 5.25 -3.34375 5.25 -3.75 C 5.25 -4.265625 4.671875 -4.40625 4.328125 -4.40625 C 3.75 -4.40625 3.40625 -3.875 3.28125 -3.65625 C 3.03125 -4.3125 2.5 -4.40625 2.203125 -4.40625 C 1.171875 -4.40625 0.59375 -3.125 0.59375 -2.875 C 0.59375 -2.765625 0.703125 -2.765625 0.71875 -2.765625 C 0.796875 -2.765625 0.828125 -2.796875 0.84375 -2.875 C 1.1875 -3.9375 1.84375 -4.1875 2.1875 -4.1875 C 2.375 -4.1875 2.71875 -4.09375 2.71875 -3.515625 C 2.71875 -3.203125 2.546875 -2.546875 2.1875 -1.140625 C 2.03125 -0.53125 1.671875 -0.109375 1.234375 -0.109375 C 1.171875 -0.109375 0.953125 -0.109375 0.734375 -0.234375 C 0.984375 -0.296875 1.203125 -0.5 1.203125 -0.78125 C 1.203125 -1.046875 0.984375 -1.125 0.84375 -1.125 C 0.53125 -1.125 0.296875 -0.875 0.296875 -0.546875 C 0.296875 -0.09375 0.78125 0.109375 1.21875 0.109375 C 1.890625 0.109375 2.25 -0.59375 2.265625 -0.640625 C 2.390625 -0.28125 2.75 0.109375 3.34375 0.109375 C 4.375 0.109375 4.9375 -1.171875 4.9375 -1.421875 C 4.9375 -1.53125 4.859375 -1.53125 4.828125 -1.53125 C 4.734375 -1.53125 4.71875 -1.484375 4.6875 -1.421875 C 4.359375 -0.34375 3.6875 -0.109375 3.375 -0.109375 C 2.984375 -0.109375 2.828125 -0.421875 2.828125 -0.765625 C 2.828125 -0.984375 2.875 -1.203125 2.984375 -1.640625 Z M 3.328125 -3.015625 " />
</g>
<g id="embed-287877068045737899-glyph-1-0">
</g>
<g id="embed-287877068045737899-glyph-1-1">
<path d="M 3.59375 -2.21875 C 3.59375 -2.984375 3.5 -3.546875 3.1875 -4.03125 C 2.96875 -4.34375 2.53125 -4.625 1.984375 -4.625 C 0.359375 -4.625 0.359375 -2.71875 0.359375 -2.21875 C 0.359375 -1.71875 0.359375 0.140625 1.984375 0.140625 C 3.59375 0.140625 3.59375 -1.71875 3.59375 -2.21875 Z M 1.984375 -0.0625 C 1.65625 -0.0625 1.234375 -0.25 1.09375 -0.8125 C 1 -1.21875 1 -1.796875 1 -2.3125 C 1 -2.828125 1 -3.359375 1.09375 -3.734375 C 1.25 -4.28125 1.6875 -4.4375 1.984375 -4.4375 C 2.359375 -4.4375 2.71875 -4.203125 2.84375 -3.796875 C 2.953125 -3.421875 2.96875 -2.921875 2.96875 -2.3125 C 2.96875 -1.796875 2.96875 -1.28125 2.875 -0.84375 C 2.734375 -0.203125 2.265625 -0.0625 1.984375 -0.0625 Z M 1.984375 -0.0625 " />
</g>
</g>
</defs>
<g fill="rgb(0%, 0%, 0%)" fill-opacity="1">
<use href="#embed-287877068045737899-glyph-0-1" x="2.835" y="7.124" />
</g>
<g fill="rgb(0%, 0%, 0%)" fill-opacity="1">
<use href="#embed-287877068045737899-glyph-1-1" x="8.529" y="8.618" />
</g>
</g></g></g><g /></g></g></g></g></g></g><g transform="matrix(1.0, 0.0, 0.0, 1.0, 0.0, 7.120000000000001)"><g transform="matrix(0.0, -1.0, 1.0, 0.0, 0.0, 0.0)"><g><g style="stroke: black;stroke-width: 4.917000000000001;" transform="matrix(1.0, 0.0, 0.0, 1.0, 0.0, 0.0)"><path d="M 0.0 0.0 L 2.0200000000000005 0.0" style="vector-effect: non-scaling-stroke;fill:none;" /></g><g style="stroke: black;stroke-width: 4.917000000000001;" transform="matrix(1.0, 0.0, 0.0, 1.0, 2.0200000000000005, 0.0)"><g style="fill: #000000;stroke: black;stroke-width: 0.0;" transform="matrix(0.0, 0.49169999999999997, -0.49169999999999997, 0.0, -0.5900399999999999, 0.0)"><path d="M 0.0 -0.2 L 1.0 0.2 L 0.0 -1.2 L -1.0 0.19999999999999996 L 0.0 -0.2 Z" style="vector-effect: non-scaling-stroke;" /></g></g></g></g></g></g><g transform="matrix(1.0, 0.0, 0.0, 1.0, 0.0, 3.0000000000000004)"><g transform="matrix(0.0, -1.0, 1.0, 0.0, 0.0, 0.0)"><g><g style="stroke: black;stroke-width: 4.917000000000001;" transform="matrix(1.0, 0.0, 0.0, 1.0, 0.0, 0.0)"><path d="M 0.0 0.0 L 2.0000000000000004 0.0" style="vector-effect: non-scaling-stroke;fill:none;" /></g><g style="stroke: black;stroke-width: 4.917000000000001;" transform="matrix(1.0, 0.0, 0.0, 1.0, 2.0000000000000004, 0.0)"><g style="fill: #000000;stroke: black;stroke-width: 0.0;" transform="matrix(0.0, 0.49169999999999997, -0.49169999999999997, 0.0, -0.5900399999999999, 0.0)"><path d="M 0.0 -0.2 L 1.0 0.2 L 0.0 -1.2 L -1.0 0.19999999999999996 L 0.0 -0.2 Z" style="vector-effect: non-scaling-stroke;" /></g></g></g></g></g></g></g></g></g><g style="stroke: black;stroke-width: 4.917000000000001;" transform="matrix(1.0, 0.0, 0.0, 1.0, 13.650008333333332, 0.0)"><g /></g></g><g transform="matrix(1.0, 0.0, 0.0, 1.0, 17.200008333333333, 0.0)"><g transform="matrix(1.0, 0.0, 0.0, 1.0, -0.0, -4.0600000000000005)"><g><g><g><g><g><g><g><g><g style="fill: #dbacee;stroke: #000000;stroke-width: 2.4585000000000004;" transform="matrix(1.0, 0.0, 0.0, 1.0, 1.0, 0.0)"><path d="M 0.0 0.0 A 1.0 1.0 0.0 0 0 -1.0 -1.0 A 1.0 1.0 -90.0 0 0 -2.0 0.0 A 1.0 1.0 180.0 0 0 -1.0 1.0 A 1.0 1.0 90.0 0 0 0.0 0.0 Z" style="vector-effect: non-scaling-stroke;" /></g><g transform="matrix(1.0, 0.0, 0.0, 1.0, 0.0, 0.0625)"><g><g style="fill: #dbacee;stroke: #000000;stroke-width: 0.0;" transform="matrix(2.0, 0.0, 0.0, 2.0, 0.0, 0.0)"><g transform="scale(0.05) translate(-7.939500000000001 -7.041500000000001)"><g>
<defs>
<g>
<g id="embed-6063412038296529461-glyph-0-0">
</g>
<g id="embed-6063412038296529461-glyph-0-1">
<path d="M 2.859375 -6.8125 C 2.859375 -6.8125 2.859375 -6.921875 2.734375 -6.921875 C 2.5 -6.921875 1.78125 -6.84375 1.515625 -6.8125 C 1.4375 -6.8125 1.328125 -6.796875 1.328125 -6.625 C 1.328125 -6.5 1.421875 -6.5 1.5625 -6.5 C 2.046875 -6.5 2.0625 -6.4375 2.0625 -6.328125 L 2.03125 -6.125 L 0.59375 -0.390625 C 0.546875 -0.25 0.546875 -0.234375 0.546875 -0.171875 C 0.546875 0.0625 0.75 0.109375 0.84375 0.109375 C 1 0.109375 1.15625 -0.015625 1.203125 -0.15625 L 1.390625 -0.90625 L 1.609375 -1.796875 C 1.671875 -2.03125 1.734375 -2.25 1.78125 -2.46875 C 1.796875 -2.53125 1.890625 -2.859375 1.890625 -2.921875 C 1.921875 -3.015625 2.234375 -3.5625 2.578125 -3.84375 C 2.796875 -4 3.09375 -4.1875 3.53125 -4.1875 C 3.953125 -4.1875 4.0625 -3.84375 4.0625 -3.484375 C 4.0625 -2.953125 3.6875 -1.859375 3.453125 -1.25 C 3.375 -1.03125 3.3125 -0.90625 3.3125 -0.703125 C 3.3125 -0.234375 3.671875 0.109375 4.140625 0.109375 C 5.078125 0.109375 5.4375 -1.34375 5.4375 -1.421875 C 5.4375 -1.53125 5.359375 -1.53125 5.328125 -1.53125 C 5.21875 -1.53125 5.21875 -1.5 5.171875 -1.34375 C 5.03125 -0.8125 4.703125 -0.109375 4.15625 -0.109375 C 3.984375 -0.109375 3.921875 -0.203125 3.921875 -0.4375 C 3.921875 -0.6875 4 -0.921875 4.09375 -1.140625 C 4.25 -1.578125 4.703125 -2.765625 4.703125 -3.34375 C 4.703125 -3.984375 4.3125 -4.40625 3.5625 -4.40625 C 2.9375 -4.40625 2.453125 -4.09375 2.078125 -3.640625 Z M 2.859375 -6.8125 " />
</g>
<g id="embed-6063412038296529461-glyph-1-0">
</g>
<g id="embed-6063412038296529461-glyph-1-1">
<path d="M 2.328125 -4.4375 C 2.328125 -4.625 2.328125 -4.625 2.125 -4.625 C 1.671875 -4.1875 1.046875 -4.1875 0.765625 -4.1875 L 0.765625 -3.9375 C 0.921875 -3.9375 1.390625 -3.9375 1.765625 -4.125 L 1.765625 -0.578125 C 1.765625 -0.34375 1.765625 -0.25 1.078125 -0.25 L 0.8125 -0.25 L 0.8125 0 C 0.9375 0 1.796875 -0.03125 2.046875 -0.03125 C 2.265625 -0.03125 3.140625 0 3.296875 0 L 3.296875 -0.25 L 3.03125 -0.25 C 2.328125 -0.25 2.328125 -0.34375 2.328125 -0.578125 Z M 2.328125 -4.4375 " />
</g>
</g>
</defs>
<g fill="rgb(0%, 0%, 0%)" fill-opacity="1">
<use href="#embed-6063412038296529461-glyph-0-1" x="2.835" y="9.754" />
</g>
<g fill="rgb(0%, 0%, 0%)" fill-opacity="1">
<use href="#embed-6063412038296529461-glyph-1-1" x="8.575" y="11.248" />
</g>
</g></g></g><g /></g></g></g></g><g style="stroke: black;stroke-width: 4.917000000000001;" transform="matrix(0.0, -1.0, 1.0, 0.0, 0.0, 2.0)"><g /></g></g><g transform="matrix(1.0, 0.0, 0.0, 1.0, 0.0, 4.0600000000000005)"><g><g transform="matrix(1.0, 0.0, 0.0, 1.0, 2.220446049250313e-16, -0.009999999999999898)"><g><g><g style="fill: #e1f7d0;stroke: #000000;stroke-width: 2.4585000000000004;" transform="matrix(1.0, 0.0, 0.0, 1.0, -2.55, -0.95)"><path d="M 0.0 0.0 L 0.0 1.9 A 0.10000000000000003 0.10000000000000003 135.00000000000003 0 0 0.10000000000000003 2.0 L 5.0 2.0 A 0.10000000000000003 0.10000000000000003 45.00000000000002 0 0 5.1 1.9 L 5.1 0.0 A 0.10000000000000003 0.10000000000000003 -44.999999999999986 0 0 5.0 -0.10000000000000006 L 0.09999999999999964 -0.10000000000000006 A 0.10000000000000003 0.10000000000000003 -135.0 0 0 -4.163336342344337e-16 -2.7755575615628914e-17 L -4.163336342344337e-16 0.009999999999999972 Z" style="vector-effect: non-scaling-stroke;" /></g><g transform="matrix(1.0, 0.0, 0.0, 1.0, 0.0, 0.125)"><g><g style="fill: #e1f7d0;stroke: #000000;stroke-width: 0.0;" transform="matrix(2.0, 0.0, 0.0, 2.0, 0.0, 0.0)"><g transform="scale(0.05) translate(-6.571 -6.2385)"><g>
<defs>
<g>
<g id="embed-3312265488536192703-glyph-0-0">
</g>
<g id="embed-3312265488536192703-glyph-0-1">
<path d="M 3.96875 -6.9375 C 3.921875 -7.0625 3.890625 -7.140625 3.734375 -7.140625 C 3.578125 -7.140625 3.546875 -7.078125 3.5 -6.9375 L 1.4375 -0.984375 C 1.25 -0.46875 0.859375 -0.3125 0.3125 -0.3125 L 0.3125 0 C 0.546875 -0.015625 0.984375 -0.03125 1.328125 -0.03125 C 1.640625 -0.03125 2.15625 -0.015625 2.484375 0 L 2.484375 -0.3125 C 1.984375 -0.3125 1.734375 -0.5625 1.734375 -0.8125 C 1.734375 -0.84375 1.75 -0.953125 1.75 -0.96875 L 2.21875 -2.265625 L 4.671875 -2.265625 L 5.203125 -0.75 C 5.21875 -0.703125 5.234375 -0.640625 5.234375 -0.609375 C 5.234375 -0.3125 4.671875 -0.3125 4.40625 -0.3125 L 4.40625 0 C 4.765625 -0.03125 5.46875 -0.03125 5.84375 -0.03125 C 6.265625 -0.03125 6.734375 -0.015625 7.140625 0 L 7.140625 -0.3125 L 6.96875 -0.3125 C 6.375 -0.3125 6.234375 -0.375 6.125 -0.703125 Z M 3.4375 -5.828125 L 4.5625 -2.578125 L 2.328125 -2.578125 Z M 3.4375 -5.828125 " />
</g>
</g>
</defs>
<g fill="rgb(0%, 0%, 0%)" fill-opacity="1">
<use href="#embed-3312265488536192703-glyph-0-1" x="2.835" y="9.642" />
</g>
</g></g></g><g /></g></g></g></g></g></g></g></g><g style="stroke: black;stroke-width: 4.917000000000001;" transform="matrix(0.0, -1.0, 1.0, 0.0, 0.0, 6.120000000000001)"><g /></g></g><g transform="matrix(1.0, 0.0, 0.0, 1.0, 0.0, 8.120000000000001)"><g><g><g style="fill: #a2cdec;stroke: #000000;stroke-width: 2.4585000000000004;" transform="matrix(1.0, 0.0, 0.0, 1.0, 1.0, 0.0)"><path d="M 0.0 0.0 A 1.0 1.0 0.0 0 0 -1.0 -1.0 A 1.0 1.0 -90.0 0 0 -2.0 0.0 A 1.0 1.0 180.0 0 0 -1.0 1.0 A 1.0 1.0 90.0 0 0 0.0 0.0 Z" style="vector-effect: non-scaling-stroke;" /></g><g transform="matrix(1.0, 0.0, 0.0, 1.0, 0.0, 0.0625)"><g><g style="fill: #a2cdec;stroke: #000000;stroke-width: 0.0;" transform="matrix(2.0, 0.0, 0.0, 2.0, 0.0, 0.0)"><g transform="scale(0.05) translate(-7.9165 -5.7265)"><g>
<defs>
<g>
<g id="embed-4914387457244765764-glyph-0-0">
</g>
<g id="embed-4914387457244765764-glyph-0-1">
<path d="M 3.328125 -3.015625 C 3.390625 -3.265625 3.625 -4.1875 4.3125 -4.1875 C 4.359375 -4.1875 4.609375 -4.1875 4.8125 -4.0625 C 4.53125 -4 4.34375 -3.765625 4.34375 -3.515625 C 4.34375 -3.359375 4.453125 -3.171875 4.71875 -3.171875 C 4.9375 -3.171875 5.25 -3.34375 5.25 -3.75 C 5.25 -4.265625 4.671875 -4.40625 4.328125 -4.40625 C 3.75 -4.40625 3.40625 -3.875 3.28125 -3.65625 C 3.03125 -4.3125 2.5 -4.40625 2.203125 -4.40625 C 1.171875 -4.40625 0.59375 -3.125 0.59375 -2.875 C 0.59375 -2.765625 0.703125 -2.765625 0.71875 -2.765625 C 0.796875 -2.765625 0.828125 -2.796875 0.84375 -2.875 C 1.1875 -3.9375 1.84375 -4.1875 2.1875 -4.1875 C 2.375 -4.1875 2.71875 -4.09375 2.71875 -3.515625 C 2.71875 -3.203125 2.546875 -2.546875 2.1875 -1.140625 C 2.03125 -0.53125 1.671875 -0.109375 1.234375 -0.109375 C 1.171875 -0.109375 0.953125 -0.109375 0.734375 -0.234375 C 0.984375 -0.296875 1.203125 -0.5 1.203125 -0.78125 C 1.203125 -1.046875 0.984375 -1.125 0.84375 -1.125 C 0.53125 -1.125 0.296875 -0.875 0.296875 -0.546875 C 0.296875 -0.09375 0.78125 0.109375 1.21875 0.109375 C 1.890625 0.109375 2.25 -0.59375 2.265625 -0.640625 C 2.390625 -0.28125 2.75 0.109375 3.34375 0.109375 C 4.375 0.109375 4.9375 -1.171875 4.9375 -1.421875 C 4.9375 -1.53125 4.859375 -1.53125 4.828125 -1.53125 C 4.734375 -1.53125 4.71875 -1.484375 4.6875 -1.421875 C 4.359375 -0.34375 3.6875 -0.109375 3.375 -0.109375 C 2.984375 -0.109375 2.828125 -0.421875 2.828125 -0.765625 C 2.828125 -0.984375 2.875 -1.203125 2.984375 -1.640625 Z M 3.328125 -3.015625 " />
</g>
<g id="embed-4914387457244765764-glyph-1-0">
</g>
<g id="embed-4914387457244765764-glyph-1-1">
<path d="M 2.328125 -4.4375 C 2.328125 -4.625 2.328125 -4.625 2.125 -4.625 C 1.671875 -4.1875 1.046875 -4.1875 0.765625 -4.1875 L 0.765625 -3.9375 C 0.921875 -3.9375 1.390625 -3.9375 1.765625 -4.125 L 1.765625 -0.578125 C 1.765625 -0.34375 1.765625 -0.25 1.078125 -0.25 L 0.8125 -0.25 L 0.8125 0 C 0.9375 0 1.796875 -0.03125 2.046875 -0.03125 C 2.265625 -0.03125 3.140625 0 3.296875 0 L 3.296875 -0.25 L 3.03125 -0.25 C 2.328125 -0.25 2.328125 -0.34375 2.328125 -0.578125 Z M 2.328125 -4.4375 " />
</g>
</g>
</defs>
<g fill="rgb(0%, 0%, 0%)" fill-opacity="1">
<use href="#embed-4914387457244765764-glyph-0-1" x="2.835" y="7.124" />
</g>
<g fill="rgb(0%, 0%, 0%)" fill-opacity="1">
<use href="#embed-4914387457244765764-glyph-1-1" x="8.529" y="8.618" />
</g>
</g></g></g><g /></g></g></g></g></g></g><g transform="matrix(1.0, 0.0, 0.0, 1.0, 0.0, 7.120000000000001)"><g transform="matrix(0.0, -1.0, 1.0, 0.0, 0.0, 0.0)"><g><g style="stroke: black;stroke-width: 4.917000000000001;" transform="matrix(1.0, 0.0, 0.0, 1.0, 0.0, 0.0)"><path d="M 0.0 0.0 L 2.0200000000000005 0.0" style="vector-effect: non-scaling-stroke;fill:none;" /></g><g style="stroke: black;stroke-width: 4.917000000000001;" transform="matrix(1.0, 0.0, 0.0, 1.0, 2.0200000000000005, 0.0)"><g style="fill: #000000;stroke: black;stroke-width: 0.0;" transform="matrix(0.0, 0.49169999999999997, -0.49169999999999997, 0.0, -0.5900399999999999, 0.0)"><path d="M 0.0 -0.2 L 1.0 0.2 L 0.0 -1.2 L -1.0 0.19999999999999996 L 0.0 -0.2 Z" style="vector-effect: non-scaling-stroke;" /></g></g></g></g></g></g><g transform="matrix(1.0, 0.0, 0.0, 1.0, 0.0, 3.0000000000000004)"><g transform="matrix(0.0, -1.0, 1.0, 0.0, 0.0, 0.0)"><g><g style="stroke: black;stroke-width: 4.917000000000001;" transform="matrix(1.0, 0.0, 0.0, 1.0, 0.0, 0.0)"><path d="M 0.0 0.0 L 2.0000000000000004 0.0" style="vector-effect: non-scaling-stroke;fill:none;" /></g><g style="stroke: black;stroke-width: 4.917000000000001;" transform="matrix(1.0, 0.0, 0.0, 1.0, 2.0000000000000004, 0.0)"><g style="fill: #000000;stroke: black;stroke-width: 0.0;" transform="matrix(0.0, 0.49169999999999997, -0.49169999999999997, 0.0, -0.5900399999999999, 0.0)"><path d="M 0.0 -0.2 L 1.0 0.2 L 0.0 -1.2 L -1.0 0.19999999999999996 L 0.0 -0.2 Z" style="vector-effect: non-scaling-stroke;" /></g></g></g></g></g></g></g></g></g><g style="stroke: black;stroke-width: 4.917000000000001;" transform="matrix(1.0, 0.0, 0.0, 1.0, 20.750008333333334, 0.0)"><g /></g></g><g transform="matrix(1.0, 0.0, 0.0, 1.0, 21.750008333333334, 0.0)"><g /></g></g><g style="stroke: black;stroke-width: 4.917000000000001;" transform="matrix(1.0, 0.0, 0.0, 1.0, 22.750008333333334, 0.0)"><g /></g></g><g transform="matrix(1.0, 0.0, 0.0, 1.0, 26.300008333333334, 0.0)"><g transform="matrix(1.0, 0.0, 0.0, 1.0, -0.0, -4.0600000000000005)"><g><g><g><g><g><g><g><g><g style="fill: #dbacee;stroke: #000000;stroke-width: 2.4585000000000004;" transform="matrix(1.0, 0.0, 0.0, 1.0, 1.0, 0.0)"><path d="M 0.0 0.0 A 1.0 1.0 0.0 0 0 -1.0 -1.0 A 1.0 1.0 -90.0 0 0 -2.0 0.0 A 1.0 1.0 180.0 0 0 -1.0 1.0 A 1.0 1.0 90.0 0 0 0.0 0.0 Z" style="vector-effect: non-scaling-stroke;" /></g><g transform="matrix(1.0, 0.0, 0.0, 1.0, 0.0, 0.0625)"><g><g style="fill: #dbacee;stroke: #000000;stroke-width: 0.0;" transform="matrix(2.0, 0.0, 0.0, 2.0, 0.0, 0.0)"><g transform="scale(0.05) translate(-7.4585 -7.041500000000001)"><g>
<defs>
<g>
<g id="embed-2037172488130207486-glyph-0-0">
</g>
<g id="embed-2037172488130207486-glyph-0-1">
<path d="M 2.859375 -6.8125 C 2.859375 -6.8125 2.859375 -6.921875 2.734375 -6.921875 C 2.5 -6.921875 1.78125 -6.84375 1.515625 -6.8125 C 1.4375 -6.8125 1.328125 -6.796875 1.328125 -6.625 C 1.328125 -6.5 1.421875 -6.5 1.5625 -6.5 C 2.046875 -6.5 2.0625 -6.4375 2.0625 -6.328125 L 2.03125 -6.125 L 0.59375 -0.390625 C 0.546875 -0.25 0.546875 -0.234375 0.546875 -0.171875 C 0.546875 0.0625 0.75 0.109375 0.84375 0.109375 C 1 0.109375 1.15625 -0.015625 1.203125 -0.15625 L 1.390625 -0.90625 L 1.609375 -1.796875 C 1.671875 -2.03125 1.734375 -2.25 1.78125 -2.46875 C 1.796875 -2.53125 1.890625 -2.859375 1.890625 -2.921875 C 1.921875 -3.015625 2.234375 -3.5625 2.578125 -3.84375 C 2.796875 -4 3.09375 -4.1875 3.53125 -4.1875 C 3.953125 -4.1875 4.0625 -3.84375 4.0625 -3.484375 C 4.0625 -2.953125 3.6875 -1.859375 3.453125 -1.25 C 3.375 -1.03125 3.3125 -0.90625 3.3125 -0.703125 C 3.3125 -0.234375 3.671875 0.109375 4.140625 0.109375 C 5.078125 0.109375 5.4375 -1.34375 5.4375 -1.421875 C 5.4375 -1.53125 5.359375 -1.53125 5.328125 -1.53125 C 5.21875 -1.53125 5.21875 -1.5 5.171875 -1.34375 C 5.03125 -0.8125 4.703125 -0.109375 4.15625 -0.109375 C 3.984375 -0.109375 3.921875 -0.203125 3.921875 -0.4375 C 3.921875 -0.6875 4 -0.921875 4.09375 -1.140625 C 4.25 -1.578125 4.703125 -2.765625 4.703125 -3.34375 C 4.703125 -3.984375 4.3125 -4.40625 3.5625 -4.40625 C 2.9375 -4.40625 2.453125 -4.09375 2.078125 -3.640625 Z M 2.859375 -6.8125 " />
</g>
<g id="embed-2037172488130207486-glyph-1-0">
</g>
<g id="embed-2037172488130207486-glyph-1-1">
<path d="M 1.71875 -2.75 L 2.421875 -2.75 C 2.5625 -2.75 2.640625 -2.75 2.640625 -2.90625 C 2.640625 -3 2.5625 -3 2.4375 -3 L 1.78125 -3 L 2.03125 -4.03125 C 2.046875 -4.0625 2.0625 -4.109375 2.0625 -4.125 C 2.0625 -4.265625 1.953125 -4.359375 1.8125 -4.359375 C 1.640625 -4.359375 1.546875 -4.234375 1.484375 -4.0625 C 1.4375 -3.875 1.53125 -4.21875 1.21875 -3 L 0.515625 -3 C 0.390625 -3 0.296875 -3 0.296875 -2.84375 C 0.296875 -2.75 0.375 -2.75 0.5 -2.75 L 1.15625 -2.75 L 0.75 -1.109375 C 0.703125 -0.9375 0.640625 -0.6875 0.640625 -0.59375 C 0.640625 -0.1875 1 0.0625 1.390625 0.0625 C 2.171875 0.0625 2.609375 -0.90625 2.609375 -1 C 2.609375 -1.09375 2.515625 -1.09375 2.5 -1.09375 C 2.40625 -1.09375 2.40625 -1.078125 2.34375 -0.953125 C 2.15625 -0.515625 1.796875 -0.125 1.421875 -0.125 C 1.265625 -0.125 1.171875 -0.21875 1.171875 -0.46875 C 1.171875 -0.53125 1.203125 -0.6875 1.21875 -0.75 Z M 1.71875 -2.75 " />
</g>
</g>
</defs>
<g fill="rgb(0%, 0%, 0%)" fill-opacity="1">
<use href="#embed-2037172488130207486-glyph-0-1" x="2.835" y="9.754" />
</g>
<g fill="rgb(0%, 0%, 0%)" fill-opacity="1">
<use href="#embed-2037172488130207486-glyph-1-1" x="8.575" y="11.248" />
</g>
</g></g></g><g /></g></g></g></g><g style="stroke: black;stroke-width: 4.917000000000001;" transform="matrix(0.0, -1.0, 1.0, 0.0, 0.0, 2.0)"><g /></g></g><g transform="matrix(1.0, 0.0, 0.0, 1.0, 0.0, 4.0600000000000005)"><g><g transform="matrix(1.0, 0.0, 0.0, 1.0, 2.220446049250313e-16, -0.009999999999999898)"><g><g><g style="fill: #e1f7d0;stroke: #000000;stroke-width: 2.4585000000000004;" transform="matrix(1.0, 0.0, 0.0, 1.0, -2.55, -0.95)"><path d="M 0.0 0.0 L 0.0 1.9 A 0.10000000000000003 0.10000000000000003 135.00000000000003 0 0 0.10000000000000003 2.0 L 5.0 2.0 A 0.10000000000000003 0.10000000000000003 45.00000000000002 0 0 5.1 1.9 L 5.1 0.0 A 0.10000000000000003 0.10000000000000003 -44.999999999999986 0 0 5.0 -0.10000000000000006 L 0.09999999999999964 -0.10000000000000006 A 0.10000000000000003 0.10000000000000003 -135.0 0 0 -4.163336342344337e-16 -2.7755575615628914e-17 L -4.163336342344337e-16 0.009999999999999972 Z" style="vector-effect: non-scaling-stroke;" /></g><g transform="matrix(1.0, 0.0, 0.0, 1.0, 0.0, 0.125)"><g><g style="fill: #e1f7d0;stroke: #000000;stroke-width: 0.0;" transform="matrix(2.0, 0.0, 0.0, 2.0, 0.0, 0.0)"><g transform="scale(0.05) translate(-6.571 -6.2385)"><g>
<defs>
<g>
<g id="embed-3312265488536192703-glyph-0-0">
</g>
<g id="embed-3312265488536192703-glyph-0-1">
<path d="M 3.96875 -6.9375 C 3.921875 -7.0625 3.890625 -7.140625 3.734375 -7.140625 C 3.578125 -7.140625 3.546875 -7.078125 3.5 -6.9375 L 1.4375 -0.984375 C 1.25 -0.46875 0.859375 -0.3125 0.3125 -0.3125 L 0.3125 0 C 0.546875 -0.015625 0.984375 -0.03125 1.328125 -0.03125 C 1.640625 -0.03125 2.15625 -0.015625 2.484375 0 L 2.484375 -0.3125 C 1.984375 -0.3125 1.734375 -0.5625 1.734375 -0.8125 C 1.734375 -0.84375 1.75 -0.953125 1.75 -0.96875 L 2.21875 -2.265625 L 4.671875 -2.265625 L 5.203125 -0.75 C 5.21875 -0.703125 5.234375 -0.640625 5.234375 -0.609375 C 5.234375 -0.3125 4.671875 -0.3125 4.40625 -0.3125 L 4.40625 0 C 4.765625 -0.03125 5.46875 -0.03125 5.84375 -0.03125 C 6.265625 -0.03125 6.734375 -0.015625 7.140625 0 L 7.140625 -0.3125 L 6.96875 -0.3125 C 6.375 -0.3125 6.234375 -0.375 6.125 -0.703125 Z M 3.4375 -5.828125 L 4.5625 -2.578125 L 2.328125 -2.578125 Z M 3.4375 -5.828125 " />
</g>
</g>
</defs>
<g fill="rgb(0%, 0%, 0%)" fill-opacity="1">
<use href="#embed-3312265488536192703-glyph-0-1" x="2.835" y="9.642" />
</g>
</g></g></g><g /></g></g></g></g></g></g></g></g><g style="stroke: black;stroke-width: 4.917000000000001;" transform="matrix(0.0, -1.0, 1.0, 0.0, 0.0, 6.120000000000001)"><g /></g></g><g transform="matrix(1.0, 0.0, 0.0, 1.0, 0.0, 8.120000000000001)"><g><g><g style="fill: #a2cdec;stroke: #000000;stroke-width: 2.4585000000000004;" transform="matrix(1.0, 0.0, 0.0, 1.0, 1.0, 0.0)"><path d="M 0.0 0.0 A 1.0 1.0 0.0 0 0 -1.0 -1.0 A 1.0 1.0 -90.0 0 0 -2.0 0.0 A 1.0 1.0 180.0 0 0 -1.0 1.0 A 1.0 1.0 90.0 0 0 0.0 0.0 Z" style="vector-effect: non-scaling-stroke;" /></g><g transform="matrix(1.0, 0.0, 0.0, 1.0, 0.0, 0.0625)"><g><g style="fill: #a2cdec;stroke: #000000;stroke-width: 0.0;" transform="matrix(2.0, 0.0, 0.0, 2.0, 0.0, 0.0)"><g transform="scale(0.05) translate(-7.435499999999999 -5.7265)"><g>
<defs>
<g>
<g id="embed--1070885009610427746-glyph-0-0">
</g>
<g id="embed--1070885009610427746-glyph-0-1">
<path d="M 3.328125 -3.015625 C 3.390625 -3.265625 3.625 -4.1875 4.3125 -4.1875 C 4.359375 -4.1875 4.609375 -4.1875 4.8125 -4.0625 C 4.53125 -4 4.34375 -3.765625 4.34375 -3.515625 C 4.34375 -3.359375 4.453125 -3.171875 4.71875 -3.171875 C 4.9375 -3.171875 5.25 -3.34375 5.25 -3.75 C 5.25 -4.265625 4.671875 -4.40625 4.328125 -4.40625 C 3.75 -4.40625 3.40625 -3.875 3.28125 -3.65625 C 3.03125 -4.3125 2.5 -4.40625 2.203125 -4.40625 C 1.171875 -4.40625 0.59375 -3.125 0.59375 -2.875 C 0.59375 -2.765625 0.703125 -2.765625 0.71875 -2.765625 C 0.796875 -2.765625 0.828125 -2.796875 0.84375 -2.875 C 1.1875 -3.9375 1.84375 -4.1875 2.1875 -4.1875 C 2.375 -4.1875 2.71875 -4.09375 2.71875 -3.515625 C 2.71875 -3.203125 2.546875 -2.546875 2.1875 -1.140625 C 2.03125 -0.53125 1.671875 -0.109375 1.234375 -0.109375 C 1.171875 -0.109375 0.953125 -0.109375 0.734375 -0.234375 C 0.984375 -0.296875 1.203125 -0.5 1.203125 -0.78125 C 1.203125 -1.046875 0.984375 -1.125 0.84375 -1.125 C 0.53125 -1.125 0.296875 -0.875 0.296875 -0.546875 C 0.296875 -0.09375 0.78125 0.109375 1.21875 0.109375 C 1.890625 0.109375 2.25 -0.59375 2.265625 -0.640625 C 2.390625 -0.28125 2.75 0.109375 3.34375 0.109375 C 4.375 0.109375 4.9375 -1.171875 4.9375 -1.421875 C 4.9375 -1.53125 4.859375 -1.53125 4.828125 -1.53125 C 4.734375 -1.53125 4.71875 -1.484375 4.6875 -1.421875 C 4.359375 -0.34375 3.6875 -0.109375 3.375 -0.109375 C 2.984375 -0.109375 2.828125 -0.421875 2.828125 -0.765625 C 2.828125 -0.984375 2.875 -1.203125 2.984375 -1.640625 Z M 3.328125 -3.015625 " />
</g>
<g id="embed--1070885009610427746-glyph-1-0">
</g>
<g id="embed--1070885009610427746-glyph-1-1">
<path d="M 1.71875 -2.75 L 2.421875 -2.75 C 2.5625 -2.75 2.640625 -2.75 2.640625 -2.90625 C 2.640625 -3 2.5625 -3 2.4375 -3 L 1.78125 -3 L 2.03125 -4.03125 C 2.046875 -4.0625 2.0625 -4.109375 2.0625 -4.125 C 2.0625 -4.265625 1.953125 -4.359375 1.8125 -4.359375 C 1.640625 -4.359375 1.546875 -4.234375 1.484375 -4.0625 C 1.4375 -3.875 1.53125 -4.21875 1.21875 -3 L 0.515625 -3 C 0.390625 -3 0.296875 -3 0.296875 -2.84375 C 0.296875 -2.75 0.375 -2.75 0.5 -2.75 L 1.15625 -2.75 L 0.75 -1.109375 C 0.703125 -0.9375 0.640625 -0.6875 0.640625 -0.59375 C 0.640625 -0.1875 1 0.0625 1.390625 0.0625 C 2.171875 0.0625 2.609375 -0.90625 2.609375 -1 C 2.609375 -1.09375 2.515625 -1.09375 2.5 -1.09375 C 2.40625 -1.09375 2.40625 -1.078125 2.34375 -0.953125 C 2.15625 -0.515625 1.796875 -0.125 1.421875 -0.125 C 1.265625 -0.125 1.171875 -0.21875 1.171875 -0.46875 C 1.171875 -0.53125 1.203125 -0.6875 1.21875 -0.75 Z M 1.71875 -2.75 " />
</g>
</g>
</defs>
<g fill="rgb(0%, 0%, 0%)" fill-opacity="1">
<use href="#embed--1070885009610427746-glyph-0-1" x="2.835" y="7.124" />
</g>
<g fill="rgb(0%, 0%, 0%)" fill-opacity="1">
<use href="#embed--1070885009610427746-glyph-1-1" x="8.529" y="8.618" />
</g>
</g></g></g><g /></g></g></g></g></g></g><g transform="matrix(1.0, 0.0, 0.0, 1.0, 0.0, 7.120000000000001)"><g transform="matrix(0.0, -1.0, 1.0, 0.0, 0.0, 0.0)"><g><g style="stroke: black;stroke-width: 4.917000000000001;" transform="matrix(1.0, 0.0, 0.0, 1.0, 0.0, 0.0)"><path d="M 0.0 0.0 L 2.0200000000000005 0.0" style="vector-effect: non-scaling-stroke;fill:none;" /></g><g style="stroke: black;stroke-width: 4.917000000000001;" transform="matrix(1.0, 0.0, 0.0, 1.0, 2.0200000000000005, 0.0)"><g style="fill: #000000;stroke: black;stroke-width: 0.0;" transform="matrix(0.0, 0.49169999999999997, -0.49169999999999997, 0.0, -0.5900399999999999, 0.0)"><path d="M 0.0 -0.2 L 1.0 0.2 L 0.0 -1.2 L -1.0 0.19999999999999996 L 0.0 -0.2 Z" style="vector-effect: non-scaling-stroke;" /></g></g></g></g></g></g><g transform="matrix(1.0, 0.0, 0.0, 1.0, 0.0, 3.0000000000000004)"><g transform="matrix(0.0, -1.0, 1.0, 0.0, 0.0, 0.0)"><g><g style="stroke: black;stroke-width: 4.917000000000001;" transform="matrix(1.0, 0.0, 0.0, 1.0, 0.0, 0.0)"><path d="M 0.0 0.0 L 2.0000000000000004 0.0" style="vector-effect: non-scaling-stroke;fill:none;" /></g><g style="stroke: black;stroke-width: 4.917000000000001;" transform="matrix(1.0, 0.0, 0.0, 1.0, 2.0000000000000004, 0.0)"><g style="fill: #000000;stroke: black;stroke-width: 0.0;" transform="matrix(0.0, 0.49169999999999997, -0.49169999999999997, 0.0, -0.5900399999999999, 0.0)"><path d="M 0.0 -0.2 L 1.0 0.2 L 0.0 -1.2 L -1.0 0.19999999999999996 L 0.0 -0.2 Z" style="vector-effect: non-scaling-stroke;" /></g></g></g></g></g></g></g></g></g><g transform="matrix(1.0, 0.0, 0.0, 1.0, 12.650008333333332, 0.0)"><g transform="matrix(1.0, -0.0, 0.0, 1.0, 0.0, 0.0)"><g><g style="stroke: black;stroke-width: 4.917000000000001;" transform="matrix(1.0, 0.0, 0.0, 1.0, 0.0, 0.0)"><path d="M 0.0 0.0 L 2.0 0.0" style="vector-effect: non-scaling-stroke;fill:none;" /></g><g style="stroke: black;stroke-width: 4.917000000000001;" transform="matrix(1.0, 0.0, 0.0, 1.0, 2.0, 0.0)"><g style="fill: #000000;stroke: black;stroke-width: 0.0;" transform="matrix(0.0, 0.49169999999999997, -0.49169999999999997, 0.0, -0.5900399999999999, 0.0)"><path d="M 0.0 -0.2 L 1.0 0.2 L 0.0 -1.2 L -1.0 0.19999999999999996 L 0.0 -0.2 Z" style="vector-effect: non-scaling-stroke;" /></g></g></g></g></g></g><g transform="matrix(1.0, 0.0, 0.0, 1.0, 19.750008333333334, 0.0)"><g transform="matrix(1.0, -0.0, 0.0, 1.0, 0.0, 0.0)"><g><g style="stroke: black;stroke-width: 4.917000000000001;" transform="matrix(1.0, 0.0, 0.0, 1.0, 0.0, 0.0)"><path d="M 0.0 0.0 L 4.0 0.0" style="vector-effect: non-scaling-stroke;fill:none;" /></g><g style="stroke: black;stroke-width: 4.917000000000001;" transform="matrix(1.0, 0.0, 0.0, 1.0, 4.0, 0.0)"><g style="fill: #000000;stroke: black;stroke-width: 0.0;" transform="matrix(0.0, 0.49169999999999997, -0.49169999999999997, 0.0, -0.5900399999999999, 0.0)"><path d="M 0.0 -0.2 L 1.0 0.2 L 0.0 -1.2 L -1.0 0.19999999999999996 L 0.0 -0.2 Z" style="vector-effect: non-scaling-stroke;" /></g></g></g></g></g></g></g><g /></g></g></g></g></svg>