<?xml version="1.0" encoding="utf-8" ?>
<svg baseProfile="full" height="512" version="1.1" width="333" xmlns="http://www.w3.org/2000/svg" xmlns:ev="http://www.w3.org/2001/xml-events" xmlns:xlink="http://www.w3.org/1999/xlink"><defs><marker id="arrow" markerHeight="3.5" markerWidth="5" orient="auto" refX="5.0" refY="1.7"><polygon points="0,0 5,1.75 0,3.5" /></marker></defs><g style="fill:white;"><g transform="matrix(1.0, 0.0, 0.0, 1.0, 166.5, 255.48196721311479)"><g transform="matrix(5.1990632318501175, 0.0, 0.0, 5.1990632318501175, 0.0, 0.0)"><g><g transform="matrix(1.0, 0.0, 0.0, 1.0, -0.0, -36.5)"><g><g><g><g><g><g><g><g><g><g><g><g><g><g><g><g><g><g><g transform="matrix(1.0, 0.0, 0.0, 1.0, -0.0, -0.04999999999999982)"><g><g><g style="fill: #c4bedf;stroke: #000000;stroke-width: 1.536;" transform="matrix(1.0, 0.0, 0.0, 1.0, -20.25, -4.75)"><path d="M 0.0 0.0 L 0.0 9.5 A 0.5000000000000001 0.5000000000000001 135.00000000000003 0 0 0.5 10.0 L 40.0 10.0 A 0.5000000000000001 0.5000000000000001 45.000000000000014 0 0 40.5 9.5 L 40.5 0.0 A 0.5000000000000001 0.5000000000000001 -44.999999999999986 0 0 40.0 -0.5000000000000002 L 0.5 -0.5000000000000002 A 0.5000000000000001 0.5000000000000001 -135.0 0 0 -2.220446049250313e-16 -2.220446049250313e-16 L -2.220446049250313e-16 0.009999999999999778 Z" style="vector-effect: non-scaling-stroke;" /></g><g transform="matrix(1.0, 0.0, 0.0, 1.0, 0.0, 0.625)"><g><g style="fill: #000000;stroke: #000000;stroke-width: 0.0;" transform="matrix(1.0, 0.0, 0.0, 1.0, 0.0, 0.0)"><text style="text-align:center; text-anchor:middle; dominant-baseline:middle;&#10;                      font-family:sans-serif; font-weight: bold;&#10;                      font-size:6.666666666666667px;&#10;                      vector-effect: non-scaling-stroke;" transform="translate(-5e-05, 0)">MatMul</text></g><g /></g></g></g></g></g><g style="stroke: black;stroke-width: 1.536;" transform="matrix(0.0, -1.0, 1.0, 0.0, 0.0, 7.8)"><g /></g></g><g transform="matrix(1.0, 0.0, 0.0, 1.0, 0.0, 15.600000000000001)"><g transform="matrix(1.0, 0.0, 0.0, 1.0, -10.25, -0.04999999999999982)"><g><g><g><g><g style="fill: #cce7cf;stroke: #000000;stroke-width: 1.536;" transform="matrix(1.0, 0.0, 0.0, 1.0, -20.25, -4.75)"><path d="M 0.0 0.0 L 0.0 9.5 A 0.5000000000000001 0.5000000000000001 135.00000000000003 0 0 0.5 10.0 L 40.0 10.0 A 0.5000000000000001 0.5000000000000001 45.000000000000014 0 0 40.5 9.5 L 40.5 0.0 A 0.5000000000000001 0.5000000000000001 -44.999999999999986 0 0 40.0 -0.5000000000000002 L 0.5 -0.5000000000000002 A 0.5000000000000001 0.5000000000000001 -135.0 0 0 -2.220446049250313e-16 -2.220446049250313e-16 L -2.220446049250313e-16 0.009999999999999778 Z" style="vector-effect: non-scaling-stroke;" /></g><g transform="matrix(1.0, 0.0, 0.0, 1.0, 0.0, 0.625)"><g><g style="fill: #000000;stroke: #000000;stroke-width: 0.0;" transform="matrix(1.0, 0.0, 0.0, 1.0, 0.0, 0.0)"><text style="text-align:center; text-anchor:middle; dominant-baseline:middle;&#10;                      font-family:sans-serif; font-weight: bold;&#10;                      font-size:6.666666666666667px;&#10;                      vector-effect: non-scaling-stroke;" transform="translate(-5e-05, 0)">SoftMax</text></g><g /></g></g></g></g><g style="stroke: black;stroke-width: 1.536;" transform="matrix(1.0, 0.0, 0.0, 1.0, 25.25, 0.0)"><g /></g></g><g transform="matrix(1.0, 0.0, 0.0, 1.0, 35.5, 0.0)"><g><g /><g /></g></g></g></g></g></g><g style="stroke: black;stroke-width: 1.536;" transform="matrix(0.0, -1.0, 1.0, 0.0, 0.0, 23.4)"><g /></g></g><g transform="matrix(1.0, 0.0, 0.0, 1.0, 0.0, 31.2)"><g transform="matrix(1.0, 0.0, 0.0, 1.0, -10.25, -0.04999999999999982)"><g><g><g><g><g style="fill: #f9cbdf;stroke: #000000;stroke-width: 1.536;" transform="matrix(1.0, 0.0, 0.0, 1.0, -20.25, -4.75)"><path d="M 0.0 0.0 L 0.0 9.5 A 0.5000000000000001 0.5000000000000001 135.00000000000003 0 0 0.5 10.0 L 40.0 10.0 A 0.5000000000000001 0.5000000000000001 45.000000000000014 0 0 40.5 9.5 L 40.5 0.0 A 0.5000000000000001 0.5000000000000001 -44.999999999999986 0 0 40.0 -0.5000000000000002 L 0.5 -0.5000000000000002 A 0.5000000000000001 0.5000000000000001 -135.0 0 0 -2.220446049250313e-16 -2.220446049250313e-16 L -2.220446049250313e-16 0.009999999999999778 Z" style="vector-effect: non-scaling-stroke;" /></g><g transform="matrix(1.0, 0.0, 0.0, 1.0, 0.0, 0.625)"><g><g style="fill: #000000;stroke: #000000;stroke-width: 0.0;" transform="matrix(1.0, 0.0, 0.0, 1.0, 0.0, 0.0)"><text style="text-align:center; text-anchor:middle; dominant-baseline:middle;&#10;                      font-family:sans-serif; font-weight: bold;&#10;                      font-size:6.666666666666667px;&#10;                      vector-effect: non-scaling-stroke;" transform="translate(-5e-05, 0)">Mask (opt)</text></g><g /></g></g></g></g><g style="stroke: black;stroke-width: 1.536;" transform="matrix(1.0, 0.0, 0.0, 1.0, 25.25, 0.0)"><g /></g></g><g transform="matrix(1.0, 0.0, 0.0, 1.0, 35.5, 0.0)"><g><g /><g /></g></g></g></g></g></g><g style="stroke: black;stroke-width: 1.536;" transform="matrix(0.0, -1.0, 1.0, 0.0, 0.0, 39.0)"><g /></g></g><g transform="matrix(1.0, 0.0, 0.0, 1.0, 0.0, 46.8)"><g transform="matrix(1.0, 0.0, 0.0, 1.0, -10.25, -0.04999999999999982)"><g><g><g><g><g style="fill: #fef9c1;stroke: #000000;stroke-width: 1.536;" transform="matrix(1.0, 0.0, 0.0, 1.0, -20.25, -4.75)"><path d="M 0.0 0.0 L 0.0 9.5 A 0.5000000000000001 0.5000000000000001 135.00000000000003 0 0 0.5 10.0 L 40.0 10.0 A 0.5000000000000001 0.5000000000000001 45.000000000000014 0 0 40.5 9.5 L 40.5 0.0 A 0.5000000000000001 0.5000000000000001 -44.999999999999986 0 0 40.0 -0.5000000000000002 L 0.5 -0.5000000000000002 A 0.5000000000000001 0.5000000000000001 -135.0 0 0 -2.220446049250313e-16 -2.220446049250313e-16 L -2.220446049250313e-16 0.009999999999999778 Z" style="vector-effect: non-scaling-stroke;" /></g><g transform="matrix(1.0, 0.0, 0.0, 1.0, 0.0, 0.625)"><g><g style="fill: #000000;stroke: #000000;stroke-width: 0.0;" transform="matrix(1.0, 0.0, 0.0, 1.0, 0.0, 0.0)"><text style="text-align:center; text-anchor:middle; dominant-baseline:middle;&#10;                      font-family:sans-serif; font-weight: bold;&#10;                      font-size:6.666666666666667px;&#10;                      vector-effect: non-scaling-stroke;" transform="translate(-5e-05, 0)">Scale</text></g><g /></g></g></g></g><g style="stroke: black;stroke-width: 1.536;" transform="matrix(1.0, 0.0, 0.0, 1.0, 25.25, 0.0)"><g /></g></g><g transform="matrix(1.0, 0.0, 0.0, 1.0, 35.5, 0.0)"><g><g /><g /></g></g></g></g></g></g><g style="stroke: black;stroke-width: 1.536;" transform="matrix(0.0, -1.0, 1.0, 0.0, 0.0, 54.6)"><g /></g></g><g transform="matrix(1.0, 0.0, 0.0, 1.0, 0.0, 62.4)"><g transform="matrix(1.0, 0.0, 0.0, 1.0, -10.25, -0.04999999999999982)"><g><g><g><g><g style="fill: #c4bedf;stroke: #000000;stroke-width: 1.536;" transform="matrix(1.0, 0.0, 0.0, 1.0, -20.25, -4.75)"><path d="M 0.0 0.0 L 0.0 9.5 A 0.5000000000000001 0.5000000000000001 135.00000000000003 0 0 0.5 10.0 L 40.0 10.0 A 0.5000000000000001 0.5000000000000001 45.000000000000014 0 0 40.5 9.5 L 40.5 0.0 A 0.5000000000000001 0.5000000000000001 -44.999999999999986 0 0 40.0 -0.5000000000000002 L 0.5 -0.5000000000000002 A 0.5000000000000001 0.5000000000000001 -135.0 0 0 -2.220446049250313e-16 -2.220446049250313e-16 L -2.220446049250313e-16 0.009999999999999778 Z" style="vector-effect: non-scaling-stroke;" /></g><g transform="matrix(1.0, 0.0, 0.0, 1.0, 0.0, 0.625)"><g><g style="fill: #000000;stroke: #000000;stroke-width: 0.0;" transform="matrix(1.0, 0.0, 0.0, 1.0, 0.0, 0.0)"><text style="text-align:center; text-anchor:middle; dominant-baseline:middle;&#10;                      font-family:sans-serif; font-weight: bold;&#10;                      font-size:6.666666666666667px;&#10;                      vector-effect: non-scaling-stroke;" transform="translate(-5e-05, 0)">MatMul</text></g><g /></g></g></g></g><g style="stroke: black;stroke-width: 1.536;" transform="matrix(1.0, 0.0, 0.0, 1.0, 25.25, 0.0)"><g /></g></g><g transform="matrix(1.0, 0.0, 0.0, 1.0, 35.5, 0.0)"><g><g /><g /></g></g></g></g></g></g><g style="stroke: black;stroke-width: 1.536;" transform="matrix(0.0, -1.0, 1.0, 0.0, 0.0, 70.2)"><g /></g></g><g transform="matrix(1.0, 0.0, 0.0, 1.0, 0.0, 78.0)"><g transform="matrix(1.0, 0.0, 0.0, 1.0, -17.5, -0.04999999999999982)"><g><g><g><g><g><g><g style="fill: #ffffff;stroke: #000000;stroke-width: 0.0;" transform="matrix(1.0, 0.0, 0.0, 1.0, -5.25, -4.75)"><path d="M 0.0 0.0 L 0.0 9.5 A 0.5000000000000001 0.5000000000000001 135.00000000000003 0 0 0.5 10.0 L 10.0 10.0 A 0.5000000000000001 0.5000000000000001 45.000000000000014 0 0 10.5 9.5 L 10.5 0.0 A 0.5000000000000001 0.5000000000000001 -44.999999999999986 0 0 10.0 -0.5000000000000002 L 0.5 -0.5000000000000002 A 0.5000000000000001 0.5000000000000001 -135.0 0 0 -2.220446049250313e-16 -2.220446049250313e-16 L -2.220446049250313e-16 0.009999999999999778 Z" style="vector-effect: non-scaling-stroke;" /></g><g transform="matrix(1.0, 0.0, 0.0, 1.0, 0.0, 0.625)"><g><g style="fill: #000000;stroke: #000000;stroke-width: 0.0;" transform="matrix(1.0, 0.0, 0.0, 1.0, 0.0, 0.0)"><text style="text-align:center; text-anchor:middle; dominant-baseline:middle;&#10;                      font-family:sans-serif; font-weight: bold;&#10;                      font-size:6.666666666666667px;&#10;                      vector-effect: non-scaling-stroke;" transform="translate(-5e-05, 0)">Q</text></g><g /></g></g></g></g><g style="stroke: black;stroke-width: 1.536;" transform="matrix(1.0, 0.0, 0.0, 1.0, 8.75, 0.0)"><g /></g></g><g transform="matrix(1.0, 0.0, 0.0, 1.0, 17.5, 0.0)"><g><g><g style="fill: #ffffff;stroke: #000000;stroke-width: 0.0;" transform="matrix(1.0, 0.0, 0.0, 1.0, -5.25, -4.75)"><path d="M 0.0 0.0 L 0.0 9.5 A 0.5000000000000001 0.5000000000000001 135.00000000000003 0 0 0.5 10.0 L 10.0 10.0 A 0.5000000000000001 0.5000000000000001 45.000000000000014 0 0 10.5 9.5 L 10.5 0.0 A 0.5000000000000001 0.5000000000000001 -44.999999999999986 0 0 10.0 -0.5000000000000002 L 0.5 -0.5000000000000002 A 0.5000000000000001 0.5000000000000001 -135.0 0 0 -2.220446049250313e-16 -2.220446049250313e-16 L -2.220446049250313e-16 0.009999999999999778 Z" style="vector-effect: non-scaling-stroke;" /></g><g transform="matrix(1.0, 0.0, 0.0, 1.0, 0.0, 0.625)"><g><g style="fill: #000000;stroke: #000000;stroke-width: 0.0;" transform="matrix(1.0, 0.0, 0.0, 1.0, 0.0, 0.0)"><text style="text-align:center; text-anchor:middle; dominant-baseline:middle;&#10;                      font-family:sans-serif; font-weight: bold;&#10;                      font-size:6.666666666666667px;&#10;                      vector-effect: non-scaling-stroke;" transform="translate(-5e-05, 0)">K</text></g><g /></g></g></g></g></g></g><g style="stroke: black;stroke-width: 1.536;" transform="matrix(1.0, 0.0, 0.0, 1.0, 26.25, 0.0)"><g /></g></g><g transform="matrix(1.0, 0.0, 0.0, 1.0, 35.0, 0.0)"><g><g><g style="fill: #ffffff;stroke: #000000;stroke-width: 0.0;" transform="matrix(1.0, 0.0, 0.0, 1.0, -5.25, -4.75)"><path d="M 0.0 0.0 L 0.0 9.5 A 0.5000000000000001 0.5000000000000001 135.00000000000003 0 0 0.5 10.0 L 10.0 10.0 A 0.5000000000000001 0.5000000000000001 45.000000000000014 0 0 10.5 9.5 L 10.5 0.0 A 0.5000000000000001 0.5000000000000001 -44.999999999999986 0 0 10.0 -0.5000000000000002 L 0.5 -0.5000000000000002 A 0.5000000000000001 0.5000000000000001 -135.0 0 0 -2.220446049250313e-16 -2.220446049250313e-16 L -2.220446049250313e-16 0.009999999999999778 Z" style="vector-effect: non-scaling-stroke;" /></g><g transform="matrix(1.0, 0.0, 0.0, 1.0, 0.0, 0.625)"><g><g style="fill: #000000;stroke: #000000;stroke-width: 0.0;" transform="matrix(1.0, 0.0, 0.0, 1.0, 0.0, 0.0)"><text style="text-align:center; text-anchor:middle; dominant-baseline:middle;&#10;                      font-family:sans-serif; font-weight: bold;&#10;                      font-size:6.666666666666667px;&#10;                      vector-effect: non-scaling-stroke;" transform="translate(-5e-05, 0)">V</text></g><g /></g></g></g></g></g></g></g></g></g><g transform="matrix(1.0, 0.0, 0.0, 1.0, -17.5, 72.7)"><g><g style="stroke: black;stroke-width: 1.536;" transform="matrix(1.0, 0.0, 0.0, 1.0, 0.0, 0.0)"><path d="M 0.0 0.0 L 0.0 0.0 L 0.0 -5.1000000000000085" style="vector-effect: non-scaling-stroke;fill:none;" /></g><g style="fill: #000000;stroke: black;stroke-width: 0.0;" transform="matrix(1.0, 0.0, 0.0, 1.0, 0.0, -3.9000000000000083)"><path d="M 0.0 -0.2 L 1.0 0.2 L 0.0 -1.2 L -1.0 0.19999999999999996 L 0.0 -0.2 Z" style="vector-effect: non-scaling-stroke;" /></g></g></g></g><g transform="matrix(1.0, 0.0, 0.0, 1.0, 0.0, 72.7)"><g><g style="stroke: black;stroke-width: 1.536;" transform="matrix(1.0, 0.0, 0.0, 1.0, 0.0, 0.0)"><path d="M 0.0 0.0 L 0.0 0.0 L 0.0 -5.1000000000000085" style="vector-effect: non-scaling-stroke;fill:none;" /></g><g style="fill: #000000;stroke: black;stroke-width: 0.0;" transform="matrix(1.0, 0.0, 0.0, 1.0, 0.0, -3.9000000000000083)"><path d="M 0.0 -0.2 L 1.0 0.2 L 0.0 -1.2 L -1.0 0.19999999999999996 L 0.0 -0.2 Z" style="vector-effect: non-scaling-stroke;" /></g></g></g></g><g transform="matrix(1.0, 0.0, 0.0, 1.0, 17.5, 72.7)"><g><g style="stroke: black;stroke-width: 1.536;" transform="matrix(1.0, 0.0, 0.0, 1.0, 0.0, 0.0)"><path d="M 0.0 0.0 L 0.0 0.0 L 0.0 -67.5" style="vector-effect: non-scaling-stroke;fill:none;" /></g><g style="fill: #000000;stroke: black;stroke-width: 0.0;" transform="matrix(1.0, 0.0, 0.0, 1.0, 0.0, -66.3)"><path d="M 0.0 -0.2 L 1.0 0.2 L 0.0 -1.2 L -1.0 0.19999999999999996 L 0.0 -0.2 Z" style="vector-effect: non-scaling-stroke;" /></g></g></g></g><g transform="matrix(1.0, 0.0, 0.0, 1.0, -10.25, 57.1)"><g><g style="stroke: black;stroke-width: 1.536;" transform="matrix(1.0, 0.0, 0.0, 1.0, 0.0, 0.0)"><path d="M 0.0 0.0 L 0.0 0.0 L 0.0 -5.100000000000001" style="vector-effect: non-scaling-stroke;fill:none;" /></g><g style="fill: #000000;stroke: black;stroke-width: 0.0;" transform="matrix(1.0, 0.0, 0.0, 1.0, 0.0, -3.9000000000000012)"><path d="M 0.0 -0.2 L 1.0 0.2 L 0.0 -1.2 L -1.0 0.19999999999999996 L 0.0 -0.2 Z" style="vector-effect: non-scaling-stroke;" /></g></g></g></g><g transform="matrix(1.0, 0.0, 0.0, 1.0, -10.25, 41.5)"><g><g style="stroke: black;stroke-width: 1.536;" transform="matrix(1.0, 0.0, 0.0, 1.0, 0.0, 0.0)"><path d="M 0.0 0.0 L 0.0 0.0 L 0.0 -5.100000000000001" style="vector-effect: non-scaling-stroke;fill:none;" /></g><g style="fill: #000000;stroke: black;stroke-width: 0.0;" transform="matrix(1.0, 0.0, 0.0, 1.0, 0.0, -3.9000000000000012)"><path d="M 0.0 -0.2 L 1.0 0.2 L 0.0 -1.2 L -1.0 0.19999999999999996 L 0.0 -0.2 Z" style="vector-effect: non-scaling-stroke;" /></g></g></g></g><g transform="matrix(1.0, 0.0, 0.0, 1.0, -10.25, 25.9)"><g><g style="stroke: black;stroke-width: 1.536;" transform="matrix(1.0, 0.0, 0.0, 1.0, 0.0, 0.0)"><path d="M 0.0 0.0 L 0.0 0.0 L 0.0 -5.099999999999998" style="vector-effect: non-scaling-stroke;fill:none;" /></g><g style="fill: #000000;stroke: black;stroke-width: 0.0;" transform="matrix(1.0, 0.0, 0.0, 1.0, 0.0, -3.8999999999999977)"><path d="M 0.0 -0.2 L 1.0 0.2 L 0.0 -1.2 L -1.0 0.19999999999999996 L 0.0 -0.2 Z" style="vector-effect: non-scaling-stroke;" /></g></g></g></g><g transform="matrix(1.0, 0.0, 0.0, 1.0, -10.25, 10.3)"><g><g style="stroke: black;stroke-width: 1.536;" transform="matrix(1.0, 0.0, 0.0, 1.0, 0.0, 0.0)"><path d="M 0.0 0.0 L 0.0 0.0 L 0.0 -5.1000000000000005" style="vector-effect: non-scaling-stroke;fill:none;" /></g><g style="fill: #000000;stroke: black;stroke-width: 0.0;" transform="matrix(1.0, 0.0, 0.0, 1.0, 0.0, -3.9000000000000004)"><path d="M 0.0 -0.2 L 1.0 0.2 L 0.0 -1.2 L -1.0 0.19999999999999996 L 0.0 -0.2 Z" style="vector-effect: non-scaling-stroke;" /></g></g></g></g><g transform="matrix(1.0, 0.0, 0.0, 1.0, 0.0, -5.3)"><g><g style="stroke: black;stroke-width: 1.536;" transform="matrix(1.0, 0.0, 0.0, 1.0, 0.0, 0.0)"><path d="M 0.0 0.0 L 0.0 0.0 L 0.0 -5.0" style="vector-effect: non-scaling-stroke;fill:none;" /></g><g style="fill: #000000;stroke: black;stroke-width: 0.0;" transform="matrix(1.0, 0.0, 0.0, 1.0, 0.0, -3.8)"><path d="M 0.0 -0.2 L 1.0 0.2 L 0.0 -1.2 L -1.0 0.19999999999999996 L 0.0 -0.2 Z" style="vector-effect: non-scaling-stroke;" /></g></g></g></g></g><g /></g></g></g></g></svg>