<?xml version="1.0" encoding="utf-8" ?>
<svg baseProfile="full" height="512" version="1.1" width="724" xmlns="http://www.w3.org/2000/svg" xmlns:ev="http://www.w3.org/2001/xml-events" xmlns:xlink="http://www.w3.org/1999/xlink"><defs><marker id="arrow" markerHeight="3.5" markerWidth="5" orient="auto" refX="5.0" refY="1.7"><polygon points="0,0 5,1.75 0,3.5" /></marker></defs><g style="fill:white;"><g transform="matrix(1.0, 0.0, 0.0, 1.0, 362.3091247672252, 256.0)"><g transform="matrix(22.701072980402582, 0.0, 0.0, 22.701072980402582, 0.0, 0.0)"><g><g transform="matrix(1.0, 0.0, 0.0, 1.0, -0.0, 0.46999999999999975)"><g><g><g><g><g><g><g><g><g><g><g><g style="fill: #e1f7d0;stroke: #6d8759;stroke-width: 2.172;" transform="matrix(1.05, 0.0, 0.0, 1.05, -10.158750000000001, -7.544250000000001)"><path d="M 0.0 0.0 L 0.0 14.370000000000001 A 0.05000000000000002 0.05000000000000002 135.00000000000003 0 0 0.05000000000000002 14.420000000000002 L 19.3 14.420000000000002 A 0.05000000000000002 0.05000000000000002 45.00000000000002 0 0 19.35 14.370000000000001 L 19.35 0.0 A 0.05000000000000002 0.05000000000000002 -44.999999999999986 0 0 19.3 -0.05000000000000003 L 0.05000000000000071 -0.05000000000000003 A 0.05000000000000002 0.05000000000000002 -135.0 0 0 6.800116025829084e-16 -1.3877787807814457e-17 L 6.800116025829084e-16 0.009999999999999986 Z" style="vector-effect: non-scaling-stroke;" /></g><g transform="matrix(1.0, 0.0, 0.0, 1.0, -7.1, -2.1)"><g><g><g><g><g><g><g><g><g><g><g><g><g><g><g><g><g><g><g style="fill: #f5ee9c;stroke: #000000;stroke-width: 1.086;" transform="matrix(1.0, 0.0, 0.0, 1.0, 1.0, 0.0)"><path d="M 0.0 0.0 A 1.0 1.0 0.0 0 0 -1.0 -1.0 A 1.0 1.0 -90.0 0 0 -2.0 0.0 A 1.0 1.0 180.0 0 0 -1.0 1.0 A 1.0 1.0 90.0 0 0 0.0 0.0 Z" style="vector-effect: non-scaling-stroke;" /></g><g transform="matrix(1.0, 0.0, 0.0, 1.0, 0.0, 0.0625)"><g><g style="fill: #000000;stroke: #000000;stroke-width: 0.0;" transform="matrix(2.0, 0.0, 0.0, 2.0, 0.0, 0.0)"><g transform="scale(0.05) translate(-6.709 -6.1555)"><g>
<defs>
<g>
<g id="embed--3319634500792001675-glyph-0-0">
</g>
<g id="embed--3319634500792001675-glyph-0-1">
<path d="M 3.875 -2.765625 L 1.890625 -4.75 C 1.765625 -4.875 1.75 -4.890625 1.671875 -4.890625 C 1.5625 -4.890625 1.46875 -4.8125 1.46875 -4.6875 C 1.46875 -4.625 1.484375 -4.609375 1.59375 -4.5 L 3.59375 -2.5 L 1.59375 -0.484375 C 1.484375 -0.375 1.46875 -0.359375 1.46875 -0.296875 C 1.46875 -0.171875 1.5625 -0.09375 1.671875 -0.09375 C 1.75 -0.09375 1.765625 -0.109375 1.890625 -0.234375 L 3.875 -2.21875 L 5.9375 -0.15625 C 5.953125 -0.140625 6.015625 -0.09375 6.078125 -0.09375 C 6.203125 -0.09375 6.28125 -0.171875 6.28125 -0.296875 C 6.28125 -0.3125 6.28125 -0.34375 6.25 -0.40625 C 6.234375 -0.421875 4.65625 -1.984375 4.15625 -2.5 L 5.984375 -4.3125 C 6.03125 -4.375 6.1875 -4.5 6.234375 -4.5625 C 6.234375 -4.578125 6.28125 -4.625 6.28125 -4.6875 C 6.28125 -4.8125 6.203125 -4.890625 6.078125 -4.890625 C 6 -4.890625 5.96875 -4.859375 5.859375 -4.75 Z M 3.875 -2.765625 " />
</g>
</g>
</defs>
<g fill="rgb(0%, 0%, 0%)" fill-opacity="1">
<use href="#embed--3319634500792001675-glyph-0-1" x="2.835" y="8.646" />
</g>
</g></g></g><g /></g></g></g><g /></g></g><g style="stroke: black;stroke-width: 2.172;" transform="matrix(1.0, 0.0, 0.0, 1.0, 3.55, 0.0)"><g /></g></g><g transform="matrix(1.0, 0.0, 0.0, 1.0, 7.1, 0.0)"><g><g /><g /></g></g></g><g style="stroke: black;stroke-width: 2.172;" transform="matrix(1.0, 0.0, 0.0, 1.0, 10.649999999999999, 0.0)"><g /></g></g><g transform="matrix(1.0, 0.0, 0.0, 1.0, 14.2, 0.0)"><g><g><g><g style="fill: #f5ee9c;stroke: #000000;stroke-width: 1.086;" transform="matrix(1.0, 0.0, 0.0, 1.0, 1.0, 0.0)"><path d="M 0.0 0.0 A 1.0 1.0 0.0 0 0 -1.0 -1.0 A 1.0 1.0 -90.0 0 0 -2.0 0.0 A 1.0 1.0 180.0 0 0 -1.0 1.0 A 1.0 1.0 90.0 0 0 0.0 0.0 Z" style="vector-effect: non-scaling-stroke;" /></g><g transform="matrix(1.0, 0.0, 0.0, 1.0, 0.0, 0.0625)"><g><g style="fill: #000000;stroke: #000000;stroke-width: 0.0;" transform="matrix(2.0, 0.0, 0.0, 2.0, 0.0, 0.0)"><g transform="scale(0.05) translate(-6.709 -6.1555)"><g>
<defs>
<g>
<g id="embed-4776196336691715116-glyph-0-0">
</g>
<g id="embed-4776196336691715116-glyph-0-1">
<path d="M 4.078125 -2.296875 L 6.859375 -2.296875 C 7 -2.296875 7.1875 -2.296875 7.1875 -2.5 C 7.1875 -2.6875 7 -2.6875 6.859375 -2.6875 L 4.078125 -2.6875 L 4.078125 -5.484375 C 4.078125 -5.625 4.078125 -5.8125 3.875 -5.8125 C 3.671875 -5.8125 3.671875 -5.625 3.671875 -5.484375 L 3.671875 -2.6875 L 0.890625 -2.6875 C 0.75 -2.6875 0.5625 -2.6875 0.5625 -2.5 C 0.5625 -2.296875 0.75 -2.296875 0.890625 -2.296875 L 3.671875 -2.296875 L 3.671875 0.5 C 3.671875 0.640625 3.671875 0.828125 3.875 0.828125 C 4.078125 0.828125 4.078125 0.640625 4.078125 0.5 Z M 4.078125 -2.296875 " />
</g>
</g>
</defs>
<g fill="rgb(0%, 0%, 0%)" fill-opacity="1">
<use href="#embed-4776196336691715116-glyph-0-1" x="2.835" y="8.646" />
</g>
</g></g></g><g /></g></g></g><g /></g></g></g></g><g style="stroke: black;stroke-width: 2.172;" transform="matrix(0.0, -1.0, 1.0, 0.0, 0.0, 2.07)"><g /></g></g><g transform="matrix(1.0, 0.0, 0.0, 1.0, 0.0, 4.12)"><g><g><g><g><g><g><g style="fill: #ffffff;stroke: #000000;stroke-width: 1.086;" transform="matrix(1.0, 0.0, 0.0, 1.0, -2.55, -0.95)"><path d="M 0.0 0.0 L 0.0 1.9 A 0.10000000000000003 0.10000000000000003 135.00000000000003 0 0 0.10000000000000003 2.0 L 5.0 2.0 A 0.10000000000000003 0.10000000000000003 45.00000000000002 0 0 5.1 1.9 L 5.1 0.0 A 0.10000000000000003 0.10000000000000003 -44.999999999999986 0 0 5.0 -0.10000000000000006 L 0.09999999999999964 -0.10000000000000006 A 0.10000000000000003 0.10000000000000003 -135.0 0 0 -4.163336342344337e-16 -2.7755575615628914e-17 L -4.163336342344337e-16 0.009999999999999972 Z" style="vector-effect: non-scaling-stroke;" /></g><g transform="matrix(1.0, 0.0, 0.0, 1.0, 0.0, 0.125)"><g><g style="fill: #000000;stroke: #000000;stroke-width: 0.0;" transform="matrix(2.0, 0.0, 0.0, 2.0, 0.0, 0.0)"><g transform="scale(0.05) translate(-17.056 -7.7195)"><g>
<defs>
<g>
<g id="embed--8560087908085322020-glyph-0-0">
</g>
<g id="embed--8560087908085322020-glyph-0-1">
<path d="M 9.140625 -5.65625 C 9.390625 -6.09375 9.625 -6.453125 10.265625 -6.5 C 10.34375 -6.515625 10.453125 -6.515625 10.453125 -6.703125 C 10.453125 -6.734375 10.40625 -6.8125 10.328125 -6.8125 C 10.09375 -6.8125 9.8125 -6.78125 9.5625 -6.78125 C 9.21875 -6.78125 8.859375 -6.8125 8.515625 -6.8125 C 8.46875 -6.8125 8.328125 -6.8125 8.328125 -6.625 C 8.328125 -6.515625 8.421875 -6.5 8.484375 -6.5 C 8.71875 -6.484375 9.078125 -6.40625 9.078125 -6.109375 C 9.078125 -6 9.015625 -5.921875 8.9375 -5.78125 L 6.25 -1.09375 L 5.875 -6.03125 C 5.875 -6.234375 5.859375 -6.484375 6.578125 -6.5 C 6.75 -6.5 6.84375 -6.5 6.84375 -6.703125 C 6.84375 -6.796875 6.734375 -6.8125 6.703125 -6.8125 C 6.296875 -6.8125 5.875 -6.78125 5.484375 -6.78125 C 5.25 -6.78125 4.671875 -6.8125 4.4375 -6.8125 C 4.375 -6.8125 4.25 -6.8125 4.25 -6.609375 C 4.25 -6.5 4.34375 -6.5 4.484375 -6.5 C 4.921875 -6.5 5 -6.4375 5.015625 -6.25 L 5.078125 -5.484375 L 2.546875 -1.09375 L 2.171875 -6.140625 C 2.171875 -6.265625 2.171875 -6.484375 2.9375 -6.5 C 3.03125 -6.5 3.140625 -6.5 3.140625 -6.703125 C 3.140625 -6.8125 3.015625 -6.8125 3 -6.8125 C 2.609375 -6.8125 2.1875 -6.78125 1.78125 -6.78125 C 1.421875 -6.78125 1.0625 -6.8125 0.734375 -6.8125 C 0.671875 -6.8125 0.546875 -6.8125 0.546875 -6.625 C 0.546875 -6.5 0.640625 -6.5 0.796875 -6.5 C 1.296875 -6.5 1.3125 -6.40625 1.328125 -6.125 L 1.78125 -0.046875 C 1.78125 0.140625 1.796875 0.21875 1.9375 0.21875 C 2.046875 0.21875 2.078125 0.15625 2.171875 0.015625 L 5.109375 -5.078125 L 5.46875 -0.046875 C 5.5 0.171875 5.515625 0.21875 5.625 0.21875 C 5.765625 0.21875 5.828125 0.125 5.875 0.03125 Z M 9.140625 -5.65625 " />
</g>
<g id="embed--8560087908085322020-glyph-0-2">
<path d="M 2.375 -6.8125 C 2.375 -6.8125 2.375 -6.921875 2.25 -6.921875 C 2.03125 -6.921875 1.296875 -6.84375 1.03125 -6.8125 C 0.953125 -6.8125 0.84375 -6.796875 0.84375 -6.625 C 0.84375 -6.5 0.9375 -6.5 1.09375 -6.5 C 1.5625 -6.5 1.578125 -6.4375 1.578125 -6.328125 C 1.578125 -6.265625 1.5 -5.921875 1.453125 -5.71875 L 0.625 -2.46875 C 0.515625 -1.96875 0.46875 -1.796875 0.46875 -1.453125 C 0.46875 -0.515625 1 0.109375 1.734375 0.109375 C 2.90625 0.109375 4.140625 -1.375 4.140625 -2.8125 C 4.140625 -3.71875 3.609375 -4.40625 2.8125 -4.40625 C 2.359375 -4.40625 1.9375 -4.109375 1.640625 -3.8125 Z M 1.453125 -3.046875 C 1.5 -3.265625 1.5 -3.28125 1.59375 -3.390625 C 2.078125 -4.03125 2.53125 -4.1875 2.796875 -4.1875 C 3.15625 -4.1875 3.421875 -3.890625 3.421875 -3.25 C 3.421875 -2.65625 3.09375 -1.515625 2.90625 -1.140625 C 2.578125 -0.46875 2.125 -0.109375 1.734375 -0.109375 C 1.390625 -0.109375 1.0625 -0.375 1.0625 -1.109375 C 1.0625 -1.3125 1.0625 -1.5 1.21875 -2.125 Z M 1.453125 -3.046875 " />
</g>
<g id="embed--8560087908085322020-glyph-1-0">
</g>
<g id="embed--8560087908085322020-glyph-1-1">
<path d="M 2.84375 -2.75 L 3.515625 -2.75 C 3.65625 -2.75 3.75 -2.75 3.75 -2.90625 C 3.75 -3 3.65625 -3 3.53125 -3 L 2.890625 -3 C 3.046875 -3.890625 3.09375 -4.203125 3.15625 -4.40625 C 3.1875 -4.5625 3.34375 -4.703125 3.515625 -4.703125 C 3.515625 -4.703125 3.703125 -4.703125 3.84375 -4.625 C 3.546875 -4.53125 3.53125 -4.28125 3.53125 -4.25 C 3.53125 -4.09375 3.65625 -3.984375 3.8125 -3.984375 C 4 -3.984375 4.203125 -4.140625 4.203125 -4.40625 C 4.203125 -4.734375 3.875 -4.90625 3.515625 -4.90625 C 3.203125 -4.90625 2.859375 -4.734375 2.671875 -4.390625 C 2.53125 -4.125 2.484375 -3.8125 2.328125 -3 L 1.78125 -3 C 1.640625 -3 1.546875 -3 1.546875 -2.84375 C 1.546875 -2.75 1.640625 -2.75 1.765625 -2.75 L 2.28125 -2.75 C 2.28125 -2.703125 1.84375 -0.203125 1.671875 0.546875 C 1.640625 0.703125 1.515625 1.21875 1.1875 1.21875 C 1.171875 1.21875 1.015625 1.21875 0.875 1.140625 C 1.15625 1.046875 1.1875 0.796875 1.1875 0.765625 C 1.1875 0.609375 1.0625 0.5 0.90625 0.5 C 0.71875 0.5 0.515625 0.65625 0.515625 0.921875 C 0.515625 1.234375 0.84375 1.421875 1.1875 1.421875 C 1.625 1.421875 1.9375 0.96875 2.015625 0.8125 C 2.265625 0.34375 2.4375 -0.515625 2.453125 -0.59375 Z M 2.84375 -2.75 " />
</g>
<g id="embed--8560087908085322020-glyph-2-0">
</g>
<g id="embed--8560087908085322020-glyph-2-1">
<path d="M 1.90625 -3.765625 C 1.90625 -4.0625 1.671875 -4.296875 1.390625 -4.296875 C 1.09375 -4.296875 0.859375 -4.0625 0.859375 -3.765625 C 0.859375 -3.484375 1.09375 -3.234375 1.390625 -3.234375 C 1.671875 -3.234375 1.90625 -3.484375 1.90625 -3.765625 Z M 1.71875 -0.109375 C 1.71875 0.171875 1.71875 0.953125 1.09375 1.6875 C 1.015625 1.765625 1.015625 1.78125 1.015625 1.8125 C 1.015625 1.890625 1.0625 1.921875 1.109375 1.921875 C 1.21875 1.921875 1.9375 1.125 1.9375 -0.03125 C 1.9375 -0.3125 1.921875 -1.0625 1.390625 -1.0625 C 1.03125 -1.0625 0.859375 -0.78125 0.859375 -0.53125 C 0.859375 -0.265625 1.03125 0 1.390625 0 C 1.4375 0 1.453125 0 1.46875 -0.015625 C 1.53125 -0.015625 1.640625 -0.046875 1.71875 -0.109375 Z M 1.71875 -0.109375 " />
</g>
</g>
</defs>
<g fill="rgb(0%, 0%, 0%)" fill-opacity="1">
<use href="#embed--8560087908085322020-glyph-0-1" x="2.835" y="9.754" />
</g>
<g fill="rgb(0%, 0%, 0%)" fill-opacity="1">
<use href="#embed--8560087908085322020-glyph-1-1" x="12.244" y="11.248" />
</g>
<g fill="rgb(0%, 0%, 0%)" fill-opacity="1">
<use href="#embed--8560087908085322020-glyph-2-1" x="17.409" y="9.754" />
</g>
<g fill="rgb(0%, 0%, 0%)" fill-opacity="1">
<use href="#embed--8560087908085322020-glyph-0-2" x="21.837" y="9.754" />
</g>
<g fill="rgb(0%, 0%, 0%)" fill-opacity="1">
<use href="#embed--8560087908085322020-glyph-1-1" x="26.112" y="11.248" />
</g>
</g></g></g><g /></g></g></g></g><g style="stroke: black;stroke-width: 2.172;" transform="matrix(1.0, 0.0, 0.0, 1.0, 3.55, 0.0)"><g /></g></g><g transform="matrix(1.0, 0.0, 0.0, 1.0, 7.1, 0.0)"><g><g><g><g style="fill: #f5ee9c;stroke: #000000;stroke-width: 1.086;" transform="matrix(1.0, 0.0, 0.0, 1.0, 1.0, 0.0)"><path d="M 0.0 0.0 A 1.0 1.0 0.0 0 0 -1.0 -1.0 A 1.0 1.0 -90.0 0 0 -2.0 0.0 A 1.0 1.0 180.0 0 0 -1.0 1.0 A 1.0 1.0 90.0 0 0 0.0 0.0 Z" style="vector-effect: non-scaling-stroke;" /></g><g transform="matrix(1.0, 0.0, 0.0, 1.0, 0.0, 0.0625)"><g><g style="fill: #000000;stroke: #000000;stroke-width: 0.0;" transform="matrix(2.0, 0.0, 0.0, 2.0, 0.0, 0.0)"><g transform="scale(0.05) translate(-9.2 -6.46)"><g>
<defs>
<g>
<g id="embed-5683193497763499481-glyph-0-0">
</g>
<g id="embed-5683193497763499481-glyph-0-1">
<path d="M 2.9375 -6.375 C 2.9375 -6.625 2.9375 -6.640625 2.703125 -6.640625 C 2.078125 -6 1.203125 -6 0.890625 -6 L 0.890625 -5.6875 C 1.09375 -5.6875 1.671875 -5.6875 2.1875 -5.953125 L 2.1875 -0.78125 C 2.1875 -0.421875 2.15625 -0.3125 1.265625 -0.3125 L 0.953125 -0.3125 L 0.953125 0 C 1.296875 -0.03125 2.15625 -0.03125 2.5625 -0.03125 C 2.953125 -0.03125 3.828125 -0.03125 4.171875 0 L 4.171875 -0.3125 L 3.859375 -0.3125 C 2.953125 -0.3125 2.9375 -0.421875 2.9375 -0.78125 Z M 2.9375 -6.375 " />
</g>
<g id="embed-5683193497763499481-glyph-1-0">
</g>
<g id="embed-5683193497763499481-glyph-1-1">
<path d="M 6.5625 -2.296875 C 6.734375 -2.296875 6.921875 -2.296875 6.921875 -2.5 C 6.921875 -2.6875 6.734375 -2.6875 6.5625 -2.6875 L 1.171875 -2.6875 C 1 -2.6875 0.828125 -2.6875 0.828125 -2.5 C 0.828125 -2.296875 1 -2.296875 1.171875 -2.296875 Z M 6.5625 -2.296875 " />
</g>
</g>
</defs>
<g fill="rgb(0%, 0%, 0%)" fill-opacity="1">
<use href="#embed-5683193497763499481-glyph-0-1" x="2.835" y="9.255" />
</g>
<g fill="rgb(0%, 0%, 0%)" fill-opacity="1">
<use href="#embed-5683193497763499481-glyph-1-1" x="7.816" y="9.255" />
</g>
</g></g></g><g /></g></g></g></g><g /></g></g></g><g style="stroke: black;stroke-width: 2.172;" transform="matrix(1.0, 0.0, 0.0, 1.0, 10.649999999999999, 0.0)"><g /></g></g><g transform="matrix(1.0, 0.0, 0.0, 1.0, 14.2, 0.0)"><g><g><g><g style="fill: #f5ee9c;stroke: #000000;stroke-width: 1.086;" transform="matrix(1.0, 0.0, 0.0, 1.0, 1.0, 0.0)"><path d="M 0.0 0.0 A 1.0 1.0 0.0 0 0 -1.0 -1.0 A 1.0 1.0 -90.0 0 0 -2.0 0.0 A 1.0 1.0 180.0 0 0 -1.0 1.0 A 1.0 1.0 90.0 0 0 0.0 0.0 Z" style="vector-effect: non-scaling-stroke;" /></g><g transform="matrix(1.0, 0.0, 0.0, 1.0, 0.0, 0.0625)"><g><g style="fill: #000000;stroke: #000000;stroke-width: 0.0;" transform="matrix(2.0, 0.0, 0.0, 2.0, 0.0, 0.0)"><g transform="scale(0.05) translate(-6.709 -6.1555)"><g>
<defs>
<g>
<g id="embed--3319634500792001675-glyph-0-0">
</g>
<g id="embed--3319634500792001675-glyph-0-1">
<path d="M 3.875 -2.765625 L 1.890625 -4.75 C 1.765625 -4.875 1.75 -4.890625 1.671875 -4.890625 C 1.5625 -4.890625 1.46875 -4.8125 1.46875 -4.6875 C 1.46875 -4.625 1.484375 -4.609375 1.59375 -4.5 L 3.59375 -2.5 L 1.59375 -0.484375 C 1.484375 -0.375 1.46875 -0.359375 1.46875 -0.296875 C 1.46875 -0.171875 1.5625 -0.09375 1.671875 -0.09375 C 1.75 -0.09375 1.765625 -0.109375 1.890625 -0.234375 L 3.875 -2.21875 L 5.9375 -0.15625 C 5.953125 -0.140625 6.015625 -0.09375 6.078125 -0.09375 C 6.203125 -0.09375 6.28125 -0.171875 6.28125 -0.296875 C 6.28125 -0.3125 6.28125 -0.34375 6.25 -0.40625 C 6.234375 -0.421875 4.65625 -1.984375 4.15625 -2.5 L 5.984375 -4.3125 C 6.03125 -4.375 6.1875 -4.5 6.234375 -4.5625 C 6.234375 -4.578125 6.28125 -4.625 6.28125 -4.6875 C 6.28125 -4.8125 6.203125 -4.890625 6.078125 -4.890625 C 6 -4.890625 5.96875 -4.859375 5.859375 -4.75 Z M 3.875 -2.765625 " />
</g>
</g>
</defs>
<g fill="rgb(0%, 0%, 0%)" fill-opacity="1">
<use href="#embed--3319634500792001675-glyph-0-1" x="2.835" y="8.646" />
</g>
</g></g></g><g /></g></g></g><g /></g></g></g></g></g></g><g style="stroke: black;stroke-width: 2.172;" transform="matrix(0.0, -1.0, 1.0, 0.0, 0.0, 6.1899999999999995)"><g /></g></g><g transform="matrix(1.0, 0.0, 0.0, 1.0, 0.0, 8.24)"><g><g><g><g><g><g><g /><g /></g></g><g style="stroke: black;stroke-width: 2.172;" transform="matrix(1.0, 0.0, 0.0, 1.0, 3.55, 0.0)"><g /></g></g><g transform="matrix(1.0, 0.0, 0.0, 1.0, 7.1, 0.0)"><g><g /><g /></g></g></g><g style="stroke: black;stroke-width: 2.172;" transform="matrix(1.0, 0.0, 0.0, 1.0, 10.649999999999999, 0.0)"><g /></g></g><g transform="matrix(1.0, 0.0, 0.0, 1.0, 14.2, 0.0)"><g><g><g><g style="fill: #ffffff;stroke: #000000;stroke-width: 1.086;" transform="matrix(1.0, 0.0, 0.0, 1.0, -2.55, -0.95)"><path d="M 0.0 0.0 L 0.0 1.9 A 0.10000000000000003 0.10000000000000003 135.00000000000003 0 0 0.10000000000000003 2.0 L 5.0 2.0 A 0.10000000000000003 0.10000000000000003 45.00000000000002 0 0 5.1 1.9 L 5.1 0.0 A 0.10000000000000003 0.10000000000000003 -44.999999999999986 0 0 5.0 -0.10000000000000006 L 0.09999999999999964 -0.10000000000000006 A 0.10000000000000003 0.10000000000000003 -135.0 0 0 -4.163336342344337e-16 -2.7755575615628914e-17 L -4.163336342344337e-16 0.009999999999999972 Z" style="vector-effect: non-scaling-stroke;" /></g><g transform="matrix(1.0, 0.0, 0.0, 1.0, 0.0, 0.125)"><g><g style="fill: #000000;stroke: #000000;stroke-width: 0.0;" transform="matrix(2.0, 0.0, 0.0, 2.0, 0.0, 0.0)"><g transform="scale(0.05) translate(-8.231 -6.2385)"><g>
<defs>
<g>
<g id="embed-3092576116574470782-glyph-0-0">
</g>
<g id="embed-3092576116574470782-glyph-0-1">
<path d="M 9.140625 -5.65625 C 9.390625 -6.09375 9.625 -6.453125 10.265625 -6.5 C 10.34375 -6.515625 10.453125 -6.515625 10.453125 -6.703125 C 10.453125 -6.734375 10.40625 -6.8125 10.328125 -6.8125 C 10.09375 -6.8125 9.8125 -6.78125 9.5625 -6.78125 C 9.21875 -6.78125 8.859375 -6.8125 8.515625 -6.8125 C 8.46875 -6.8125 8.328125 -6.8125 8.328125 -6.625 C 8.328125 -6.515625 8.421875 -6.5 8.484375 -6.5 C 8.71875 -6.484375 9.078125 -6.40625 9.078125 -6.109375 C 9.078125 -6 9.015625 -5.921875 8.9375 -5.78125 L 6.25 -1.09375 L 5.875 -6.03125 C 5.875 -6.234375 5.859375 -6.484375 6.578125 -6.5 C 6.75 -6.5 6.84375 -6.5 6.84375 -6.703125 C 6.84375 -6.796875 6.734375 -6.8125 6.703125 -6.8125 C 6.296875 -6.8125 5.875 -6.78125 5.484375 -6.78125 C 5.25 -6.78125 4.671875 -6.8125 4.4375 -6.8125 C 4.375 -6.8125 4.25 -6.8125 4.25 -6.609375 C 4.25 -6.5 4.34375 -6.5 4.484375 -6.5 C 4.921875 -6.5 5 -6.4375 5.015625 -6.25 L 5.078125 -5.484375 L 2.546875 -1.09375 L 2.171875 -6.140625 C 2.171875 -6.265625 2.171875 -6.484375 2.9375 -6.5 C 3.03125 -6.5 3.140625 -6.5 3.140625 -6.703125 C 3.140625 -6.8125 3.015625 -6.8125 3 -6.8125 C 2.609375 -6.8125 2.1875 -6.78125 1.78125 -6.78125 C 1.421875 -6.78125 1.0625 -6.8125 0.734375 -6.8125 C 0.671875 -6.8125 0.546875 -6.8125 0.546875 -6.625 C 0.546875 -6.5 0.640625 -6.5 0.796875 -6.5 C 1.296875 -6.5 1.3125 -6.40625 1.328125 -6.125 L 1.78125 -0.046875 C 1.78125 0.140625 1.796875 0.21875 1.9375 0.21875 C 2.046875 0.21875 2.078125 0.15625 2.171875 0.015625 L 5.109375 -5.078125 L 5.46875 -0.046875 C 5.5 0.171875 5.515625 0.21875 5.625 0.21875 C 5.765625 0.21875 5.828125 0.125 5.875 0.03125 Z M 9.140625 -5.65625 " />
</g>
</g>
</defs>
<g fill="rgb(0%, 0%, 0%)" fill-opacity="1">
<use href="#embed-3092576116574470782-glyph-0-1" x="2.835" y="9.642" />
</g>
</g></g></g><g /></g></g></g></g><g /></g></g></g></g></g><g transform="matrix(1.0, 0.0, 0.0, 1.0, 1.0, 0.0)"><g transform="matrix(1.0, -0.0, 0.0, 1.0, 0.0, 0.0)"><g><g style="stroke: black;stroke-width: 2.172;" transform="matrix(1.0, 0.0, 0.0, 1.0, 0.0, 0.0)"><path d="M 0.0 0.0 L 12.2 0.0" style="vector-effect: non-scaling-stroke;fill:none;" /></g><g style="stroke: black;stroke-width: 2.172;" transform="matrix(1.0, 0.0, 0.0, 1.0, 12.2, 0.0)"><g style="fill: #000000;stroke: black;stroke-width: 0.0;" transform="matrix(0.0, 0.21719999999999998, -0.21719999999999998, 0.0, -0.26064, 0.0)"><path d="M 0.0 -0.2 L 1.0 0.2 L 0.0 -1.2 L -1.0 0.19999999999999996 L 0.0 -0.2 Z" style="vector-effect: non-scaling-stroke;" /></g></g></g></g></g></g><g transform="matrix(1.0, 0.0, 0.0, 1.0, 0.0, 3.0700000000000003)"><g transform="matrix(0.0, -1.0, 1.0, 0.0, 0.0, 0.0)"><g><g style="stroke: black;stroke-width: 2.172;" transform="matrix(1.0, 0.0, 0.0, 1.0, 0.0, 0.0)"><path d="M 0.0 0.0 L 2.0700000000000003 0.0" style="vector-effect: non-scaling-stroke;fill:none;" /></g><g style="stroke: black;stroke-width: 2.172;" transform="matrix(1.0, 0.0, 0.0, 1.0, 2.0700000000000003, 0.0)"><g style="fill: #000000;stroke: black;stroke-width: 0.0;" transform="matrix(0.0, 0.21719999999999998, -0.21719999999999998, 0.0, -0.26064, 0.0)"><path d="M 0.0 -0.2 L 1.0 0.2 L 0.0 -1.2 L -1.0 0.19999999999999996 L 0.0 -0.2 Z" style="vector-effect: non-scaling-stroke;" /></g></g></g></g></g></g><g transform="matrix(1.0, 0.0, 0.0, 1.0, 2.55, 4.12)"><g transform="matrix(1.0, -0.0, 0.0, 1.0, 0.0, 0.0)"><g><g style="stroke: black;stroke-width: 2.172;" transform="matrix(1.0, 0.0, 0.0, 1.0, 0.0, 0.0)"><path d="M 0.0 0.0 L 3.55 0.0" style="vector-effect: non-scaling-stroke;fill:none;" /></g><g style="stroke: black;stroke-width: 2.172;" transform="matrix(1.0, 0.0, 0.0, 1.0, 3.55, 0.0)"><g style="fill: #000000;stroke: black;stroke-width: 0.0;" transform="matrix(0.0, 0.21719999999999998, -0.21719999999999998, 0.0, -0.26064, 0.0)"><path d="M 0.0 -0.2 L 1.0 0.2 L 0.0 -1.2 L -1.0 0.19999999999999996 L 0.0 -0.2 Z" style="vector-effect: non-scaling-stroke;" /></g></g></g></g></g></g><g transform="matrix(1.0, 0.0, 0.0, 1.0, 8.1, 4.12)"><g transform="matrix(1.0, -0.0, 0.0, 1.0, 0.0, 0.0)"><g><g style="stroke: black;stroke-width: 2.172;" transform="matrix(1.0, 0.0, 0.0, 1.0, 0.0, 0.0)"><path d="M 0.0 0.0 L 5.1 0.0" style="vector-effect: non-scaling-stroke;fill:none;" /></g><g style="stroke: black;stroke-width: 2.172;" transform="matrix(1.0, 0.0, 0.0, 1.0, 5.1, 0.0)"><g style="fill: #000000;stroke: black;stroke-width: 0.0;" transform="matrix(0.0, 0.21719999999999998, -0.21719999999999998, 0.0, -0.26064, 0.0)"><path d="M 0.0 -0.2 L 1.0 0.2 L 0.0 -1.2 L -1.0 0.19999999999999996 L 0.0 -0.2 Z" style="vector-effect: non-scaling-stroke;" /></g></g></g></g></g></g><g transform="matrix(1.0, 0.0, 0.0, 1.0, 14.2, 7.19)"><g transform="matrix(0.0, -1.0, 1.0, 0.0, 0.0, 0.0)"><g><g style="stroke: black;stroke-width: 2.172;" transform="matrix(1.0, 0.0, 0.0, 1.0, 0.0, 0.0)"><path d="M 0.0 0.0 L 2.0700000000000003 0.0" style="vector-effect: non-scaling-stroke;fill:none;" /></g><g style="stroke: black;stroke-width: 2.172;" transform="matrix(1.0, 0.0, 0.0, 1.0, 2.0700000000000003, 0.0)"><g style="fill: #000000;stroke: black;stroke-width: 0.0;" transform="matrix(0.0, 0.21719999999999998, -0.21719999999999998, 0.0, -0.26064, 0.0)"><path d="M 0.0 -0.2 L 1.0 0.2 L 0.0 -1.2 L -1.0 0.19999999999999996 L 0.0 -0.2 Z" style="vector-effect: non-scaling-stroke;" /></g></g></g></g></g></g><g transform="matrix(1.0, 0.0, 0.0, 1.0, 14.2, 3.12)"><g transform="matrix(0.0, -1.0, 1.0, 0.0, 0.0, 0.0)"><g><g style="stroke: black;stroke-width: 2.172;" transform="matrix(1.0, 0.0, 0.0, 1.0, 0.0, 0.0)"><path d="M 0.0 0.0 L 2.12 0.0" style="vector-effect: non-scaling-stroke;fill:none;" /></g><g style="stroke: black;stroke-width: 2.172;" transform="matrix(1.0, 0.0, 0.0, 1.0, 2.12, 0.0)"><g style="fill: #000000;stroke: black;stroke-width: 0.0;" transform="matrix(0.0, 0.21719999999999998, -0.21719999999999998, 0.0, -0.26064, 0.0)"><path d="M 0.0 -0.2 L 1.0 0.2 L 0.0 -1.2 L -1.0 0.19999999999999996 L 0.0 -0.2 Z" style="vector-effect: non-scaling-stroke;" /></g></g></g></g></g></g><g transform="matrix(1.0, 0.0, 0.0, 1.0, 14.2, -4.0600000000000005)"><g><g><g><g style="fill: #f5ee9c;stroke: #000000;stroke-width: 1.086;" transform="matrix(1.0, 0.0, 0.0, 1.0, 1.0, 0.0)"><path d="M 0.0 0.0 A 1.0 1.0 0.0 0 0 -1.0 -1.0 A 1.0 1.0 -90.0 0 0 -2.0 0.0 A 1.0 1.0 180.0 0 0 -1.0 1.0 A 1.0 1.0 90.0 0 0 0.0 0.0 Z" style="vector-effect: non-scaling-stroke;" /></g><g transform="matrix(1.0, 0.0, 0.0, 1.0, 0.0, 0.0625)"><g><g style="fill: #000000;stroke: #000000;stroke-width: 0.0;" transform="matrix(1.0, 0.0, 0.0, 1.0, 0.0, 0.0)"><g transform="scale(0.05) translate(-15.565000000000001 -6.2385)"><g>
<defs>
<g>
<g id="embed-5624879491874158749-glyph-0-0">
</g>
<g id="embed-5624879491874158749-glyph-0-1">
<path d="M 2.234375 -3.515625 L 2.234375 -6.09375 C 2.234375 -6.328125 2.234375 -6.453125 2.453125 -6.484375 C 2.546875 -6.5 2.84375 -6.5 3.046875 -6.5 C 3.9375 -6.5 5.046875 -6.453125 5.046875 -5.015625 C 5.046875 -4.328125 4.8125 -3.515625 3.34375 -3.515625 Z M 4.34375 -3.390625 C 5.296875 -3.625 6.078125 -4.234375 6.078125 -5.015625 C 6.078125 -5.96875 4.9375 -6.8125 3.484375 -6.8125 L 0.34375 -6.8125 L 0.34375 -6.5 L 0.59375 -6.5 C 1.359375 -6.5 1.375 -6.390625 1.375 -6.03125 L 1.375 -0.78125 C 1.375 -0.421875 1.359375 -0.3125 0.59375 -0.3125 L 0.34375 -0.3125 L 0.34375 0 C 0.703125 -0.03125 1.421875 -0.03125 1.796875 -0.03125 C 2.1875 -0.03125 2.90625 -0.03125 3.265625 0 L 3.265625 -0.3125 L 3.015625 -0.3125 C 2.25 -0.3125 2.234375 -0.421875 2.234375 -0.78125 L 2.234375 -3.296875 L 3.375 -3.296875 C 3.53125 -3.296875 3.953125 -3.296875 4.3125 -2.953125 C 4.6875 -2.609375 4.6875 -2.296875 4.6875 -1.625 C 4.6875 -0.984375 4.6875 -0.578125 5.09375 -0.203125 C 5.5 0.15625 6.046875 0.21875 6.34375 0.21875 C 7.125 0.21875 7.296875 -0.59375 7.296875 -0.875 C 7.296875 -0.9375 7.296875 -1.046875 7.171875 -1.046875 C 7.0625 -1.046875 7.0625 -0.953125 7.046875 -0.890625 C 6.984375 -0.171875 6.640625 0 6.390625 0 C 5.90625 0 5.828125 -0.515625 5.6875 -1.4375 L 5.546875 -2.234375 C 5.375 -2.875 4.890625 -3.203125 4.34375 -3.390625 Z M 4.34375 -3.390625 " />
</g>
<g id="embed-5624879491874158749-glyph-0-2">
<path d="M 1.109375 -2.515625 C 1.171875 -4 2.015625 -4.25 2.359375 -4.25 C 3.375 -4.25 3.484375 -2.90625 3.484375 -2.515625 Z M 1.109375 -2.296875 L 3.890625 -2.296875 C 4.109375 -2.296875 4.140625 -2.296875 4.140625 -2.515625 C 4.140625 -3.5 3.59375 -4.46875 2.359375 -4.46875 C 1.203125 -4.46875 0.28125 -3.4375 0.28125 -2.1875 C 0.28125 -0.859375 1.328125 0.109375 2.46875 0.109375 C 3.6875 0.109375 4.140625 -1 4.140625 -1.1875 C 4.140625 -1.28125 4.0625 -1.3125 4 -1.3125 C 3.921875 -1.3125 3.890625 -1.25 3.875 -1.171875 C 3.53125 -0.140625 2.625 -0.140625 2.53125 -0.140625 C 2.03125 -0.140625 1.640625 -0.4375 1.40625 -0.8125 C 1.109375 -1.28125 1.109375 -1.9375 1.109375 -2.296875 Z M 1.109375 -2.296875 " />
</g>
<g id="embed-5624879491874158749-glyph-0-3">
<path d="M 5.796875 -2.578125 L 5.546875 -2.578125 C 5.4375 -1.5625 5.296875 -0.3125 3.546875 -0.3125 L 2.734375 -0.3125 C 2.265625 -0.3125 2.25 -0.375 2.25 -0.703125 L 2.25 -6.015625 C 2.25 -6.359375 2.25 -6.5 3.1875 -6.5 L 3.515625 -6.5 L 3.515625 -6.8125 C 3.15625 -6.78125 2.25 -6.78125 1.84375 -6.78125 C 1.453125 -6.78125 0.671875 -6.78125 0.328125 -6.8125 L 0.328125 -6.5 L 0.5625 -6.5 C 1.328125 -6.5 1.359375 -6.390625 1.359375 -6.03125 L 1.359375 -0.78125 C 1.359375 -0.421875 1.328125 -0.3125 0.5625 -0.3125 L 0.328125 -0.3125 L 0.328125 0 L 5.515625 0 Z M 5.796875 -2.578125 " />
</g>
<g id="embed-5624879491874158749-glyph-0-4">
<path d="M 5.796875 -2.296875 C 5.796875 -0.890625 4.828125 -0.09375 3.890625 -0.09375 C 3.421875 -0.09375 2.25 -0.34375 2.25 -2.234375 L 2.25 -6.03125 C 2.25 -6.390625 2.265625 -6.5 3.03125 -6.5 L 3.265625 -6.5 L 3.265625 -6.8125 C 2.921875 -6.78125 2.1875 -6.78125 1.796875 -6.78125 C 1.421875 -6.78125 0.671875 -6.78125 0.328125 -6.8125 L 0.328125 -6.5 L 0.5625 -6.5 C 1.328125 -6.5 1.359375 -6.390625 1.359375 -6.03125 L 1.359375 -2.265625 C 1.359375 -0.875 2.515625 0.21875 3.875 0.21875 C 5.015625 0.21875 5.90625 -0.703125 6.078125 -1.84375 C 6.109375 -2.046875 6.109375 -2.140625 6.109375 -2.53125 L 6.109375 -5.71875 C 6.109375 -6.046875 6.109375 -6.5 7.140625 -6.5 L 7.140625 -6.8125 C 6.78125 -6.796875 6.296875 -6.78125 5.96875 -6.78125 C 5.609375 -6.78125 5.140625 -6.796875 4.78125 -6.8125 L 4.78125 -6.5 C 5.796875 -6.5 5.796875 -6.03125 5.796875 -5.765625 Z M 5.796875 -2.296875 " />
</g>
</g>
</defs>
<g fill="rgb(0%, 0%, 0%)" fill-opacity="1">
<use href="#embed-5624879491874158749-glyph-0-1" x="2.835" y="9.642" />
<use href="#embed-5624879491874158749-glyph-0-2" x="10.16847" y="9.642" />
<use href="#embed-5624879491874158749-glyph-0-3" x="14.595849" y="9.642" />
<use href="#embed-5624879491874158749-glyph-0-4" x="20.822474" y="9.642" />
</g>
</g></g></g><g /></g></g></g></g><g /></g></g></g></g></g><g transform="matrix(1.0, 0.0, 0.0, 1.0, -12.649999999999999, -2.1)"><g><g><g><g style="stroke: black;stroke-width: 0.0;" transform="matrix(1.0, 0.0, 0.0, 1.0, 1.0, 0.0)"><path d="M 0.0 0.0 A 1.0 1.0 0.0 0 0 -1.0 -1.0 A 1.0 1.0 -90.0 0 0 -2.0 0.0 A 1.0 1.0 180.0 0 0 -1.0 1.0 A 1.0 1.0 90.0 0 0 0.0 0.0 Z" style="vector-effect: non-scaling-stroke;" /></g><g transform="matrix(1.0, 0.0, 0.0, 1.0, 0.0, 0.0625)"><g><g style="fill: #000000;stroke: #000000;stroke-width: 0.0;" transform="matrix(2.0, 0.0, 0.0, 2.0, 0.0, 0.0)"><g transform="scale(0.05) translate(-11.8435 -6.142)"><g>
<defs>
<g>
<g id="embed-2576453110544613473-glyph-0-0">
</g>
<g id="embed-2576453110544613473-glyph-0-1">
<path d="M 3.953125 -3.78125 C 3.78125 -3.78125 3.65625 -3.78125 3.515625 -3.65625 C 3.34375 -3.5 3.328125 -3.328125 3.328125 -3.265625 C 3.328125 -3.015625 3.515625 -2.90625 3.703125 -2.90625 C 3.984375 -2.90625 4.25 -3.15625 4.25 -3.546875 C 4.25 -4.03125 3.78125 -4.40625 3.078125 -4.40625 C 1.734375 -4.40625 0.40625 -2.984375 0.40625 -1.578125 C 0.40625 -0.671875 0.984375 0.109375 2.03125 0.109375 C 3.453125 0.109375 4.28125 -0.953125 4.28125 -1.0625 C 4.28125 -1.125 4.234375 -1.203125 4.171875 -1.203125 C 4.109375 -1.203125 4.09375 -1.171875 4.03125 -1.09375 C 3.25 -0.109375 2.15625 -0.109375 2.046875 -0.109375 C 1.421875 -0.109375 1.140625 -0.59375 1.140625 -1.203125 C 1.140625 -1.609375 1.34375 -2.578125 1.6875 -3.1875 C 2 -3.765625 2.546875 -4.1875 3.09375 -4.1875 C 3.421875 -4.1875 3.8125 -4.0625 3.953125 -3.78125 Z M 3.953125 -3.78125 " />
</g>
<g id="embed-2576453110544613473-glyph-1-0">
</g>
<g id="embed-2576453110544613473-glyph-1-1">
<path d="M 1.71875 -2.75 L 2.421875 -2.75 C 2.5625 -2.75 2.640625 -2.75 2.640625 -2.90625 C 2.640625 -3 2.5625 -3 2.4375 -3 L 1.78125 -3 L 2.03125 -4.03125 C 2.046875 -4.0625 2.0625 -4.109375 2.0625 -4.125 C 2.0625 -4.265625 1.953125 -4.359375 1.8125 -4.359375 C 1.640625 -4.359375 1.546875 -4.234375 1.484375 -4.0625 C 1.4375 -3.875 1.53125 -4.21875 1.21875 -3 L 0.515625 -3 C 0.390625 -3 0.296875 -3 0.296875 -2.84375 C 0.296875 -2.75 0.375 -2.75 0.5 -2.75 L 1.15625 -2.75 L 0.75 -1.109375 C 0.703125 -0.9375 0.640625 -0.6875 0.640625 -0.59375 C 0.640625 -0.1875 1 0.0625 1.390625 0.0625 C 2.171875 0.0625 2.609375 -0.90625 2.609375 -1 C 2.609375 -1.09375 2.515625 -1.09375 2.5 -1.09375 C 2.40625 -1.09375 2.40625 -1.078125 2.34375 -0.953125 C 2.15625 -0.515625 1.796875 -0.125 1.421875 -0.125 C 1.265625 -0.125 1.171875 -0.21875 1.171875 -0.46875 C 1.171875 -0.53125 1.203125 -0.6875 1.21875 -0.75 Z M 1.71875 -2.75 " />
</g>
<g id="embed-2576453110544613473-glyph-2-0">
</g>
<g id="embed-2576453110544613473-glyph-2-1">
<path d="M 5.1875 -1.578125 C 5.296875 -1.578125 5.46875 -1.578125 5.46875 -1.734375 C 5.46875 -1.921875 5.296875 -1.921875 5.1875 -1.921875 L 1.03125 -1.921875 C 0.921875 -1.921875 0.75 -1.921875 0.75 -1.75 C 0.75 -1.578125 0.90625 -1.578125 1.03125 -1.578125 Z M 5.1875 -1.578125 " />
</g>
<g id="embed-2576453110544613473-glyph-3-0">
</g>
<g id="embed-2576453110544613473-glyph-3-1">
<path d="M 2.328125 -4.4375 C 2.328125 -4.625 2.328125 -4.625 2.125 -4.625 C 1.671875 -4.1875 1.046875 -4.1875 0.765625 -4.1875 L 0.765625 -3.9375 C 0.921875 -3.9375 1.390625 -3.9375 1.765625 -4.125 L 1.765625 -0.578125 C 1.765625 -0.34375 1.765625 -0.25 1.078125 -0.25 L 0.8125 -0.25 L 0.8125 0 C 0.9375 0 1.796875 -0.03125 2.046875 -0.03125 C 2.265625 -0.03125 3.140625 0 3.296875 0 L 3.296875 -0.25 L 3.03125 -0.25 C 2.328125 -0.25 2.328125 -0.34375 2.328125 -0.578125 Z M 2.328125 -4.4375 " />
</g>
</g>
</defs>
<g fill="rgb(0%, 0%, 0%)" fill-opacity="1">
<use href="#embed-2576453110544613473-glyph-0-1" x="2.835" y="7.125" />
</g>
<g fill="rgb(0%, 0%, 0%)" fill-opacity="1">
<use href="#embed-2576453110544613473-glyph-1-1" x="7.146" y="8.619" />
</g>
<g fill="rgb(0%, 0%, 0%)" fill-opacity="1">
<use href="#embed-2576453110544613473-glyph-2-1" x="10.156" y="8.619" />
</g>
<g fill="rgb(0%, 0%, 0%)" fill-opacity="1">
<use href="#embed-2576453110544613473-glyph-3-1" x="16.382" y="8.619" />
</g>
</g></g></g><g /></g></g></g></g><g /></g></g></g><g transform="matrix(1.0, 0.0, 0.0, 1.0, -7.1, 9.200000000000001)"><g><g><g><g style="stroke: black;stroke-width: 0.0;" transform="matrix(1.0, 0.0, 0.0, 1.0, 1.0, 0.0)"><path d="M 0.0 0.0 A 1.0 1.0 0.0 0 0 -1.0 -1.0 A 1.0 1.0 -90.0 0 0 -2.0 0.0 A 1.0 1.0 180.0 0 0 -1.0 1.0 A 1.0 1.0 90.0 0 0 0.0 0.0 Z" style="vector-effect: non-scaling-stroke;" /></g><g transform="matrix(1.0, 0.0, 0.0, 1.0, 0.0, 0.0625)"><g><g style="fill: #000000;stroke: #000000;stroke-width: 0.0;" transform="matrix(2.0, 0.0, 0.0, 2.0, 0.0, 0.0)"><g transform="scale(0.05) translate(-7.435499999999999 -5.7265)"><g>
<defs>
<g>
<g id="embed--6329286634901338371-glyph-0-0">
</g>
<g id="embed--6329286634901338371-glyph-0-1">
<path d="M 3.328125 -3.015625 C 3.390625 -3.265625 3.625 -4.1875 4.3125 -4.1875 C 4.359375 -4.1875 4.609375 -4.1875 4.8125 -4.0625 C 4.53125 -4 4.34375 -3.765625 4.34375 -3.515625 C 4.34375 -3.359375 4.453125 -3.171875 4.71875 -3.171875 C 4.9375 -3.171875 5.25 -3.34375 5.25 -3.75 C 5.25 -4.265625 4.671875 -4.40625 4.328125 -4.40625 C 3.75 -4.40625 3.40625 -3.875 3.28125 -3.65625 C 3.03125 -4.3125 2.5 -4.40625 2.203125 -4.40625 C 1.171875 -4.40625 0.59375 -3.125 0.59375 -2.875 C 0.59375 -2.765625 0.703125 -2.765625 0.71875 -2.765625 C 0.796875 -2.765625 0.828125 -2.796875 0.84375 -2.875 C 1.1875 -3.9375 1.84375 -4.1875 2.1875 -4.1875 C 2.375 -4.1875 2.71875 -4.09375 2.71875 -3.515625 C 2.71875 -3.203125 2.546875 -2.546875 2.1875 -1.140625 C 2.03125 -0.53125 1.671875 -0.109375 1.234375 -0.109375 C 1.171875 -0.109375 0.953125 -0.109375 0.734375 -0.234375 C 0.984375 -0.296875 1.203125 -0.5 1.203125 -0.78125 C 1.203125 -1.046875 0.984375 -1.125 0.84375 -1.125 C 0.53125 -1.125 0.296875 -0.875 0.296875 -0.546875 C 0.296875 -0.09375 0.78125 0.109375 1.21875 0.109375 C 1.890625 0.109375 2.25 -0.59375 2.265625 -0.640625 C 2.390625 -0.28125 2.75 0.109375 3.34375 0.109375 C 4.375 0.109375 4.9375 -1.171875 4.9375 -1.421875 C 4.9375 -1.53125 4.859375 -1.53125 4.828125 -1.53125 C 4.734375 -1.53125 4.71875 -1.484375 4.6875 -1.421875 C 4.359375 -0.34375 3.6875 -0.109375 3.375 -0.109375 C 2.984375 -0.109375 2.828125 -0.421875 2.828125 -0.765625 C 2.828125 -0.984375 2.875 -1.203125 2.984375 -1.640625 Z M 3.328125 -3.015625 " />
</g>
<g id="embed--6329286634901338371-glyph-1-0">
</g>
<g id="embed--6329286634901338371-glyph-1-1">
<path d="M 1.71875 -2.75 L 2.421875 -2.75 C 2.5625 -2.75 2.640625 -2.75 2.640625 -2.90625 C 2.640625 -3 2.5625 -3 2.4375 -3 L 1.78125 -3 L 2.03125 -4.03125 C 2.046875 -4.0625 2.0625 -4.109375 2.0625 -4.125 C 2.0625 -4.265625 1.953125 -4.359375 1.8125 -4.359375 C 1.640625 -4.359375 1.546875 -4.234375 1.484375 -4.0625 C 1.4375 -3.875 1.53125 -4.21875 1.21875 -3 L 0.515625 -3 C 0.390625 -3 0.296875 -3 0.296875 -2.84375 C 0.296875 -2.75 0.375 -2.75 0.5 -2.75 L 1.15625 -2.75 L 0.75 -1.109375 C 0.703125 -0.9375 0.640625 -0.6875 0.640625 -0.59375 C 0.640625 -0.1875 1 0.0625 1.390625 0.0625 C 2.171875 0.0625 2.609375 -0.90625 2.609375 -1 C 2.609375 -1.09375 2.515625 -1.09375 2.5 -1.09375 C 2.40625 -1.09375 2.40625 -1.078125 2.34375 -0.953125 C 2.15625 -0.515625 1.796875 -0.125 1.421875 -0.125 C 1.265625 -0.125 1.171875 -0.21875 1.171875 -0.46875 C 1.171875 -0.53125 1.203125 -0.6875 1.21875 -0.75 Z M 1.71875 -2.75 " />
</g>
</g>
</defs>
<g fill="rgb(0%, 0%, 0%)" fill-opacity="1">
<use href="#embed--6329286634901338371-glyph-0-1" x="2.835" y="7.124" />
</g>
<g fill="rgb(0%, 0%, 0%)" fill-opacity="1">
<use href="#embed--6329286634901338371-glyph-1-1" x="8.529" y="8.618" />
</g>
</g></g></g><g /></g></g></g></g><g /></g></g></g><g transform="matrix(1.0, 0.0, 0.0, 1.0, 7.1, -10.16)"><g><g><g><g style="stroke: black;stroke-width: 0.0;" transform="matrix(1.0, 0.0, 0.0, 1.0, 1.0, 0.0)"><path d="M 0.0 0.0 A 1.0 1.0 0.0 0 0 -1.0 -1.0 A 1.0 1.0 -90.0 0 0 -2.0 0.0 A 1.0 1.0 180.0 0 0 -1.0 1.0 A 1.0 1.0 90.0 0 0 0.0 0.0 Z" style="vector-effect: non-scaling-stroke;" /></g><g transform="matrix(1.0, 0.0, 0.0, 1.0, 0.0, 0.0625)"><g><g style="fill: #000000;stroke: #000000;stroke-width: 0.0;" transform="matrix(2.0, 0.0, 0.0, 2.0, 0.0, 0.0)"><g transform="scale(0.05) translate(-7.4585 -7.041500000000001)"><g>
<defs>
<g>
<g id="embed-4229783695200618797-glyph-0-0">
</g>
<g id="embed-4229783695200618797-glyph-0-1">
<path d="M 2.859375 -6.8125 C 2.859375 -6.8125 2.859375 -6.921875 2.734375 -6.921875 C 2.5 -6.921875 1.78125 -6.84375 1.515625 -6.8125 C 1.4375 -6.8125 1.328125 -6.796875 1.328125 -6.625 C 1.328125 -6.5 1.421875 -6.5 1.5625 -6.5 C 2.046875 -6.5 2.0625 -6.4375 2.0625 -6.328125 L 2.03125 -6.125 L 0.59375 -0.390625 C 0.546875 -0.25 0.546875 -0.234375 0.546875 -0.171875 C 0.546875 0.0625 0.75 0.109375 0.84375 0.109375 C 1 0.109375 1.15625 -0.015625 1.203125 -0.15625 L 1.390625 -0.90625 L 1.609375 -1.796875 C 1.671875 -2.03125 1.734375 -2.25 1.78125 -2.46875 C 1.796875 -2.53125 1.890625 -2.859375 1.890625 -2.921875 C 1.921875 -3.015625 2.234375 -3.5625 2.578125 -3.84375 C 2.796875 -4 3.09375 -4.1875 3.53125 -4.1875 C 3.953125 -4.1875 4.0625 -3.84375 4.0625 -3.484375 C 4.0625 -2.953125 3.6875 -1.859375 3.453125 -1.25 C 3.375 -1.03125 3.3125 -0.90625 3.3125 -0.703125 C 3.3125 -0.234375 3.671875 0.109375 4.140625 0.109375 C 5.078125 0.109375 5.4375 -1.34375 5.4375 -1.421875 C 5.4375 -1.53125 5.359375 -1.53125 5.328125 -1.53125 C 5.21875 -1.53125 5.21875 -1.5 5.171875 -1.34375 C 5.03125 -0.8125 4.703125 -0.109375 4.15625 -0.109375 C 3.984375 -0.109375 3.921875 -0.203125 3.921875 -0.4375 C 3.921875 -0.6875 4 -0.921875 4.09375 -1.140625 C 4.25 -1.578125 4.703125 -2.765625 4.703125 -3.34375 C 4.703125 -3.984375 4.3125 -4.40625 3.5625 -4.40625 C 2.9375 -4.40625 2.453125 -4.09375 2.078125 -3.640625 Z M 2.859375 -6.8125 " />
</g>
<g id="embed-4229783695200618797-glyph-1-0">
</g>
<g id="embed-4229783695200618797-glyph-1-1">
<path d="M 1.71875 -2.75 L 2.421875 -2.75 C 2.5625 -2.75 2.640625 -2.75 2.640625 -2.90625 C 2.640625 -3 2.5625 -3 2.4375 -3 L 1.78125 -3 L 2.03125 -4.03125 C 2.046875 -4.0625 2.0625 -4.109375 2.0625 -4.125 C 2.0625 -4.265625 1.953125 -4.359375 1.8125 -4.359375 C 1.640625 -4.359375 1.546875 -4.234375 1.484375 -4.0625 C 1.4375 -3.875 1.53125 -4.21875 1.21875 -3 L 0.515625 -3 C 0.390625 -3 0.296875 -3 0.296875 -2.84375 C 0.296875 -2.75 0.375 -2.75 0.5 -2.75 L 1.15625 -2.75 L 0.75 -1.109375 C 0.703125 -0.9375 0.640625 -0.6875 0.640625 -0.59375 C 0.640625 -0.1875 1 0.0625 1.390625 0.0625 C 2.171875 0.0625 2.609375 -0.90625 2.609375 -1 C 2.609375 -1.09375 2.515625 -1.09375 2.5 -1.09375 C 2.40625 -1.09375 2.40625 -1.078125 2.34375 -0.953125 C 2.15625 -0.515625 1.796875 -0.125 1.421875 -0.125 C 1.265625 -0.125 1.171875 -0.21875 1.171875 -0.46875 C 1.171875 -0.53125 1.203125 -0.6875 1.21875 -0.75 Z M 1.71875 -2.75 " />
</g>
</g>
</defs>
<g fill="rgb(0%, 0%, 0%)" fill-opacity="1">
<use href="#embed-4229783695200618797-glyph-0-1" x="2.835" y="9.754" />
</g>
<g fill="rgb(0%, 0%, 0%)" fill-opacity="1">
<use href="#embed-4229783695200618797-glyph-1-1" x="8.575" y="11.248" />
</g>
</g></g></g><g /></g></g></g></g><g /></g></g></g><g transform="matrix(1.0, 0.0, 0.0, 1.0, 12.649999999999999, -2.1)"><g><g><g><g style="stroke: black;stroke-width: 0.0;" transform="matrix(1.0, 0.0, 0.0, 1.0, 1.0, 0.0)"><path d="M 0.0 0.0 A 1.0 1.0 0.0 0 0 -1.0 -1.0 A 1.0 1.0 -90.0 0 0 -2.0 0.0 A 1.0 1.0 180.0 0 0 -1.0 1.0 A 1.0 1.0 90.0 0 0 0.0 0.0 Z" style="vector-effect: non-scaling-stroke;" /></g><g transform="matrix(1.0, 0.0, 0.0, 1.0, 0.0, 0.0625)"><g><g style="fill: #000000;stroke: #000000;stroke-width: 0.0;" transform="matrix(2.0, 0.0, 0.0, 2.0, 0.0, 0.0)"><g transform="scale(0.05) translate(-6.7445 -5.7265)"><g>
<defs>
<g>
<g id="embed--2464939552189528027-glyph-0-0">
</g>
<g id="embed--2464939552189528027-glyph-0-1">
<path d="M 3.953125 -3.78125 C 3.78125 -3.78125 3.65625 -3.78125 3.515625 -3.65625 C 3.34375 -3.5 3.328125 -3.328125 3.328125 -3.265625 C 3.328125 -3.015625 3.515625 -2.90625 3.703125 -2.90625 C 3.984375 -2.90625 4.25 -3.15625 4.25 -3.546875 C 4.25 -4.03125 3.78125 -4.40625 3.078125 -4.40625 C 1.734375 -4.40625 0.40625 -2.984375 0.40625 -1.578125 C 0.40625 -0.671875 0.984375 0.109375 2.03125 0.109375 C 3.453125 0.109375 4.28125 -0.953125 4.28125 -1.0625 C 4.28125 -1.125 4.234375 -1.203125 4.171875 -1.203125 C 4.109375 -1.203125 4.09375 -1.171875 4.03125 -1.09375 C 3.25 -0.109375 2.15625 -0.109375 2.046875 -0.109375 C 1.421875 -0.109375 1.140625 -0.59375 1.140625 -1.203125 C 1.140625 -1.609375 1.34375 -2.578125 1.6875 -3.1875 C 2 -3.765625 2.546875 -4.1875 3.09375 -4.1875 C 3.421875 -4.1875 3.8125 -4.0625 3.953125 -3.78125 Z M 3.953125 -3.78125 " />
</g>
<g id="embed--2464939552189528027-glyph-1-0">
</g>
<g id="embed--2464939552189528027-glyph-1-1">
<path d="M 1.71875 -2.75 L 2.421875 -2.75 C 2.5625 -2.75 2.640625 -2.75 2.640625 -2.90625 C 2.640625 -3 2.5625 -3 2.4375 -3 L 1.78125 -3 L 2.03125 -4.03125 C 2.046875 -4.0625 2.0625 -4.109375 2.0625 -4.125 C 2.0625 -4.265625 1.953125 -4.359375 1.8125 -4.359375 C 1.640625 -4.359375 1.546875 -4.234375 1.484375 -4.0625 C 1.4375 -3.875 1.53125 -4.21875 1.21875 -3 L 0.515625 -3 C 0.390625 -3 0.296875 -3 0.296875 -2.84375 C 0.296875 -2.75 0.375 -2.75 0.5 -2.75 L 1.15625 -2.75 L 0.75 -1.109375 C 0.703125 -0.9375 0.640625 -0.6875 0.640625 -0.59375 C 0.640625 -0.1875 1 0.0625 1.390625 0.0625 C 2.171875 0.0625 2.609375 -0.90625 2.609375 -1 C 2.609375 -1.09375 2.515625 -1.09375 2.5 -1.09375 C 2.40625 -1.09375 2.40625 -1.078125 2.34375 -0.953125 C 2.15625 -0.515625 1.796875 -0.125 1.421875 -0.125 C 1.265625 -0.125 1.171875 -0.21875 1.171875 -0.46875 C 1.171875 -0.53125 1.203125 -0.6875 1.21875 -0.75 Z M 1.71875 -2.75 " />
</g>
</g>
</defs>
<g fill="rgb(0%, 0%, 0%)" fill-opacity="1">
<use href="#embed--2464939552189528027-glyph-0-1" x="2.835" y="7.124" />
</g>
<g fill="rgb(0%, 0%, 0%)" fill-opacity="1">
<use href="#embed--2464939552189528027-glyph-1-1" x="7.146" y="8.618" />
</g>
</g></g></g><g /></g></g></g></g><g /></g></g></g><g transform="matrix(1.0, 0.0, 0.0, 1.0, -11.649999999999999, -2.1)"><g transform="matrix(1.0, -0.0, 0.0, 1.0, 0.0, 0.0)"><g><g style="stroke: black;stroke-width: 2.172;" transform="matrix(1.0, 0.0, 0.0, 1.0, 0.0, 0.0)"><path d="M 0.0 0.0 L 3.549999999999999 0.0" style="vector-effect: non-scaling-stroke;fill:none;" /></g><g style="stroke: black;stroke-width: 2.172;" transform="matrix(1.0, 0.0, 0.0, 1.0, 3.549999999999999, 0.0)"><g style="fill: #000000;stroke: black;stroke-width: 0.0;" transform="matrix(0.0, 0.21719999999999998, -0.21719999999999998, 0.0, -0.26064, 0.0)"><path d="M 0.0 -0.2 L 1.0 0.2 L 0.0 -1.2 L -1.0 0.19999999999999996 L 0.0 -0.2 Z" style="vector-effect: non-scaling-stroke;" /></g></g></g></g></g></g><g transform="matrix(1.0, 0.0, 0.0, 1.0, -7.1, 8.200000000000001)"><g transform="matrix(0.0, -1.0, 1.0, 0.0, 0.0, 0.0)"><g><g style="stroke: black;stroke-width: 2.172;" transform="matrix(1.0, 0.0, 0.0, 1.0, 0.0, 0.0)"><path d="M 0.0 0.0 L 5.130000000000001 0.0" style="vector-effect: non-scaling-stroke;fill:none;" /></g><g style="stroke: black;stroke-width: 2.172;" transform="matrix(1.0, 0.0, 0.0, 1.0, 5.130000000000001, 0.0)"><g style="fill: #000000;stroke: black;stroke-width: 0.0;" transform="matrix(0.0, 0.21719999999999998, -0.21719999999999998, 0.0, -0.26064, 0.0)"><path d="M 0.0 -0.2 L 1.0 0.2 L 0.0 -1.2 L -1.0 0.19999999999999996 L 0.0 -0.2 Z" style="vector-effect: non-scaling-stroke;" /></g></g></g></g></g></g><g><g style="stroke: black;stroke-width: 2.172;" transform="matrix(1.0, 0.0, 0.0, 1.0, -7.1, 8.200000000000001)"><path d="M 0.0 0.0 L 0.0 0.0 L 0.0 -2.0600000000000005 L 11.649999999999999 -2.0600000000000005" style="vector-effect: non-scaling-stroke;fill:none;" /></g><g style="fill: #000000;stroke: black;stroke-width: 0.0;" transform="matrix(0.0, 0.2, -0.2, 0.0, 4.31, 6.140000000000001)"><path d="M 0.0 -0.2 L 1.0 0.2 L 0.0 -1.2 L -1.0 0.19999999999999996 L 0.0 -0.2 Z" style="vector-effect: non-scaling-stroke;" /></g></g></g><g transform="matrix(1.0, 0.0, 0.0, 1.0, 7.1, -3.1)"><g transform="matrix(0.0, -1.0, 1.0, 0.0, 0.0, 0.0)"><g><g style="stroke: black;stroke-width: 2.172;" transform="matrix(1.0, 0.0, 0.0, 1.0, 0.0, 0.0)"><path d="M 0.0 0.0 L 2.06 0.0" style="vector-effect: non-scaling-stroke;fill:none;" /></g><g style="stroke: black;stroke-width: 2.172;" transform="matrix(1.0, 0.0, 0.0, 1.0, 2.06, 0.0)"><g style="fill: #000000;stroke: black;stroke-width: 0.0;" transform="matrix(0.0, 0.21719999999999998, -0.21719999999999998, 0.0, -0.26064, 0.0)"><path d="M 0.0 -0.2 L 1.0 0.2 L 0.0 -1.2 L -1.0 0.19999999999999996 L 0.0 -0.2 Z" style="vector-effect: non-scaling-stroke;" /></g></g></g></g></g></g><g transform="matrix(1.0, 0.0, 0.0, 1.0, 8.1, -2.1)"><g transform="matrix(1.0, -0.0, 0.0, 1.0, 0.0, 0.0)"><g><g style="stroke: black;stroke-width: 2.172;" transform="matrix(1.0, 0.0, 0.0, 1.0, 0.0, 0.0)"><path d="M 0.0 0.0 L 3.549999999999999 0.0" style="vector-effect: non-scaling-stroke;fill:none;" /></g><g style="stroke: black;stroke-width: 2.172;" transform="matrix(1.0, 0.0, 0.0, 1.0, 3.549999999999999, 0.0)"><g style="fill: #000000;stroke: black;stroke-width: 0.0;" transform="matrix(0.0, 0.21719999999999998, -0.21719999999999998, 0.0, -0.26064, 0.0)"><path d="M 0.0 -0.2 L 1.0 0.2 L 0.0 -1.2 L -1.0 0.19999999999999996 L 0.0 -0.2 Z" style="vector-effect: non-scaling-stroke;" /></g></g></g></g></g></g><g transform="matrix(1.0, 0.0, 0.0, 1.0, 7.1, -7.16)"><g transform="matrix(0.0, -1.0, 1.0, 0.0, 0.0, 0.0)"><g><g style="stroke: black;stroke-width: 2.172;" transform="matrix(1.0, 0.0, 0.0, 1.0, 0.0, 0.0)"><path d="M 0.0 0.0 L 2.0 0.0" style="vector-effect: non-scaling-stroke;fill:none;" /></g><g style="stroke: black;stroke-width: 2.172;" transform="matrix(1.0, 0.0, 0.0, 1.0, 2.0, 0.0)"><g style="fill: #000000;stroke: black;stroke-width: 0.0;" transform="matrix(0.0, 0.21719999999999998, -0.21719999999999998, 0.0, -0.26064, 0.0)"><path d="M 0.0 -0.2 L 1.0 0.2 L 0.0 -1.2 L -1.0 0.19999999999999996 L 0.0 -0.2 Z" style="vector-effect: non-scaling-stroke;" /></g></g></g></g></g></g></g><g /></g></g></g></g></svg>