<?xml version="1.0" encoding="utf-8" ?>
<svg baseProfile="full" height="512" version="1.1" width="421" xmlns="http://www.w3.org/2000/svg" xmlns:ev="http://www.w3.org/2001/xml-events" xmlns:xlink="http://www.w3.org/1999/xlink"><defs><marker id="arrow" markerHeight="3.5" markerWidth="5" orient="auto" refX="5.0" refY="1.7"><polygon points="0,0 5,1.75 0,3.5" /></marker></defs><g style="fill:white;"><g transform="matrix(1.0, 0.0, 0.0, 1.0, 210.5, 255.75698075974344)"><g transform="matrix(1.9780581201400145, 0.0, 0.0, 1.9780581201400145, 0.0, 0.0)"><g><g transform="matrix(1.0, 0.0, 0.0, 1.0, -0.0, -0.0)"><g><g transform="matrix(1.0, 0.0, 0.0, 1.0, 7.105427357601002e-15, -52.39999999999997)"><g transform="matrix(1.0, 0.0, 0.0, 1.0, 101.35, -5.0)"><g><g><g transform="matrix(1.0, 0.0, 0.0, 1.0, -10.0, -0.0)"><g><g style="fill: #000000;stroke: black;stroke-width: 0.0;" transform="matrix(1.0, 0.0, 0.0, 1.0, -5e-05, -5e-05)"><text style="text-align:center; text-anchor:middle; dominant-baseline:middle;&#10;                      font-family:sans-serif; font-weight: bold;&#10;                      font-size:6px;&#10;                      vector-effect: non-scaling-stroke;" transform="translate(-5e-05, 0)">PyTorch</text></g><g /></g></g><g style="stroke: black;stroke-width: 1.536;stroke-dasharray: 2 2;" transform="matrix(1.0, 0.0, 0.0, 1.0, -202.7, 5.0)"><path d="M 0.0 0.0 L 202.7 0.0" style="vector-effect: non-scaling-stroke;fill:none;" /></g></g><g transform="matrix(1.0, 0.0, 0.0, 1.0, 0.0, 10.0)"><g transform="matrix(1.0, 0.0, 0.0, 1.0, -30.0, -0.0)"><g transform="matrix(1.0, 0.0, 0.0, 1.0, -0.0, -0.0)"><g><g style="fill: #000000;stroke: black;stroke-width: 0.0;" transform="matrix(1.0, 0.0, 0.0, 1.0, 0.0, 0.0)"><text style="text-align:center; text-anchor:middle; dominant-baseline:middle;&#10;                      font-family:sans-serif; font-weight: bold;&#10;                      font-size:6px;&#10;                      vector-effect: non-scaling-stroke;" transform="translate(-5e-05, 0)">Torch MLIR Frontend</text></g><g /></g></g></g></g></g></g></g><g transform="matrix(1.0, 0.0, 0.0, 1.0, -0.0, 7.105427357601002e-15)"><g><g transform="matrix(1.0, 0.0, 0.0, 1.0, 0.0, 5.0)"><g transform="matrix(1.0, 0.0, 0.0, 1.0, 7.105427357601002e-15, 74.42999999999999)"><g transform="matrix(1.0, 0.0, 0.0, 1.0, 101.35, -5.0)"><g><g style="stroke: black;stroke-width: 1.536;stroke-dasharray: 2 2;" transform="matrix(1.0, 0.0, 0.0, 1.0, -202.7, 0.0)"><path d="M 0.0 0.0 L 202.7 0.0" style="vector-effect: non-scaling-stroke;fill:none;" /></g><g transform="matrix(1.0, 0.0, 0.0, 1.0, 0.0, 5.0)"><g transform="matrix(1.0, 0.0, 0.0, 1.0, -30.0, -0.0)"><g><g style="fill: #000000;stroke: black;stroke-width: 0.0;" transform="matrix(1.0, 0.0, 0.0, 1.0, 0.0, 0.0)"><text style="text-align:center; text-anchor:middle; dominant-baseline:middle;&#10;                      font-family:sans-serif; font-weight: bold;&#10;                      font-size:6px;&#10;                      vector-effect: non-scaling-stroke;" transform="translate(-5e-05, 0)">Torch MLIR Backend</text></g><g /></g></g></g></g></g></g></g><g transform="matrix(1.0, 0.0, 0.0, 1.0, 7.105427357601002e-15, -113.59999999999998)"><g><g><g><g><g><g><g><g><g><g><g><g><g><g><g><g><g><g><g><g transform="matrix(1.0, 0.0, 0.0, 1.0, -0.0, -0.08999999999999897)"><g><g><g style="fill: #ffffff;stroke: #000000;stroke-width: 0.768;" transform="matrix(1.0, 0.0, 0.0, 1.0, -30.45, -8.55)"><path d="M 0.0 0.0 L 0.0 17.1 A 0.9 0.9 135.00000000000003 0 0 0.9 18.0 L 60.0 18.0 A 0.9 0.9 45.00000000000002 0 0 60.9 17.1 L 60.9 0.0 A 0.9 0.9 -44.999999999999986 0 0 60.0 -0.9000000000000001 L 0.8999999999999986 -0.9000000000000001 A 0.9 0.9 -135.0 0 0 -1.5543122344752192e-15 -1.1102230246251565e-16 L -1.5543122344752192e-15 0.00999999999999989 Z" style="vector-effect: non-scaling-stroke;" /></g><g transform="matrix(1.0, 0.0, 0.0, 1.0, 0.0, 1.125)"><g><g style="fill: #000000;stroke: #000000;stroke-width: 0.0;" transform="matrix(1.0, 0.0, 0.0, 1.0, 0.0, 0.0)"><text style="text-align:center; text-anchor:middle; dominant-baseline:middle;&#10;                      font-family:sans-serif; font-weight: bold;&#10;                      font-size:6.0px;&#10;                      vector-effect: non-scaling-stroke;" transform="translate(-5e-05, 0)">Python Program</text></g><g /></g></g></g></g></g><g style="stroke: black;stroke-width: 1.536;" transform="matrix(0.0, -1.0, 1.0, 0.0, 0.0, 19.54)"><g /></g></g><g transform="matrix(1.0, 0.0, 0.0, 1.0, 0.0, 39.08)"><g transform="matrix(1.0, 0.0, 0.0, 1.0, -35.45, -0.08999999999999897)"><g><g><g><g><g style="fill: #ffffff;stroke: #000000;stroke-width: 0.768;" transform="matrix(1.0, 0.0, 0.0, 1.0, -30.45, -8.55)"><path d="M 0.0 0.0 L 0.0 17.1 A 0.9 0.9 135.00000000000003 0 0 0.9 18.0 L 60.0 18.0 A 0.9 0.9 45.00000000000002 0 0 60.9 17.1 L 60.9 0.0 A 0.9 0.9 -44.999999999999986 0 0 60.0 -0.9000000000000001 L 0.8999999999999986 -0.9000000000000001 A 0.9 0.9 -135.0 0 0 -1.5543122344752192e-15 -1.1102230246251565e-16 L -1.5543122344752192e-15 0.00999999999999989 Z" style="vector-effect: non-scaling-stroke;" /></g><g transform="matrix(1.0, 0.0, 0.0, 1.0, 0.0, 1.125)"><g><g style="fill: #000000;stroke: #000000;stroke-width: 0.0;" transform="matrix(1.0, 0.0, 0.0, 1.0, 0.0, 0.0)"><text style="text-align:center; text-anchor:middle; dominant-baseline:middle;&#10;                      font-family:sans-serif; font-weight: bold;&#10;                      font-size:6.0px;&#10;                      vector-effect: non-scaling-stroke;" transform="translate(-5e-05, 0)">TorchScript</text></g><g /></g></g></g></g><g style="stroke: black;stroke-width: 1.536;" transform="matrix(1.0, 0.0, 0.0, 1.0, 35.45, 0.0)"><g /></g></g><g transform="matrix(1.0, 0.0, 0.0, 1.0, 70.9, 0.0)"><g><g><g style="fill: #ffffff;stroke: #000000;stroke-width: 0.768;" transform="matrix(1.0, 0.0, 0.0, 1.0, -30.45, -8.55)"><path d="M 0.0 0.0 L 0.0 17.1 A 0.9 0.9 135.00000000000003 0 0 0.9 18.0 L 60.0 18.0 A 0.9 0.9 45.00000000000002 0 0 60.9 17.1 L 60.9 0.0 A 0.9 0.9 -44.999999999999986 0 0 60.0 -0.9000000000000001 L 0.8999999999999986 -0.9000000000000001 A 0.9 0.9 -135.0 0 0 -1.5543122344752192e-15 -1.1102230246251565e-16 L -1.5543122344752192e-15 0.00999999999999989 Z" style="vector-effect: non-scaling-stroke;" /></g><g transform="matrix(1.0, 0.0, 0.0, 1.0, 0.0, 1.125)"><g><g style="fill: #000000;stroke: #000000;stroke-width: 0.0;" transform="matrix(1.0, 0.0, 0.0, 1.0, 0.0, 0.0)"><text style="text-align:center; text-anchor:middle; dominant-baseline:middle;&#10;                      font-family:sans-serif; font-weight: bold;&#10;                      font-size:6.0px;&#10;                      vector-effect: non-scaling-stroke;" transform="translate(-5e-05, 0)">LazyTensorCore</text></g><g /></g></g></g></g></g></g></g></g></g><g style="stroke: black;stroke-width: 1.536;" transform="matrix(0.0, -1.0, 1.0, 0.0, 0.0, 58.620000000000005)"><g /></g></g><g transform="matrix(1.0, 0.0, 0.0, 1.0, 0.0, 94.06)"><g transform="matrix(1.0, 0.0, 0.0, 1.0, -35.45, -0.0)"><g><g><g><g><g style="stroke: black;stroke-width: 1.536;" transform="matrix(1.0, 0.0, 0.0, 1.0, -30.25, -21.2)"><path d="M 0.0 0.0 L 60.5 0.0 L 60.5 42.4 L 0.0 42.4 L 0.0 0.0 Z" style="vector-effect: non-scaling-stroke;" /></g><g /></g><g><g transform="matrix(1.0, 0.0, 0.0, 1.0, -0.0, -15.95)"><g><g><g><g><g><g><g><g style="stroke: black;stroke-width: 0.0;" transform="matrix(1.0, 0.0, 0.0, 1.0, -30.25, -4.75)"><path d="M 0.0 0.0 L 0.0 9.5 A 0.5000000000000001 0.5000000000000001 135.00000000000003 0 0 0.5 10.0 L 60.0 10.0 A 0.5000000000000001 0.5000000000000001 45.000000000000014 0 0 60.5 9.5 L 60.5 0.0 A 0.5000000000000001 0.5000000000000001 -44.999999999999986 0 0 60.0 -0.5000000000000002 L 0.5 -0.5000000000000002 A 0.5000000000000001 0.5000000000000001 -135.0 0 0 -2.220446049250313e-16 -2.220446049250313e-16 L -2.220446049250313e-16 0.009999999999999778 Z" style="vector-effect: non-scaling-stroke;" /></g><g transform="matrix(1.0, 0.0, 0.0, 1.0, 0.0, 0.625)"><g><g style="fill: #000000;stroke: #000000;stroke-width: 0.0;" transform="matrix(1.0, 0.0, 0.0, 1.0, 0.0, 0.0)"><text style="text-align:center; text-anchor:middle; dominant-baseline:middle;&#10;                      font-family:sans-serif; font-weight: bold;&#10;                      font-size:5.0px;&#10;                      vector-effect: non-scaling-stroke;" transform="translate(-5e-05, 0)">Functionalize</text></g><g /></g></g></g><g transform="matrix(1.0, 0.0, 0.0, 1.0, 0.0, 5.35)"><g transform="matrix(0.0, -1.0, 1.0, 0.0, 0.0, 0.0)"><g /></g></g></g><g transform="matrix(1.0, 0.0, 0.0, 1.0, 0.0, 10.6)"><g><g style="stroke: black;stroke-width: 0.0;" transform="matrix(1.0, 0.0, 0.0, 1.0, -30.25, -4.75)"><path d="M 0.0 0.0 L 0.0 9.5 A 0.5000000000000001 0.5000000000000001 135.00000000000003 0 0 0.5 10.0 L 60.0 10.0 A 0.5000000000000001 0.5000000000000001 45.000000000000014 0 0 60.5 9.5 L 60.5 0.0 A 0.5000000000000001 0.5000000000000001 -44.999999999999986 0 0 60.0 -0.5000000000000002 L 0.5 -0.5000000000000002 A 0.5000000000000001 0.5000000000000001 -135.0 0 0 -2.220446049250313e-16 -2.220446049250313e-16 L -2.220446049250313e-16 0.009999999999999778 Z" style="vector-effect: non-scaling-stroke;" /></g><g transform="matrix(1.0, 0.0, 0.0, 1.0, 0.0, 0.625)"><g><g style="fill: #000000;stroke: #000000;stroke-width: 0.0;" transform="matrix(1.0, 0.0, 0.0, 1.0, 0.0, 0.0)"><text style="text-align:center; text-anchor:middle; dominant-baseline:middle;&#10;                      font-family:sans-serif; font-weight: bold;&#10;                      font-size:5.0px;&#10;                      vector-effect: non-scaling-stroke;" transform="translate(-5e-05, 0)">Shape inference</text></g><g /></g></g></g></g></g><g transform="matrix(1.0, 0.0, 0.0, 1.0, 0.0, 15.95)"><g transform="matrix(0.0, -1.0, 1.0, 0.0, 0.0, 0.0)"><g /></g></g></g><g transform="matrix(1.0, 0.0, 0.0, 1.0, 0.0, 21.2)"><g><g style="stroke: black;stroke-width: 0.0;" transform="matrix(1.0, 0.0, 0.0, 1.0, -30.25, -4.75)"><path d="M 0.0 0.0 L 0.0 9.5 A 0.5000000000000001 0.5000000000000001 135.00000000000003 0 0 0.5 10.0 L 60.0 10.0 A 0.5000000000000001 0.5000000000000001 45.000000000000014 0 0 60.5 9.5 L 60.5 0.0 A 0.5000000000000001 0.5000000000000001 -44.999999999999986 0 0 60.0 -0.5000000000000002 L 0.5 -0.5000000000000002 A 0.5000000000000001 0.5000000000000001 -135.0 0 0 -2.220446049250313e-16 -2.220446049250313e-16 L -2.220446049250313e-16 0.009999999999999778 Z" style="vector-effect: non-scaling-stroke;" /></g><g transform="matrix(1.0, 0.0, 0.0, 1.0, 0.0, 0.625)"><g><g style="fill: #000000;stroke: #000000;stroke-width: 0.0;" transform="matrix(1.0, 0.0, 0.0, 1.0, 0.0, 0.0)"><text style="text-align:center; text-anchor:middle; dominant-baseline:middle;&#10;                      font-family:sans-serif; font-weight: bold;&#10;                      font-size:5.0px;&#10;                      vector-effect: non-scaling-stroke;" transform="translate(-5e-05, 0)">dtype inference</text></g><g /></g></g></g></g></g><g transform="matrix(1.0, 0.0, 0.0, 1.0, 0.0, 26.549999999999997)"><g transform="matrix(0.0, -1.0, 1.0, 0.0, 0.0, 0.0)"><g /></g></g></g><g transform="matrix(1.0, 0.0, 0.0, 1.0, 0.0, 31.799999999999997)"><g><g style="stroke: black;stroke-width: 0.0;" transform="matrix(1.0, 0.0, 0.0, 1.0, -30.25, -4.75)"><path d="M 0.0 0.0 L 0.0 9.5 A 0.5000000000000001 0.5000000000000001 135.00000000000003 0 0 0.5 10.0 L 60.0 10.0 A 0.5000000000000001 0.5000000000000001 45.000000000000014 0 0 60.5 9.5 L 60.5 0.0 A 0.5000000000000001 0.5000000000000001 -44.999999999999986 0 0 60.0 -0.5000000000000002 L 0.5 -0.5000000000000002 A 0.5000000000000001 0.5000000000000001 -135.0 0 0 -2.220446049250313e-16 -2.220446049250313e-16 L -2.220446049250313e-16 0.009999999999999778 Z" style="vector-effect: non-scaling-stroke;" /></g><g transform="matrix(1.0, 0.0, 0.0, 1.0, 0.0, 0.625)"><g><g style="fill: #000000;stroke: #000000;stroke-width: 0.0;" transform="matrix(1.0, 0.0, 0.0, 1.0, 0.0, 0.0)"><text style="text-align:center; text-anchor:middle; dominant-baseline:middle;&#10;                      font-family:sans-serif; font-weight: bold;&#10;                      font-size:5.0px;&#10;                      vector-effect: non-scaling-stroke;" transform="translate(-5e-05, 0)">simplify python</text></g><g /></g></g></g></g></g></g></g></g><g style="stroke: black;stroke-width: 1.536;" transform="matrix(1.0, 0.0, 0.0, 1.0, 41.3, 0.0)"><g /></g></g><g transform="matrix(1.0, 0.0, 0.0, 1.0, 76.75, 0.0)"><g><g style="stroke: black;stroke-width: 0.0;fill-opacity: 0;" transform="matrix(1.0, 0.0, 0.0, 1.0, -30.45, -8.55)"><path d="M 0.0 0.0 L 0.0 17.1 A 0.9 0.9 135.00000000000003 0 0 0.9 18.0 L 60.0 18.0 A 0.9 0.9 45.00000000000002 0 0 60.9 17.1 L 60.9 0.0 A 0.9 0.9 -44.999999999999986 0 0 60.0 -0.9000000000000001 L 0.8999999999999986 -0.9000000000000001 A 0.9 0.9 -135.0 0 0 -1.5543122344752192e-15 -1.1102230246251565e-16 L -1.5543122344752192e-15 0.00999999999999989 Z" style="vector-effect: non-scaling-stroke;" /></g><g transform="matrix(1.0, 0.0, 0.0, 1.0, 0.0, 1.125)"><g><g style="fill: #000000;stroke: #000000;stroke-width: 0.0;fill-opacity: 0;" transform="matrix(1.0, 0.0, 0.0, 1.0, 0.0, 0.0)"><text style="text-align:center; text-anchor:middle; dominant-baseline:middle;&#10;                      font-family:sans-serif; font-weight: bold;&#10;                      font-size:6.0px;&#10;                      vector-effect: non-scaling-stroke;" transform="translate(-5e-05, 0)" /></g><g /></g></g></g></g></g></g></g></g><g style="stroke: black;stroke-width: 1.536;" transform="matrix(0.0, -1.0, 1.0, 0.0, 0.0, 129.5)"><g /></g></g><g transform="matrix(1.0, 0.0, 0.0, 1.0, 0.0, 148.95)"><g><g><g style="fill: #ffffff;stroke: #000000;stroke-width: 0.768;" transform="matrix(1.0, 0.0, 0.0, 1.0, -30.45, -8.55)"><path d="M 0.0 0.0 L 0.0 17.1 A 0.9 0.9 135.00000000000003 0 0 0.9 18.0 L 60.0 18.0 A 0.9 0.9 45.00000000000002 0 0 60.9 17.1 L 60.9 0.0 A 0.9 0.9 -44.999999999999986 0 0 60.0 -0.9000000000000001 L 0.8999999999999986 -0.9000000000000001 A 0.9 0.9 -135.0 0 0 -1.5543122344752192e-15 -1.1102230246251565e-16 L -1.5543122344752192e-15 0.00999999999999989 Z" style="vector-effect: non-scaling-stroke;" /></g><g transform="matrix(1.0, 0.0, 0.0, 1.0, 0.0, 1.125)"><g><g style="fill: #000000;stroke: #000000;stroke-width: 0.0;" transform="matrix(1.0, 0.0, 0.0, 1.0, 0.0, 0.0)"><text style="text-align:center; text-anchor:middle; dominant-baseline:middle;&#10;                      font-family:sans-serif; font-weight: bold;&#10;                      font-size:6.0px;&#10;                      vector-effect: non-scaling-stroke;" transform="translate(-5e-05, 0)">Decompositions</text></g><g /></g></g></g></g></g></g><g style="stroke: black;stroke-width: 1.536;" transform="matrix(0.0, -1.0, 1.0, 0.0, 0.0, 168.57999999999998)"><g /></g></g><g transform="matrix(1.0, 0.0, 0.0, 1.0, 0.0, 188.02999999999997)"><g><g><g style="fill: #e1f7d0;stroke: #000000;stroke-width: 0.768;" transform="matrix(1.0, 0.0, 0.0, 1.0, -30.45, -8.55)"><path d="M 0.0 0.0 L 0.0 17.1 A 0.9 0.9 135.00000000000003 0 0 0.9 18.0 L 60.0 18.0 A 0.9 0.9 45.00000000000002 0 0 60.9 17.1 L 60.9 0.0 A 0.9 0.9 -44.999999999999986 0 0 60.0 -0.9000000000000001 L 0.8999999999999986 -0.9000000000000001 A 0.9 0.9 -135.0 0 0 -1.5543122344752192e-15 -1.1102230246251565e-16 L -1.5543122344752192e-15 0.00999999999999989 Z" style="vector-effect: non-scaling-stroke;" /></g><g transform="matrix(1.0, 0.0, 0.0, 1.0, 0.0, 1.125)"><g><g style="fill: #000000;stroke: #000000;stroke-width: 0.0;" transform="matrix(1.0, 0.0, 0.0, 1.0, 0.0, 0.0)"><text style="text-align:center; text-anchor:middle; dominant-baseline:middle;&#10;                      font-family:sans-serif; font-weight: bold;&#10;                      font-size:6.0px;&#10;                      vector-effect: non-scaling-stroke;" transform="translate(-5e-05, 0)">Backend</text></g><g /></g></g></g></g></g></g><g style="stroke: black;stroke-width: 1.536;" transform="matrix(0.0, -1.0, 1.0, 0.0, 0.0, 207.65999999999997)"><g /></g></g><g transform="matrix(1.0, 0.0, 0.0, 1.0, 0.0, 227.19999999999996)"><g transform="matrix(1.0, 0.0, 0.0, 1.0, -70.9, -0.08999999999999897)"><g><g><g><g><g><g><g style="fill: #ffffff;stroke: #000000;stroke-width: 0.768;" transform="matrix(1.0, 0.0, 0.0, 1.0, -30.45, -8.55)"><path d="M 0.0 0.0 L 0.0 17.1 A 0.9 0.9 135.00000000000003 0 0 0.9 18.0 L 60.0 18.0 A 0.9 0.9 45.00000000000002 0 0 60.9 17.1 L 60.9 0.0 A 0.9 0.9 -44.999999999999986 0 0 60.0 -0.9000000000000001 L 0.8999999999999986 -0.9000000000000001 A 0.9 0.9 -135.0 0 0 -1.5543122344752192e-15 -1.1102230246251565e-16 L -1.5543122344752192e-15 0.00999999999999989 Z" style="vector-effect: non-scaling-stroke;" /></g><g transform="matrix(1.0, 0.0, 0.0, 1.0, 0.0, 1.125)"><g><g style="fill: #000000;stroke: #000000;stroke-width: 0.0;" transform="matrix(1.0, 0.0, 0.0, 1.0, 0.0, 0.0)"><text style="text-align:center; text-anchor:middle; dominant-baseline:middle;&#10;                      font-family:sans-serif; font-weight: bold;&#10;                      font-size:6.0px;&#10;                      vector-effect: non-scaling-stroke;" transform="translate(-5e-05, 0)">LinAlg</text></g><g /></g></g></g></g><g style="stroke: black;stroke-width: 1.536;" transform="matrix(1.0, 0.0, 0.0, 1.0, 35.45, 0.0)"><g /></g></g><g transform="matrix(1.0, 0.0, 0.0, 1.0, 70.9, 0.0)"><g><g><g style="fill: #ffffff;stroke: #000000;stroke-width: 0.768;" transform="matrix(1.0, 0.0, 0.0, 1.0, -30.45, -8.55)"><path d="M 0.0 0.0 L 0.0 17.1 A 0.9 0.9 135.00000000000003 0 0 0.9 18.0 L 60.0 18.0 A 0.9 0.9 45.00000000000002 0 0 60.9 17.1 L 60.9 0.0 A 0.9 0.9 -44.999999999999986 0 0 60.0 -0.9000000000000001 L 0.8999999999999986 -0.9000000000000001 A 0.9 0.9 -135.0 0 0 -1.5543122344752192e-15 -1.1102230246251565e-16 L -1.5543122344752192e-15 0.00999999999999989 Z" style="vector-effect: non-scaling-stroke;" /></g><g transform="matrix(1.0, 0.0, 0.0, 1.0, 0.0, 1.125)"><g><g style="fill: #000000;stroke: #000000;stroke-width: 0.0;" transform="matrix(1.0, 0.0, 0.0, 1.0, 0.0, 0.0)"><text style="text-align:center; text-anchor:middle; dominant-baseline:middle;&#10;                      font-family:sans-serif; font-weight: bold;&#10;                      font-size:6.0px;&#10;                      vector-effect: non-scaling-stroke;" transform="translate(-5e-05, 0)">TOSA</text></g><g /></g></g></g></g></g></g><g style="stroke: black;stroke-width: 1.536;" transform="matrix(1.0, 0.0, 0.0, 1.0, 106.35000000000001, 0.0)"><g /></g></g><g transform="matrix(1.0, 0.0, 0.0, 1.0, 141.8, 0.0)"><g><g><g style="fill: #ffffff;stroke: #000000;stroke-width: 0.768;" transform="matrix(1.0, 0.0, 0.0, 1.0, -30.45, -8.55)"><path d="M 0.0 0.0 L 0.0 17.1 A 0.9 0.9 135.00000000000003 0 0 0.9 18.0 L 60.0 18.0 A 0.9 0.9 45.00000000000002 0 0 60.9 17.1 L 60.9 0.0 A 0.9 0.9 -44.999999999999986 0 0 60.0 -0.9000000000000001 L 0.8999999999999986 -0.9000000000000001 A 0.9 0.9 -135.0 0 0 -1.5543122344752192e-15 -1.1102230246251565e-16 L -1.5543122344752192e-15 0.00999999999999989 Z" style="vector-effect: non-scaling-stroke;" /></g><g transform="matrix(1.0, 0.0, 0.0, 1.0, 0.0, 1.125)"><g><g style="fill: #000000;stroke: #000000;stroke-width: 0.0;" transform="matrix(1.0, 0.0, 0.0, 1.0, 0.0, 0.0)"><text style="text-align:center; text-anchor:middle; dominant-baseline:middle;&#10;                      font-family:sans-serif; font-weight: bold;&#10;                      font-size:6.0px;&#10;                      vector-effect: non-scaling-stroke;" transform="translate(-5e-05, 0)">MHLO</text></g><g /></g></g></g></g></g></g></g></g></g><g transform="matrix(1.0, 0.0, 0.0, 1.0, -8.572223643807574, 9.36)"><g transform="matrix(-0.6718705572035231, 0.7406685860511619, -0.7406685860511619, -0.6718705572035231, 0.0, 0.0)"><g><g style="stroke: #000000;stroke-width: 1.536;" transform="matrix(1.0, 0.0, 0.0, 1.0, 4.0, 0.0)"><path d="M 0.0 0.0 L 19.24565396730092 0.0" style="vector-effect: non-scaling-stroke;fill:none;" /></g><g style="fill: #000000;stroke: black;stroke-width: 0.0;" transform="matrix(0.0, 2.0, -2.0, 0.0, 20.845653967300922, 0.0)"><path d="M 0.0 -0.2 L 1.0 0.2 L 0.0 -1.2 L -1.0 0.19999999999999996 L 0.0 -0.2 Z" style="vector-effect: non-scaling-stroke;" /></g></g></g></g></g><g transform="matrix(1.0, 0.0, 0.0, 1.0, 8.572223643807574, 9.36)"><g transform="matrix(0.6718705572035228, 0.7406685860511621, -0.7406685860511621, 0.6718705572035228, 0.0, 0.0)"><g><g style="stroke: #000000;stroke-width: 1.536;" transform="matrix(1.0, 0.0, 0.0, 1.0, 4.0, 0.0)"><path d="M 0.0 0.0 L 19.24565396730092 0.0" style="vector-effect: non-scaling-stroke;fill:none;" /></g><g style="fill: #000000;stroke: black;stroke-width: 0.0;" transform="matrix(0.0, 2.0, -2.0, 0.0, 20.845653967300922, 0.0)"><path d="M 0.0 -0.2 L 1.0 0.2 L 0.0 -1.2 L -1.0 0.19999999999999996 L 0.0 -0.2 Z" style="vector-effect: non-scaling-stroke;" /></g></g></g></g></g><g transform="matrix(1.0, 0.0, 0.0, 1.0, -35.45, 48.44)"><g transform="matrix(0, 1.0, -1.0, 0, 0.0, 0.0)"><g><g style="stroke: #000000;stroke-width: 1.536;" transform="matrix(1.0, 0.0, 0.0, 1.0, 4.0, 0.0)"><path d="M 0.0 0.0 L 16.42 0.0" style="vector-effect: non-scaling-stroke;fill:none;" /></g><g style="fill: #000000;stroke: black;stroke-width: 0.0;" transform="matrix(0.0, 2.0, -2.0, 0.0, 18.020000000000003, 0.0)"><path d="M 0.0 -0.2 L 1.0 0.2 L 0.0 -1.2 L -1.0 0.19999999999999996 L 0.0 -0.2 Z" style="vector-effect: non-scaling-stroke;" /></g></g></g></g></g><g transform="matrix(1.0, 0.0, 0.0, 1.0, -21.82283658225542, 115.16)"><g transform="matrix(0.5425276813763019, 0.840037924703673, -0.840037924703673, 0.5425276813763019, 0.0, 0.0)"><g><g style="stroke: #000000;stroke-width: 1.536;" transform="matrix(1.0, 0.0, 0.0, 1.0, 4.0, 0.0)"><path d="M 0.0 0.0 L 20.97488230496979 0.0" style="vector-effect: non-scaling-stroke;fill:none;" /></g><g style="fill: #000000;stroke: black;stroke-width: 0.0;" transform="matrix(0.0, 2.0, -2.0, 0.0, 22.57488230496979, 0.0)"><path d="M 0.0 -0.2 L 1.0 0.2 L 0.0 -1.2 L -1.0 0.19999999999999996 L 0.0 -0.2 Z" style="vector-effect: non-scaling-stroke;" /></g></g></g></g></g><g transform="matrix(1.0, 0.0, 0.0, 1.0, 32.40341487813751, 48.44)"><g transform="matrix(-0.3068383937719564, 0.9517616298776946, -0.9517616298776946, -0.3068383937719564, 0.0, 0.0)"><g><g style="stroke: #000000;stroke-width: 1.536;" transform="matrix(1.0, 0.0, 0.0, 1.0, 4.0, 0.0)"><path d="M 0.0 0.0 L 87.67521650531508 0.0" style="vector-effect: non-scaling-stroke;fill:none;" /></g><g style="fill: #000000;stroke: black;stroke-width: 0.0;" transform="matrix(0.0, 2.0, -2.0, 0.0, 89.27521650531507, 0.0)"><path d="M 0.0 -0.2 L 1.0 0.2 L 0.0 -1.2 L -1.0 0.19999999999999996 L 0.0 -0.2 Z" style="vector-effect: non-scaling-stroke;" /></g></g></g></g></g><g transform="matrix(1.0, 0.0, 0.0, 1.0, 0.0, 158.39999999999998)"><g transform="matrix(0, 1.0, -1.0, 0, 0.0, 0.0)"><g><g style="stroke: #000000;stroke-width: 1.536;" transform="matrix(1.0, 0.0, 0.0, 1.0, 4.0, 0.0)"><path d="M 0.0 0.0 L 12.180000000000007 0.0" style="vector-effect: non-scaling-stroke;fill:none;" /></g><g style="fill: #000000;stroke: black;stroke-width: 0.0;" transform="matrix(0.0, 2.0, -2.0, 0.0, 13.780000000000006, 0.0)"><path d="M 0.0 -0.2 L 1.0 0.2 L 0.0 -1.2 L -1.0 0.19999999999999996 L 0.0 -0.2 Z" style="vector-effect: non-scaling-stroke;" /></g></g></g></g></g><g transform="matrix(1.0, 0.0, 0.0, 1.0, -17.144447287615158, 197.47999999999996)"><g transform="matrix(-0.875772185757228, 0.4827246406120236, -0.4827246406120236, -0.875772185757228, 0.0, 0.0)"><g><g style="stroke: #000000;stroke-width: 1.536;" transform="matrix(1.0, 0.0, 0.0, 1.0, 4.0, 0.0)"><path d="M 0.0 0.0 L 33.80437106838949 0.0" style="vector-effect: non-scaling-stroke;fill:none;" /></g><g style="fill: #000000;stroke: black;stroke-width: 0.0;" transform="matrix(0.0, 2.0, -2.0, 0.0, 35.404371068389494, 0.0)"><path d="M 0.0 -0.2 L 1.0 0.2 L 0.0 -1.2 L -1.0 0.19999999999999996 L 0.0 -0.2 Z" style="vector-effect: non-scaling-stroke;" /></g></g></g></g></g><g transform="matrix(1.0, 0.0, 0.0, 1.0, 0.0, 197.47999999999996)"><g transform="matrix(0, 1.0, -1.0, 0, 0.0, 0.0)"><g><g style="stroke: #000000;stroke-width: 1.536;" transform="matrix(1.0, 0.0, 0.0, 1.0, 4.0, 0.0)"><path d="M 0.0 0.0 L 12.180000000000007 0.0" style="vector-effect: non-scaling-stroke;fill:none;" /></g><g style="fill: #000000;stroke: black;stroke-width: 0.0;" transform="matrix(0.0, 2.0, -2.0, 0.0, 13.780000000000006, 0.0)"><path d="M 0.0 -0.2 L 1.0 0.2 L 0.0 -1.2 L -1.0 0.19999999999999996 L 0.0 -0.2 Z" style="vector-effect: non-scaling-stroke;" /></g></g></g></g></g><g transform="matrix(1.0, 0.0, 0.0, 1.0, 17.144447287615158, 197.47999999999996)"><g transform="matrix(0.8757721857572278, 0.4827246406120239, -0.4827246406120239, 0.8757721857572278, 0.0, 0.0)"><g><g style="stroke: #000000;stroke-width: 1.536;" transform="matrix(1.0, 0.0, 0.0, 1.0, 4.0, 0.0)"><path d="M 0.0 0.0 L 33.80437106838949 0.0" style="vector-effect: non-scaling-stroke;fill:none;" /></g><g style="fill: #000000;stroke: black;stroke-width: 0.0;" transform="matrix(0.0, 2.0, -2.0, 0.0, 35.404371068389494, 0.0)"><path d="M 0.0 -0.2 L 1.0 0.2 L 0.0 -1.2 L -1.0 0.19999999999999996 L 0.0 -0.2 Z" style="vector-effect: non-scaling-stroke;" /></g></g></g></g></g></g></g></g></g></g><g /></g></g></g></g></svg>